<svg xmlns="http://www.w3.org/2000/svg" xmlns:xlink="http://www.w3.org/1999/xlink" width="124.011" height="125.273" viewBox="0 0 124.011 125.273">
  <defs>
    <filter id="Elipse_11501" x="0" y="0" width="124.011" height="125.273" filterUnits="userSpaceOnUse">
      <feOffset dy="3" input="SourceAlpha"/>
      <feGaussianBlur stdDeviation="3" result="blur"/>
      <feFlood flood-opacity="0.161"/>
      <feComposite operator="in" in2="blur"/>
      <feComposite in="SourceGraphic"/>
    </filter>
    <filter id="Elipse_11501-2" x="0" y="0" width="124.011" height="125.273" filterUnits="userSpaceOnUse">
      <feOffset dy="6" input="SourceAlpha"/>
      <feGaussianBlur stdDeviation="3" result="blur-2"/>
      <feFlood flood-opacity="0.161" result="color"/>
      <feComposite operator="out" in="SourceGraphic" in2="blur-2"/>
      <feComposite operator="in" in="color"/>
      <feComposite operator="in" in2="SourceGraphic"/>
    </filter>
  </defs>
  <g id="Grupo_1100985" data-name="Grupo 1100985" transform="translate(-781 -3852.565)">
    <g id="Grupo_1100204" data-name="Grupo 1100204" transform="translate(-131.333 3461.565)">
      <g id="Grupo_1099492" data-name="Grupo 1099492" transform="translate(921.333 397)">
        <g data-type="innerShadowGroup">
          <g transform="matrix(1, 0, 0, 1, -9, -6)" filter="url(#Elipse_11501)">
            <ellipse id="Elipse_11501-3" data-name="Elipse 11501" cx="53.005" cy="53.636" rx="53.005" ry="53.636" transform="translate(9 6)" fill="#a4a1c5"/>
          </g>
          <g transform="matrix(1, 0, 0, 1, -9, -6)" filter="url(#Elipse_11501-2)">
            <ellipse id="Elipse_11501-4" data-name="Elipse 11501" cx="53.005" cy="53.636" rx="53.005" ry="53.636" transform="translate(9 6)" fill="#fff"/>
          </g>
        </g>
        <path id="revision" d="M29.6,60.62a1.027,1.027,0,0,1-1.027,1.027H21.084a1.027,1.027,0,1,1,0-2.053h7.492A1.027,1.027,0,0,1,29.6,60.62ZM48.056,39.246h-3a1.027,1.027,0,0,0,0,2.053h3a1.027,1.027,0,1,0,0-2.053Zm0,20.348H42.563a1.027,1.027,0,1,0,0,2.053h5.494a1.027,1.027,0,1,0,0-2.053ZM27.869,19.925A1.027,1.027,0,0,0,26.842,18.9H21.085a1.027,1.027,0,1,0,0,2.053h5.758a1.027,1.027,0,0,0,1.027-1.027Zm11.022,6.783a1.027,1.027,0,0,0-1.027-1.027H27.938a1.027,1.027,0,1,0,0,2.053h9.927A1.027,1.027,0,0,0,38.892,26.708Zm-14.9-1.027H21.085a1.027,1.027,0,1,0,0,2.053h2.908a1.027,1.027,0,1,0,0-2.053Zm15.8,27.13H36.71a1.027,1.027,0,0,0,0,2.053h3.082a1.027,1.027,0,0,0,0-2.053Zm-1.361,6.783H33.688a1.027,1.027,0,1,0,0,2.053h4.743a1.027,1.027,0,1,0,0-2.053ZM32.643,20.952H48.056a1.027,1.027,0,0,0,0-2.053H32.643a1.027,1.027,0,1,0,0,2.053ZM38.786,41.3h2.059a1.027,1.027,0,1,0,0-2.053H38.786a1.027,1.027,0,1,0,0,2.053ZM36.75,47.055a1.027,1.027,0,0,0,1.027,1.027h4.1a1.027,1.027,0,1,0,0-2.053h-4.1A1.027,1.027,0,0,0,36.75,47.055ZM48.056,25.681H42a1.027,1.027,0,0,0,0,2.053h6.053a1.027,1.027,0,1,0,0-2.053Zm0,6.783H39.115a1.027,1.027,0,0,0,0,2.053h8.942a1.027,1.027,0,1,0,0-2.053ZM9.038,43.686A11.973,11.973,0,1,1,21.011,55.66,11.987,11.987,0,0,1,9.038,43.686Zm2.053,0a9.92,9.92,0,1,0,9.92-9.92,9.931,9.931,0,0,0-9.92,9.92ZM66.117,28.706,59.225,40.644V69.209A2.9,2.9,0,0,1,56.33,72.1H22.067a2.9,2.9,0,0,1-2.895-2.895V67.475H17.439a2.9,2.9,0,0,1-2.895-2.895V62.91L8.475,73.422a4.011,4.011,0,0,1-6.947-4.011L8.419,57.475a1.281,1.281,0,0,1,1.749-.468l.015.008,1.026-1.777a15.148,15.148,0,0,1,3.336-25.26V15.965a2.9,2.9,0,0,1,2.895-2.895H51.7A2.9,2.9,0,0,1,54.6,15.965V17.7H56.33a2.9,2.9,0,0,1,2.895,2.895v3.416a2.471,2.471,0,0,1,2.991-.407l3,1.731a2.472,2.472,0,0,1,.9,3.372Zm-3.923,2.688-3.718-2.146L46.2,50.506l3.718,2.147L62.194,31.394ZM45.381,56.223l3-2.088L45.688,52.58l-.308,3.643ZM54.6,19.752V31.86L57.171,27.4V20.593a.842.842,0,0,0-.841-.841ZM21.011,56.792A13.105,13.105,0,1,0,7.906,43.686,13.12,13.12,0,0,0,21.011,56.792Zm-9.051,1.25,1.144.66.908-1.573q-.587-.307-1.143-.662l-.909,1.574Zm-.681,6.416L7.888,62.5,3.306,70.437A1.958,1.958,0,1,0,6.7,72.4l4.582-7.937ZM13.2,61.13,9.81,59.172l-.9,1.551,3.391,1.957.9-1.55Zm4.238,4.292H51.7a.842.842,0,0,0,.841-.841V52.217l-1.356,2.349a1.024,1.024,0,0,1-.3.329l-4.656,3.239a1.867,1.867,0,0,1-2.927-1.69l.477-5.652a1.028,1.028,0,0,1,.134-.427l8.631-14.949V15.965a.842.842,0,0,0-.841-.841H17.439a.842.842,0,0,0-.841.841V29.183a15.159,15.159,0,1,1,0,29.006v6.391a.842.842,0,0,0,.841.841ZM57.171,44.2,54.6,48.66v15.92A2.9,2.9,0,0,1,51.7,67.475H21.226v1.733a.842.842,0,0,0,.841.841H56.33a.842.842,0,0,0,.841-.841Zm7.208-16.837a.413.413,0,0,0-.192-.252l-3-1.731a.416.416,0,0,0-.567.152L59.5,27.469l3.718,2.147,1.118-1.937a.413.413,0,0,0,.04-.315ZM16.272,49.343l-3.165-3.983a2.575,2.575,0,0,1,4.031-3.2l1.447,1.821,5.523-5.523A2.577,2.577,0,1,1,27.753,42.1l-7.564,7.564a2.57,2.57,0,0,1-1.82.755q-.114,0-.228-.01a2.574,2.574,0,0,1-1.869-1.064Zm-1.558-5.261L17.9,48.087c.013.017.026.034.038.051a.52.52,0,0,0,.386.223.515.515,0,0,0,.415-.151L26.3,40.645a.524.524,0,1,0-.741-.741l-6.337,6.337a1.027,1.027,0,0,1-1.53-.087L15.53,43.433a.521.521,0,0,0-.816.649Z" transform="translate(19.009 9.388)" fill="#12263f"/>
      </g>
    </g>
  </g>
</svg>
