<svg xmlns="http://www.w3.org/2000/svg" xmlns:xlink="http://www.w3.org/1999/xlink" width="96" height="96" viewBox="0 0 96 96">
  <defs>
    <clipPath id="clip-path">
      <rect id="Rectángulo_402044" data-name="Rectángulo 402044" width="96" height="96" transform="translate(191.102 1484)" fill="#fff" stroke="#707070" stroke-width="1"/>
    </clipPath>
  </defs>
  <g id="Grupo_1100990" data-name="Grupo 1100990" transform="translate(-180.051 -1479)">
    <g id="Enmascarar_grupo_1098700" data-name="Enmascarar grupo 1098700" transform="translate(-11.051 -5)" clip-path="url(#clip-path)">
      <g id="beneficios" transform="translate(192.428 1485.41)">
        <path id="Trazado_883497" data-name="Trazado 883497" d="M50.968,65.748,73.681,50.984,73.113,50a4.69,4.69,0,0,0-6.406-1.717L47.639,59.291Z" transform="translate(4.786 4.788)" fill="#ffb09e"/>
        <path id="Trazado_883498" data-name="Trazado 883498" d="M58.64,64.888,82.155,54.92,80.4,51.886A4.69,4.69,0,0,0,74,50.169L52.781,62.419Z" transform="translate(5.455 5.034)" fill="#ffcebf"/>
        <path id="Trazado_883499" data-name="Trazado 883499" d="M93.367,61.214l-.517-1.929a4.691,4.691,0,0,0-5.744-3.316l-26.68,7.149a6.565,6.565,0,0,1-6.342-1.7L43.9,51.237h9.32a4.368,4.368,0,0,0,4.37-4.431A4.435,4.435,0,0,0,53.124,42.5H34.851A18.759,18.759,0,0,0,21.587,47.99L9.271,60.306l5.5,11.325,8.95,3.123,2.922-3.808a9.379,9.379,0,0,1,9.869-3.35l18.443,4.942a6.567,6.567,0,0,0,3.4,0L92.04,63.511A1.875,1.875,0,0,0,93.367,61.214Z" transform="translate(-0.202 4.118)" fill="#ffdfcf"/>
        <path id="Trazado_883500" data-name="Trazado 883500" d="M92.2,59.624,91.688,57.7a4.678,4.678,0,0,0-2.418-2.973l.308,1.15a1.876,1.876,0,0,1-1.326,2.3L54.563,67.2a6.567,6.567,0,0,1-3.4,0L32.721,62.255a9.379,9.379,0,0,0-9.869,3.35l-4.638,6.045,4.342,1.515,2.922-3.808a9.379,9.379,0,0,1,9.869-3.35L53.79,70.949a6.566,6.566,0,0,0,3.4,0l33.689-9.027A1.876,1.876,0,0,0,92.2,59.624Z" transform="translate(0.961 5.707)" fill="#ffcebf"/>
        <path id="Trazado_883501" data-name="Trazado 883501" d="M10.315,58.257,1.52,67.052a.938.938,0,0,0-.275.663V86.124a.938.938,0,0,0,.938.938H18.061a.938.938,0,0,0,.744-.367l8.16-10.635a.938.938,0,0,0-.081-1.234Z" transform="translate(-1.245 6.167)" fill="#f3f0f3"/>
        <path id="Trazado_883502" data-name="Trazado 883502" d="M26.884,73.126,25.1,71.343l-.012.016-8.16,10.634a.938.938,0,0,1-.744.367H1.245v2.063a.938.938,0,0,0,.938.938H18.061a.938.938,0,0,0,.744-.367l8.16-10.635A.938.938,0,0,0,26.884,73.126Z" transform="translate(-1.245 7.868)" fill="#e2dee2"/>
        <path id="Trazado_883503" data-name="Trazado 883503" d="M57.057,2.225l3.7,7.471a3.083,3.083,0,0,0,2.288,1.678l8.422,1.311a1.762,1.762,0,0,1,.936,3.024l-6.026,5.669a3.083,3.083,0,0,0-.925,2.776L66.927,32.6a1.762,1.762,0,0,1-2.586,1.846l-7.374-4.069a3.083,3.083,0,0,0-2.979,0l-7.374,4.069A1.761,1.761,0,0,1,44.029,32.6L45.5,24.154a3.082,3.082,0,0,0-.925-2.776l-6.026-5.669a1.762,1.762,0,0,1,.936-3.024l8.422-1.311A3.082,3.082,0,0,0,50.2,9.7l3.7-7.471A1.762,1.762,0,0,1,57.057,2.225Z" transform="translate(3.533 -1.245)" fill="#ffe177"/>
        <path id="Trazado_883504" data-name="Trazado 883504" d="M68.781,11.413l-2.466-.384a1.733,1.733,0,0,1-.537,1.532L59.751,18.23a3.083,3.083,0,0,0-.925,2.776L60.3,29.452a1.765,1.765,0,0,1-1.646,2.066l3,1.655a1.761,1.761,0,0,0,2.586-1.846l-1.476-8.446a3.082,3.082,0,0,1,.925-2.776l6.026-5.669A1.761,1.761,0,0,0,68.781,11.413Z" transform="translate(6.219 0.027)" fill="#ffd15b"/>
        <line id="Línea_606" data-name="Línea 606" x1="9.079" y2="5.242" transform="translate(52.426 58.838)" fill="none" stroke="#000" stroke-linecap="round" stroke-linejoin="round" stroke-miterlimit="10" stroke-width="2.49"/>
        <path id="Trazado_883505" data-name="Trazado 883505" d="M71.975,50.984,71.407,50A4.69,4.69,0,0,0,65,48.282L60.76,50.731" transform="translate(6.492 4.788)" fill="none" stroke="#000" stroke-linecap="round" stroke-linejoin="round" stroke-miterlimit="10" stroke-width="2.49"/>
        <path id="Trazado_883506" data-name="Trazado 883506" d="M82.155,54.92,80.4,51.886A4.69,4.69,0,0,0,74,50.169L52.781,62.419" transform="translate(5.455 5.034)" fill="none" stroke="#000" stroke-linecap="round" stroke-linejoin="round" stroke-miterlimit="10" stroke-width="2.49"/>
        <line id="Línea_607" data-name="Línea 607" x1="9.118" transform="translate(38.356 55.355)" fill="none" stroke="#000" stroke-linecap="round" stroke-linejoin="round" stroke-miterlimit="10" stroke-width="2.49"/>
        <path id="Trazado_883507" data-name="Trazado 883507" d="M38.557,42.5H34.851A18.759,18.759,0,0,0,21.587,47.99L9.271,60.306" transform="translate(-0.202 4.118)" fill="none" stroke="#000" stroke-linecap="round" stroke-linejoin="round" stroke-miterlimit="10" stroke-width="2.49"/>
        <path id="Trazado_883508" data-name="Trazado 883508" d="M22.057,74.754l2.922-3.808a9.379,9.379,0,0,1,9.869-3.35l18.443,4.942a6.566,6.566,0,0,0,3.4,0l33.689-9.027a1.876,1.876,0,0,0,1.326-2.3l-.517-1.929a4.691,4.691,0,0,0-5.744-3.316l-26.68,7.149a6.565,6.565,0,0,1-6.342-1.7L42.241,51.237h9.32a4.368,4.368,0,0,0,4.37-4.431A4.435,4.435,0,0,0,51.462,42.5h-8" transform="translate(1.46 4.118)" fill="none" stroke="#000" stroke-linecap="round" stroke-linejoin="round" stroke-miterlimit="10" stroke-width="2.49"/>
        <path id="Trazado_883509" data-name="Trazado 883509" d="M16.85,64.793l-6.536-6.536L1.52,67.052a.938.938,0,0,0-.275.663V86.124a.938.938,0,0,0,.938.938H18.061a.938.938,0,0,0,.744-.367l8.16-10.635a.938.938,0,0,0-.081-1.234l-5.245-5.245" transform="translate(-1.245 6.167)" fill="none" stroke="#000" stroke-linecap="round" stroke-linejoin="round" stroke-miterlimit="10" stroke-width="2.49"/>
        <path id="Trazado_883510" data-name="Trazado 883510" d="M57.057,2.225l3.7,7.471a3.083,3.083,0,0,0,2.288,1.678l8.422,1.311a1.762,1.762,0,0,1,.936,3.024l-6.026,5.669a3.083,3.083,0,0,0-.925,2.776L66.927,32.6a1.762,1.762,0,0,1-2.586,1.846l-7.374-4.069a3.083,3.083,0,0,0-2.979,0l-7.374,4.069A1.761,1.761,0,0,1,44.029,32.6L45.5,24.154a3.082,3.082,0,0,0-.925-2.776l-6.026-5.669a1.762,1.762,0,0,1,.936-3.024l8.422-1.311A3.082,3.082,0,0,0,50.2,9.7l3.7-7.471A1.762,1.762,0,0,1,57.057,2.225Z" transform="translate(3.533 -1.245)" fill="none" stroke="#000" stroke-linecap="round" stroke-linejoin="round" stroke-miterlimit="10" stroke-width="2.49"/>
        <line id="Línea_608" data-name="Línea 608" x2="4.131" transform="translate(29.134 20.416)" fill="none" stroke="#000" stroke-linecap="round" stroke-linejoin="round" stroke-miterlimit="10" stroke-width="2.49"/>
        <line id="Línea_609" data-name="Línea 609" y1="2.919" x2="2.919" transform="translate(32.784 29.128)" fill="none" stroke="#000" stroke-linecap="round" stroke-linejoin="round" stroke-miterlimit="10" stroke-width="2.49"/>
        <line id="Línea_610" data-name="Línea 610" x2="2.921" y2="2.921" transform="translate(32.764 8.74)" fill="none" stroke="#000" stroke-linecap="round" stroke-linejoin="round" stroke-miterlimit="10" stroke-width="2.49"/>
        <line id="Línea_611" data-name="Línea 611" x1="4.131" transform="translate(84.757 20.416)" fill="none" stroke="#000" stroke-linecap="round" stroke-linejoin="round" stroke-miterlimit="10" stroke-width="2.49"/>
        <line id="Línea_612" data-name="Línea 612" x1="2.919" y1="2.919" transform="translate(82.318 29.128)" fill="none" stroke="#000" stroke-linecap="round" stroke-linejoin="round" stroke-miterlimit="10" stroke-width="2.49"/>
        <line id="Línea_613" data-name="Línea 613" x1="2.921" y2="2.921" transform="translate(82.337 8.74)" fill="none" stroke="#000" stroke-linecap="round" stroke-linejoin="round" stroke-miterlimit="10" stroke-width="2.49"/>
      </g>
    </g>
  </g>
</svg>
