<svg xmlns="http://www.w3.org/2000/svg" xmlns:xlink="http://www.w3.org/1999/xlink" width="124.011" height="125.273" viewBox="0 0 124.011 125.273">
  <defs>
    <filter id="Elipse_11501" x="0" y="0" width="124.011" height="125.273" filterUnits="userSpaceOnUse">
      <feOffset dy="3" input="SourceAlpha"/>
      <feGaussianBlur stdDeviation="3" result="blur"/>
      <feFlood flood-opacity="0.161"/>
      <feComposite operator="in" in2="blur"/>
      <feComposite in="SourceGraphic"/>
    </filter>
    <filter id="Elipse_11501-2" x="0" y="0" width="124.011" height="125.273" filterUnits="userSpaceOnUse">
      <feOffset dy="6" input="SourceAlpha"/>
      <feGaussianBlur stdDeviation="3" result="blur-2"/>
      <feFlood flood-opacity="0.161" result="color"/>
      <feComposite operator="out" in="SourceGraphic" in2="blur-2"/>
      <feComposite operator="in" in="color"/>
      <feComposite operator="in" in2="SourceGraphic"/>
    </filter>
  </defs>
  <g id="Grupo_1100983" data-name="Grupo 1100983" transform="translate(-229.698 -3566.565)">
    <g id="Grupo_1100049" data-name="Grupo 1100049">
      <g data-type="innerShadowGroup">
        <g transform="matrix(1, 0, 0, 1, 229.7, 3566.57)" filter="url(#Elipse_11501)">
          <ellipse id="Elipse_11501-3" data-name="Elipse 11501" cx="53.005" cy="53.636" rx="53.005" ry="53.636" transform="translate(9 6)" fill="#a4a1c5"/>
        </g>
        <g transform="matrix(1, 0, 0, 1, 229.7, 3566.57)" filter="url(#Elipse_11501-2)">
          <ellipse id="Elipse_11501-4" data-name="Elipse 11501" cx="53.005" cy="53.636" rx="53.005" ry="53.636" transform="translate(9 6)" fill="#fff"/>
        </g>
      </g>
      <path id="devoluciones" d="M141.738,74a1.3,1.3,0,1,1-2.55-.458,31.59,31.59,0,0,0-51.3-29.874l4.033.653a1.3,1.3,0,1,1-.414,2.558L83.673,45.6a1.316,1.316,0,0,1-.976-1.85l2.657-7.337a1.3,1.3,0,0,1,2.436.883L86.2,41.7A34.18,34.18,0,0,1,141.738,74ZM126.249,54.862,111.364,46.27l-3.833,2.212,14.884,8.594ZM112.66,82.886l14.884-8.594V57.106L123.71,59.32V70.5a1.294,1.294,0,0,1-.648,1.121l-4.628,2.672a1.3,1.3,0,0,1-1.943-1.122V63.486L112.66,65.7ZM115.2,61.242,100.314,52.65l-3.833,2.212,14.883,8.594Zm3.236-1.121a1.289,1.289,0,0,1,.648,1.121v9.685l2.036-1.174V59.32L104.94,49.978l-2.035,1.176Zm-23.25-3.015V74.292l14.884,8.594V65.7Zm15.532,29.145a1.29,1.29,0,0,0,1.295,0l17.476-10.088a1.3,1.3,0,0,0,.647-1.123V54.862a1.294,1.294,0,0,0-.647-1.121l-17.476-10.09a1.294,1.294,0,0,0-1.295,0l-6.425,3.708v0l-11.049,6.38a1.293,1.293,0,0,0-.648,1.121V75.04a1.3,1.3,0,0,0,.648,1.123Zm26.494,1.01-14.885,15.273c-.445.622-1.887.776-2.724.81l-18.455.789a5.831,5.831,0,0,0-2.677.85l-1.3.86-3.225,1.772L86.268,97.168c3.722-3.2,7.623-5.922,13.068-5.941l16.58-.065c1.25,0,3.3,2.2,1.8,3.749a2.272,2.272,0,0,1-1.327.72l-8.715.077A1.3,1.3,0,1,0,107.7,98.3l8.716-.078a4.881,4.881,0,0,0,4.218-3.233,6.183,6.183,0,0,0,2.489-1.08l13.231-9.033a1.162,1.162,0,0,1,1.191.372,1.866,1.866,0,0,1-.333,2.014ZM92.467,111.277a.783.783,0,0,0,.164-1.08L83.464,97.729h0l-.518-.707a.78.78,0,0,0-1.079-.164l-7.116,5.233a.783.783,0,0,0-.166,1.08l9.686,13.173a.778.778,0,0,0,1.08.166ZM135.55,82.4a3.729,3.729,0,0,1,4.161,1.432,4.414,4.414,0,0,1-.469,5.047,1.222,1.222,0,0,1-.113.131l-14.767,15.131a4.019,4.019,0,0,1-1.891,1.323,10.105,10.105,0,0,1-2.767.473l-18.462.789c-1.135.044-1.924.894-2.773,1.365l-3.2,1.756A3.37,3.37,0,0,1,94,113.365L86.885,118.6a3.367,3.367,0,0,1-4.7-.717L72.5,104.705a3.366,3.366,0,0,1,.717-4.7l7.118-5.231A3.361,3.361,0,0,1,84.7,95.1c3.949-3.38,8.4-6.445,14.63-6.468l16.565-.066a5.361,5.361,0,0,1,4.734,3.755,4.3,4.3,0,0,0,1.026-.547l13.463-9.19A1.263,1.263,0,0,1,135.55,82.4Z" transform="translate(184.437 3549.702)" fill="#12263f" fill-rule="evenodd"/>
    </g>
  </g>
</svg>
