<svg xmlns="http://www.w3.org/2000/svg" xmlns:xlink="http://www.w3.org/1999/xlink" width="124.011" height="125.273" viewBox="0 0 124.011 125.273">
  <defs>
    <filter id="Elipse_11501" x="0" y="0" width="124.011" height="125.273" filterUnits="userSpaceOnUse">
      <feOffset dy="3" input="SourceAlpha"/>
      <feGaussianBlur stdDeviation="3" result="blur"/>
      <feFlood flood-opacity="0.161"/>
      <feComposite operator="in" in2="blur"/>
      <feComposite in="SourceGraphic"/>
    </filter>
    <filter id="Elipse_11501-2" x="0" y="0" width="124.011" height="125.273" filterUnits="userSpaceOnUse">
      <feOffset dy="6" input="SourceAlpha"/>
      <feGaussianBlur stdDeviation="3" result="blur-2"/>
      <feFlood flood-opacity="0.161" result="color"/>
      <feComposite operator="out" in="SourceGraphic" in2="blur-2"/>
      <feComposite operator="in" in="color"/>
      <feComposite operator="in" in2="SourceGraphic"/>
    </filter>
  </defs>
  <g id="Grupo_1100986" data-name="Grupo 1100986" transform="translate(-1247.051 -3567)">
    <g id="Grupo_1100052" data-name="Grupo 1100052">
      <g data-type="innerShadowGroup">
        <g transform="matrix(1, 0, 0, 1, 1247.05, 3567)" filter="url(#Elipse_11501)">
          <ellipse id="Elipse_11501-3" data-name="Elipse 11501" cx="53.005" cy="53.636" rx="53.005" ry="53.636" transform="translate(9 6)" fill="#a4a1c5"/>
        </g>
        <g transform="matrix(1, 0, 0, 1, 1247.05, 3567)" filter="url(#Elipse_11501-2)">
          <ellipse id="Elipse_11501-4" data-name="Elipse 11501" cx="53.005" cy="53.636" rx="53.005" ry="53.636" transform="translate(9 6)" fill="#fff"/>
        </g>
      </g>
      <g id="devoluciones_1_" data-name="devoluciones (1)" transform="translate(1251.844 3591)">
        <path id="Trazado_883373" data-name="Trazado 883373" d="M82.466,27.484H55.889c2.034-3.62,3.465-7.163,3.465-9.966A17.519,17.519,0,0,0,26.645,8.789a1.041,1.041,0,1,0,1.8,1.039,15.437,15.437,0,0,1,28.821,7.689c0,5.924-7.965,17.079-15.435,25.563C34.367,34.6,26.4,23.442,26.4,17.517a15.5,15.5,0,0,1,.488-3.867,1.041,1.041,0,1,0-2.017-.52,17.578,17.578,0,0,0-.554,4.387c0,2.8,1.432,6.347,3.465,9.966h-.454a3.127,3.127,0,0,0-3.124,3.124V67.928a3.127,3.127,0,0,0,3.124,3.124H82.466a3.127,3.127,0,0,0,3.124-3.124V30.608a3.127,3.127,0,0,0-3.124-3.124Zm-6.8,22.942-.5-1.162.5-1.162a2.013,2.013,0,0,0,0-1.58l-.444-1.041a.309.309,0,0,1,.284-.431h8.005v8.434h-8a.309.309,0,0,1-.284-.188l0-.007a.309.309,0,0,1,0-.243l.444-1.041A2.013,2.013,0,0,0,75.662,50.426Zm6.8,18.544H68.781V62.313a1.041,1.041,0,1,0-2.082,0V68.97H27.331a1.042,1.042,0,0,1-1.041-1.041V30.608a1.042,1.042,0,0,1,1.041-1.041h1.682A119.679,119.679,0,0,0,40.315,44.5a2.027,2.027,0,0,0,3.042,0,119.667,119.667,0,0,0,11.3-14.938H66.7V57.329a1.041,1.041,0,1,0,2.082,0V29.566H82.466a1.042,1.042,0,0,1,1.041,1.041V42.968H74.794a1.317,1.317,0,0,0-1.213.8l-.342.8a2.022,2.022,0,0,0,0,1.58l.5,1.162-.5,1.162a2.022,2.022,0,0,0,0,1.58l.5,1.162-.5,1.162a2.022,2.022,0,0,0,0,1.58l.345.808a1.317,1.317,0,0,0,1.213.8h8.711V67.928a1.042,1.042,0,0,1-1.041,1.041Z" fill="#12263f"/>
        <path id="Trazado_883374" data-name="Trazado 883374" d="M89.825,340.932H68.389a2.016,2.016,0,0,0-2.013,2.013v10.9a2.016,2.016,0,0,0,2.013,2.013H89.825a2.016,2.016,0,0,0,2.013-2.013v-10.9A2.016,2.016,0,0,0,89.825,340.932Zm-.069,12.845h-21.3V343.015h21.3Z" transform="translate(-36.317 -293.62)" fill="#12263f"/>
        <path id="Trazado_883375" data-name="Trazado 883375" d="M99.845,376.843a1.041,1.041,0,0,0,1.041-1.041v-5.173a1.041,1.041,0,1,0-2.082,0V375.8A1.041,1.041,0,0,0,99.845,376.843Z" transform="translate(-64.245 -318.299)" fill="#12263f"/>
        <path id="Trazado_883376" data-name="Trazado 883376" d="M130.184,376.843a1.041,1.041,0,0,0,1.041-1.041v-5.173a1.041,1.041,0,1,0-2.082,0V375.8A1.041,1.041,0,0,0,130.184,376.843Z" transform="translate(-90.374 -318.299)" fill="#12263f"/>
        <path id="Trazado_883377" data-name="Trazado 883377" d="M154.933,376.843a1.041,1.041,0,0,0,1.041-1.041v-5.173a1.041,1.041,0,1,0-2.082,0V375.8A1.041,1.041,0,0,0,154.933,376.843Z" transform="translate(-111.688 -318.299)" fill="#12263f"/>
        <path id="Trazado_883378" data-name="Trazado 883378" d="M202.329,376.843a1.041,1.041,0,0,0,1.041-1.041v-5.173a1.041,1.041,0,1,0-2.082,0V375.8A1.041,1.041,0,0,0,202.329,376.843Z" transform="translate(-152.507 -318.299)" fill="#12263f"/>
        <path id="Trazado_883379" data-name="Trazado 883379" d="M85.427,44.349A12.643,12.643,0,1,0,72.785,56.991,12.657,12.657,0,0,0,85.427,44.349Zm-23.2,0a10.56,10.56,0,1,1,10.56,10.56A10.572,10.572,0,0,1,62.224,44.349Z" transform="translate(-30.948 -27.306)" fill="#12263f"/>
        <path id="Trazado_883380" data-name="Trazado 883380" d="M319.355,68.216a22.194,22.194,0,0,0-16.523-16.466v-.735a1.6,1.6,0,0,0-2.719-1.135l-7.381,7.3a1.6,1.6,0,0,0,0,2.27l7.381,7.3a1.6,1.6,0,0,0,2.72-1.135v-1.4c.516-.045,1.037-.069,1.554-.069a17.555,17.555,0,0,1,12.659,5.334,1.367,1.367,0,0,0,2.31-1.269Zm-14.969-6.147c-.541,0-1.084.024-1.624.068a1.041,1.041,0,0,0-2.012.373v1.941l-6.2-6.136,6.2-6.136v5.486a1.041,1.041,0,1,0,2.082,0V53.9a20.121,20.121,0,0,1,13.762,12.388A19.6,19.6,0,0,0,304.386,62.069Z" transform="translate(-230.853 -42.56)" fill="#12263f"/>
        <path id="Trazado_883381" data-name="Trazado 883381" d="M112.2,82.913V78.555c0-.018,0-.035,0-.053a3.059,3.059,0,0,0,.725-1.979V71.585a1.6,1.6,0,0,0-1.6-1.6H100.242a1.6,1.6,0,0,0-1.6,1.6v4.939a3.059,3.059,0,0,0,.722,1.976v4.413a1.737,1.737,0,0,0,1.736,1.736h9.36A1.737,1.737,0,0,0,112.2,82.913Zm-1.361-6.389a.991.991,0,1,1-1.982,0V72.071h1.982Zm-4.064,0a.991.991,0,1,1-1.981,0V72.071h1.982v4.453Zm-6.046-4.453h1.982v4.453a.991.991,0,1,1-1.982,0Zm6.1,10.5V81.94a1.041,1.041,0,1,0-2.082,0v.626h-3.292V79.584c.089.008.178.012.269.012a3.06,3.06,0,0,0,2.032-.77,3.065,3.065,0,0,0,4.064,0,3.06,3.06,0,0,0,2.032.77c.091,0,.18,0,.269-.012v2.981Z" transform="translate(-64.108 -60.276)" fill="#12263f"/>
      </g>
    </g>
  </g>
</svg>
