<svg xmlns="http://www.w3.org/2000/svg" width="57" height="57" viewBox="0 0 57 57">
  <g id="Grupo_1100986" data-name="Grupo 1100986" transform="translate(-600 -4435.502)">
    <g id="Grupo_1100057" data-name="Grupo 1100057" transform="translate(-216.051 -76.498)">
      <rect id="Rectángulo_402006" data-name="Rectángulo 402006" width="57" height="57" rx="28.5" transform="translate(816.051 4512)" fill="#e8f57a" opacity="0.859"/>
      <g id="afirmar" transform="translate(828.051 4524)">
        <g id="Grupo_1100056" data-name="Grupo 1100056" transform="translate(0)">
          <circle id="Elipse_11533" data-name="Elipse 11533" cx="0.532" cy="0.532" r="0.532" transform="translate(11.71 9.048)" fill="#12263f"/>
          <circle id="Elipse_11534" data-name="Elipse 11534" cx="0.532" cy="0.532" r="0.532" transform="translate(6.387 9.048)" fill="#12263f"/>
          <path id="Trazado_883391" data-name="Trazado 883391" d="M137.172,151.783l.588-.294a1.065,1.065,0,0,0,.476-1.428l-.238-.476v-.939h-1.064v1.065a.533.533,0,0,0,.056.238l.294.588-.588.294Z" transform="translate(-127.886 -139.064)" fill="#12263f"/>
          <path id="Trazado_883392" data-name="Trazado 883392" d="M115.184,206.452a2.672,2.672,0,0,0-2.305,1.33l.921.533a1.6,1.6,0,0,1,2.768,0l.921-.533A2.671,2.671,0,0,0,115.184,206.452Z" transform="translate(-105.604 -193.146)" fill="#12263f"/>
          <path id="Trazado_883393" data-name="Trazado 883393" d="M24.484,5.323V7.655l-1.471-.736H17.485A7.98,7.98,0,0,0,1.6,7.984v1.6c0,.475-.214.694-.625,1.07A2.354,2.354,0,0,0,0,12.5a2.291,2.291,0,0,0,1.3,1.9c.532.366.834.595.834,1.025s-.3.659-.834,1.026a2.293,2.293,0,0,0-1.3,1.9,2.294,2.294,0,0,0,1.3,1.9c.081.055.155.11.231.164A6.9,6.9,0,0,0,0,24.775v1.838H1.064v4.258A2.131,2.131,0,0,0,3.194,33H15.968A2.131,2.131,0,0,0,18.1,30.871V26.613h1.065V24.775a6.9,6.9,0,0,0-1.527-4.346c.076-.055.151-.109.232-.165a2.292,2.292,0,0,0,1.295-1.9,2.293,2.293,0,0,0-1.3-1.9c-.532-.366-.834-.595-.834-1.026s.3-.659.834-1.025a2.291,2.291,0,0,0,1.3-1.9,2.276,2.276,0,0,0-.019-.263h3.87l1.471-.736v2.332H33V5.323Zm.882,4.552-1.947.973V8.313l1.947.973a.329.329,0,0,1,0,.589ZM22.355,7.984V9.048h-4.79V7.984ZM12.815,18.9a4.6,4.6,0,0,1-6.468,0l1.637-.378V16.829a1.059,1.059,0,0,0-.589-.952l-.251-.125a4.233,4.233,0,0,1-2.354-3.808V7.984a1.069,1.069,0,0,1,.771-1.022,4.073,4.073,0,0,0,2.7,1.022,1.844,1.844,0,0,0,1.628-.992,7.352,7.352,0,0,0,3.694.992,1.835,1.835,0,0,0,.783-.18v4.14a4.234,4.234,0,0,1-2.354,3.808l-.251.125a1.058,1.058,0,0,0-.589.952V18.52ZM15.435,8.516a1.065,1.065,0,0,1,0,2.129h0ZM9.581,1.065a6.923,6.923,0,0,1,6.907,6.677,2.1,2.1,0,0,0-1.052-.29V6.136a1.838,1.838,0,0,0-1.022-1.653l-.337-.168-.476.952.337.168a.784.784,0,0,1-.35,1.484,6.3,6.3,0,0,1-3.5-1.057,1.838,1.838,0,0,0-1-1.38l-.337-.168-.476.952.337.168a.784.784,0,0,1-.35,1.484,3.014,3.014,0,0,1-2.811-1.9l-.17-.424L4.3,4.987l.17.424a4.126,4.126,0,0,0,.377.708A2.139,2.139,0,0,0,3.8,7.452H3.726a2.1,2.1,0,0,0-1.052.29A6.922,6.922,0,0,1,9.581,1.065ZM3.726,8.516v2.129h0a1.065,1.065,0,0,1,0-2.129ZM1.064,18.361c0-.432.3-.659.834-1.026a2.293,2.293,0,0,0,1.295-1.9,2.291,2.291,0,0,0-1.3-1.9c-.532-.366-.834-.594-.834-1.025,0-.475.214-.694.625-1.07a5.119,5.119,0,0,0,.448-.45,2.114,2.114,0,0,0,1.588.725h0v.234A5.293,5.293,0,0,0,6.669,16.7l.251.126v.844l-1.556.359a6.93,6.93,0,0,0-3.1,1.615c-.12-.091-.243-.177-.364-.26-.533-.367-.834-.594-.834-1.026Zm3.194,8.252v1.162a1.579,1.579,0,0,0-.532-.1H3.194a2.107,2.107,0,0,0-1.065.3v-1.36Zm4.258-2.536.329-.658h1.8v2.129H8.516Zm3.194,2.536V23.419h2.129v3.365L11.046,27.9l.691,2.073,1.01-.337-.374-1.12,1.466-.587V31.4a1.58,1.58,0,0,0,.1.532H7.452l.9-1.2,1.521-1.014-.59-.886L8.132,29.6l-.769-1.154-.886.59.855,1.283L6.121,31.936h-.9a1.579,1.579,0,0,0,.1-.532V23.419h.9l1.226.817v2.377ZM3.194,31.935a1.066,1.066,0,0,1-1.065-1.065V29.806a1.066,1.066,0,0,1,1.065-1.065h.532a.533.533,0,0,1,.532.532v.532H3.194v1.065H4.258V31.4a.533.533,0,0,1-.532.532Zm13.839-1.065a1.066,1.066,0,0,1-1.065,1.065h-.532A.533.533,0,0,1,14.9,31.4v-.532h1.065V29.806H14.9v-.532a.533.533,0,0,1,.532-.532h.532a1.066,1.066,0,0,1,1.065,1.065v1.065Zm0-2.9a2.107,2.107,0,0,0-1.065-.3h-.532a1.58,1.58,0,0,0-.532.1V26.613h2.129ZM18.1,25.548H14.9V22.355H8.187l-.41.82-1.229-.82H4.258v3.194H1.064v-.773A5.824,5.824,0,0,1,5.139,19.2l.431.431a5.672,5.672,0,0,0,8.021,0l.431-.431A5.824,5.824,0,0,1,18.1,24.775ZM17.263,13.53a2.291,2.291,0,0,0-1.3,1.9,2.294,2.294,0,0,0,1.295,1.9c.532.366.834.595.834,1.026s-.3.659-.834,1.026c-.121.084-.244.17-.365.261a6.927,6.927,0,0,0-3.1-1.615l-1.555-.359v-.844l.251-.125a5.293,5.293,0,0,0,2.942-4.76V11.71a2.114,2.114,0,0,0,1.588-.725,5.191,5.191,0,0,0,.448.45c.411.376.625.6.625,1.069,0,.431-.3.659-.834,1.025Zm.927-2.88a2.525,2.525,0,0,1-.485-.538h4.65v1.065H18.7A4.518,4.518,0,0,0,18.19,10.65Zm13.746,2.124H25.548v-1.8l.294-.147a1.393,1.393,0,0,0,0-2.493l-.294-.147v-1.8h6.387Z" transform="translate(0)" fill="#12263f"/>
          <path id="Trazado_883394" data-name="Trazado 883394" d="M379.871,239.742h8.516v-8.516h-8.516Zm1.065-7.452h6.387v6.387h-6.387Z" transform="translate(-355.387 -216.323)" fill="#12263f"/>
          <path id="Trazado_883395" data-name="Trazado 883395" d="M408.506,269.5l-.688-.688-.753.753L408.506,271l3.57-3.57-.753-.753Z" transform="translate(-380.828 -249.49)" fill="#12263f"/>
          <path id="Trazado_883396" data-name="Trazado 883396" d="M379.871,388.387h8.516v-8.516h-8.516Zm1.065-7.452h6.387v6.387h-6.387Z" transform="translate(-355.387 -355.387)" fill="#12263f"/>
          <path id="Trazado_883397" data-name="Trazado 883397" d="M408.506,418.14l-.688-.688-.753.753,1.441,1.441,3.57-3.57-.753-.753Z" transform="translate(-380.828 -388.554)" fill="#12263f"/>
          <path id="Trazado_883398" data-name="Trazado 883398" d="M407.065,114.032l.753.753,1.753-1.753,1.753,1.753.753-.753-1.753-1.753,1.753-1.753-.753-.753-1.753,1.753-1.753-1.753-.753.753,1.753,1.753Z" transform="translate(-380.828 -102.699)" fill="#12263f"/>
        </g>
      </g>
    </g>
  </g>
</svg>
