<svg xmlns="http://www.w3.org/2000/svg" width="85.27" height="85.27" viewBox="0 0 85.27 85.27">
  <g id="Grupo_1100984" data-name="Grupo 1100984" transform="translate(-704.73 -3628)">
    <g id="logistica-de-materiales_1_" data-name="logistica-de-materiales (1)" transform="translate(704.73 3628)">
      <path id="Trazado_883202" data-name="Trazado 883202" d="M29.978,40.137V30.144H19.985V9.993h9.993V0H0V9.993H9.993V30.144H0v9.993Zm0,0" fill="#e8f57a"/>
      <path id="Trazado_883203" data-name="Trazado 883203" d="M210,0h50.3V9.993H210Zm0,0" transform="translate(-175.026)" fill="#e8f57a"/>
      <path id="Trazado_883204" data-name="Trazado 883204" d="M210,181h50.3v9.993H210Zm0,0" transform="translate(-175.026 -150.856)" fill="#e8f57a"/>
      <path id="Trazado_883205" data-name="Trazado 883205" d="M150,90h55.292v10.159H150Zm0,0" transform="translate(-125.019 -75.011)" fill="#e8f57a"/>
      <path id="Trazado_883206" data-name="Trazado 883206" d="M210,452h50.3v9.993H210Zm0,0" transform="translate(-175.026 -376.723)" fill="#e8f57a"/>
      <path id="Trazado_883207" data-name="Trazado 883207" d="M29.978,271H0v9.993H9.993v20.152H0v9.993H29.978v-9.993H19.985V280.993h9.993Zm0,0" transform="translate(0 -225.867)" fill="#e8f57a"/>
      <path id="Trazado_883208" data-name="Trazado 883208" d="M210,271h50.3v9.993H210Zm0,0" transform="translate(-175.026 -225.867)" fill="#e8f57a"/>
      <path id="Trazado_883209" data-name="Trazado 883209" d="M150,361h55.292v10.159H150Zm0,0" transform="translate(-125.019 -300.878)" fill="#e8f57a"/>
    </g>
  </g>
</svg>
