<svg xmlns="http://www.w3.org/2000/svg" width="110.757" height="107.844" viewBox="0 0 110.757 107.844">
  <g id="Grupo_1101000" data-name="Grupo 1101000" transform="translate(-1230 -6052.991)">
    <g id="Grupo_1100738" data-name="Grupo 1100738" transform="translate(-12.063)">
      <g id="_x30_1_location" transform="translate(1237.052 6050.991)">
        <path id="Trazado_882629" data-name="Trazado 882629" d="M25.884,9.638a10.695,10.695,0,0,0-20.5,0,11.375,11.375,0,0,0-.1,5.414c.677,2.224,2.61,6.091,7.638,12.086a5.527,5.527,0,0,0,.677.773,5.067,5.067,0,0,0,1.064.967,2.048,2.048,0,0,0,1.837,0,5.067,5.067,0,0,0,1.064-.967,5.527,5.527,0,0,1,.677-.773c5.028-5.9,6.961-9.862,7.541-12.086A9.4,9.4,0,0,0,25.884,9.638Zm-5.414,3A4.834,4.834,0,1,1,15.636,7.8,4.787,4.787,0,0,1,20.47,12.635Z" transform="translate(0 0)" fill="#496f93"/>
      </g>
      <g id="proveedor" transform="translate(1262.289 6070.243)">
        <g id="Grupo_1100737" data-name="Grupo 1100737" transform="translate(2.403 2.496)">
          <g id="Grupo_1100733" data-name="Grupo 1100733">
            <path id="Trazado_885253" data-name="Trazado 885253" d="M55.759,87.417h57.574V100.9H55.759Z" transform="translate(-47.55 -73.667)" fill="#b4d2d7" fill-rule="evenodd"/>
            <path id="Trazado_885254" data-name="Trazado 885254" d="M55.759,151.9h57.574v6.473H55.759Z" transform="translate(-47.55 -126.833)" fill="#9bb9c3" fill-rule="evenodd"/>
            <path id="Trazado_885255" data-name="Trazado 885255" d="M37.955,49.852H101.78v56.717a.668.668,0,0,1-.667.667H97.55a.668.668,0,0,1-.667-.667V61.295H42.851v45.275a.668.668,0,0,1-.667.667H38.622a.668.668,0,0,1-.667-.667Z" transform="translate(-32.872 -42.696)" fill="#8d9ca8" fill-rule="evenodd"/>
            <path id="Trazado_885256" data-name="Trazado 885256" d="M14.5,9.092H77.49a.654.654,0,0,1,.6.38l4.9,10.287H9L13.9,9.472a.654.654,0,0,1,.6-.38Z" transform="translate(-9 -9.092)" fill="#7a8c98" fill-rule="evenodd"/>
          </g>
          <g id="Grupo_1100734" data-name="Grupo 1100734" transform="translate(13.725 47.893)">
            <path id="Trazado_885257" data-name="Trazado 885257" d="M88.233,281.9h17.151a1.054,1.054,0,0,1,1.051,1.051V297.5a1.054,1.054,0,0,1-1.051,1.051H88.233a1.054,1.054,0,0,1-1.051-1.051V282.949a1.054,1.054,0,0,1,1.051-1.051Z" transform="translate(-87.182 -281.899)" fill="#da8c36" fill-rule="evenodd"/>
            <path id="Trazado_885258" data-name="Trazado 885258" d="M124.284,281.9h6.226v5.878a.464.464,0,0,1-.759.359l-2.06-1.689a.46.46,0,0,0-.589,0l-2.06,1.689a.464.464,0,0,1-.759-.359Z" transform="translate(-117.771 -281.899)" fill="#c97629" fill-rule="evenodd"/>
          </g>
          <g id="Grupo_1100735" data-name="Grupo 1100735" transform="translate(36.846 47.893)">
            <path id="Trazado_885259" data-name="Trazado 885259" d="M219.937,281.9h17.151a1.054,1.054,0,0,1,1.051,1.051V297.5a1.054,1.054,0,0,1-1.051,1.051H219.937a1.054,1.054,0,0,1-1.051-1.051V282.949A1.054,1.054,0,0,1,219.937,281.9Z" transform="translate(-218.886 -281.899)" fill="#da8c36" fill-rule="evenodd"/>
            <path id="Trazado_885260" data-name="Trazado 885260" d="M255.987,281.9h6.226v5.878a.464.464,0,0,1-.759.359l-2.06-1.689a.46.46,0,0,0-.589,0l-2.06,1.689a.464.464,0,0,1-.759-.359Z" transform="translate(-249.474 -281.899)" fill="#c97629" fill-rule="evenodd"/>
          </g>
          <g id="Grupo_1100736" data-name="Grupo 1100736" transform="translate(7.202 39.741)">
            <path id="Trazado_885261" data-name="Trazado 885261" d="M129.547,274.3V252.825a4.694,4.694,0,0,0-1.275-3.285l-11.42-12.491a4.711,4.711,0,0,0-3.593-1.584H102.667v28.816H50.025v6.774a4.878,4.878,0,0,0,4.869,4.869h73.03a1.626,1.626,0,0,0,1.623-1.623Z" transform="translate(-50.025 -235.465)" fill="#64b5f6" fill-rule="evenodd"/>
            <path id="Trazado_885262" data-name="Trazado 885262" d="M393.169,273.527l-11.42-12.491a.3.3,0,0,0-.3-.131h-6.125v12.622Z" transform="translate(-318.219 -256.439)" fill="#e6f8ff" fill-rule="evenodd"/>
            <path id="Trazado_885263" data-name="Trazado 885263" d="M478.157,399.059h3.771v5h-3.771a.718.718,0,0,1-.716-.716v-3.568A.718.718,0,0,1,478.157,399.059Z" transform="translate(-402.406 -370.339)" fill="#42a5f5" fill-rule="evenodd"/>
            <path id="Trazado_885264" data-name="Trazado 885264" d="M102.667,399.608H50.025v6.774a4.878,4.878,0,0,0,4.869,4.869h47.773V399.608Z" transform="translate(-50.025 -370.792)" fill="#42a5f5" fill-rule="evenodd"/>
            <path id="Trazado_885265" data-name="Trazado 885265" d="M175.318,428.953a6.492,6.492,0,1,1-6.491,6.491A6.491,6.491,0,0,1,175.318,428.953Zm-45.763,0a6.492,6.492,0,1,1-6.491,6.491A6.492,6.492,0,0,1,129.555,428.953Z" transform="translate(-110.242 -394.985)" fill="#465759" fill-rule="evenodd"/>
            <path id="Trazado_885266" data-name="Trazado 885266" d="M195.134,452.988a2.272,2.272,0,1,0,2.272,2.272A2.271,2.271,0,0,0,195.134,452.988Zm-45.763,0a2.272,2.272,0,1,0,2.272,2.272A2.27,2.27,0,0,0,149.371,452.988Z" transform="translate(-130.057 -414.801)" fill="#3a484a" fill-rule="evenodd"/>
          </g>
        </g>
        <path id="Trazado_885267" data-name="Trazado 885267" d="M46.756,62.951a1.405,1.405,0,0,1-1.408,1.4h-2.36a1.4,1.4,0,1,1,0-2.809h2.36A1.407,1.407,0,0,1,46.756,62.951Zm-6.1-11.159V65.631H57.1V51.792H53.4v4.475a1.867,1.867,0,0,1-3.055,1.445l-1.466-1.2-1.466,1.2a1.865,1.865,0,0,1-3.047-1.445V51.792Zm6.516,0h3.411v2.487l-.522-.43a1.873,1.873,0,0,0-2.368,0l-.522.428V51.792ZM57.453,68.44A2.456,2.456,0,0,0,59.9,65.984V51.438a2.457,2.457,0,0,0-2.451-2.455H40.3a2.457,2.457,0,0,0-2.451,2.455V65.984A2.456,2.456,0,0,0,40.3,68.44ZM23.638,62.951a1.411,1.411,0,0,1-1.408,1.4h-2.36a1.4,1.4,0,1,1,0-2.809h2.36A1.412,1.412,0,0,1,23.638,62.951Zm-6.1-11.159V65.631H33.98V51.792H30.27v4.475a1.87,1.87,0,0,1-3.055,1.445l-1.457-1.2-1.466,1.2a1.87,1.87,0,0,1-3.055-1.445V51.792Zm6.508,0h3.42v2.487l-.522-.428a1.871,1.871,0,0,0-2.368,0l-.53.428ZM34.328,68.44a2.458,2.458,0,0,0,2.459-2.456V51.438a2.459,2.459,0,0,0-2.459-2.455H17.18a2.464,2.464,0,0,0-2.459,2.455V65.984A2.464,2.464,0,0,0,17.18,68.44Zm38.154-4.007a1.405,1.405,0,0,1-1.408,1.4H68.507a1.4,1.4,0,1,1,0-2.809h2.567A1.405,1.405,0,0,1,72.481,64.432ZM28.921,83.562a.867.867,0,1,1,.869-.867A.868.868,0,0,1,28.921,83.562Zm0-4.543A3.676,3.676,0,1,0,32.6,82.7,3.679,3.679,0,0,0,28.921,79.019Zm45.763,4.543a.867.867,0,1,1,.869-.867A.868.868,0,0,1,74.684,83.562Zm0-4.543A3.676,3.676,0,1,0,78.36,82.7,3.679,3.679,0,0,0,74.684,79.019Zm-6.566-21.1V48.107H72.4l8.967,9.812Zm17.727,1.971a1.411,1.411,0,0,0-.248-1.514L74.171,45.885a1.671,1.671,0,0,0-1.333-.587H66.71a1.4,1.4,0,0,0-1.4,1.4V59.324a1.4,1.4,0,0,0,1.4,1.4H84.554a1.423,1.423,0,0,0,1.292-.837Zm1.879,12.47v2.191H86.044V72.36ZM87.5,81.291a.222.222,0,0,0,.223-.219V77.36H85.357a2.123,2.123,0,0,1-2.12-2.121V71.672a2.124,2.124,0,0,1,2.12-2.121h2.368V59.6a3.27,3.27,0,0,0-.911-2.337L75.4,44.767a3.3,3.3,0,0,0-2.559-1.127H63.655v37.65h3.262a7.892,7.892,0,0,1,15.533,0H87.5ZM74.684,87.782A5.088,5.088,0,1,0,69.592,82.7,5.089,5.089,0,0,0,74.684,87.782Zm-45.763,0A5.088,5.088,0,1,0,23.829,82.7,5.089,5.089,0,0,0,28.921,87.782ZM11.012,77.827v-5.37H60.84v8.835H36.687a7.892,7.892,0,0,0-15.533,0H14.472a3.469,3.469,0,0,1-3.461-3.464Zm55.4-58.138a1.405,1.405,0,0,1,1.408,1.4V40.831h2.086V14.567H8.892V65.631h2.086V21.094a1.405,1.405,0,0,1,1.408-1.4ZM13.785,32.635V28.971H65.013v3.664Zm51.228-6.473H13.785V22.5H65.013ZM8.37,3.9H70.428l3.742,7.859H4.628ZM88.892,55.362,77.466,42.872a6.109,6.109,0,0,0-4.629-2.041h-.124V14.567H76.4a1.407,1.407,0,0,0,1.267-2.008L72.581,1.892a1.405,1.405,0,0,0-1.267-.8H7.484a1.4,1.4,0,0,0-1.267.8L1.134,12.559A1.407,1.407,0,0,0,2.4,14.567H6.085V67.035a1.4,1.4,0,0,0,1.4,1.4h4.9a1.4,1.4,0,0,0,1.4-1.4V35.444H65.013v5.388H62.247a1.406,1.406,0,0,0-1.408,1.405V69.648H9.6a1.4,1.4,0,0,0-1.4,1.4v6.775A6.28,6.28,0,0,0,14.473,84.1h6.682a7.892,7.892,0,0,0,15.533,0h30.23a7.892,7.892,0,0,0,15.533,0H87.5a3.032,3.032,0,0,0,3.03-3.028V59.6a6.118,6.118,0,0,0-1.639-4.234Z" fill-rule="evenodd"/>
      </g>
    </g>
  </g>
</svg>
