<svg xmlns="http://www.w3.org/2000/svg" xmlns:xlink="http://www.w3.org/1999/xlink" width="99.032" height="103" viewBox="0 0 99.032 103">
  <defs>
    <filter id="Elipse_11501" x="0" y="3.003" width="99.032" height="99.997" filterUnits="userSpaceOnUse">
      <feOffset dy="3" input="SourceAlpha"/>
      <feGaussianBlur stdDeviation="3" result="blur"/>
      <feFlood flood-opacity="0.161"/>
      <feComposite operator="in" in2="blur"/>
      <feComposite in="SourceGraphic"/>
    </filter>
    <filter id="Elipse_11501-2" x="0" y="3.003" width="99.032" height="99.997" filterUnits="userSpaceOnUse">
      <feOffset dy="6" input="SourceAlpha"/>
      <feGaussianBlur stdDeviation="3" result="blur-2"/>
      <feFlood flood-opacity="0.161" result="color"/>
      <feComposite operator="out" in="SourceGraphic" in2="blur-2"/>
      <feComposite operator="in" in="color"/>
      <feComposite operator="in" in2="SourceGraphic"/>
    </filter>
    <clipPath id="clip-path">
      <rect id="Rectángulo_401455" data-name="Rectángulo 401455" width="22.59" height="32.428" fill="#12263f"/>
    </clipPath>
  </defs>
  <g id="Grupo_1100998" data-name="Grupo 1100998" transform="translate(-174.968 -5517)">
    <g id="Grupo_1100138" data-name="Grupo 1100138" transform="translate(-737.365 5129.333)">
      <g id="Grupo_1099492" data-name="Grupo 1099492" transform="translate(921.333 396.67)">
        <g data-type="innerShadowGroup">
          <g transform="matrix(1, 0, 0, 1, -9, -9)" filter="url(#Elipse_11501)">
            <ellipse id="Elipse_11501-3" data-name="Elipse 11501" cx="40.516" cy="40.998" rx="40.516" ry="40.998" transform="translate(9 9)" fill="#e8f57a"/>
          </g>
          <g transform="matrix(1, 0, 0, 1, -9, -9)" filter="url(#Elipse_11501-2)">
            <ellipse id="Elipse_11501-4" data-name="Elipse 11501" cx="40.516" cy="40.998" rx="40.516" ry="40.998" transform="translate(9 9)" fill="#fff"/>
          </g>
        </g>
        <g id="cliente-leal" transform="translate(-3.141 2.988)">
          <g id="Grupo_1100732" data-name="Grupo 1100732" transform="translate(15.39 8.967)">
            <g id="Grupo_1100725" data-name="Grupo 1100725" transform="translate(0 33.711)">
              <path id="Trazado_885232" data-name="Trazado 885232" d="M53.133,302.59l11.078-6.418c2.079-1.2,4.193-2.059,6.478-1.317,2.548.826,6.708,2.6,10.951,3.366a3.077,3.077,0,0,1,2.128,3.687c-.429,1.6-1.78,2.424-3.687,2.129l1.483.237a6.9,6.9,0,0,0,4.748-.827l10.651-6.2c8.279-4.822,9.5,2.6,6.743,4.291l-19.329,11.9a7.088,7.088,0,0,1-5.74.809l-14.02-3.757-5.192,3a2.1,2.1,0,0,1-2.859-.766l-4.2-7.272A2.1,2.1,0,0,1,53.133,302.59Z" transform="translate(-48.499 -294.578)" fill="#f6dccd" fill-rule="evenodd"/>
              <path id="Trazado_885233" data-name="Trazado 885233" d="M230.632,341.413a3.039,3.039,0,0,1-3.434,1.465c-2.3-.607-4.59-1.23-6.885-1.845a1.152,1.152,0,0,1,.6-2.226Z" transform="translate(-195.615 -333.421)" fill="#f1cbbc" fill-rule="evenodd"/>
              <path id="Trazado_885234" data-name="Trazado 885234" d="M53.133,302.59l11.078-6.418c2.079-1.2,4.193-2.059,6.478-1.317,1.363.442,3.188,1.155,5.24,1.84l-21.46,12.39-2.1-3.637A2.1,2.1,0,0,1,53.133,302.59Z" transform="translate(-48.499 -294.578)" fill="#f1cbbc" fill-rule="evenodd"/>
              <path id="Trazado_885235" data-name="Trazado 885235" d="M28.335,328.633l8.786,15.524a1.573,1.573,0,0,1-.592,2.137l-2.988,1.691a1.573,1.573,0,0,1-2.137-.592l-8.786-15.524a1.573,1.573,0,0,1,.592-2.137L26.2,328.04a1.573,1.573,0,0,1,2.137.592Z" transform="translate(-22.415 -323.813)" fill="#d1d1d6" fill-rule="evenodd"/>
              <path id="Trazado_885236" data-name="Trazado 885236" d="M62.691,339.3l1.555,2.748,1.538,2.717A1.573,1.573,0,0,1,65.2,346.9l1.068-.6a1.573,1.573,0,0,0,.592-2.137l-1.543-2.726-3.1-5.474-3.1-5.48-1.043-1.843a1.574,1.574,0,0,0-1.827-.726l1.806,3.191,3.1,5.474L62.69,339.3Z" transform="translate(-52.149 -323.814)" fill="#b1b1b5" fill-rule="evenodd"/>
            </g>
            <g id="Grupo_1100726" data-name="Grupo 1100726" transform="translate(38.536 13.783)">
              <path id="Trazado_885237" data-name="Trazado 885237" d="M341.877,215.172h15.26a1.014,1.014,0,0,0,.982-1.266,8.894,8.894,0,0,0-17.223,0,1.014,1.014,0,0,0,.982,1.266Z" transform="translate(-340.861 -197.878)" fill="#8ac9fe" fill-rule="evenodd"/>
              <path id="Trazado_885238" data-name="Trazado 885238" d="M412.578,215.172a1.013,1.013,0,0,0,.982-1.266,8.9,8.9,0,0,0-9.625-6.612,8.9,8.9,0,0,1,7.6,6.612,1.014,1.014,0,0,1-.982,1.266Z" transform="translate(-396.302 -197.878)" fill="#60b7ff" fill-rule="evenodd"/>
              <ellipse id="Elipse_11541" data-name="Elipse 11541" cx="4.496" cy="4.496" rx="4.496" ry="4.496" transform="translate(3.903 8.983) rotate(-86.849)" fill="#f6dccd"/>
              <path id="Trazado_885239" data-name="Trazado 885239" d="M407.731,132.174a4.5,4.5,0,1,1-.63,8.948,4.5,4.5,0,0,0,0-8.9A4.512,4.512,0,0,1,407.731,132.174Z" transform="translate(-399.085 -131.899)" fill="#f1cbbc" fill-rule="evenodd"/>
            </g>
            <g id="Grupo_1100727" data-name="Grupo 1100727" transform="translate(41.212 0)">
              <path id="Trazado_885240" data-name="Trazado 885240" d="M369.215,16.181l1.359,3.58a.278.278,0,0,0,.251.182l3.825.186a.283.283,0,0,1,.164.5l-2.985,2.4a.278.278,0,0,0-.1.3l1,3.7a.283.283,0,0,1-.428.311l-3.2-2.1a.278.278,0,0,0-.31,0l-3.2,2.1a.283.283,0,0,1-.428-.311l1-3.7a.278.278,0,0,0-.1-.3l-2.985-2.4a.283.283,0,0,1,.164-.5l3.825-.186a.278.278,0,0,0,.251-.182l1.359-3.58A.284.284,0,0,1,369.215,16.181Z" transform="translate(-362.981 -15.999)" fill="#ffe177" fill-rule="evenodd"/>
              <path id="Trazado_885241" data-name="Trazado 885241" d="M384.988,16.181l1.359,3.58a.278.278,0,0,0,.249.182l-1.279-.062a.278.278,0,0,1-.251-.182l-.972-2.56.364-.958A.284.284,0,0,1,384.988,16.181Zm4.156,3.886,1.279.062a.283.283,0,0,1,.164.5l-2.985,2.4a.278.278,0,0,0-.1.3l1,3.7a.283.283,0,0,1-.428.311l-.913-.6-.944-3.471a.278.278,0,0,1,.1-.3l2.985-2.4A.283.283,0,0,0,389.144,20.067Zm-4.575,5.169-3.2,2.1a.283.283,0,0,1-.428-.311l.1-.376,2.687-1.759a.278.278,0,0,1,.31,0Z" transform="translate(-378.754 -15.999)" fill="#ffd064" fill-rule="evenodd"/>
            </g>
            <g id="Grupo_1100728" data-name="Grupo 1100728" transform="translate(9.962 14.03)">
              <path id="Trazado_885242" data-name="Trazado 885242" d="M105.754,215.172h15.26a1.013,1.013,0,0,0,.982-1.266,8.894,8.894,0,0,0-17.223,0,1.014,1.014,0,0,0,.982,1.266Z" transform="translate(-104.738 -198.125)" fill="#8ac9fe" fill-rule="evenodd"/>
              <path id="Trazado_885243" data-name="Trazado 885243" d="M176.454,215.172a1.013,1.013,0,0,0,.982-1.266,8.9,8.9,0,0,0-9.625-6.612,8.9,8.9,0,0,1,7.6,6.612,1.014,1.014,0,0,1-.982,1.266Z" transform="translate(-160.179 -198.125)" fill="#60b7ff" fill-rule="evenodd"/>
              <circle id="Elipse_11542" data-name="Elipse 11542" cx="4.496" cy="4.496" r="4.496" transform="translate(4.15 0)" fill="#f6dccd"/>
              <path id="Trazado_885244" data-name="Trazado 885244" d="M171.607,131.939a4.5,4.5,0,1,1-.63,8.948,4.5,4.5,0,0,0,0-8.9A4.528,4.528,0,0,1,171.607,131.939Z" transform="translate(-162.961 -131.939)" fill="#f1cbbc" fill-rule="evenodd"/>
            </g>
            <g id="Grupo_1100729" data-name="Grupo 1100729" transform="translate(12.639 0)">
              <path id="Trazado_885245" data-name="Trazado 885245" d="M133.091,16.181l1.359,3.58a.278.278,0,0,0,.251.182l3.825.186a.283.283,0,0,1,.164.5l-2.985,2.4a.278.278,0,0,0-.1.3l1,3.7a.283.283,0,0,1-.428.311l-3.2-2.1a.278.278,0,0,0-.31,0l-3.2,2.1a.283.283,0,0,1-.428-.311l1-3.7a.278.278,0,0,0-.1-.3l-2.985-2.4a.283.283,0,0,1,.164-.5l3.825-.186a.278.278,0,0,0,.251-.182l1.359-3.58A.284.284,0,0,1,133.091,16.181Z" transform="translate(-126.856 -15.999)" fill="#ffe177" fill-rule="evenodd"/>
              <path id="Trazado_885246" data-name="Trazado 885246" d="M148.864,16.181l1.359,3.58a.278.278,0,0,0,.249.182l-1.279-.062a.278.278,0,0,1-.251-.182l-.972-2.56.364-.958A.284.284,0,0,1,148.864,16.181Zm4.156,3.886,1.279.062a.283.283,0,0,1,.164.5l-2.985,2.4a.278.278,0,0,0-.1.3l1,3.7a.283.283,0,0,1-.428.311l-.913-.6-.944-3.471a.278.278,0,0,1,.1-.3l2.985-2.4A.283.283,0,0,0,153.02,20.067Zm-4.575,5.169-3.2,2.1a.283.283,0,0,1-.428-.311l.1-.376,2.687-1.759a.278.278,0,0,1,.31,0Z" transform="translate(-142.63 -15.999)" fill="#ffd064" fill-rule="evenodd"/>
            </g>
            <g id="Grupo_1100730" data-name="Grupo 1100730" transform="translate(24.249 14.361)">
              <path id="Trazado_885247" data-name="Trazado 885247" d="M223.817,220.7h15.26a1.014,1.014,0,0,0,.982-1.266,8.894,8.894,0,0,0-17.223,0,1.014,1.014,0,0,0,.981,1.266Z" transform="translate(-222.801 -203.316)" fill="#ffe177" fill-rule="evenodd"/>
              <path id="Trazado_885248" data-name="Trazado 885248" d="M294.516,220.7a1.013,1.013,0,0,0,.982-1.266,8.9,8.9,0,0,0-9.625-6.612,8.9,8.9,0,0,1,7.6,6.612,1.014,1.014,0,0,1-.982,1.266Z" transform="translate(-278.241 -203.316)" fill="#ffd064" fill-rule="evenodd"/>
              <ellipse id="Elipse_11543" data-name="Elipse 11543" cx="4.496" cy="4.496" rx="4.496" ry="4.496" transform="translate(3.874 8.974) rotate(-86.445)" fill="#f6dccd"/>
              <path id="Trazado_885249" data-name="Trazado 885249" d="M289.669,136.909a4.5,4.5,0,1,1-.63,8.948,4.5,4.5,0,0,0,0-8.9A4.528,4.528,0,0,1,289.669,136.909Z" transform="translate(-281.024 -136.639)" fill="#f1cbbc" fill-rule="evenodd"/>
            </g>
            <g id="Grupo_1100731" data-name="Grupo 1100731" transform="translate(26.925 0)">
              <path id="Trazado_885250" data-name="Trazado 885250" d="M251.152,16.181l1.359,3.58a.278.278,0,0,0,.251.182l3.825.186a.283.283,0,0,1,.164.5l-2.985,2.4a.278.278,0,0,0-.1.3l1,3.7a.283.283,0,0,1-.428.311l-3.2-2.1a.278.278,0,0,0-.31,0l-3.2,2.1a.283.283,0,0,1-.428-.311l1-3.7a.278.278,0,0,0-.1-.3l-2.985-2.4a.283.283,0,0,1,.164-.5l3.825-.186a.278.278,0,0,0,.251-.182l1.359-3.58A.284.284,0,0,1,251.152,16.181Z" transform="translate(-244.918 -15.999)" fill="#ffe177" fill-rule="evenodd"/>
              <path id="Trazado_885251" data-name="Trazado 885251" d="M266.926,16.181l1.359,3.58a.278.278,0,0,0,.249.182l-1.279-.062a.278.278,0,0,1-.251-.182l-.972-2.56.364-.958A.284.284,0,0,1,266.926,16.181Zm4.156,3.886,1.279.062a.283.283,0,0,1,.164.5l-2.985,2.4a.278.278,0,0,0-.1.3l1,3.7a.283.283,0,0,1-.428.311l-.913-.6-.944-3.471a.278.278,0,0,1,.1-.3l2.985-2.4A.283.283,0,0,0,271.082,20.067Zm-4.575,5.169-3.2,2.1a.283.283,0,0,1-.428-.311l.1-.376,2.687-1.759a.278.278,0,0,1,.31,0Z" transform="translate(-260.692 -15.999)" fill="#ffd064" fill-rule="evenodd"/>
            </g>
          </g>
          <path id="Trazado_885252" data-name="Trazado 885252" d="M60.746,13.878a1.253,1.253,0,0,0,1.108-.806l.719-1.894.719,1.894a1.252,1.252,0,0,0,1.108.806l2.024.1-1.578,1.27a1.248,1.248,0,0,0-.423,1.3l.531,1.954L63.26,17.394a1.254,1.254,0,0,0-1.371,0l-1.7,1.11.531-1.954a1.249,1.249,0,0,0-.424-1.3l-1.578-1.27Zm-4.643.478,2.636,2.118-.887,3.262a1.249,1.249,0,0,0,1.893,1.375l2.829-1.852L65.4,21.111A1.251,1.251,0,0,0,67.3,19.736l-.887-3.262,2.634-2.118a1.251,1.251,0,0,0-.722-2.226l-3.378-.164L63.744,8.8a1.253,1.253,0,0,0-2.34,0l-1.2,3.161-3.377.164a1.252,1.252,0,0,0-.724,2.226Zm-9.644-.478a1.251,1.251,0,0,0,1.11-.806l.719-1.894.719,1.894a1.251,1.251,0,0,0,1.108.806l2.023.1-1.579,1.27a1.252,1.252,0,0,0-.424,1.3l.531,1.954-1.693-1.108a1.256,1.256,0,0,0-1.372,0L45.907,18.5l.531-1.954a1.25,1.25,0,0,0-.424-1.3l-1.578-1.27Zm-4.642.478,2.635,2.118-.887,3.262a1.25,1.25,0,0,0,1.892,1.375l2.83-1.852,2.829,1.853a1.252,1.252,0,0,0,1.893-1.376l-.887-3.262,2.634-2.118a1.251,1.251,0,0,0-.722-2.226l-3.377-.164L49.456,8.8a1.252,1.252,0,0,0-2.339,0l-1.2,3.161-3.376.164a1.252,1.252,0,0,0-.723,2.226Zm-9.644-.478a1.253,1.253,0,0,0,1.109-.806L34,11.178l.719,1.894a1.252,1.252,0,0,0,1.108.806l2.024.1-1.579,1.27a1.251,1.251,0,0,0-.424,1.3l.531,1.954-1.694-1.108a1.25,1.25,0,0,0-1.371,0L31.62,18.5l.531-1.954a1.251,1.251,0,0,0-.424-1.3l-1.579-1.27Zm-4.643.478,2.636,2.118-.887,3.262a1.251,1.251,0,0,0,1.893,1.375L34,19.259l2.828,1.852a1.251,1.251,0,0,0,1.893-1.375l-.887-3.262,2.635-2.119a1.25,1.25,0,0,0-.722-2.224l-3.378-.164-1.2-3.161a1.252,1.252,0,0,0-2.339,0l-1.2,3.161-3.376.164a1.252,1.252,0,0,0-.724,2.225ZM34,33.078a7.916,7.916,0,0,1,6.181,2.966,9.781,9.781,0,0,0-1.407,3.033H26.31a7.906,7.906,0,0,1,7.69-6Zm-3.529-5.465A3.528,3.528,0,1,1,34,31.141a3.532,3.532,0,0,1-3.529-3.529Zm17.815,6.134a7.906,7.906,0,0,1,7.689,6H40.6a7.906,7.906,0,0,1,7.69-6Zm0-8.992a3.528,3.528,0,1,1-3.527,3.529A3.532,3.532,0,0,1,48.287,24.754Zm14.286,8.323a7.9,7.9,0,0,1,7.689,6H57.8a9.784,9.784,0,0,0-1.409-3.033A7.914,7.914,0,0,1,62.573,33.078Zm0-8.993a3.528,3.528,0,1,1-3.527,3.528,3.532,3.532,0,0,1,3.527-3.528ZM25.159,41.012H38.525a.954.954,0,0,0,.2.348.967.967,0,0,0,.72.321H57.128a.963.963,0,0,0,.919-.669H71.415a.967.967,0,0,0,.962-1.071A9.83,9.83,0,0,0,66.1,31.786a5.463,5.463,0,1,0-7.041,0,9.851,9.851,0,0,0-3.938,2.76,9.879,9.879,0,0,0-3.309-2.093,5.464,5.464,0,1,0-7.043,0,9.85,9.85,0,0,0-3.308,2.095,9.846,9.846,0,0,0-3.939-2.762,5.464,5.464,0,1,0-7.039,0A9.832,9.832,0,0,0,24.2,39.941a.968.968,0,0,0,.964,1.071Zm-4.827,9.4a1.067,1.067,0,1,1-1.21-.9A1.068,1.068,0,0,1,20.332,50.416Zm49.759-1.607-19.328,11.9a6.136,6.136,0,0,1-4.982.7L31.763,57.652a.971.971,0,0,0-.734.1l-2.112,1.22L23.67,49.7l7.919-4.589c1.771-1.026,3.687-1.885,5.695-1.234.648.211,1.393.481,2.257.793a55.161,55.161,0,0,0,8.752,2.592,2.1,2.1,0,0,1,1.435,2.5A2,2,0,0,1,47.3,51.181c-1.661-.334-3.17-.762-4.75-1.21-.708-.2-1.439-.409-2.209-.615a.968.968,0,0,0-.5,1.87c.756.2,1.482.409,2.183.607,1.628.462,3.184.9,4.924,1.251l.015,0c.436.086.882.167,1.344.241a7.838,7.838,0,0,0,5.388-.947l10.65-6.2c3.055-1.779,5.4-1.963,6.283-.494a2.463,2.463,0,0,1-.535,3.123ZM29.31,63.954a.6.6,0,0,0-.054-.455L20.47,47.975a.606.606,0,0,0-.529-.3.586.586,0,0,0-.289.075l-2.989,1.692a.608.608,0,0,0-.226.818l8.785,15.523a.6.6,0,0,0,.363.281.591.591,0,0,0,.455-.054l2.989-1.691a.6.6,0,0,0,.28-.363ZM72.287,44.691a4.374,4.374,0,0,1-1.18,5.768L51.778,62.36a7.943,7.943,0,0,1-4.225,1.231,8.772,8.772,0,0,1-2.273-.311L31.648,59.627,29.87,60.654l1.07,1.891A2.539,2.539,0,0,1,29.983,66l-2.989,1.692a2.512,2.512,0,0,1-1.242.328,2.552,2.552,0,0,1-.685-.093,2.522,2.522,0,0,1-1.53-1.193L14.752,51.211a2.54,2.54,0,0,1,.957-3.457L18.7,46.063a2.538,2.538,0,0,1,3.456.957l.562.992,7.9-4.578c2.056-1.191,4.526-2.288,7.263-1.4.677.22,1.474.508,2.317.813a53.307,53.307,0,0,0,8.507,2.521,1.2,1.2,0,0,1,.126.033A4.058,4.058,0,0,1,51.6,50.257a4.234,4.234,0,0,1-.464,1.1,5.879,5.879,0,0,0,1.586-.646l10.65-6.2c6.059-3.527,8.358-.75,8.918.185Z" transform="translate(0)" fill-rule="evenodd"/>
        </g>
      </g>
      <g id="Grupo_1099581" data-name="Grupo 1099581" transform="translate(921.333 387.667)">
        <g id="Grupo_1099580" data-name="Grupo 1099580">
          <g id="Grupo_1099579" data-name="Grupo 1099579" clip-path="url(#clip-path)">
            <path id="Trazado_877686" data-name="Trazado 877686" d="M11.129.012A11.1,11.1,0,0,1,16.906,1.5a11.339,11.339,0,0,1,4.418,15.159L11.866,32.018a1.175,1.175,0,0,1-.361.375.457.457,0,0,1-.248.03l-.023-.005c-.33-.072-.671-.805-.838-1.071L2.691,18.864C1.021,16.121.057,14.551.067,11.2A6.267,6.267,0,0,1,.1,10.219l.184-1.1A11.4,11.4,0,0,1,9.53.162a9.692,9.692,0,0,1,1.6-.15" transform="translate(-0.062 -0.005)" fill="#12263f"/>
          </g>
        </g>
        <circle id="Elipse_11513" data-name="Elipse 11513" cx="5.306" cy="5.306" r="5.306" transform="translate(5.788 5.145)" fill="#fff"/>
      </g>
    </g>
  </g>
</svg>
