<svg xmlns="http://www.w3.org/2000/svg" xmlns:xlink="http://www.w3.org/1999/xlink" width="124.011" height="125.273" viewBox="0 0 124.011 125.273">
  <defs>
    <filter id="Elipse_11501" x="0" y="0" width="124.011" height="125.273" filterUnits="userSpaceOnUse">
      <feOffset dy="3" input="SourceAlpha"/>
      <feGaussianBlur stdDeviation="3" result="blur"/>
      <feFlood flood-opacity="0.161"/>
      <feComposite operator="in" in2="blur"/>
      <feComposite in="SourceGraphic"/>
    </filter>
    <filter id="Elipse_11501-2" x="0" y="0" width="124.011" height="125.273" filterUnits="userSpaceOnUse">
      <feOffset dy="6" input="SourceAlpha"/>
      <feGaussianBlur stdDeviation="3" result="blur-2"/>
      <feFlood flood-opacity="0.161" result="color"/>
      <feComposite operator="out" in="SourceGraphic" in2="blur-2"/>
      <feComposite operator="in" in="color"/>
      <feComposite operator="in" in2="SourceGraphic"/>
    </filter>
  </defs>
  <g id="Grupo_1100983" data-name="Grupo 1100983" transform="translate(-318.045 -648.007)">
    <g id="Grupo_1100179" data-name="Grupo 1100179" transform="translate(-0.005 -2373.993)">
      <g data-type="innerShadowGroup">
        <g transform="matrix(1, 0, 0, 1, 318.05, 3022)" filter="url(#Elipse_11501)">
          <ellipse id="Elipse_11501-3" data-name="Elipse 11501" cx="53.005" cy="53.636" rx="53.005" ry="53.636" transform="translate(9 6)" fill="#cae2fb"/>
        </g>
        <g transform="matrix(1, 0, 0, 1, 318.05, 3022)" filter="url(#Elipse_11501-2)">
          <ellipse id="Elipse_11501-4" data-name="Elipse 11501" cx="53.005" cy="53.636" rx="53.005" ry="53.636" transform="translate(9 6)" fill="#fff"/>
        </g>
      </g>
      <g id="lista-de-verificacion" transform="translate(347.051 3049)">
        <path id="Trazado_885268" data-name="Trazado 885268" d="M46.906,34.064a3.181,3.181,0,0,1,1.771.536l7.434,4.957a5.317,5.317,0,0,0,2.953.894H66V38.322H59.066a3.186,3.186,0,0,1-1.772-.536l-3-2V0H13.839V6.387H0V66H40.452V59.613H54.29V50.657c.067-.016.136-.021.2-.037l4.952-1.238a13.856,13.856,0,0,1,3.361-.414H66V46.839H62.807a16.011,16.011,0,0,0-3.877.477l-4.952,1.238a13.921,13.921,0,0,1-7.741-.3l-1.794-.6a15.961,15.961,0,0,0-5.055-.82H30.1a3.2,3.2,0,0,1,3.194-3.194H45a3.185,3.185,0,0,0,.374-6.35l.874-3.231ZM45.561,50.276a15.935,15.935,0,0,0,5.055.821c.517,0,1.032-.045,1.545-.095v6.482H40.452V54a3.84,3.84,0,0,0,.819-1.518l.872-3.229a13.739,13.739,0,0,1,1.626.424Zm-5.552-1.284-.793,2.936a1.758,1.758,0,0,1-1.694,1.3h-.345a1.754,1.754,0,0,1-1.693-2.212l.553-2.046h3.352c.207,0,.414.016.622.024Zm-6.18-.024-.4,1.489a3.858,3.858,0,0,0,1.828,4.369l-.334,1.335,2.065.517.331-1.322h.2a3.866,3.866,0,0,0,.8-.094v8.61H2.129V8.516H15.968V2.129H52.161V34.365l-2.3-1.535a5.314,5.314,0,0,0-2.953-.894h-.082l4.431-16.392a3.886,3.886,0,0,0-3.749-4.9H47.16a3.891,3.891,0,0,0-3.749,2.871l-2.959,10.95V6.387H18.1V8.516H38.323V31.935h-2.2A5.264,5.264,0,0,0,32.958,33h-10.6v2.129h8.367l-2.129,2.129H22.355v2.129h4.11l-1.779,1.779a3.3,3.3,0,0,0,3.3,5.519c0,.052-.016.1-.016.154A2.131,2.131,0,0,0,30.1,48.968Zm8.2-7.452h-3.98l4.5-16.632L46.2,26.1ZM33.862,35a3.218,3.218,0,0,1,2.258-.935h1.737l-.869,3.213a5.274,5.274,0,0,0-3.567,1.539l-5.543,5.543a1.194,1.194,0,0,1-2.039-.843,1.186,1.186,0,0,1,.35-.844Zm1.065,5.323a3.208,3.208,0,0,1,1.461-.82l-.544,2.014h-2.11ZM49.2,14.987l-1.3,4.823-3.651-1.217,1.222-4.522a1.76,1.76,0,0,1,1.694-1.3h.345A1.755,1.755,0,0,1,49.2,14.987Zm-5.511,5.665,3.651,1.217-.588,2.173L43.1,22.825ZM45,39.387a1.065,1.065,0,1,1,0,2.129h-.767l.576-2.129Zm0,0" fill="#12263f"/>
        <path id="Trazado_885269" data-name="Trazado 885269" d="M59.677,80H32V90.645H59.677Zm-2.129,8.516H34.129V82.129H57.548Zm0,0" transform="translate(-27.742 -69.355)" fill="#12263f"/>
        <path id="Trazado_885270" data-name="Trazado 885270" d="M64,112h2.129v2.129H64Zm0,0" transform="translate(-55.484 -97.097)" fill="#12263f"/>
        <path id="Trazado_885271" data-name="Trazado 885271" d="M96,112h2.129v2.129H96Zm0,0" transform="translate(-83.226 -97.097)" fill="#12263f"/>
        <path id="Trazado_885272" data-name="Trazado 885272" d="M128,112h2.129v2.129H128Zm0,0" transform="translate(-110.968 -97.097)" fill="#12263f"/>
        <path id="Trazado_885273" data-name="Trazado 885273" d="M160,112h2.129v2.129H160Zm0,0" transform="translate(-138.71 -97.097)" fill="#12263f"/>
        <path id="Trazado_885274" data-name="Trazado 885274" d="M192,112h2.129v2.129H192Zm0,0" transform="translate(-166.452 -97.097)" fill="#12263f"/>
        <path id="Trazado_885275" data-name="Trazado 885275" d="M44.774,214.387H42.645v4.258H34.129v-8.516h6.387V208H32v12.774H44.774Zm0,0" transform="translate(-27.742 -180.323)" fill="#12263f"/>
        <path id="Trazado_885276" data-name="Trazado 885276" d="M71.118,178.344l-9.893,9.893-1.376-1.376-1.505,1.505,2.882,2.882,11.4-11.4Zm0,0" transform="translate(-50.58 -154.613)" fill="#12263f"/>
        <path id="Trazado_885277" data-name="Trazado 885277" d="M42.645,354.645H34.129v-8.516h6.387V344H32v12.774H44.774v-6.387H42.645Zm0,0" transform="translate(-27.742 -298.226)" fill="#12263f"/>
        <path id="Trazado_885278" data-name="Trazado 885278" d="M59.849,322.86l-1.505,1.505,2.882,2.882,11.4-11.4-1.505-1.505-9.893,9.893Zm0,0" transform="translate(-50.58 -272.516)" fill="#12263f"/>
        <path id="Trazado_885279" data-name="Trazado 885279" d="M256,440h2.129v2.129H256Zm0,0" transform="translate(-221.935 -381.452)" fill="#12263f"/>
        <path id="Trazado_885280" data-name="Trazado 885280" d="M152,440h11.71v2.129H152Zm0,0" transform="translate(-131.774 -381.452)" fill="#12263f"/>
        <path id="Trazado_885281" data-name="Trazado 885281" d="M168,216h13.839v2.129H168Zm0,0" transform="translate(-145.645 -187.258)" fill="#12263f"/>
      </g>
    </g>
  </g>
</svg>
