<svg xmlns="http://www.w3.org/2000/svg" xmlns:xlink="http://www.w3.org/1999/xlink" width="124.011" height="125.273" viewBox="0 0 124.011 125.273">
  <defs>
    <filter id="Elipse_11501" x="0" y="0" width="124.011" height="125.273" filterUnits="userSpaceOnUse">
      <feOffset dy="3" input="SourceAlpha"/>
      <feGaussianBlur stdDeviation="3" result="blur"/>
      <feFlood flood-opacity="0.161"/>
      <feComposite operator="in" in2="blur"/>
      <feComposite in="SourceGraphic"/>
    </filter>
    <filter id="Elipse_11501-2" x="0" y="0" width="124.011" height="125.273" filterUnits="userSpaceOnUse">
      <feOffset dy="6" input="SourceAlpha"/>
      <feGaussianBlur stdDeviation="3" result="blur-2"/>
      <feFlood flood-opacity="0.161" result="color"/>
      <feComposite operator="out" in="SourceGraphic" in2="blur-2"/>
      <feComposite operator="in" in="color"/>
      <feComposite operator="in" in2="SourceGraphic"/>
    </filter>
  </defs>
  <g id="Grupo_1100989" data-name="Grupo 1100989" transform="translate(-1073.375 -5263.371)">
    <g id="Grupo_1100208" data-name="Grupo 1100208" transform="translate(161.042 4872.371)">
      <g id="Grupo_1099492" data-name="Grupo 1099492" transform="translate(921.333 397)">
        <g data-type="innerShadowGroup">
          <g transform="matrix(1, 0, 0, 1, -9, -6)" filter="url(#Elipse_11501)">
            <ellipse id="Elipse_11501-3" data-name="Elipse 11501" cx="53.005" cy="53.636" rx="53.005" ry="53.636" transform="translate(9 6)" fill="#a4a1c5"/>
          </g>
          <g transform="matrix(1, 0, 0, 1, -9, -6)" filter="url(#Elipse_11501-2)">
            <ellipse id="Elipse_11501-4" data-name="Elipse 11501" cx="53.005" cy="53.636" rx="53.005" ry="53.636" transform="translate(9 6)" fill="#fff"/>
          </g>
        </g>
        <g id="Bookkeeping" transform="translate(13.676 13.279)">
          <path id="Trazado_885321" data-name="Trazado 885321" d="M71.735,69.211H70.294a2.392,2.392,0,0,0,.367-1.265V44.99a2.418,2.418,0,0,0-2.415-2.415H54.405v-16.4c0-4.559,0-6.935,0-8.184H65.916a.673.673,0,0,0,.673-.673V16.92a6.773,6.773,0,0,0-6.758-6.761c-2.336,0-40.514,0-40.589,0a6.769,6.769,0,0,0-6.762,6.762V61.391H7.925a.673.673,0,0,0-.673.673v1.621a6.789,6.789,0,0,0,3.411,5.867.656.656,0,0,0-.1.332.673.673,0,0,0,.673.673h60.5a.673.673,0,0,0,0-1.347ZM69.314,44.99V67.947a1.07,1.07,0,0,1-1.068,1.068H52.152a1.07,1.07,0,0,1-1.068-1.068V44.99a1.07,1.07,0,0,1,1.068-1.068H68.246a1.07,1.07,0,0,1,1.068,1.068ZM65.236,16.641H54.414a5.418,5.418,0,0,1,10.822,0Zm-51.407.277A5.421,5.421,0,0,1,19.243,11.5h36.53a7.034,7.034,0,0,0-2.719,5.163c0,.106,0,1.358,0,9.506v16.4h-.906a2.418,2.418,0,0,0-2.415,2.415v9.924a1.674,1.674,0,0,0-.649-.131H48.3v-18.3a1.143,1.143,0,0,0-1.138-1.144H43.084a1.146,1.146,0,0,0-1.145,1.144v18.3H40.518V41.108a1.139,1.139,0,0,0-1.138-1.138H35.3a1.143,1.143,0,0,0-1.144,1.138V54.784H32.733V48.773a1.143,1.143,0,0,0-1.138-1.144H27.514a1.146,1.146,0,0,0-1.145,1.144v6.011H24.947V44.732a1.143,1.143,0,0,0-1.138-1.144H19.728a1.143,1.143,0,0,0-1.138,1.144V54.784H17.8a1.684,1.684,0,1,0,0,3.367H49.088a1.674,1.674,0,0,0,.649-.131v9.926a2.383,2.383,0,0,0,.108.675,5.41,5.41,0,0,1-7.62-4.935V62.065a.681.681,0,0,0-.676-.678H13.828ZM23.6,54.784H19.937V44.934H23.6Zm25.487,1.347a.337.337,0,1,1,0,.673H17.8a.337.337,0,1,1,0-.673C27.569,56.136,41.853,56.131,49.088,56.131Zm-17.7-1.347H27.716V48.975h3.671Zm7.785,0H35.5V41.318h3.67Zm7.786,0H43.286v-18.1h3.671ZM8.6,63.686v-.948H40.875v.945A6.816,6.816,0,0,0,43.594,69.1H14.013A5.425,5.425,0,0,1,8.6,63.686Z" transform="translate(-0.409)" fill="#12263f"/>
          <path id="Trazado_885322" data-name="Trazado 885322" d="M6.673,99.191H8.737a.673.673,0,1,0,0-1.347H6.673a.673.673,0,1,0,0,1.347Z" transform="translate(0 -28.633)" fill="#12263f"/>
          <path id="Trazado_885323" data-name="Trazado 885323" d="M24.8,33.38a2.153,2.153,0,0,1-2.15-2.15.8.8,0,1,0-1.607,0A3.76,3.76,0,0,0,23.992,34.9v.7a.8.8,0,1,0,1.607,0v-.708a3.872,3.872,0,0,0,2.954-3.656A3.762,3.762,0,0,0,24.8,27.472a2.151,2.151,0,1,1,2.151-2.15.8.8,0,0,0,1.607,0A3.761,3.761,0,0,0,25.6,21.655v-.7a.8.8,0,1,0-1.607,0v.7a3.755,3.755,0,0,0,.8,7.423,2.153,2.153,0,0,1,2.151,2.151A2.237,2.237,0,0,1,24.8,33.38Z" transform="translate(-4.911 -3.265)" fill="#12263f"/>
          <path id="Trazado_885324" data-name="Trazado 885324" d="M44.151,20.506h18.03a.684.684,0,1,0,0-1.368H44.151a.684.684,0,0,0,0,1.368Z" transform="translate(-12.234 -2.933)" fill="#12263f"/>
          <path id="Trazado_885325" data-name="Trazado 885325" d="M44.151,28.545h18.03a.684.684,0,1,0,0-1.368H44.151a.684.684,0,0,0,0,1.368Z" transform="translate(-12.234 -5.558)" fill="#12263f"/>
          <path id="Trazado_885326" data-name="Trazado 885326" d="M44.151,36.585h18.03a.684.684,0,1,0,0-1.368H44.151a.684.684,0,0,0,0,1.368Z" transform="translate(-12.234 -8.183)" fill="#12263f"/>
          <path id="Trazado_885327" data-name="Trazado 885327" d="M44.151,44.624h9.015a.684.684,0,1,0,0-1.368H44.151a.684.684,0,1,0,0,1.368Z" transform="translate(-12.234 -10.808)" fill="#12263f"/>
          <path id="Trazado_885328" data-name="Trazado 885328" d="M75.062,64.5v3.905a1.07,1.07,0,0,0,1.069,1.069h12.42a1.07,1.07,0,0,0,1.069-1.069V64.5a1.07,1.07,0,0,0-1.069-1.069H76.131A1.07,1.07,0,0,0,75.062,64.5Zm1.347.278H88.274v3.35H76.408Z" transform="translate(-22.551 -17.396)" fill="#12263f"/>
          <path id="Trazado_885329" data-name="Trazado 885329" d="M80.48,86.289H76.52A1.113,1.113,0,0,0,75.408,87.4v3.25a1.113,1.113,0,0,0,1.111,1.111h3.96a1.113,1.113,0,0,0,1.111-1.111V87.4A1.113,1.113,0,0,0,80.48,86.289Zm-.235,4.126H76.755V87.636h3.489Z" transform="translate(-22.664 -24.86)" fill="#12263f"/>
          <path id="Trazado_885330" data-name="Trazado 885330" d="M92.57,86.289h-3.96A1.113,1.113,0,0,0,87.5,87.4v3.25a1.113,1.113,0,0,0,1.111,1.111h3.96a1.113,1.113,0,0,0,1.111-1.111V87.4A1.113,1.113,0,0,0,92.57,86.289Zm-.235,4.126H88.846V87.636h3.489Z" transform="translate(-26.612 -24.86)" fill="#12263f"/>
          <path id="Trazado_885331" data-name="Trazado 885331" d="M92.57,75.628h-3.96A1.113,1.113,0,0,0,87.5,76.739v3.25A1.113,1.113,0,0,0,88.611,81.1h3.96a1.113,1.113,0,0,0,1.111-1.111v-3.25A1.113,1.113,0,0,0,92.57,75.628Zm-.235,4.126H88.846V76.975h3.489Z" transform="translate(-26.612 -21.379)" fill="#12263f"/>
          <path id="Trazado_885332" data-name="Trazado 885332" d="M80.48,75.628H76.52a1.113,1.113,0,0,0-1.111,1.111v3.25A1.113,1.113,0,0,0,76.52,81.1h3.96a1.113,1.113,0,0,0,1.111-1.111v-3.25A1.113,1.113,0,0,0,80.48,75.628Zm-.235,4.126H76.755V76.975h3.489Z" transform="translate(-22.664 -21.379)" fill="#12263f"/>
        </g>
      </g>
    </g>
  </g>
</svg>
