<svg xmlns="http://www.w3.org/2000/svg" xmlns:xlink="http://www.w3.org/1999/xlink" width="122" height="123.238" viewBox="0 0 122 123.238">
  <defs>
    <filter id="Elipse_11501" x="0" y="0" width="122" height="123.238" filterUnits="userSpaceOnUse">
      <feOffset dy="3" input="SourceAlpha"/>
      <feGaussianBlur stdDeviation="3" result="blur"/>
      <feFlood flood-opacity="0.161"/>
      <feComposite operator="in" in2="blur"/>
      <feComposite in="SourceGraphic"/>
    </filter>
    <filter id="Elipse_11501-2" x="0" y="0" width="122" height="123.238" filterUnits="userSpaceOnUse">
      <feOffset dy="6" input="SourceAlpha"/>
      <feGaussianBlur stdDeviation="3" result="blur-2"/>
      <feFlood flood-opacity="0.161" result="color"/>
      <feComposite operator="out" in="SourceGraphic" in2="blur-2"/>
      <feComposite operator="in" in="color"/>
      <feComposite operator="in" in2="SourceGraphic"/>
    </filter>
  </defs>
  <g id="Grupo_1100983" data-name="Grupo 1100983" transform="translate(-361.051 -3072)">
    <g id="Grupo_1100039" data-name="Grupo 1100039">
      <g id="Grupo_1100030" data-name="Grupo 1100030" transform="translate(-551.282 2681)">
        <g id="Grupo_1099492" data-name="Grupo 1099492" transform="translate(921.333 397)">
          <g data-type="innerShadowGroup">
            <g transform="matrix(1, 0, 0, 1, -9, -6)" filter="url(#Elipse_11501)">
              <ellipse id="Elipse_11501-3" data-name="Elipse 11501" cx="52" cy="52.619" rx="52" ry="52.619" transform="translate(9 6)" fill="#a4a1c5"/>
            </g>
            <g transform="matrix(1, 0, 0, 1, -9, -6)" filter="url(#Elipse_11501-2)">
              <ellipse id="Elipse_11501-4" data-name="Elipse 11501" cx="52" cy="52.619" rx="52" ry="52.619" transform="translate(9 6)" fill="#fff"/>
            </g>
          </g>
        </g>
      </g>
      <g id="temporada-de-vacaciones" transform="translate(369.551 3100)">
        <g id="Grupo_1100038" data-name="Grupo 1100038" transform="translate(24.5)">
          <path id="Trazado_883365" data-name="Trazado 883365" d="M135.111,359.372h-6.12a4.5,4.5,0,0,1-4.49-4.49V339.509a.9.9,0,1,1,1.8,0v15.373a2.7,2.7,0,0,0,2.694,2.694h6.12a.9.9,0,1,1,0,1.8Z" transform="translate(-112.526 -298.067)" fill="#12263f"/>
          <path id="Trazado_883366" data-name="Trazado 883366" d="M267.736,231.636H243.842a.9.9,0,1,1,0-1.8h23.894a2.7,2.7,0,0,0,2.694-2.694V194.4a.9.9,0,1,1,1.8,0v32.748A4.5,4.5,0,0,1,267.736,231.636Z" transform="translate(-216.788 -170.331)" fill="#12263f"/>
          <path id="Trazado_883367" data-name="Trazado 883367" d="M167.067,123.258a.9.9,0,0,1-.9-.9V118.3H126.3v2.122a.9.9,0,1,1-1.8,0V117.4a.9.9,0,0,1,.9-.9h41.669a.9.9,0,0,1,.9.9v4.962A.9.9,0,0,1,167.067,123.258Z" transform="translate(-112.526 -102.551)" fill="#12263f"/>
          <path id="Línea_606" data-name="Línea 606" d="M-.894-5.7H-6.6a.9.9,0,0,1-.9-.9.9.9,0,0,1,.9-.9H-.894a.9.9,0,0,1,.9.9A.9.9,0,0,1-.894-5.7Z" transform="translate(42.463 10.673)" fill="#12263f"/>
          <path id="Línea_607" data-name="Línea 607" d="M-.874-5.7H-6.6a.9.9,0,0,1-.9-.9.9.9,0,0,1,.9-.9H-.874a.9.9,0,0,1,.9.9A.9.9,0,0,1-.874-5.7Z" transform="translate(32.445 10.673)" fill="#12263f"/>
          <path id="Trazado_883368" data-name="Trazado 883368" d="M167.067,39.072H125.4a.9.9,0,0,1-.9-.9V30.99a4.5,4.5,0,0,1,4.49-4.49h4.929a.9.9,0,0,1,0,1.8H128.99A2.7,2.7,0,0,0,126.3,30.99v6.286h39.873V30.99a2.7,2.7,0,0,0-2.694-2.694h-4.929a.9.9,0,0,1,0-1.8h4.929a4.5,4.5,0,0,1,4.49,4.49v7.184A.9.9,0,0,1,167.067,39.072Z" transform="translate(-112.526 -23.327)" fill="#12263f"/>
          <path id="Trazado_883369" data-name="Trazado 883369" d="M102.992,305.266a3.751,3.751,0,0,1-3.117-5.835.9.9,0,1,1,1.492,1,1.954,1.954,0,1,0,3.265.022.9.9,0,0,1,1.505-.979,3.751,3.751,0,0,1-3.145,5.793Z" transform="translate(-90.293 -263.227)" fill="#12263f"/>
          <path id="Trazado_883370" data-name="Trazado 883370" d="M47.43,272.3H27.194a2.694,2.694,0,1,1,0-5.388H47.43a2.694,2.694,0,0,1,0,5.388Zm-20.236-3.592a.9.9,0,1,0,0,1.8H47.43a.9.9,0,1,0,0-1.8Z" transform="translate(-24.5 -234.95)" fill="#12263f"/>
          <path id="Trazado_883371" data-name="Trazado 883371" d="M66.268,161.26H47.806a.9.9,0,0,1-.433-1.685c.011-.007,2.426-1.519,2.426-7.231,0-4.764,2.638-7.5,7.238-7.5s7.238,2.732,7.238,7.5c0,5.712,2.415,7.224,2.44,7.239a.908.908,0,0,1,.411,1.014A.893.893,0,0,1,66.268,161.26Zm-16.4-1.8H64.211a12.792,12.792,0,0,1-1.732-7.119c0-3.782-1.831-5.7-5.442-5.7s-5.442,1.918-5.442,5.7A12.792,12.792,0,0,1,49.863,159.464Z" transform="translate(-44.225 -127.505)" fill="#12263f"/>
          <path id="Trazado_883372" data-name="Trazado 883372" d="M162.822,381.679h-6.705a1.618,1.618,0,0,1-1.616-1.616v-6.705a1.618,1.618,0,0,1,1.616-1.616h6.705a1.618,1.618,0,0,1,1.616,1.616v6.705A1.618,1.618,0,0,1,162.822,381.679Zm-6.526-1.8h6.346v-6.346H156.3Z" transform="translate(-138.934 -327.23)" fill="#12263f"/>
          <path id="Trazado_883373" data-name="Trazado 883373" d="M272.822,381.679h-6.705a1.618,1.618,0,0,1-1.616-1.616v-6.705a1.618,1.618,0,0,1,1.616-1.616h6.705a1.618,1.618,0,0,1,1.616,1.616v6.705A1.618,1.618,0,0,1,272.822,381.679Zm-6.526-1.8h6.346v-6.346H266.3Z" transform="translate(-235.763 -327.23)" fill="#12263f"/>
          <path id="Trazado_883374" data-name="Trazado 883374" d="M382.822,381.679h-6.705a1.618,1.618,0,0,1-1.616-1.616v-6.705a1.618,1.618,0,0,1,1.616-1.616h6.705a1.618,1.618,0,0,1,1.616,1.616v6.705A1.618,1.618,0,0,1,382.822,381.679Zm-6.526-1.8h6.346v-6.346H376.3Z" transform="translate(-332.592 -327.23)" fill="#12263f"/>
          <path id="Trazado_883375" data-name="Trazado 883375" d="M272.822,244.147h-6.705a1.618,1.618,0,0,1-1.616-1.616v-6.705a1.618,1.618,0,0,1,1.616-1.616h6.705a1.618,1.618,0,0,1,1.616,1.616v6.705A1.618,1.618,0,0,1,272.822,244.147Zm-6.526-1.8h6.346v-6.346H266.3Z" transform="translate(-235.763 -206.165)" fill="#12263f"/>
          <path id="Trazado_883376" data-name="Trazado 883376" d="M382.822,244.147h-6.705a1.618,1.618,0,0,1-1.616-1.616v-6.705a1.618,1.618,0,0,1,1.616-1.616h6.705a1.618,1.618,0,0,1,1.616,1.616v6.705A1.618,1.618,0,0,1,382.822,244.147Zm-6.526-1.8h6.346v-6.346H376.3Z" transform="translate(-332.592 -206.165)" fill="#12263f"/>
          <path id="Línea_608" data-name="Línea 608" d="M7.767-5.7H-6.6a.9.9,0,0,1-.9-.9.9.9,0,0,1,.9-.9H7.767a.9.9,0,0,1,.9.9A.9.9,0,0,1,7.767-5.7Z" transform="translate(33.124 27.426)" fill="#12263f"/>
          <g id="Grupo_1100037" data-name="Grupo 1100037" transform="translate(20.771)">
            <path id="Trazado_883377" data-name="Trazado 883377" d="M200.854,10.178a2.889,2.889,0,0,1-2.885-2.885V2.885a2.885,2.885,0,0,1,5.77,0V7.292a2.885,2.885,0,0,1-2.885,2.885Zm0-8.382a1.09,1.09,0,0,0-1.089,1.089V7.292a1.089,1.089,0,1,0,2.178,0V2.885A1.09,1.09,0,0,0,200.854,1.8Z" transform="translate(-197.969)" fill="#12263f"/>
            <path id="Trazado_883378" data-name="Trazado 883378" d="M284.788,10.178A2.889,2.889,0,0,1,281.9,7.292V2.885a2.885,2.885,0,0,1,5.77,0V7.292a2.885,2.885,0,0,1-2.885,2.885Zm0-8.382A1.09,1.09,0,0,0,283.7,2.885V7.292a1.089,1.089,0,1,0,2.178,0V2.885A1.09,1.09,0,0,0,284.788,1.8Z" transform="translate(-271.853)" fill="#12263f"/>
            <path id="Trazado_883379" data-name="Trazado 883379" d="M368.722,10.178a2.889,2.889,0,0,1-2.885-2.885V2.885a2.885,2.885,0,1,1,5.77,0V7.292a2.885,2.885,0,0,1-2.885,2.885Zm0-8.382a1.09,1.09,0,0,0-1.089,1.089V7.292a1.089,1.089,0,1,0,2.178,0V2.885A1.09,1.09,0,0,0,368.722,1.8Z" transform="translate(-345.737)" fill="#12263f"/>
          </g>
          <path id="Trazado_883380" data-name="Trazado 883380" d="M184.116,369.761a.894.894,0,0,1-.483-.141l-1.944-1.242a.9.9,0,0,1,.967-1.514l1.2.763,3.4-5.2a.9.9,0,0,1,1.5.983l-3.885,5.941A.9.9,0,0,1,184.116,369.761Z" transform="translate(-162.503 -318.676)" fill="#12263f"/>
          <path id="Trazado_883381" data-name="Trazado 883381" d="M293.152,369.761a.894.894,0,0,1-.483-.141l-1.944-1.242a.9.9,0,1,1,.967-1.514l1.2.763,3.4-5.2a.9.9,0,1,1,1.5.983l-3.885,5.941A.9.9,0,0,1,293.152,369.761Z" transform="translate(-258.483 -318.676)" fill="#12263f"/>
        </g>
      </g>
    </g>
  </g>
</svg>
