<svg xmlns="http://www.w3.org/2000/svg" xmlns:xlink="http://www.w3.org/1999/xlink" width="85.729" height="88.061" viewBox="0 0 85.729 88.061">
  <defs>
    <filter id="Elipse_11501" x="0" y="1.525" width="85.729" height="86.536" filterUnits="userSpaceOnUse">
      <feOffset dy="3" input="SourceAlpha"/>
      <feGaussianBlur stdDeviation="3" result="blur"/>
      <feFlood flood-opacity="0.161"/>
      <feComposite operator="in" in2="blur"/>
      <feComposite in="SourceGraphic"/>
    </filter>
    <filter id="Elipse_11501-2" x="0" y="1.525" width="85.729" height="86.536" filterUnits="userSpaceOnUse">
      <feOffset dy="6" input="SourceAlpha"/>
      <feGaussianBlur stdDeviation="3" result="blur-2"/>
      <feFlood flood-opacity="0.161" result="color"/>
      <feComposite operator="out" in="SourceGraphic" in2="blur-2"/>
      <feComposite operator="in" in="color"/>
      <feComposite operator="in" in2="SourceGraphic"/>
    </filter>
    <clipPath id="clip-path">
      <rect id="Rectángulo_401455" data-name="Rectángulo 401455" width="18.881" height="27.105" fill="#12263f"/>
    </clipPath>
  </defs>
  <g id="Grupo_1101002" data-name="Grupo 1101002" transform="translate(-757.135 -3637.1)">
    <g id="Grupo_1100447" data-name="Grupo 1100447" transform="translate(-155.198 3249.433)">
      <g id="Grupo_1099492" data-name="Grupo 1099492" transform="translate(921.333 395.192)">
        <g data-type="innerShadowGroup">
          <g transform="matrix(1, 0, 0, 1, -9, -7.53)" filter="url(#Elipse_11501)">
            <ellipse id="Elipse_11501-3" data-name="Elipse 11501" cx="33.865" cy="34.268" rx="33.865" ry="34.268" transform="translate(9 7.53)" fill="#7ab8f5"/>
          </g>
          <g transform="matrix(1, 0, 0, 1, -9, -7.53)" filter="url(#Elipse_11501-2)">
            <ellipse id="Elipse_11501-4" data-name="Elipse 11501" cx="33.865" cy="34.268" rx="33.865" ry="34.268" transform="translate(9 7.53)" fill="#fff"/>
          </g>
        </g>
        <g id="entrega-logistica" transform="translate(13.343 14.931)">
          <g id="Grupo_1099490" data-name="Grupo 1099490" transform="translate(0.603 0.603)">
            <g id="Grupo_1099489" data-name="Grupo 1099489" transform="translate(0 0)">
              <g id="Grupo_1099486" data-name="Grupo 1099486">
                <g id="Grupo_1099484" data-name="Grupo 1099484" transform="translate(7.127)">
                  <g id="Grupo_1099483" data-name="Grupo 1099483">
                    <g id="Grupo_1099477" data-name="Grupo 1099477">
                      <path id="Trazado_875197" data-name="Trazado 875197" d="M128.043,55.3H96.967a.894.894,0,0,1-.894-.894V23.332a.894.894,0,0,1,.894-.894h31.077a.894.894,0,0,1,.894.894V54.408A.894.894,0,0,1,128.043,55.3Z" transform="translate(-96.073 -22.438)" fill="#f5827a"/>
                      <path id="Trazado_875199" data-name="Trazado 875199" d="M258.411,31.509h-6.073a.894.894,0,0,1-.894-.894V22.438h7.86v8.177A.894.894,0,0,1,258.411,31.509Z" transform="translate(-238.943 -22.438)" fill="#cae2fb"/>
                    </g>
                    <g id="Grupo_1099482" data-name="Grupo 1099482" transform="translate(21.926 15.882)">
                      <g id="Grupo_1099481" data-name="Grupo 1099481">
                        <g id="Grupo_1099480" data-name="Grupo 1099480">
                          <g id="Grupo_1099478" data-name="Grupo 1099478" transform="translate(0 0.742)">
                            <circle id="Elipse_11506" data-name="Elipse 11506" cx="3.746" cy="3.746" r="3.746" fill="#f2eff2"/>
                            <path id="Trazado_875201" data-name="Trazado 875201" d="M393.233,232.834a3.746,3.746,0,0,1-5.989,3q.076,0,.151,0a3.746,3.746,0,0,0,2.243-6.747A3.745,3.745,0,0,1,393.233,232.834Z" transform="translate(-385.74 -229.087)" fill="#e1dde1"/>
                          </g>
                          <g id="Grupo_1099479" data-name="Grupo 1099479" transform="translate(0.818)">
                            <path id="Trazado_875202" data-name="Trazado 875202" d="M378.789,220.781l2.264,4.529a.664.664,0,0,0,1.187,0l2.264-4.529a.664.664,0,0,0-.594-.96h-4.529a.664.664,0,0,0-.594.96Z" transform="translate(-378.718 -219.82)" fill="#64b9fc"/>
                            <path id="Trazado_875203" data-name="Trazado 875203" d="M403.758,220.785l-2.265,4.528a.663.663,0,0,1-1.187,0l-.65-1.3,1.613-3.227a.664.664,0,0,0-.593-.961h2.489A.664.664,0,0,1,403.758,220.785Z" transform="translate(-397.971 -219.824)" fill="#31a7fb"/>
                          </g>
                        </g>
                      </g>
                    </g>
                  </g>
                </g>
                <g id="Grupo_1099485" data-name="Grupo 1099485" transform="translate(0 10.228)">
                  <path id="Trazado_875204" data-name="Trazado 875204" d="M73.628,152.581h-9.1V151.2a1.653,1.653,0,0,1,1.653-1.653h5.8a1.653,1.653,0,0,1,1.653,1.653Z" transform="translate(-59.936 -149.546)" fill="#7ab8f5"/>
                  <path id="Trazado_875206" data-name="Trazado 875206" d="M24.955,205.829H8.326A.826.826,0,0,1,7.5,205V181.827A.826.826,0,0,1,8.326,181H24.955a.826.826,0,0,1,.826.826V205A.826.826,0,0,1,24.955,205.829Z" transform="translate(-7.5 -178.47)" fill="#9a9b87"/>
                  <path id="Trazado_875207" data-name="Trazado 875207" d="M196.506,181.831v23.175a.827.827,0,0,1-.826.826h-2.515a.827.827,0,0,0,.826-.826V181.831a.826.826,0,0,0-.826-.826h2.515A.826.826,0,0,1,196.506,181.831Z" transform="translate(-178.225 -178.474)" fill="#7a6e79"/>
                  <path id="Trazado_875208" data-name="Trazado 875208" d="M36.531,209.469H50.14v20.066H36.531Z" transform="translate(-34.195 -204.647)" fill="#f2eff2"/>
                  <path id="Trazado_875209" data-name="Trazado 875209" d="M178.994,209.469h2.146v20.066h-2.146Z" transform="translate(-165.195 -204.647)" fill="#e1dde1"/>
                  <path id="Trazado_875210" data-name="Trazado 875210" d="M106.321,184.421H105.3a.826.826,0,0,1-.826-.826V181h2.675v2.592A.826.826,0,0,1,106.321,184.421Z" transform="translate(-96.669 -178.471)" fill="#554e55"/>
                </g>
              </g>
              <g id="Grupo_1099488" data-name="Grupo 1099488" transform="translate(5.691 17.634)">
                <g id="Grupo_1099487" data-name="Grupo 1099487">
                  <path id="Trazado_875211" data-name="Trazado 875211" d="M80.808,246.935a1.028,1.028,0,0,1-.727-.3l-1.556-1.557a1.028,1.028,0,0,1,1.453-1.453l.83.83,2.561-2.561a1.028,1.028,0,1,1,1.453,1.453l-3.288,3.288A1.028,1.028,0,0,1,80.808,246.935Z" transform="translate(-78.224 -241.592)" fill="#64b9fc"/>
                </g>
              </g>
            </g>
          </g>
          <g id="Grupo_1099491" data-name="Grupo 1099491" transform="translate(0 0)">
            <path id="Trazado_875212" data-name="Trazado 875212" d="M39.7,14.938H34.94a.6.6,0,0,0,0,1.207H39.7a.291.291,0,0,1,.29.29V47.512a.291.291,0,0,1-.29.29H19.488V37.708a.6.6,0,0,0-1.207,0V52.3a.223.223,0,0,1-.223.223H1.43a.223.223,0,0,1-.223-.223V29.127A.223.223,0,0,1,1.43,28.9H7.8v1.084H2.939a.6.6,0,0,0-.6.6V50.657a.6.6,0,0,0,.6.6H16.549a.6.6,0,0,0,.6-.6V30.591a.6.6,0,0,0-.6-.6H11.685V28.9h6.373a.223.223,0,0,1,.223.223V34.86a.6.6,0,1,0,1.207,0V29.127a1.432,1.432,0,0,0-1.43-1.43H14.9v-.275a2.259,2.259,0,0,0-2.256-2.256H8.334v-8.73a.291.291,0,0,1,.29-.29h11v7.574a1.5,1.5,0,0,0,1.5,1.5H27.2a1.5,1.5,0,0,0,1.5-1.5V16.145h3.4a.6.6,0,0,0,0-1.207H8.624a1.5,1.5,0,0,0-1.5,1.5v8.731H6.845a2.259,2.259,0,0,0-2.256,2.256V27.7H1.43A1.432,1.432,0,0,0,0,29.127V52.3a1.432,1.432,0,0,0,1.43,1.43H18.058a1.431,1.431,0,0,0,1.43-1.43V49.009H39.7a1.5,1.5,0,0,0,1.5-1.5V16.435a1.5,1.5,0,0,0-1.5-1.5ZM27.489,23.719a.291.291,0,0,1-.29.29H21.126a.291.291,0,0,1-.29-.29V16.145h6.653v7.574ZM15.945,50.053H3.543V31.195H7.836a1.432,1.432,0,0,0,1.4,1.128h1.023a1.432,1.432,0,0,0,1.4-1.128h4.293Zm-5.467-19.16a.223.223,0,0,1-.223.223H9.233a.223.223,0,0,1-.223-.223V28.9h1.468v1.989ZM5.8,27.422a1.05,1.05,0,0,1,1.049-1.049h5.8a1.05,1.05,0,0,1,1.049,1.049V27.7H5.8Z" transform="translate(0 -14.938)"/>
            <path id="Trazado_875213" data-name="Trazado 875213" d="M368.749,212.922a1.259,1.259,0,0,0-1.078-.6h-4.529a1.267,1.267,0,0,0-1.133,1.834l.171.343a4.348,4.348,0,0,0,1.5,6.909.6.6,0,1,0,.479-1.108,3.141,3.141,0,0,1-1.382-4.606l1.5,2.99a1.267,1.267,0,0,0,2.267,0l1.5-2.99a3.14,3.14,0,0,1-1.486,4.648.6.6,0,1,0,.439,1.124,4.348,4.348,0,0,0,1.644-6.968l.171-.343A1.259,1.259,0,0,0,368.749,212.922Zm-3.288,5.222a.06.06,0,0,1-.108,0l-2.264-4.529a.06.06,0,0,1,.054-.087h4.529a.06.06,0,0,1,.054.087Z" transform="translate(-332.004 -196.438)"/>
            <path id="Trazado_875214" data-name="Trazado 875214" d="M406.661,347.975h-4.21a.6.6,0,1,0,0,1.207h4.21a.6.6,0,0,0,0-1.207Z" transform="translate(-369.512 -321.177)"/>
            <path id="Trazado_875215" data-name="Trazado 875215" d="M288.213,378.95H273.637a.6.6,0,1,0,0,1.207h14.575a.6.6,0,1,0,0-1.207Z" transform="translate(-251.064 -349.66)"/>
            <path id="Trazado_875216" data-name="Trazado 875216" d="M68.111,332.506l-.855.855-.214-.214a.6.6,0,0,0-.853.853l.641.641a.6.6,0,0,0,.854,0l1.282-1.282a.6.6,0,0,0-.854-.853Z" transform="translate(-60.7 -306.791)"/>
            <path id="Trazado_875217" data-name="Trazado 875217" d="M124.1,329.9h.83a.6.6,0,1,0,0-1.207h-.83a.6.6,0,0,0,0,1.207Z" transform="translate(-113.555 -303.451)"/>
            <path id="Trazado_875218" data-name="Trazado 875218" d="M124.1,351.892a.6.6,0,1,0,0,1.207h3.033a.6.6,0,1,0,0-1.207Z" transform="translate(-113.555 -324.779)"/>
            <path id="Trazado_875219" data-name="Trazado 875219" d="M68.111,391.627l-.855.855-.214-.214a.6.6,0,0,0-.853.853l.641.641a.6.6,0,0,0,.854,0l1.282-1.282a.6.6,0,0,0-.854-.853Z" transform="translate(-60.7 -361.154)"/>
            <path id="Trazado_875220" data-name="Trazado 875220" d="M124.1,389.025h.83a.6.6,0,0,0,0-1.207h-.83a.6.6,0,0,0,0,1.207Z" transform="translate(-113.555 -357.814)"/>
            <path id="Trazado_875221" data-name="Trazado 875221" d="M127.129,411.013H124.1a.6.6,0,1,0,0,1.207h3.033a.6.6,0,1,0,0-1.207Z" transform="translate(-113.556 -379.143)"/>
            <path id="Trazado_875222" data-name="Trazado 875222" d="M76.056,234.572l-2.135,2.135-.4-.4a1.62,1.62,0,0,0-1.153-.478h0a1.631,1.631,0,0,0-1.153,2.784l1.556,1.556a1.631,1.631,0,0,0,2.307,0l3.288-3.288a1.631,1.631,0,0,0-1.153-2.784h0A1.619,1.619,0,0,0,76.056,234.572Zm1.453.853a.424.424,0,0,1,0,.6l-3.287,3.288a.424.424,0,0,1-.6,0l-1.556-1.557a.424.424,0,0,1,.3-.724h0a.421.421,0,0,1,.3.124l.83.83a.6.6,0,0,0,.854,0l2.562-2.561a.421.421,0,0,1,.3-.124h0A.422.422,0,0,1,77.509,235.425Z" transform="translate(-65.043 -216.46)"/>
            <path id="Trazado_875223" data-name="Trazado 875223" d="M131.045,51.41h-2.156a2.241,2.241,0,1,0,0,1.207h2.156a.6.6,0,1,0,0-1.207Zm-4.314,1.638a1.034,1.034,0,1,1,.838-1.638h-.838a.6.6,0,0,0,0,1.207h.838A1.033,1.033,0,0,1,126.731,53.047Z" transform="translate(-114.473 -46.969)"/>
            <path id="Trazado_875224" data-name="Trazado 875224" d="M189.862,92.838h-.8a.6.6,0,0,0,0,1.207h.8a.6.6,0,0,0,0-1.207Z" transform="translate(-173.29 -86.57)"/>
          </g>
        </g>
      </g>
      <g id="Grupo_1099581" data-name="Grupo 1099581" transform="translate(921.333 387.667)">
        <g id="Grupo_1099580" data-name="Grupo 1099580">
          <g id="Grupo_1099579" data-name="Grupo 1099579" clip-path="url(#clip-path)">
            <path id="Trazado_877686" data-name="Trazado 877686" d="M9.313.011a9.274,9.274,0,0,1,4.828,1.241,9.477,9.477,0,0,1,3.693,12.67l-7.9,12.84a.982.982,0,0,1-.3.314.382.382,0,0,1-.207.025l-.019,0c-.276-.06-.561-.673-.7-.9L2.26,15.768c-1.4-2.292-2.2-3.6-2.193-6.4A5.239,5.239,0,0,1,.1,8.542l.154-.92A9.525,9.525,0,0,1,7.976.136,8.1,8.1,0,0,1,9.313.011" transform="translate(-0.063 -0.005)" fill="#12263f"/>
          </g>
        </g>
        <circle id="Elipse_11513" data-name="Elipse 11513" cx="4.435" cy="4.435" r="4.435" transform="translate(4.838 4.3)" fill="#fff"/>
      </g>
    </g>
  </g>
</svg>
