<svg xmlns="http://www.w3.org/2000/svg" xmlns:xlink="http://www.w3.org/1999/xlink" width="123.105" height="124.357" viewBox="0 0 123.105 124.357">
  <defs>
    <filter id="Elipse_11501" x="0" y="0" width="123.105" height="124.357" filterUnits="userSpaceOnUse">
      <feOffset dy="3" input="SourceAlpha"/>
      <feGaussianBlur stdDeviation="3" result="blur"/>
      <feFlood flood-opacity="0.161"/>
      <feComposite operator="in" in2="blur"/>
      <feComposite in="SourceGraphic"/>
    </filter>
    <filter id="Elipse_11501-2" x="0" y="0" width="123.105" height="124.357" filterUnits="userSpaceOnUse">
      <feOffset dy="6" input="SourceAlpha"/>
      <feGaussianBlur stdDeviation="3" result="blur-2"/>
      <feFlood flood-opacity="0.161" result="color"/>
      <feComposite operator="out" in="SourceGraphic" in2="blur-2"/>
      <feComposite operator="in" in="color"/>
      <feComposite operator="in" in2="SourceGraphic"/>
    </filter>
  </defs>
  <g id="Grupo_1100984" data-name="Grupo 1100984" transform="translate(-696.051 -3070)">
    <g id="Grupo_1100048" data-name="Grupo 1100048">
      <g data-type="innerShadowGroup">
        <g transform="matrix(1, 0, 0, 1, 696.05, 3070)" filter="url(#Elipse_11501)">
          <ellipse id="Elipse_11501-3" data-name="Elipse 11501" cx="52.553" cy="53.178" rx="52.553" ry="53.178" transform="translate(9 6)" fill="#a4a1c5"/>
        </g>
        <g transform="matrix(1, 0, 0, 1, 696.05, 3070)" filter="url(#Elipse_11501-2)">
          <ellipse id="Elipse_11501-4" data-name="Elipse 11501" cx="52.553" cy="53.178" rx="52.553" ry="53.178" transform="translate(9 6)" fill="#fff"/>
        </g>
      </g>
      <g id="inventario_1_" data-name="inventario (1)" transform="translate(725.051 3097)">
        <path id="Línea_606" data-name="Línea 606" d="M-1.083-5.559H-6.53a.97.97,0,0,1-.97-.97.97.97,0,0,1,.97-.97h5.447a.97.97,0,0,1,.97.97A.97.97,0,0,1-1.083-5.559Z" transform="translate(11.446 28.394)" fill="#12263f"/>
        <path id="Línea_607" data-name="Línea 607" d="M36.02-5.559H-6.53a.97.97,0,0,1-.97-.97.97.97,0,0,1,.97-.97H36.02a.97.97,0,0,1,.97.97A.97.97,0,0,1,36.02-5.559Z" transform="translate(21.421 28.394)" fill="#12263f"/>
        <path id="Línea_608" data-name="Línea 608" d="M46-5.559H-6.53a.97.97,0,0,1-.97-.97.97.97,0,0,1,.97-.97H46a.97.97,0,0,1,.97.97A.97.97,0,0,1,46-5.559Z" transform="translate(11.446 24.512)" fill="#12263f"/>
        <path id="Línea_609" data-name="Línea 609" d="M26.072-5.559H-6.53a.97.97,0,0,1-.97-.97.97.97,0,0,1,.97-.97h32.6a.97.97,0,0,1,.97.97A.97.97,0,0,1,26.072-5.559Z" transform="translate(11.446 60.025)" fill="#12263f"/>
        <path id="Línea_610" data-name="Línea 610" d="M3.077-5.559H-6.53a.97.97,0,0,1-.97-.97.97.97,0,0,1,.97-.97H3.077a.97.97,0,0,1,.97.97A.97.97,0,0,1,3.077-5.559Z" transform="translate(11.446 63.906)" fill="#12263f"/>
        <path id="Línea_611" data-name="Línea 611" d="M13.2-5.559H-6.53a.97.97,0,0,1-.97-.97.97.97,0,0,1,.97-.97H13.2a.97.97,0,0,1,.97.97A.97.97,0,0,1,13.2-5.559Z" transform="translate(25.58 63.906)" fill="#12263f"/>
        <path id="Línea_612" data-name="Línea 612" d="M-6.53,4.4a.97.97,0,0,1-.97-.97V-6.53a.97.97,0,0,1,.97-.97.97.97,0,0,1,.97.97V3.432A.97.97,0,0,1-6.53,4.4Z" transform="translate(67.917 38.096)" fill="#12263f"/>
        <path id="Trazado_883365" data-name="Trazado 883365" d="M437.97,39.782a.97.97,0,0,1-.97-.97V.97a.97.97,0,0,1,.97-.97h3.881a.97.97,0,0,1,.97.97V27.039a.97.97,0,1,1-1.941,0V1.941h-1.941V38.811A.97.97,0,0,1,437.97,39.782Z" transform="translate(-380.465)" fill="#12263f"/>
        <path id="Rectángulo_402005" data-name="Rectángulo 402005" d="M.97,0h64.3a.97.97,0,0,1,.97.97V4.851a.97.97,0,0,1-.97.97H.97A.97.97,0,0,1,0,4.851V.97A.97.97,0,0,1,.97,0ZM64.3,1.941H1.941V3.881H64.3Z" transform="translate(5.822) rotate(90)" fill="#12263f"/>
        <g id="Grupo_1100042" data-name="Grupo 1100042" transform="translate(12.096 4.593)">
          <g id="Grupo_1100040" data-name="Grupo 1100040">
            <path id="Trazado_883366" data-name="Trazado 883366" d="M142.145,43.392a.969.969,0,0,1-.434-.1l-2.154-1.077L137.4,43.289a.97.97,0,0,1-1.4-.868V36.47a.97.97,0,1,1,1.941,0v4.381l1.183-.592a.97.97,0,0,1,.868,0l1.183.592V36.47a.97.97,0,1,1,1.941,0v5.951a.97.97,0,0,1-.97.97Z" transform="translate(-130.502 -35.5)" fill="#12263f"/>
            <path id="Trazado_883367" data-name="Trazado 883367" d="M110.642,49.86a.97.97,0,0,1-.97-.97V37.441H95.441V48.89a.97.97,0,1,1-1.941,0V37.117A1.619,1.619,0,0,1,95.117,35.5h14.878a1.619,1.619,0,0,1,1.617,1.617V48.89A.97.97,0,0,1,110.642,49.86Z" transform="translate(-93.5 -35.5)" fill="#12263f"/>
          </g>
          <g id="Grupo_1100041" data-name="Grupo 1100041" transform="translate(20.053)">
            <path id="Trazado_883368" data-name="Trazado 883368" d="M297.145,43.392a.97.97,0,0,1-.434-.1l-2.154-1.077L292.4,43.289a.97.97,0,0,1-1.4-.868V36.47a.97.97,0,0,1,1.941,0v4.381l1.183-.592a.97.97,0,0,1,.868,0l1.183.592V36.47a.97.97,0,0,1,1.941,0v5.951a.97.97,0,0,1-.97.97Z" transform="translate(-285.502 -35.5)" fill="#12263f"/>
            <path id="Trazado_883369" data-name="Trazado 883369" d="M265.642,49.86a.97.97,0,0,1-.97-.97V37.441H250.441V48.89a.97.97,0,0,1-1.941,0V37.117a1.619,1.619,0,0,1,1.617-1.617h14.878a1.619,1.619,0,0,1,1.617,1.617V48.89A.97.97,0,0,1,265.642,49.86Z" transform="translate(-248.5 -35.5)" fill="#12263f"/>
          </g>
        </g>
        <g id="Grupo_1100046" data-name="Grupo 1100046" transform="translate(10.026 26.78)">
          <g id="Grupo_1100043" data-name="Grupo 1100043" transform="translate(3.895)">
            <path id="Trazado_883370" data-name="Trazado 883370" d="M145.666,213.986a.969.969,0,0,1-.388-.081l-1.736-.758-1.736.758a.97.97,0,0,1-1.359-.889V207.97a.97.97,0,1,1,1.941,0v3.563l.766-.335a.97.97,0,0,1,.777,0l.766.335V207.97a.97.97,0,1,1,1.941,0v5.045a.97.97,0,0,1-.97.97Z" transform="translate(-136.198 -207)" fill="#12263f"/>
            <path id="Trazado_883371" data-name="Trazado 883371" d="M121.323,218.643a.97.97,0,0,1-.97-.97v-8.733H109.547v8.733a.97.97,0,1,1-1.941,0V208.65a1.652,1.652,0,0,1,1.65-1.65h11.388a1.652,1.652,0,0,1,1.65,1.65v9.023A.97.97,0,0,1,121.323,218.643Z" transform="translate(-107.606 -207)" fill="#12263f"/>
          </g>
          <g id="Grupo_1100044" data-name="Grupo 1100044" transform="translate(24.077)">
            <path id="Trazado_883372" data-name="Trazado 883372" d="M301.666,213.986a.97.97,0,0,1-.388-.081l-1.736-.758-1.736.758a.97.97,0,0,1-1.359-.889V207.97a.97.97,0,1,1,1.941,0v3.563l.766-.335a.97.97,0,0,1,.777,0l.766.335V207.97a.97.97,0,1,1,1.941,0v5.045a.97.97,0,0,1-.97.97Z" transform="translate(-292.198 -207)" fill="#12263f"/>
            <path id="Trazado_883373" data-name="Trazado 883373" d="M277.323,218.643a.97.97,0,0,1-.97-.97v-8.733H265.547v8.733a.97.97,0,1,1-1.941,0V208.65a1.652,1.652,0,0,1,1.65-1.65h11.388a1.652,1.652,0,0,1,1.65,1.65v9.023A.97.97,0,0,1,277.323,218.643Z" transform="translate(-263.606 -207)" fill="#12263f"/>
          </g>
          <path id="Línea_613" data-name="Línea 613" d="M-6.53,2.779a.97.97,0,0,1-.97-.97V-6.53a.97.97,0,0,1,.97-.97.97.97,0,0,1,.97.97V1.809A.97.97,0,0,1-6.53,2.779Z" transform="translate(35.117 17.203)" fill="#12263f"/>
          <path id="Línea_614" data-name="Línea 614" d="M13.3-5.559H-6.53a.97.97,0,0,1-.97-.97.97.97,0,0,1,.97-.97H13.3a.97.97,0,0,1,.97.97A.97.97,0,0,1,13.3-5.559Z" transform="translate(28.036 17.203)" fill="#12263f"/>
          <g id="Grupo_1100045" data-name="Grupo 1100045" transform="translate(0 9.703)">
            <path id="Trazado_883374" data-name="Trazado 883374" d="M141.609,292.22a.97.97,0,0,1-.4-.088l-2.429-1.11-2.429,1.11a.97.97,0,0,1-1.373-.883v-8.28a.97.97,0,0,1,1.941,0v6.77l1.459-.666a.97.97,0,0,1,.806,0l1.459.666v-6.77a.97.97,0,0,1,1.941,0v8.28a.97.97,0,0,1-.97.97Z" transform="translate(-127.538 -282)" fill="#12263f"/>
            <path id="Trazado_883375" data-name="Trazado 883375" d="M78.47,299.983a.97.97,0,0,1-.97-.97V283.647A1.649,1.649,0,0,1,79.147,282H99.006a.97.97,0,0,1,.97.97v6.016a.97.97,0,0,1-1.941,0v-5.046h-18.6v15.072A.97.97,0,0,1,78.47,299.983Z" transform="translate(-77.5 -282)" fill="#12263f"/>
            <path id="Línea_615" data-name="Línea 615" d="M-6.53-.061a.97.97,0,0,1-.97-.97v-5.5a.97.97,0,0,1,.97-.97.97.97,0,0,1,.97.97v5.5A.97.97,0,0,1-6.53-.061Z" transform="translate(28.036 18.044)" fill="#12263f"/>
          </g>
        </g>
        <path id="Elipse_11533" data-name="Elipse 11533" d="M7.378-7.5A14.878,14.878,0,1,1-7.5,7.378,14.895,14.895,0,0,1,7.378-7.5Zm0,27.815A12.937,12.937,0,1,0-5.559,7.378,12.952,12.952,0,0,0,7.378,20.315Z" transform="translate(43.983 43.983)" fill="#12263f"/>
        <g id="Grupo_1100047" data-name="Grupo 1100047" transform="translate(44.18 40.105)">
          <path id="Trazado_883376" data-name="Trazado 883376" d="M354.243,345.259H343.117a1.619,1.619,0,0,1-1.617-1.617V328.117a1.619,1.619,0,0,1,1.617-1.617h2.9a.97.97,0,0,1,0,1.941h-2.581v14.878H353.92V328.441h-2.652a.97.97,0,0,1,0-1.941h2.976a1.619,1.619,0,0,1,1.617,1.617v15.525A1.619,1.619,0,0,1,354.243,345.259Z" transform="translate(-341.5 -324.365)" fill="#12263f"/>
          <path id="Trazado_883377" data-name="Trazado 883377" d="M371.117,310H375a1.619,1.619,0,0,1,1.617,1.617v2.2A1.619,1.619,0,0,1,375,315.434h-3.881a1.619,1.619,0,0,1-1.617-1.617v-2.2A1.619,1.619,0,0,1,371.117,310Zm3.558,1.941h-3.234v1.552h3.234Z" transform="translate(-365.878 -310)" fill="#12263f"/>
          <path id="Línea_616" data-name="Línea 616" d="M-1.872-5.559H-6.53a.97.97,0,0,1-.97-.97.97.97,0,0,1,.97-.97h4.657a.97.97,0,0,1,.97.97A.97.97,0,0,1-1.872-5.559Z" transform="translate(11.381 18.691)" fill="#12263f"/>
          <path id="Línea_617" data-name="Línea 617" d="M-1.872-5.559H-6.53a.97.97,0,0,1-.97-.97.97.97,0,0,1,.97-.97h4.657a.97.97,0,0,1,.97.97A.97.97,0,0,1-1.872-5.559Z" transform="translate(11.381 14.809)" fill="#12263f"/>
          <path id="Línea_618" data-name="Línea 618" d="M-1.872-5.559H-6.53a.97.97,0,0,1-.97-.97.97.97,0,0,1,.97-.97h4.657a.97.97,0,0,1,.97.97A.97.97,0,0,1-1.872-5.559Z" transform="translate(11.381 22.572)" fill="#12263f"/>
        </g>
      </g>
    </g>
  </g>
</svg>
