<svg xmlns="http://www.w3.org/2000/svg" width="57.051" height="57.051" viewBox="0 0 57.051 57.051">
  <g id="Grupo_1101002" data-name="Grupo 1101002" transform="translate(-1067.949 -4260)">
    <g id="logistica" transform="translate(1067.95 4260)">
      <path id="Trazado_885193" data-name="Trazado 885193" d="M116.168,8l3.681,5.521H72L75.681,8Zm0,0" transform="translate(-63.719 -7.08)" fill="#fcd770"/>
      <path id="Trazado_885194" data-name="Trazado 885194" d="M119.849,56v3.681H72V56Zm0,0" transform="translate(-63.719 -49.559)" fill="#ffeaa7"/>
      <path id="Trazado_885195" data-name="Trazado 885195" d="M132.168,88v25.765h-3.681V97.2H111.924V91.681H91.681v18.4h1.84v4.6H88V88Zm0,0" transform="translate(-77.879 -77.878)" fill="#ccd1d9"/>
      <path id="Trazado_885196" data-name="Trazado 885196" d="M163.605,294.723v2.76h-4.932a3.677,3.677,0,0,0-6.11,2.76,3.677,3.677,0,0,0-6.11-2.76H136V280h27.605Zm0,0" transform="translate(-120.358 -247.794)" fill="#ff826e"/>
      <path id="Trazado_885197" data-name="Trazado 885197" d="M15.361,331.962a3.681,3.681,0,0,0-2.429.92H8V324.6l4.6-4.6H22.723v12.882H17.791A3.663,3.663,0,0,0,15.361,331.962Zm0,0" transform="translate(-7.08 -283.193)" fill="#ff826e"/>
      <path id="Trazado_885198" data-name="Trazado 885198" d="M140.244,120v5.521h-3.681V138.4h-3.681v-3.681h-5.521V138.4H120V120h7.361v3.681h5.521V120Zm0,0" transform="translate(-106.198 -106.197)" fill="#d3a06c"/>
      <path id="Trazado_885199" data-name="Trazado 885199" d="M184,248h5.521v3.681H184Zm0,0" transform="translate(-162.837 -219.475)" fill="#e6e9ed"/>
      <path id="Trazado_885200" data-name="Trazado 885200" d="M184,120h5.521v3.681H184Zm0,0" transform="translate(-162.837 -106.197)" fill="#e6e9ed"/>
      <path id="Trazado_885201" data-name="Trazado 885201" d="M284.244,168v16.563h-5.521a1.846,1.846,0,0,0-1.84,1.84v-5.521H264V168h7.361v3.681h5.521V168Zm0,0" transform="translate(-233.635 -148.676)" fill="#cf9e76"/>
      <path id="Trazado_885202" data-name="Trazado 885202" d="M328,168h5.521v3.681H328Zm0,0" transform="translate(-290.273 -148.676)" fill="#e6e9ed"/>
      <path id="Trazado_885203" data-name="Trazado 885203" d="M387.042,312a1.846,1.846,0,0,1,1.84,1.84v9.2a1.846,1.846,0,0,1-1.84,1.84H385.2V321.2h-5.521v3.681h-1.84a1.846,1.846,0,0,1-1.84-1.84v-9.2a1.846,1.846,0,0,1,1.84-1.84h1.84v3.681H385.2V312Zm0,0" transform="translate(-332.752 -276.113)" fill="#cf9e76"/>
      <g id="Grupo_1100709" data-name="Grupo 1100709" transform="translate(0.92 35.887)">
        <path id="Trazado_885204" data-name="Trazado 885204" d="M413.521,312v3.681H408V312Zm0,0" transform="translate(-361.991 -312)" fill="#e6e9ed"/>
        <path id="Trazado_885205" data-name="Trazado 885205" d="M408,392h5.521v3.681H408Zm0,0" transform="translate(-361.991 -382.798)" fill="#e6e9ed"/>
        <path id="Trazado_885206" data-name="Trazado 885206" d="M338.053,433.84a1.846,1.846,0,0,1-1.84,1.84h-1.84l-.111-.027a3.54,3.54,0,0,0,.111-.893,3.665,3.665,0,0,0-1.251-2.76h4.932Zm0,0" transform="translate(-295.725 -418.197)" fill="#e6e9ed"/>
        <path id="Trazado_885207" data-name="Trazado 885207" d="M108.506,432H93.121a3.665,3.665,0,0,1,1.251,2.76,3.592,3.592,0,0,1-.111.893l.111.027h12.882l.111-.027a3.54,3.54,0,0,1-.111-.893,3.665,3.665,0,0,1,1.251-2.76Zm0,0" transform="translate(-83.33 -418.197)" fill="#e6e9ed"/>
        <path id="Trazado_885208" data-name="Trazado 885208" d="M9.84,435.681A1.846,1.846,0,0,1,8,433.84V432h4.932a3.665,3.665,0,0,0-1.251,2.76,3.54,3.54,0,0,0,.111.893l-.111.027Zm0,0" transform="translate(-8 -418.197)" fill="#e6e9ed"/>
      </g>
      <path id="Trazado_885209" data-name="Trazado 885209" d="M40.11,428.574a3.54,3.54,0,0,1-.111-.893,3.681,3.681,0,0,1,7.361,0,3.592,3.592,0,0,1-.111.893,3.68,3.68,0,0,1-7.14,0Zm0,0" transform="translate(-35.4 -375.231)" fill="#838f9b"/>
      <path id="Trazado_885210" data-name="Trazado 885210" d="M219.681,424a3.681,3.681,0,1,1-3.57,4.573,3.54,3.54,0,0,1-.111-.893A3.689,3.689,0,0,1,219.681,424Zm0,0" transform="translate(-191.156 -375.231)" fill="#838f9b"/>
      <path id="Trazado_885211" data-name="Trazado 885211" d="M286.11,424.92a3.665,3.665,0,0,1,1.251,2.761,3.541,3.541,0,0,1-.111.893,3.686,3.686,0,1,1-1.141-3.653Zm0,0" transform="translate(-247.794 -375.231)" fill="#838f9b"/>
      <path id="Trazado_885212" data-name="Trazado 885212" d="M208,312h11.042v10.122H208Zm0,0" transform="translate(-184.076 -276.113)" fill="#cf9e76"/>
      <path id="Trazado_885213" data-name="Trazado 885213" d="M47.361,352v5.521H40V354.76L42.761,352Zm0,0" transform="translate(-35.4 -311.512)" fill="#69d6f4"/>
      <path id="Trazado_885214" data-name="Trazado 885214" d="M65.84,448.92a.92.92,0,1,1-.92-.92A.92.92,0,0,1,65.84,448.92Zm0,0" transform="translate(-56.639 -396.47)"/>
      <path id="Trazado_885215" data-name="Trazado 885215" d="M305.84,448.92a.92.92,0,1,1-.92-.92A.92.92,0,0,1,305.84,448.92Zm0,0" transform="translate(-269.034 -396.47)"/>
      <path id="Trazado_885216" data-name="Trazado 885216" d="M241.84,448.92a.92.92,0,1,1-.92-.92A.92.92,0,0,1,241.84,448.92Zm0,0" transform="translate(-212.395 -396.47)"/>
      <path id="Trazado_885217" data-name="Trazado 885217" d="M41.2,344H35.3L32,347.3v4.062h9.2Zm-1.84,5.521H33.84v-1.459l2.221-2.221h3.3Zm0,0" transform="translate(-28.32 -304.433)"/>
      <path id="Trazado_885218" data-name="Trazado 885218" d="M57.05,11.042V6.162L52.942,0H11.469L7.361,6.162v4.88H9.2V35.887H5.139L0,41.027v10.5A2.764,2.764,0,0,0,2.76,54.29H4.07a4.592,4.592,0,0,0,8.422,0H24.314a4.578,4.578,0,0,0,7.892.892A4.578,4.578,0,0,0,40.1,54.29h1.31a2.764,2.764,0,0,0,2.761-2.761V49.52a2.722,2.722,0,0,0,.92.169h9.2a2.764,2.764,0,0,0,2.761-2.761v-9.2a2.757,2.757,0,0,0-1.84-2.591V11.042Zm-44.6-9.2h39.5l2.454,3.681H53.37v1.84h1.84V9.2H9.2V7.361h1.84V5.521H10ZM5.9,37.727h8.821V48.769H11.013a4.516,4.516,0,0,0-5.464,0H1.84v-6.98Zm16.182-23h3.681v1.84H22.084ZM27.6,18.4V14.723h5.521V18.4H29.445V31.286H27.6V27.605H20.243v3.681H14.722V14.723h5.521V18.4Zm11.042,1.84h3.681v1.84H38.647Zm5.521,3.681V20.244h5.521V34.967h-4.6a2.722,2.722,0,0,0-.92.169v-3.85H31.285V20.244h5.521v3.681Zm3.681,12.882h3.681v1.84H47.848Zm-9.23,11.962a4.542,4.542,0,0,0-6.413.948,4.542,4.542,0,0,0-6.413-.948h-9.23V33.126H42.327V48.769ZM25.764,31.286H22.084v-1.84h3.681ZM2.76,52.45a.922.922,0,0,1-.92-.92v-.92H4.07a4.554,4.554,0,0,0-.39,1.84ZM8.281,55.21a2.761,2.761,0,1,1,2.761-2.761A2.764,2.764,0,0,1,8.281,55.21Zm4.211-4.6h2.23v1.84h-1.84a4.554,4.554,0,0,0-.39-1.84Zm4.071,1.84v-1.84h7.751a4.554,4.554,0,0,0-.39,1.84ZM28.525,55.21a2.761,2.761,0,1,1,2.761-2.761A2.764,2.764,0,0,1,28.525,55.21Zm7.361,0a2.761,2.761,0,1,1,2.761-2.761A2.764,2.764,0,0,1,35.886,55.21Zm5.521-2.761h-.92a4.554,4.554,0,0,0-.39-1.84h2.23v.92a.922.922,0,0,1-.92.92Zm10.122-4.6H47.848v-1.84h3.681Zm3.681-.92a.922.922,0,0,1-.92.92h-.92V44.168H46.008v3.681h-.92a.922.922,0,0,1-.92-.92v-9.2a.922.922,0,0,1,.92-.92h.92v3.681h7.361V36.807h.92a.922.922,0,0,1,.92.92Zm-1.84-11.962h-1.84V18.4H34.966V12.882H12.882V33.126h1.84v2.761H11.042V11.042H53.369Zm0,0"/>
      <path id="Trazado_885219" data-name="Trazado 885219" d="M200,304v11.962h12.882V304Zm11.042,10.122h-9.2V305.84h9.2Zm0,0" transform="translate(-176.996 -269.033)"/>
      <path id="Trazado_885220" data-name="Trazado 885220" d="M112,48h38.647v1.84H112Zm0,0" transform="translate(-99.118 -42.479)"/>
    </g>
  </g>
</svg>
