<svg xmlns="http://www.w3.org/2000/svg" xmlns:xlink="http://www.w3.org/1999/xlink" width="58" height="58" viewBox="0 0 58 58">
  <defs>
    <clipPath id="clip-path">
      <rect id="Rectángulo_402081" data-name="Rectángulo 402081" width="58" height="58" transform="translate(306.051 6473)" fill="#f5827a" stroke="#f5827a" stroke-width="1"/>
    </clipPath>
    <clipPath id="clip-path-2">
      <path id="path885" d="M0-58H58V0H0Z" fill="#f5827a"/>
    </clipPath>
  </defs>
  <g id="Enmascarar_grupo_1098707" data-name="Enmascarar grupo 1098707" transform="translate(-306.051 -6473)" clip-path="url(#clip-path)">
    <g id="g879" transform="translate(306.051 6531)">
      <g id="g881">
        <g id="g883" clip-path="url(#clip-path-2)">
          <g id="g889" transform="translate(33.151 -0.85)">
            <path id="path891" d="M6.954.85H0A.85.85,0,0,1-.85,0,.85.85,0,0,1,0-.85H6.1V-11.6H-14.406V-.85H-3.7a.85.85,0,0,1,.85.85A.85.85,0,0,1-3.7.85H-15.256a.85.85,0,0,1-.85-.85V-12.448a.85.85,0,0,1,.85-.85H6.954a.85.85,0,0,1,.85.85V0A.85.85,0,0,1,6.954.85Z" fill="#f5827a"/>
          </g>
        </g>
      </g>
      <g id="g893" transform="translate(31.299 -7.168)">
        <path id="path895" d="M-4.6.85A.849.849,0,0,1-5.042.724.85.85,0,0,1-5.447,0V-6.13a.85.85,0,0,1,.85-.85H0a.85.85,0,0,1,.85.85V0a.85.85,0,0,1-.41.727A.85.85,0,0,1-.4.752L-2.262-.23-4.214.758A.849.849,0,0,1-4.6.85Zm.85-6.13v3.9l1.11-.562a.85.85,0,0,1,.779.006l1.009.531V-5.28Z" fill="#f5827a"/>
      </g>
      <g id="g897">
        <g id="g899" clip-path="url(#clip-path-2)">
          <g id="g905" transform="translate(24.033 -26.17)">
            <path id="path907" d="M5.415,26.17H-13.247a.85.85,0,0,1-.85-.85V12.309a5.522,5.522,0,0,1,3.734-5.224L-.85,3.831V0A.85.85,0,0,1,0-.85.85.85,0,0,1,.85,0V4.438a.85.85,0,0,1-.575.8L-9.813,8.693A3.823,3.823,0,0,0-12.4,12.309V24.471H5.415a.85.85,0,1,1,0,1.7Z" fill="#f5827a"/>
          </g>
          <g id="g909" transform="translate(43.772 -18.378)">
            <path id="path911" d="M3.443,18.378H-10.621a.85.85,0,0,1-.85-.85.85.85,0,0,1,.85-.85H2.593V4.517A3.823,3.823,0,0,0,.008.9L-.273.8A.85.85,0,0,1-.8-.273.85.85,0,0,1,.273-.8l.283.1A5.523,5.523,0,0,1,4.292,4.517V17.528A.85.85,0,0,1,3.443,18.378Z" fill="#f5827a"/>
          </g>
          <g id="g913" transform="translate(33.967 -26.17)">
            <path id="path915" d="M6.3,7.443A.848.848,0,0,1,6.025,7.4l-6.3-2.155a.85.85,0,0,1-.575-.8V0A.85.85,0,0,1,0-.85.85.85,0,0,1,.85,0V3.831L6.575,5.789A.85.85,0,0,1,6.3,7.443Z" fill="#f5827a"/>
          </g>
          <g id="g917" transform="translate(37.524 -39.92)">
            <path id="path919" d="M-7.874,15.889h-1.3A8.733,8.733,0,0,1-17.9,7.166V0a.85.85,0,0,1,.85-.85A.85.85,0,0,1-16.2,0V7.166A7.032,7.032,0,0,0-9.175,14.19h1.3A7.032,7.032,0,0,0-.85,7.166V0A.85.85,0,0,1,0-.85.85.85,0,0,1,.85,0V7.166A8.733,8.733,0,0,1-7.874,15.889Z" fill="#f5827a"/>
          </g>
          <g id="g921" transform="translate(40.836 -40.361)">
            <path id="path923" d="M-1.605,6.73H-3.311a.85.85,0,0,1-.85-.85V.441a.85.85,0,0,1,.85-.85.85.85,0,0,1,.85.85v4.59h.856A1.519,1.519,0,0,0-.087,3.514V1.74A1.5,1.5,0,0,0-.576.624a.85.85,0,0,1-.048-1.2.85.85,0,0,1,1.2-.048A3.226,3.226,0,0,1,1.612,1.74V3.514A3.22,3.22,0,0,1-1.605,6.73Z" fill="#f5827a"/>
          </g>
          <g id="g925" transform="translate(20.476 -39.92)">
            <path id="path927" d="M0,6.289H-1.706A3.22,3.22,0,0,1-4.923,3.073V1.3A3.226,3.226,0,0,1-3.887-1.065a.85.85,0,0,1,1.2.048.85.85,0,0,1-.048,1.2A1.5,1.5,0,0,0-3.224,1.3V3.073A1.519,1.519,0,0,0-1.706,4.59H-.85V0A.85.85,0,0,1,0-.85.85.85,0,0,1,.85,0V5.44A.85.85,0,0,1,0,6.289Z" fill="#f5827a"/>
          </g>
          <g id="g929" transform="translate(25.332 -37.762)">
            <path id="path931" d="M0,1.965a.85.85,0,0,1-.85-.85V0A.85.85,0,0,1,0-.85.85.85,0,0,1,.85,0V1.115A.85.85,0,0,1,0,1.965Z" fill="#f5827a"/>
          </g>
          <g id="g933" transform="translate(32.652 -37.762)">
            <path id="path935" d="M0,1.965a.85.85,0,0,1-.85-.85V0A.85.85,0,0,1,0-.85.85.85,0,0,1,.85,0V1.115A.85.85,0,0,1,0,1.965Z" fill="#f5827a"/>
          </g>
          <g id="g937" transform="translate(26.869 -32.027)">
            <path id="path939" d="M2.131,2.98A2.984,2.984,0,0,1-.85,0,.85.85,0,0,1,0-.85.85.85,0,0,1,.85,0,1.283,1.283,0,0,0,2.131,1.281,1.282,1.282,0,0,0,3.412,0a.85.85,0,0,1,.85-.85.85.85,0,0,1,.85.85A2.984,2.984,0,0,1,2.131,2.98Z" fill="#f5827a"/>
          </g>
          <g id="g941" transform="translate(10.785 -6.128)">
            <path id="path943" d="M7.109.85H0A.85.85,0,0,1-.85,0,.85.85,0,0,1,0-.85H7.109a.85.85,0,0,1,.85.85A.85.85,0,0,1,7.109.85Z" fill="#f5827a"/>
          </g>
          <g id="g945" transform="translate(47.215 -6.128)">
            <path id="path947" d="M0,.85H-7.109A.85.85,0,0,1-7.959,0a.85.85,0,0,1,.85-.85H0A.85.85,0,0,1,.85,0,.85.85,0,0,1,0,.85Z" fill="#f5827a"/>
          </g>
          <g id="g949" transform="translate(24.032 -21.732)">
            <path id="path951" d="M5,4.138A.849.849,0,0,1,4.528,4L-.467.71A.85.85,0,0,1-.71-.467.85.85,0,0,1,.467-.71L4.993,2.269,9.465-.707a.85.85,0,0,1,1.178.237A.85.85,0,0,1,10.406.707L5.466,4A.849.849,0,0,1,5,4.138Z" fill="#f5827a"/>
          </g>
          <g id="g953" transform="translate(37.115 -20.655)">
            <path id="path955" d="M-3.147-1.926a.849.849,0,0,1,.275.046L.275-.8a.85.85,0,0,1,.543.576A.85.85,0,0,1,.651.545L-2.185,3.935a.85.85,0,0,1-1.074.192L-7.032,1.965a.85.85,0,0,1-.427-.709A.85.85,0,0,1-7.08.52l3.462-2.3A.85.85,0,0,1-3.147-1.926ZM-1.446.4l-1.58-.54L-4.995,1.174-3.032,2.3Z" fill="#f5827a"/>
          </g>
          <g id="g957" transform="translate(20.912 -20.664)">
            <path id="path959" d="M3.121-1.917a.849.849,0,0,1,.467.14L7.079.521a.85.85,0,0,1-.045,1.447L3.262,4.129a.85.85,0,0,1-1.074-.192L-.652.545A.85.85,0,0,1-.818-.228.85.85,0,0,1-.275-.8L2.846-1.871A.849.849,0,0,1,3.121-1.917Zm1.87,3.1L3-.129,1.446.4,3.034,2.3Z" fill="#f5827a"/>
          </g>
          <g id="g961" transform="translate(22.33 -52.232)">
            <path id="path963" d="M17.227,10.434a.85.85,0,0,1-.85-.85V7.107A7.666,7.666,0,0,0,8.719-.551H4.676A7.62,7.62,0,0,0,.468.709.85.85,0,0,1-.709.468.85.85,0,0,1-.468-.709,9.315,9.315,0,0,1,4.676-2.25H8.719a9.368,9.368,0,0,1,9.357,9.357V9.585A.85.85,0,0,1,17.227,10.434Z" fill="#f5827a"/>
          </g>
          <g id="g965" transform="translate(18.499 -42.684)">
            <path id="path967" d="M0,.85A.85.85,0,0,1-.85,0V-2.44A9.331,9.331,0,0,1,.529-7.33.85.85,0,0,1,1.7-7.609.85.85,0,0,1,1.977-6.44a7.633,7.633,0,0,0-1.127,4V0A.85.85,0,0,1,0,.85Z" fill="#f5827a"/>
          </g>
          <g id="g969" transform="translate(29 -57.148)">
            <path id="path971" d="M0-.85A2.612,2.612,0,0,1,2.609,1.759V3.516a.85.85,0,0,1-.849.85l-3.519,0a.85.85,0,0,1-.6-.249.85.85,0,0,1-.249-.6V1.759A2.612,2.612,0,0,1,0-.85ZM.91,2.667V1.759A.911.911,0,0,0,0,.85a.911.911,0,0,0-.91.91v.909Z" fill="#f5827a"/>
          </g>
          <g id="g973" transform="translate(25.075 -45.27)">
            <path id="path975" d="M7.85.85A.85.85,0,0,1,7,0V-2a7.08,7.08,0,0,0-1.617-4.5L4.542-7.512H3.308L2.467-6.493A7.08,7.08,0,0,0,.85-2V0A.85.85,0,0,1,0,.85.85.85,0,0,1-.85,0V-2a8.783,8.783,0,0,1,2.006-5.58L2.252-8.9a.85.85,0,0,1,.655-.309H4.943A.85.85,0,0,1,5.6-8.9l1.1,1.327A8.783,8.783,0,0,1,8.7-2V0A.85.85,0,0,1,7.85.85Z" fill="#f5827a"/>
          </g>
          <g id="g977" transform="translate(40.532 -39.758)">
            <path id="path979" d="M-1.338,1.5A2.563,2.563,0,0,1-2.909.957c-.179-.141-.37-.279-.569-.412A14.85,14.85,0,0,0-11.532-1.62,14.849,14.849,0,0,0-19.584.544c-.2.134-.392.271-.568.41a2.562,2.562,0,0,1-1.574.545A2.535,2.535,0,0,1-23.732.525a2.532,2.532,0,0,1-.526-1.879,2.531,2.531,0,0,1,.958-1.7A15.164,15.164,0,0,1-20.287-4.88,20.386,20.386,0,0,1-13.875-6.6a22.744,22.744,0,0,1,2.343-.121A22.746,22.746,0,0,1-9.189-6.6,20.387,20.387,0,0,1-2.776-4.879,15.164,15.164,0,0,1,.237-3.054a2.53,2.53,0,0,1,.957,1.7A2.532,2.532,0,0,1,.668.525,2.535,2.535,0,0,1-1.338,1.5ZM-11.532-3.319a16.344,16.344,0,0,1,9,2.451c.236.157.464.322.676.489a.842.842,0,0,0,.522.18.846.846,0,0,0,.67-.325.844.844,0,0,0,.175-.626.843.843,0,0,0-.319-.566A13.471,13.471,0,0,0-3.49-3.337,18.673,18.673,0,0,0-9.364-4.906a21.042,21.042,0,0,0-2.168-.112,21.041,21.041,0,0,0-2.168.112,18.672,18.672,0,0,0-5.873,1.568,13.472,13.472,0,0,0-2.678,1.62.844.844,0,0,0-.32.567.844.844,0,0,0,.175.626.846.846,0,0,0,.67.325A.842.842,0,0,0-21.2-.381c.21-.166.438-.331.676-.489A16.343,16.343,0,0,1-11.532-3.319Z" fill="#f5827a"/>
          </g>
        </g>
      </g>
    </g>
  </g>
</svg>
