<svg xmlns="http://www.w3.org/2000/svg" xmlns:xlink="http://www.w3.org/1999/xlink" width="58" height="58" viewBox="0 0 58 58">
  <defs>
    <clipPath id="clip-path">
      <rect id="Rectángulo_402082" data-name="Rectángulo 402082" width="58" height="58" transform="translate(610.051 6473)" fill="#f5827a" stroke="#afd5f9" stroke-width="1"/>
    </clipPath>
  </defs>
  <g id="Grupo_1101001" data-name="Grupo 1101001" transform="translate(-610.051 -6473)">
    <g id="Enmascarar_grupo_1098708" data-name="Enmascarar grupo 1098708" clip-path="url(#clip-path)">
      <g id="repartidor_1_" data-name="repartidor (1)" transform="translate(610.051 6473)">
        <g id="Grupo_1100749" data-name="Grupo 1100749">
          <path id="Trazado_885268" data-name="Trazado 885268" d="M38.611,40.156a.846.846,0,0,1-.39-.1,3.322,3.322,0,0,1-1.8-2.961V35.315a.85.85,0,0,1,1.7,0V37.1A1.628,1.628,0,0,0,39,38.552a.85.85,0,0,1-.391,1.6Z" fill="#f5827a"/>
          <path id="Trazado_885269" data-name="Trazado 885269" d="M29.161,40.141a.85.85,0,0,1-.4-1.6,1.632,1.632,0,0,0,.863-1.441V35.221a.85.85,0,0,1,1.7,0V37.1a3.328,3.328,0,0,1-1.761,2.94A.846.846,0,0,1,29.161,40.141Z" fill="#f5827a"/>
          <g id="Grupo_1100739" data-name="Grupo 1100739">
            <path id="Trazado_885270" data-name="Trazado 885270" d="M21.5,27.877a3.271,3.271,0,0,1-2.844-1.847,7.482,7.482,0,0,1-.862-3.637c0-2.357.938-4.113,2.509-4.7a.85.85,0,1,1,.593,1.593c-.878.327-1.4,1.487-1.4,3.1,0,1.861.751,3.785,2.007,3.785a1.83,1.83,0,0,0,1.166-.444.85.85,0,1,1,1.07,1.32A3.533,3.533,0,0,1,21.5,27.877Z" fill="#f5827a"/>
            <path id="Trazado_885271" data-name="Trazado 885271" d="M46.24,27.877a3.529,3.529,0,0,1-2.21-.8.85.85,0,0,1,1.059-1.329,1.825,1.825,0,0,0,1.151.431c1.256,0,2.007-1.924,2.007-3.785,0-1.651-.542-2.818-1.451-3.122a.85.85,0,0,1,.538-1.612c1.635.546,2.611,2.316,2.611,4.734a7.482,7.482,0,0,1-.862,3.637A3.271,3.271,0,0,1,46.24,27.877Z" fill="#f5827a"/>
          </g>
          <path id="Trazado_885272" data-name="Trazado 885272" d="M33.851,36.568a11.41,11.41,0,0,1-11.41-11.411V22.874a.85.85,0,1,1,1.7,0v2.284a9.711,9.711,0,0,0,9.71,9.712A9.762,9.762,0,0,0,43.6,25.118V22.874a.85.85,0,1,1,1.7,0v2.244a11.45,11.45,0,0,1-11.45,11.45Z" fill="#f5827a"/>
          <g id="Grupo_1100747" data-name="Grupo 1100747">
            <g id="Grupo_1100740" data-name="Grupo 1100740">
              <path id="Trazado_885273" data-name="Trazado 885273" d="M33.871,29.385A3.388,3.388,0,0,1,33,29.256a.85.85,0,1,1,.429-1.644,1.369,1.369,0,0,0,.887,0,.85.85,0,1,1,.429,1.644A3.388,3.388,0,0,1,33.871,29.385Z" fill="#f5827a"/>
            </g>
            <g id="Grupo_1100743" data-name="Grupo 1100743">
              <g id="Grupo_1100741" data-name="Grupo 1100741">
                <path id="Trazado_885274" data-name="Trazado 885274" d="M30.685,22.162a.846.846,0,0,1-.52-.178,1.956,1.956,0,0,0-1.793-.009.85.85,0,0,1-1.062-1.327,3.189,3.189,0,0,1,1.97-.588,3.25,3.25,0,0,1,1.926.579.85.85,0,0,1-.521,1.521Z" fill="#f5827a"/>
              </g>
              <g id="Grupo_1100742" data-name="Grupo 1100742">
                <path id="Trazado_885275" data-name="Trazado 885275" d="M37.057,22.162a.85.85,0,0,1-.521-1.521,3.25,3.25,0,0,1,1.926-.579,3.188,3.188,0,0,1,1.97.588.85.85,0,0,1-1.062,1.327,1.956,1.956,0,0,0-1.793.009A.846.846,0,0,1,37.057,22.162Z" fill="#f5827a"/>
              </g>
            </g>
            <g id="Grupo_1100745" data-name="Grupo 1100745">
              <g id="Grupo_1100744" data-name="Grupo 1100744">
                <path id="Trazado_885276" data-name="Trazado 885276" d="M33.871,32.551a5.1,5.1,0,0,1-2.481-.639.85.85,0,0,1,.826-1.485,3.426,3.426,0,0,0,3.309,0,.85.85,0,1,1,.826,1.485A5.105,5.105,0,0,1,33.871,32.551Z" fill="#f5827a"/>
              </g>
            </g>
            <g id="Grupo_1100746" data-name="Grupo 1100746">
              <path id="Línea_623" data-name="Línea 623" d="M0,1.508A.85.85,0,0,1-.85.658V0A.85.85,0,0,1,0-.85.85.85,0,0,1,.85,0V.658A.85.85,0,0,1,0,1.508Z" transform="translate(29.264 24.1)" fill="#f5827a"/>
              <path id="Línea_624" data-name="Línea 624" d="M0,1.508A.85.85,0,0,1-.85.658V0A.85.85,0,0,1,0-.85.85.85,0,0,1,.85,0V.658A.85.85,0,0,1,0,1.508Z" transform="translate(38.478 24.1)" fill="#f5827a"/>
            </g>
          </g>
          <path id="Trazado_885277" data-name="Trazado 885277" d="M50.637,58H17.105a.85.85,0,1,1,0-1.7H50.637a.51.51,0,0,0,.51-.51v-7.22a6.779,6.779,0,0,0-4.767-6.494l-.73-.229a.85.85,0,0,1,.509-1.621l.73.229a8.506,8.506,0,0,1,5.957,8.115v7.22A2.211,2.211,0,0,1,50.637,58Z" fill="#f5827a"/>
          <path id="Trazado_885278" data-name="Trazado 885278" d="M33.871,45.589A5.029,5.029,0,0,1,29.6,43.04a11.446,11.446,0,0,1-1.433-3.513.85.85,0,0,1,1.655-.383,9.714,9.714,0,0,0,1.2,2.969,3.173,3.173,0,0,0,5.7,0,9.71,9.71,0,0,0,1.2-2.969.85.85,0,1,1,1.655.383,11.443,11.443,0,0,1-1.433,3.513A5.029,5.029,0,0,1,33.871,45.589Z" fill="#f5827a"/>
          <g id="Grupo_1100748" data-name="Grupo 1100748">
            <path id="Trazado_885279" data-name="Trazado 885279" d="M45.83,58H21.912a.85.85,0,1,1,0-1.7H44.98V40.977L39.572,39.5V48.2a2.1,2.1,0,0,1-2.1,2.1h-7.2a2.1,2.1,0,0,1-2.1-2.1V39.507L23.6,40.753a.85.85,0,0,1-.447-1.639l5.1-1.389a1.282,1.282,0,0,1,1.62,1.238V48.2a.4.4,0,0,0,.4.4h7.2a.4.4,0,0,0,.4-.4V38.958a1.283,1.283,0,0,1,1.619-1.239l6.242,1.7a1.285,1.285,0,0,1,.945,1.238V57.15A.85.85,0,0,1,45.83,58Z" fill="#f5827a"/>
          </g>
          <path id="Trazado_885280" data-name="Trazado 885280" d="M23.676,58H7.59a2.438,2.438,0,0,1-2.436-2.436V54.526a.85.85,0,0,1,1.7,0v1.038a.737.737,0,0,0,.736.736H23.676a.737.737,0,0,0,.736-.736V41.547a.737.737,0,0,0-.736-.736H7.59a.737.737,0,0,0-.736.736v8.9a.85.85,0,0,1-1.7,0v-8.9A2.438,2.438,0,0,1,7.59,39.112H23.676a2.438,2.438,0,0,1,2.436,2.436V55.564A2.438,2.438,0,0,1,23.676,58Z" fill="#f5827a"/>
          <path id="Trazado_885281" data-name="Trazado 885281" d="M18.238,47.608H13.027a2.549,2.549,0,1,1,0-5.1h5.211a2.549,2.549,0,1,1,0,5.1Zm-5.211-3.4a.85.85,0,1,0,0,1.7h5.211a.85.85,0,1,0,0-1.7Z" fill="#f5827a"/>
          <path id="Trazado_885282" data-name="Trazado 885282" d="M44.452,23.723a.85.85,0,0,1-.842-.734,43.388,43.388,0,0,0-1.022-4.947.85.85,0,1,1,1.637-.455c.375,1.35.65,2.7.827,3.687a5.008,5.008,0,0,0,.807-1.207,10.745,10.745,0,0,0,.358-2.272.85.85,0,0,1,1.7.113,10.47,10.47,0,0,1-.509,2.866,6.586,6.586,0,0,1-2.548,2.846A.849.849,0,0,1,44.452,23.723Z" fill="#f5827a"/>
          <path id="Trazado_885283" data-name="Trazado 885283" d="M23.291,23.723a.849.849,0,0,1-.4-.1,6.585,6.585,0,0,1-2.547-2.845,10.542,10.542,0,0,1-.513-2.915.85.85,0,1,1,1.7-.108,10.819,10.819,0,0,0,.361,2.315,5.007,5.007,0,0,0,.807,1.207c.175-.974.447-2.31.816-3.646a.85.85,0,1,1,1.638.453,43.358,43.358,0,0,0-1.012,4.909.85.85,0,0,1-.842.734Z" fill="#f5827a"/>
          <path id="Línea_625" data-name="Línea 625" d="M.6,6.4a.85.85,0,0,1-.844-.758L-.845.091A.85.85,0,0,1-.091-.845a.85.85,0,0,1,.936.753l.6,5.549a.85.85,0,0,1-.753.936A.86.86,0,0,1,.6,6.4Z" transform="translate(46.421 7.895)" fill="#f5827a"/>
          <path id="Trazado_885284" data-name="Trazado 885284" d="M20.722,14.3a.859.859,0,0,1-.092,0,.85.85,0,0,1-.753-.936l.6-5.558a8.476,8.476,0,0,1,3.032-5.582A9.647,9.647,0,0,1,29.712,0H38.03a9.514,9.514,0,0,1,7.579,3.665.85.85,0,0,1-1.354,1.026A7.807,7.807,0,0,0,38.03,1.7H29.712a7.351,7.351,0,0,0-7.546,6.287l-.6,5.558A.85.85,0,0,1,20.722,14.3Z" fill="#f5827a"/>
          <path id="Trazado_885285" data-name="Trazado 885285" d="M37.968,10.592H29.774a1.966,1.966,0,0,1-1.964-1.964v-2.3a1.966,1.966,0,0,1,1.964-1.964h8.194a1.966,1.966,0,0,1,1.964,1.964v2.3A1.966,1.966,0,0,1,37.968,10.592ZM29.774,6.061a.265.265,0,0,0-.264.264v2.3a.265.265,0,0,0,.264.264h8.194a.265.265,0,0,0,.264-.264v-2.3a.265.265,0,0,0-.264-.264Z" fill="#f5827a"/>
          <path id="Trazado_885286" data-name="Trazado 885286" d="M37.968,10.592H29.774a1.966,1.966,0,0,1-1.964-1.964v-2.3a1.966,1.966,0,0,1,1.964-1.964h8.194a1.966,1.966,0,0,1,1.964,1.964v2.3A1.966,1.966,0,0,1,37.968,10.592ZM29.774,6.061a.265.265,0,0,0-.264.264v2.3a.265.265,0,0,0,.264.264h8.194a.265.265,0,0,0,.264-.264v-2.3a.265.265,0,0,0-.264-.264Z" fill="#f5827a"/>
          <path id="Trazado_885287" data-name="Trazado 885287" d="M48.882,18.547H18.86a1.562,1.562,0,0,1-1.544-1.792l.154-1.032a3.5,3.5,0,0,1,3.458-2.981H46.815a3.5,3.5,0,0,1,3.458,2.981l.154,1.032a1.562,1.562,0,0,1-1.544,1.792Zm-29.863-1.7h29.7l-.13-.874a1.808,1.808,0,0,0-1.777-1.532H20.927a1.808,1.808,0,0,0-1.777,1.532Z" fill="#f5827a"/>
        </g>
      </g>
    </g>
  </g>
</svg>
