<svg xmlns="http://www.w3.org/2000/svg" xmlns:xlink="http://www.w3.org/1999/xlink" width="124.011" height="125.273" viewBox="0 0 124.011 125.273">
  <defs>
    <filter id="Elipse_11501" x="0" y="0" width="124.011" height="125.273" filterUnits="userSpaceOnUse">
      <feOffset dy="3" input="SourceAlpha"/>
      <feGaussianBlur stdDeviation="3" result="blur"/>
      <feFlood flood-opacity="0.161"/>
      <feComposite operator="in" in2="blur"/>
      <feComposite in="SourceGraphic"/>
    </filter>
    <filter id="Elipse_11501-2" x="0" y="0" width="124.011" height="125.273" filterUnits="userSpaceOnUse">
      <feOffset dy="6" input="SourceAlpha"/>
      <feGaussianBlur stdDeviation="3" result="blur-2"/>
      <feFlood flood-opacity="0.161" result="color"/>
      <feComposite operator="out" in="SourceGraphic" in2="blur-2"/>
      <feComposite operator="in" in="color"/>
      <feComposite operator="in" in2="SourceGraphic"/>
    </filter>
  </defs>
  <g id="Grupo_1100984" data-name="Grupo 1100984" transform="translate(-569.051 -3567)">
    <g id="Grupo_1100050" data-name="Grupo 1100050">
      <g data-type="innerShadowGroup">
        <g transform="matrix(1, 0, 0, 1, 569.05, 3567)" filter="url(#Elipse_11501)">
          <ellipse id="Elipse_11501-3" data-name="Elipse 11501" cx="53.005" cy="53.636" rx="53.005" ry="53.636" transform="translate(9 6)" fill="#a4a1c5"/>
        </g>
        <g transform="matrix(1, 0, 0, 1, 569.05, 3567)" filter="url(#Elipse_11501-2)">
          <ellipse id="Elipse_11501-4" data-name="Elipse 11501" cx="53.005" cy="53.636" rx="53.005" ry="53.636" transform="translate(9 6)" fill="#fff"/>
        </g>
      </g>
      <path id="ropa" d="M92.68,101.258,81.869,96.94a1.2,1.2,0,0,0-.253-.07l-8.175-1.322a1.2,1.2,0,0,0-1.388,1.179,4.647,4.647,0,0,1-9.294,0,1.2,1.2,0,0,0-1.388-1.179L53.2,96.87a1.194,1.194,0,0,0-.253.07l-2.705,1.081v-6.3l5.636,2.251a1.2,1.2,0,0,0,1.561-.684l3.535-9.238a1.2,1.2,0,0,0-.674-1.539L49.487,78.191a1.2,1.2,0,0,0-.253-.07L41.059,76.8a1.2,1.2,0,0,0-.881.2L35.025,80.64,29.871,77a1.2,1.2,0,0,0-.881-.2l-8.175,1.322a1.193,1.193,0,0,0-.253.07L9.751,82.509a1.2,1.2,0,0,0-.674,1.539l3.535,9.238a1.2,1.2,0,0,0,1.561.684l5.636-2.251V118.1a1.2,1.2,0,0,0,1.2,1.2H49.043a1.2,1.2,0,0,0,1.2-1.2v-6.853l1.953-.78V136.85a1.2,1.2,0,0,0,1.2,1.2H81.425a1.2,1.2,0,0,0,1.2-1.2V110.468l5.636,2.251a1.2,1.2,0,0,0,1.561-.683l3.535-9.238A1.2,1.2,0,0,0,92.68,101.258ZM50.239,81.068l8.076,3.226-2.68,7-5.4-2.155ZM19.81,89.142l-5.4,2.155-2.68-7,8.076-3.226ZM47.846,116.9H22.2V80.32l6.687-1.082,5.444,3.843a1.2,1.2,0,0,0,1.38,0l5.445-3.843,6.687,1.082V116.9Zm6.738-.391H80.229v7.435H54.585Zm0,19.14v-9.313H80.229v9.313Zm33.433-25.607-6.149-2.456a1.2,1.2,0,0,0-1.64,1.111v5.419H54.585V108.7a1.2,1.2,0,0,0-1.64-1.111l-2.705,1.081V100.6l3.47-1.386,6.8-1.1a7.041,7.041,0,0,0,13.8,0l6.8,1.1,9.594,3.832Z" transform="translate(579.053 3519.217)" fill="#12263f"/>
    </g>
  </g>
</svg>
