<svg xmlns="http://www.w3.org/2000/svg" xmlns:xlink="http://www.w3.org/1999/xlink" width="58" height="58" viewBox="0 0 58 58">
  <defs>
    <clipPath id="clip-path">
      <rect id="Rectángulo_402083" data-name="Rectángulo 402083" width="58" height="58" transform="translate(925.051 6473)" fill="#f5827a" stroke="#afd5f9" stroke-width="1"/>
    </clipPath>
  </defs>
  <g id="Grupo_1101002" data-name="Grupo 1101002" transform="translate(-925.051 -6473)">
    <g id="Enmascarar_grupo_1098709" data-name="Enmascarar grupo 1098709" clip-path="url(#clip-path)">
      <g id="mensajero_4_" data-name="mensajero (4)" transform="translate(925.051 6473)">
        <path id="Trazado_885288" data-name="Trazado 885288" d="M21.938,33.16H19.086a.85.85,0,0,1,0-1.7h2.852a.85.85,0,1,1,0,1.7Z" fill="#f5827a"/>
        <path id="Trazado_885289" data-name="Trazado 885289" d="M48.129,41.514a.85.85,0,0,1-.85-.85v-2.69a4.82,4.82,0,0,0-4.814-4.814h-6.4a.85.85,0,0,1,0-1.7h6.4a6.521,6.521,0,0,1,6.514,6.514v2.69A.85.85,0,0,1,48.129,41.514Z" fill="#f5827a"/>
        <path id="Trazado_885290" data-name="Trazado 885290" d="M46.392,46.677H43.9a1.191,1.191,0,0,1-1.189-1.189V40.664a.85.85,0,0,1,.85-.85h3.172a.85.85,0,0,1,.85.85v4.823A1.191,1.191,0,0,1,46.392,46.677Zm-1.982-1.7h1.473V41.514H44.409Z" fill="#f5827a"/>
        <path id="Trazado_885291" data-name="Trazado 885291" d="M19.086,41.514H6.622a.85.85,0,0,1-.85-.85V35.492a.85.85,0,1,1,1.7,0v4.322H18.236V29.78H7.472v1.747a.85.85,0,1,1-1.7,0V29.5a1.418,1.418,0,0,1,1.416-1.416H18.52A1.418,1.418,0,0,1,19.936,29.5V40.664A.85.85,0,0,1,19.086,41.514Z" fill="#f5827a"/>
        <path id="Trazado_885292" data-name="Trazado 885292" d="M52.5,43.3h2.083A3.417,3.417,0,0,1,58,46.71v5.374A3.417,3.417,0,0,1,54.587,55.5H52.5a2.315,2.315,0,0,1-2.319-2.211,2.278,2.278,0,0,1,.39-1.337,2.284,2.284,0,0,1,0-2.552,2.284,2.284,0,0,1,0-2.552,2.278,2.278,0,0,1-.39-1.337A2.315,2.315,0,0,1,52.5,43.3Zm2.083,10.5A1.716,1.716,0,0,0,56.3,52.084V46.71A1.716,1.716,0,0,0,54.587,45H52.5a.6.6,0,0,0-.62.56.575.575,0,0,0,.319.533.85.85,0,0,1,0,1.518.576.576,0,0,0,0,1.031.85.85,0,0,1,0,1.518.576.576,0,0,0,0,1.031.85.85,0,0,1,0,1.518.575.575,0,0,0-.319.533.6.6,0,0,0,.62.56Z" fill="#f5827a"/>
        <path id="Trazado_885293" data-name="Trazado 885293" d="M18.591,51H15.872a1.191,1.191,0,0,1-1.189-1.189V45.4a1.191,1.191,0,0,1,1.189-1.189h2.719A1.191,1.191,0,0,1,19.781,45.4v4.418A1.191,1.191,0,0,1,18.591,51Zm-2.209-1.7h1.7v-3.4h-1.7Z" fill="#f5827a"/>
        <path id="Trazado_885294" data-name="Trazado 885294" d="M3.413,43.3H5.5a2.315,2.315,0,0,1,2.319,2.211,2.278,2.278,0,0,1-.39,1.337,2.284,2.284,0,0,1,0,2.552,2.284,2.284,0,0,1,0,2.552,2.278,2.278,0,0,1,.39,1.337A2.315,2.315,0,0,1,5.5,55.5H3.413A3.417,3.417,0,0,1,0,52.084V46.71A3.417,3.417,0,0,1,3.413,43.3ZM5.5,53.8a.6.6,0,0,0,.62-.56A.575.575,0,0,0,5.8,52.7a.85.85,0,0,1,0-1.518.576.576,0,0,0,0-1.031.85.85,0,0,1,0-1.518.576.576,0,0,0,0-1.031.85.85,0,0,1,0-1.518.575.575,0,0,0,.319-.533A.6.6,0,0,0,5.5,45H3.413A1.716,1.716,0,0,0,1.7,46.71v5.374A1.716,1.716,0,0,0,3.413,53.8Z" fill="#f5827a"/>
        <path id="Trazado_885295" data-name="Trazado 885295" d="M22.242,54.314H6.944a.85.85,0,1,1,0-1.7H21.393v-11.1H4.316v2.633a.85.85,0,1,1-1.7,0V41.231a1.418,1.418,0,0,1,1.416-1.416H21.676a1.418,1.418,0,0,1,1.416,1.416V53.464A.85.85,0,0,1,22.242,54.314Z" fill="#f5827a"/>
        <path id="Trazado_885296" data-name="Trazado 885296" d="M54.534,45a.85.85,0,0,1-.85-.85V41.514H36.607v2.369a.85.85,0,0,1-1.7,0V41.231a1.418,1.418,0,0,1,1.416-1.416H53.967a1.418,1.418,0,0,1,1.416,1.416v2.916A.85.85,0,0,1,54.534,45Z" fill="#f5827a"/>
        <path id="Trazado_885297" data-name="Trazado 885297" d="M51.056,54.314h-15.3a.85.85,0,0,1-.85-.85V47.848a.85.85,0,1,1,1.7,0v4.767H51.056a.85.85,0,1,1,0,1.7Z" fill="#f5827a"/>
        <path id="Trazado_885298" data-name="Trazado 885298" d="M35.871,54.314H22.129a.85.85,0,0,1,0-1.7H35.871a.85.85,0,0,1,0,1.7Z" fill="#f5827a"/>
        <path id="Trazado_885299" data-name="Trazado 885299" d="M33.464,28.226a.849.849,0,0,1,.663.318l2.6,3.234a.85.85,0,0,1,.048,1l-3.641,5.557a1.349,1.349,0,0,1-2.094.2L29,36.445l-2.038,2.09a1.349,1.349,0,0,1-2.094-.2l-3.641-5.557a.85.85,0,0,1,.048-1l2.6-3.234a.85.85,0,0,1,1.082-.207,5.558,5.558,0,0,0,2.741.723H30.3a5.557,5.557,0,0,0,2.741-.723A.847.847,0,0,1,33.464,28.226Zm1.549,4.135-1.782-2.218a7.264,7.264,0,0,1-2.928.617H27.7a7.267,7.267,0,0,1-2.928-.617l-1.782,2.218,3.064,4.675,2.341-2.4a.85.85,0,0,1,1.217,0l2.341,2.4Z" fill="#f5827a"/>
        <path id="Trazado_885300" data-name="Trazado 885300" d="M25.83,28.783a.849.849,0,0,1,.247.037,5.56,5.56,0,0,0,1.619.24H30.3a5.564,5.564,0,0,0,1.619-.24.85.85,0,0,1,1.1.813v1.956a1.969,1.969,0,0,1-.581,1.4L29.6,35.828a.85.85,0,0,1-1.2,0L25.561,32.99a1.969,1.969,0,0,1-.581-1.4V29.633a.85.85,0,0,1,.85-.85ZM29,34.026l2.237-2.237a.285.285,0,0,0,.083-.2v-.9a7.282,7.282,0,0,1-1.016.071H27.7a7.283,7.283,0,0,1-1.016-.071v.9a.285.285,0,0,0,.083.2Z" fill="#f5827a"/>
        <path id="Trazado_885301" data-name="Trazado 885301" d="M21.3,24.782H20.124a3.812,3.812,0,0,1-3.808-3.808,3.7,3.7,0,0,1,.036-.506.85.85,0,1,1,1.683.234,1.965,1.965,0,0,0-.02.272,2.111,2.111,0,0,0,2.109,2.109H21.3a.85.85,0,0,1,0,1.7Z" fill="#f5827a"/>
        <path id="Trazado_885302" data-name="Trazado 885302" d="M37.876,24.782H36.7a.85.85,0,1,1,0-1.7h1.178a2.111,2.111,0,0,0,2.109-2.109,1.965,1.965,0,0,0-.02-.272.85.85,0,1,1,1.683-.234,3.7,3.7,0,0,1,.036.506A3.812,3.812,0,0,1,37.876,24.782Z" fill="#f5827a"/>
        <path id="Trazado_885303" data-name="Trazado 885303" d="M30.3,30.759H27.7A7.267,7.267,0,0,1,20.437,23.5V18.64a.85.85,0,1,1,1.7,0V23.5a5.566,5.566,0,0,0,5.56,5.56H30.3a5.566,5.566,0,0,0,5.56-5.56V18.64a.85.85,0,0,1,1.7,0V23.5A7.267,7.267,0,0,1,30.3,30.759Z" fill="#f5827a"/>
        <path id="Línea_626" data-name="Línea 626" d="M0,2.028a.85.85,0,0,1-.85-.85V0A.85.85,0,0,1,0-.85.85.85,0,0,1,.85,0V1.178A.85.85,0,0,1,0,2.028Z" transform="translate(26.216 19.751)" fill="#f5827a"/>
        <path id="Línea_627" data-name="Línea 627" d="M0,2.028a.85.85,0,0,1-.85-.85V0A.85.85,0,0,1,0-.85.85.85,0,0,1,.85,0V1.178A.85.85,0,0,1,0,2.028Z" transform="translate(31.784 19.751)" fill="#f5827a"/>
        <path id="Trazado_885304" data-name="Trazado 885304" d="M29,26.388a4.171,4.171,0,0,1-2.969-1.231.85.85,0,0,1,1.2-1.2,2.5,2.5,0,0,0,3.535,0,.85.85,0,0,1,1.2,1.2A4.171,4.171,0,0,1,29,26.388Z" fill="#f5827a"/>
        <path id="Trazado_885305" data-name="Trazado 885305" d="M39.3,17.7a.85.85,0,0,1-.85-.85V13.792A9.59,9.59,0,0,0,22.8,6.361a.85.85,0,0,1-1.075-1.316,11.289,11.289,0,0,1,18.425,8.747v3.056A.85.85,0,0,1,39.3,17.7Z" fill="#f5827a"/>
        <path id="Trazado_885306" data-name="Trazado 885306" d="M18.421,17.982a.85.85,0,0,1-.85-.85V13.792a11.3,11.3,0,0,1,1.4-5.441.85.85,0,0,1,1.488.82,9.6,9.6,0,0,0-1.185,4.621v3.341A.85.85,0,0,1,18.421,17.982Z" fill="#f5827a"/>
        <path id="Trazado_885307" data-name="Trazado 885307" d="M39.634,21.981A2.4,2.4,0,0,1,37.7,21a10.753,10.753,0,0,0-17.4,0,2.4,2.4,0,0,1-1.934.985,2.389,2.389,0,0,1-1.931-3.793,15.531,15.531,0,0,1,25.13,0,2.389,2.389,0,0,1-1.931,3.793ZM29,14.864A12.326,12.326,0,0,1,39.074,20a.69.69,0,0,0,1.116-.811,13.832,13.832,0,0,0-22.381,0A.69.69,0,1,0,18.926,20,12.326,12.326,0,0,1,29,14.864Z" fill="#f5827a"/>
        <path id="Elipse_11544" data-name="Elipse 11544" d="M1.982-.85A2.832,2.832,0,1,1-.85,1.982,2.835,2.835,0,0,1,1.982-.85Zm0,3.965A1.133,1.133,0,1,0,.85,1.982,1.134,1.134,0,0,0,1.982,3.115Z" transform="translate(27.018 6.25)" fill="#f5827a"/>
      </g>
    </g>
  </g>
</svg>
