<svg xmlns="http://www.w3.org/2000/svg" xmlns:xlink="http://www.w3.org/1999/xlink" width="58" height="58" viewBox="0 0 58 58">
  <defs>
    <clipPath id="clip-path">
      <rect id="Rectángulo_402084" data-name="Rectángulo 402084" width="58" height="58" transform="translate(1241.051 6473)" fill="#f5827a" stroke="#afd5f9" stroke-width="1"/>
    </clipPath>
  </defs>
  <g id="Grupo_1101003" data-name="Grupo 1101003" transform="translate(-1241.051 -6473)">
    <g id="Enmascarar_grupo_1098710" data-name="Enmascarar grupo 1098710" clip-path="url(#clip-path)">
      <g id="mensajero_5_" data-name="mensajero (5)" transform="translate(1241.051 6473)">
        <path id="Trazado_885268" data-name="Trazado 885268" d="M24.8,36.36h-3.83a1.048,1.048,0,0,1-.854-.442l-.69-.978-.664.966a1.046,1.046,0,0,1-.862.454H14.528a1.046,1.046,0,0,1-.936-1.515l.587-1.174a5.005,5.005,0,0,0,.1-4.281,6.74,6.74,0,0,1-.34-4.49.85.85,0,0,1,1.639.447,5.036,5.036,0,0,0,.254,3.355A6.7,6.7,0,0,1,15.7,34.43l-.115.23h1.969l1-1.456a1.046,1.046,0,0,1,1.717-.011l1.035,1.466H24.8a.85.85,0,0,1,0,1.7Z" fill="#f5827a"/>
        <path id="Trazado_885269" data-name="Trazado 885269" d="M43.472,36.36H40.1a1.046,1.046,0,0,1-.862-.453l-.664-.967-.69.977a1.047,1.047,0,0,1-.855.443h-3.8a.85.85,0,1,1,0-1.7h3.465l1.035-1.466a1.046,1.046,0,0,1,1.717.011l1,1.456h1.969l-.115-.23a6.7,6.7,0,0,1-.133-5.729,5.036,5.036,0,0,0,.254-3.355.85.85,0,0,1,1.639-.447,6.74,6.74,0,0,1-.34,4.49,5.005,5.005,0,0,0,.1,4.28l.587,1.175a1.046,1.046,0,0,1-.936,1.514Z" fill="#f5827a"/>
        <path id="Trazado_885270" data-name="Trazado 885270" d="M39.855,27.537h-.266a.85.85,0,0,1,0-1.7h.266a3.089,3.089,0,0,0,3.085-3.085V21.634a1.119,1.119,0,0,0-1.118-1.118h-2.15a.85.85,0,0,1,0-1.7h2.15a2.82,2.82,0,0,1,2.817,2.817v1.119A4.79,4.79,0,0,1,39.855,27.537Z" fill="#f5827a"/>
        <path id="Trazado_885271" data-name="Trazado 885271" d="M18.428,27.537h-.284a4.79,4.79,0,0,1-4.784-4.784V21.634a2.82,2.82,0,0,1,2.817-2.817h2.15a.85.85,0,0,1,0,1.7h-2.15a1.119,1.119,0,0,0-1.118,1.118v1.119a3.089,3.089,0,0,0,3.085,3.085h.284a.85.85,0,1,1,0,1.7Z" fill="#f5827a"/>
        <path id="Trazado_885272" data-name="Trazado 885272" d="M48.133,49.647a.85.85,0,0,1-.845-.775A6.908,6.908,0,0,0,41.8,42.744l-.046-.011-2.736-.711a.85.85,0,0,1,.427-1.645l2.714.705a8.572,8.572,0,0,1,6.822,7.64.85.85,0,0,1-.772.921C48.184,49.646,48.158,49.647,48.133,49.647Z" fill="#f5827a"/>
        <path id="Trazado_885273" data-name="Trazado 885273" d="M33.644,40.191a.848.848,0,0,1-.649-.3,3,3,0,0,1-.708-1.935v-3.38a.85.85,0,0,1,1.7,0v3.38a1.3,1.3,0,0,0,.307.839.85.85,0,0,1-.649,1.4Z" fill="#f5827a"/>
        <path id="Trazado_885274" data-name="Trazado 885274" d="M24.316,40.236a.85.85,0,0,1-.633-1.416,1.3,1.3,0,0,0,.331-.866V34.433a.85.85,0,0,1,1.7,0v3.521a2.994,2.994,0,0,1-.764,2A.848.848,0,0,1,24.316,40.236Z" fill="#f5827a"/>
        <path id="Trazado_885275" data-name="Trazado 885275" d="M9.861,49.714l-.068,0a.85.85,0,0,1-.78-.914,8.572,8.572,0,0,1,6.828-7.714l2.714-.705a.85.85,0,0,1,.427,1.645l-2.736.711-.046.011a6.9,6.9,0,0,0-5.493,6.188A.85.85,0,0,1,9.861,49.714Z" fill="#f5827a"/>
        <path id="Trazado_885276" data-name="Trazado 885276" d="M29,36.557a7.674,7.674,0,0,1-5.266-2.082l-2.51-2.35a.85.85,0,1,1,1.161-1.24l2.51,2.351a6,6,0,0,0,8.209,0l3.6-3.37a6.669,6.669,0,0,0,1.351-1.774,6.692,6.692,0,0,0,.769-3.116V20.344a2.181,2.181,0,0,1-.446-.257,2.146,2.146,0,0,1-.782-1.121L36.572,15.5a.85.85,0,1,1,1.63-.481l1.023,3.466a.46.46,0,0,0,.167.24.468.468,0,0,0,.281.093.85.85,0,0,1,.85.85v5.308a8.4,8.4,0,0,1-2.658,6.13l-3.6,3.37A7.674,7.674,0,0,1,29,36.557Z" fill="#f5827a"/>
        <path id="Trazado_885277" data-name="Trazado 885277" d="M19.206,29.359a.849.849,0,0,1-.739-.428l-.025-.046,0,0a8.434,8.434,0,0,1-.964-3.906V19.667a.85.85,0,0,1,.85-.85.464.464,0,0,0,.444-.332l1.018-3.49a.85.85,0,1,1,1.631.476L20.4,18.961a2.17,2.17,0,0,1-1.226,1.379v4.635a6.728,6.728,0,0,0,.766,3.11l.013.025a.85.85,0,0,1-.749,1.249Z" fill="#f5827a"/>
        <path id="Trazado_885278" data-name="Trazado 885278" d="M42.134,20.517a.85.85,0,0,1-.85-.85,19.761,19.761,0,0,0-.659-5.058l-.209-.79a.85.85,0,1,1,1.643-.435l.209.79a21.461,21.461,0,0,1,.715,5.493A.85.85,0,0,1,42.134,20.517Z" fill="#f5827a"/>
        <path id="Trazado_885279" data-name="Trazado 885279" d="M15.866,20.517a.85.85,0,0,1-.85-.85,21.461,21.461,0,0,1,.715-5.493l.209-.79a.85.85,0,1,1,1.643.435l-.209.79a19.761,19.761,0,0,0-.658,5.058A.85.85,0,0,1,15.866,20.517Z" fill="#f5827a"/>
        <path id="Trazado_885280" data-name="Trazado 885280" d="M57.15,58a.85.85,0,0,1-.85-.85V50.141a.284.284,0,0,0-.283-.283H1.982a.284.284,0,0,0-.283.283V57.15a.85.85,0,1,1-1.7,0V50.141a1.985,1.985,0,0,1,1.982-1.982H56.018A1.985,1.985,0,0,1,58,50.141V57.15A.85.85,0,0,1,57.15,58Z" fill="#f5827a"/>
        <path id="Trazado_885281" data-name="Trazado 885281" d="M23.607,55.458H21.064a.85.85,0,0,1-.85-.85V49.178a.85.85,0,0,1,1.7,0v4.581h1.694a.85.85,0,1,1,0,1.7Z" fill="#f5827a"/>
        <path id="Trazado_885282" data-name="Trazado 885282" d="M36.936,55.458H27.572a.85.85,0,0,1,0-1.7h8.515V49.153a.85.85,0,0,1,1.7,0v5.456A.85.85,0,0,1,36.936,55.458Z" fill="#f5827a"/>
        <path id="Trazado_885283" data-name="Trazado 885283" d="M14.871,49.858a.85.85,0,0,1-.848-.8c-.112-2.041-.853-3.712-1.934-4.362a.85.85,0,1,1,.875-1.456c1.581.95,2.611,3.091,2.755,5.725a.85.85,0,0,1-.8.895Z" fill="#f5827a"/>
        <path id="Trazado_885284" data-name="Trazado 885284" d="M43.047,49.858H43a.85.85,0,0,1-.8-.895c.144-2.635,1.174-4.775,2.755-5.725a.85.85,0,0,1,.875,1.456c-1.081.65-1.822,2.321-1.934,4.362A.85.85,0,0,1,43.047,49.858Z" fill="#f5827a"/>
        <path id="Trazado_885285" data-name="Trazado 885285" d="M41.418,11.349a.85.85,0,0,1-.85-.85V9.524a7.377,7.377,0,0,0-1.5-4.44A8.635,8.635,0,0,0,32.234,1.7H25.766a8.635,8.635,0,0,0-6.837,3.385,7.377,7.377,0,0,0-1.5,4.44V10.5a.85.85,0,1,1-1.7,0V9.524a9.086,9.086,0,0,1,1.844-5.468A10.288,10.288,0,0,1,25.766,0h6.468a10.289,10.289,0,0,1,8.19,4.055,9.086,9.086,0,0,1,1.844,5.468V10.5A.85.85,0,0,1,41.418,11.349Z" fill="#f5827a"/>
        <path id="Línea_623" data-name="Línea 623" d="M6.822.85H0A.85.85,0,0,1-.85,0,.85.85,0,0,1,0-.85H6.822a.85.85,0,0,1,.85.85A.85.85,0,0,1,6.822.85Z" transform="translate(25.589 6.07)" fill="#f5827a"/>
        <path id="Trazado_885286" data-name="Trazado 885286" d="M29,16.533a58.143,58.143,0,0,1-10.516-.961,3.352,3.352,0,0,1-2.751-3.295V10.5a.85.85,0,0,1,.85-.85h15.6a.85.85,0,0,1,0,1.7H17.432v.928A1.653,1.653,0,0,0,18.79,13.9a56.307,56.307,0,0,0,20.42,0,1.654,1.654,0,0,0,1.359-1.624v-.928H36.146a.85.85,0,0,1,0-1.7h5.272a.85.85,0,0,1,.85.85v1.777a3.353,3.353,0,0,1-2.751,3.295A58.17,58.17,0,0,1,29,16.533Z" fill="#f5827a"/>
        <path id="Línea_624" data-name="Línea 624" d="M0,6.361a.85.85,0,0,1-.85-.85V0A.85.85,0,0,1,0-.85.85.85,0,0,1,.85,0V5.511A.85.85,0,0,1,0,6.361Z" transform="translate(29.002 43.317)" fill="#f5827a"/>
        <g id="Grupo_1100750" data-name="Grupo 1100750">
          <path id="Trazado_885287" data-name="Trazado 885287" d="M29,26.158a3.485,3.485,0,0,1-1.578-.376.85.85,0,0,1,.769-1.515,1.792,1.792,0,0,0,1.617,0,.85.85,0,0,1,.769,1.515A3.485,3.485,0,0,1,29,26.158Z" fill="#f5827a"/>
          <path id="Trazado_885288" data-name="Trazado 885288" d="M29,30.5a5.1,5.1,0,0,1-2.63-.741.85.85,0,0,1,.874-1.457,3.321,3.321,0,0,0,3.512,0,.85.85,0,0,1,.874,1.457A5.1,5.1,0,0,1,29,30.5Z" fill="#f5827a"/>
          <path id="Línea_625" data-name="Línea 625" d="M0,2.508a.85.85,0,0,1-.85-.85V0A.85.85,0,0,1,0-.85.85.85,0,0,1,.85,0V1.658A.85.85,0,0,1,0,2.508Z" transform="translate(24.632 19.853)" fill="#f5827a"/>
          <path id="Línea_626" data-name="Línea 626" d="M0,2.508a.85.85,0,0,1-.85-.85V0A.85.85,0,0,1,0-.85.85.85,0,0,1,.85,0V1.658A.85.85,0,0,1,0,2.508Z" transform="translate(33.368 19.853)" fill="#f5827a"/>
        </g>
        <g id="Grupo_1100755" data-name="Grupo 1100755">
          <g id="Grupo_1100752" data-name="Grupo 1100752">
            <g id="Grupo_1100751" data-name="Grupo 1100751">
              <path id="Trazado_885289" data-name="Trazado 885289" d="M22.646,37.591h0a2.016,2.016,0,0,1,1.288.466l5.61,4.675a.85.85,0,0,1,.057,1.253l-2.725,2.725a2.012,2.012,0,0,1-2.734.1l-5.893-5.066a1.416,1.416,0,0,1,.29-2.34l3.208-1.6A2.022,2.022,0,0,1,22.646,37.591Zm5.1,5.851-4.9-4.079a.317.317,0,0,0-.34-.039l-2.827,1.413,5.57,4.789a.309.309,0,0,0,.2.076.312.312,0,0,0,.222-.092Z" fill="#f5827a"/>
            </g>
          </g>
          <g id="Grupo_1100754" data-name="Grupo 1100754">
            <g id="Grupo_1100753" data-name="Grupo 1100753">
              <path id="Trazado_885290" data-name="Trazado 885290" d="M32.548,47.3a2.01,2.01,0,0,1-1.425-.587L28.4,43.989a.852.852,0,0,1,0-1.2c.018-.018.04-.038.059-.054l5.607-4.673a2.013,2.013,0,0,1,2.187-.255l3.209,1.6a1.417,1.417,0,0,1,.289,2.341l-1.5,1.289a.85.85,0,1,1-1.108-1.288l1.177-1.012-2.828-1.414a.313.313,0,0,0-.34.04l-4.9,4.079,2.067,2.067a.314.314,0,0,0,.426.017l1.386-1.193a.85.85,0,1,1,1.108,1.288l-1.387,1.193A2,2,0,0,1,32.548,47.3Z" fill="#f5827a"/>
            </g>
          </g>
        </g>
      </g>
    </g>
  </g>
</svg>
