<svg xmlns="http://www.w3.org/2000/svg" width="57.05" height="57" viewBox="0 0 57.05 57">
  <g id="Grupo_1100983" data-name="Grupo 1100983" transform="translate(-180.001 -4245.502)">
    <g id="Grupo_1100055" data-name="Grupo 1100055" transform="translate(-105 -76.498)">
      <rect id="Rect치ngulo_400898" data-name="Rect치ngulo 400898" width="57" height="57" rx="28.5" transform="translate(285.051 4322)" fill="#e8f57a" opacity="0.859"/>
      <rect id="Rect치ngulo_400907" data-name="Rect치ngulo 400907" width="57" height="57" rx="28.5" transform="translate(285.001 4322)" fill="none"/>
      <g id="devoluciones_1_" data-name="devoluciones (1)" transform="translate(273.844 4333)">
        <path id="Trazado_883382" data-name="Trazado 883382" d="M52.28,13.243H39.473a10.859,10.859,0,0,0,1.67-4.8A8.442,8.442,0,0,0,25.382,4.235a.5.5,0,0,0,.87.5A7.438,7.438,0,0,1,40.139,8.441c0,2.855-3.838,8.23-7.437,12.318-3.6-4.088-7.438-9.463-7.438-12.318A7.468,7.468,0,0,1,25.5,6.577a.5.5,0,1,0-.972-.251,8.47,8.47,0,0,0-.267,2.114,10.859,10.859,0,0,0,1.67,4.8h-.219a1.507,1.507,0,0,0-1.505,1.505V32.732a1.507,1.507,0,0,0,1.505,1.505H52.28a1.507,1.507,0,0,0,1.505-1.505V14.749a1.507,1.507,0,0,0-1.505-1.505ZM49,24.3l-.239-.56.239-.56a.97.97,0,0,0,0-.761l-.214-.5a.149.149,0,0,1,.137-.208h3.857v4.064H48.926a.149.149,0,0,1-.137-.091l0,0a.149.149,0,0,1,0-.117l.214-.5a.97.97,0,0,0,0-.762Zm3.279,8.936H45.685V30.026a.5.5,0,1,0-1,0v3.208H25.712a.5.5,0,0,1-.5-.5V14.749a.5.5,0,0,1,.5-.5h.81a57.669,57.669,0,0,0,5.446,7.2.977.977,0,0,0,1.466,0,57.663,57.663,0,0,0,5.446-7.2h5.8V27.625a.5.5,0,1,0,1,0V14.247H52.28a.5.5,0,0,1,.5.5V20.7h-4.2a.635.635,0,0,0-.585.386l-.165.386a.975.975,0,0,0,0,.762l.239.56-.239.56a.974.974,0,0,0,0,.762l.239.56-.239.56a.974.974,0,0,0,0,.762L48,26.39a.635.635,0,0,0,.585.386h4.2v5.956A.5.5,0,0,1,52.28,33.234Z" transform="translate(0 0)"/>
        <path id="Trazado_883383" data-name="Trazado 883383" d="M77.675,340.932H67.346a.971.971,0,0,0-.97.97v5.253a.971.971,0,0,0,.97.97H77.675a.971.971,0,0,0,.97-.97V341.9A.971.971,0,0,0,77.675,340.932Zm-.033,6.189H67.38v-5.186H77.642Z" transform="translate(-39.349 -318.134)"/>
        <path id="Trazado_883384" data-name="Trazado 883384" d="M99.306,373.084a.5.5,0,0,0,.5-.5V370.09a.5.5,0,0,0-1,0v2.492A.5.5,0,0,0,99.306,373.084Z" transform="translate(-69.609 -344.874)"/>
        <path id="Trazado_883385" data-name="Trazado 883385" d="M129.645,373.084a.5.5,0,0,0,.5-.5V370.09a.5.5,0,0,0-1,0v2.492A.5.5,0,0,0,129.645,373.084Z" transform="translate(-97.919 -344.874)"/>
        <path id="Trazado_883386" data-name="Trazado 883386" d="M154.394,373.084a.5.5,0,0,0,.5-.5V370.09a.5.5,0,0,0-1,0v2.492A.5.5,0,0,0,154.394,373.084Z" transform="translate(-121.013 -344.874)"/>
        <path id="Trazado_883387" data-name="Trazado 883387" d="M201.79,373.084a.5.5,0,0,0,.5-.5V370.09a.5.5,0,0,0-1,0v2.492A.5.5,0,0,0,201.79,373.084Z" transform="translate(-165.24 -344.874)"/>
        <path id="Trazado_883388" data-name="Trazado 883388" d="M72.326,37.8a6.092,6.092,0,1,0-6.092,6.092A6.1,6.1,0,0,0,72.326,37.8Zm-11.181,0a5.089,5.089,0,1,1,5.089,5.089A5.094,5.094,0,0,1,61.145,37.8Z" transform="translate(-33.532 -29.586)"/>
        <path id="Trazado_883389" data-name="Trazado 883389" d="M305.315,58.476a10.694,10.694,0,0,0-7.962-7.934v-.354a.769.769,0,0,0-1.31-.547l-3.556,3.518a.769.769,0,0,0,0,1.094l3.556,3.518a.769.769,0,0,0,1.31-.547v-.672c.249-.022.5-.033.749-.033a8.459,8.459,0,0,1,6.1,2.57.659.659,0,0,0,1.113-.612ZM298.1,55.514c-.261,0-.523.012-.783.033a.5.5,0,0,0-.97.18v.935l-2.989-2.957,2.989-2.957v2.644a.5.5,0,1,0,1,0V51.576a9.7,9.7,0,0,1,6.632,5.97A9.442,9.442,0,0,0,298.1,55.514Z" transform="translate(-250.126 -46.114)"/>
        <path id="Trazado_883390" data-name="Trazado 883390" d="M105.176,76.216v-2.1c0-.009,0-.017,0-.026a1.474,1.474,0,0,0,.349-.954v-2.38a.77.77,0,0,0-.769-.769h-5.34a.77.77,0,0,0-.769.769v2.38a1.474,1.474,0,0,0,.348.952v2.127a.837.837,0,0,0,.836.836h4.51A.837.837,0,0,0,105.176,76.216Zm-.656-3.079a.477.477,0,1,1-.955,0V70.992h.955Zm-1.958,0a.477.477,0,1,1-.955,0V70.992h.955v2.146Zm-2.913-2.146h.955v2.146a.477.477,0,1,1-.955,0Zm2.938,5.057v-.3a.5.5,0,0,0-1,0v.3H100V74.612c.043,0,.086.006.13.006a1.474,1.474,0,0,0,.979-.371,1.477,1.477,0,0,0,1.958,0,1.475,1.475,0,0,0,.979.371c.044,0,.087,0,.13-.006v1.437Z" transform="translate(-69.46 -65.308)"/>
      </g>
    </g>
  </g>
</svg>
