<svg xmlns="http://www.w3.org/2000/svg" width="57" height="57" viewBox="0 0 57 57">
  <g id="Grupo_1100984" data-name="Grupo 1100984" transform="translate(-600 -4245.502)">
    <g id="Grupo_1100054" data-name="Grupo 1100054" transform="translate(-216.051 -76.498)">
      <rect id="Rectángulo_402007" data-name="Rectángulo 402007" width="57" height="57" rx="28.5" transform="translate(816.051 4322)" fill="#e8f57a" opacity="0.859"/>
      <g id="devoluciones_2_" data-name="devoluciones (2)" transform="translate(825.802 4331.75)">
        <path id="_x35_" d="M20.094,9.79a.585.585,0,0,1,.589-.581.578.578,0,0,1,.581.581v8.935a1.757,1.757,0,0,1-1.752,1.76H3.759A1.772,1.772,0,0,1,2,18.725V9.865a.59.59,0,1,1,1.179,0v8.86a.582.582,0,0,0,.166.415.591.591,0,0,0,.415.175H5.329V13.369a3.089,3.089,0,0,1,5.282-2.184,3.055,3.055,0,0,1,.913,2.184v5.946h7.989a.559.559,0,0,0,.407-.175.591.591,0,0,0,.175-.415V9.79ZM4.142,0H19.13a2.379,2.379,0,0,1,1.361.423,2.54,2.54,0,0,1,.9,1.129L23.15,5.837a1.688,1.688,0,0,1,.116.482,1.642,1.642,0,0,1-.042.49,2.207,2.207,0,0,1-.756,1.237,2.09,2.09,0,0,1-2.89-.174l-.042-.042-.042.042a2.1,2.1,0,0,1-3.081,0l-.042-.042-.033.042a2.109,2.109,0,0,1-3.089,0l-.033-.042-.042.042a2.1,2.1,0,0,1-3.081,0l-.042-.042-.042.042a2.1,2.1,0,0,1-3.081,0L6.89,7.83l-.042.042a2.1,2.1,0,0,1-3.081,0L3.726,7.83l-.033.042a2.128,2.128,0,0,1-1.545.673A2.1,2.1,0,0,1,.8,8.046,2.266,2.266,0,0,1,.039,6.809a1.636,1.636,0,0,1-.033-.49,1.453,1.453,0,0,1,.116-.482L1.883,1.553A2.486,2.486,0,0,1,2.78.423,2.362,2.362,0,0,1,4.142,0ZM19.13,1.171H4.142a1.179,1.179,0,0,0-.7.216A1.337,1.337,0,0,0,2.962,2L1.2,6.277a1,1,0,0,0-.033.133.409.409,0,0,0,.017.141,1.081,1.081,0,0,0,.357.6.934.934,0,0,0,.606.216.979.979,0,0,0,.7-.3,1.083,1.083,0,0,0,.232-.39.574.574,0,0,1,.548-.382h.207a.574.574,0,0,1,.548.382,1.087,1.087,0,0,0,.232.39.98.98,0,0,0,.7.3A.96.96,0,0,0,6,7.066a1.1,1.1,0,0,0,.241-.39.574.574,0,0,1,.548-.382h.2a.577.577,0,0,1,.556.382,1.091,1.091,0,0,0,.232.39.953.953,0,0,0,1.387,0,1.088,1.088,0,0,0,.233-.39.593.593,0,0,1,.556-.382h.2a.593.593,0,0,1,.556.382.979.979,0,0,0,.233.39.96.96,0,0,0,.689.3.979.979,0,0,0,.7-.3,1.083,1.083,0,0,0,.232-.39.577.577,0,0,1,.556-.382h.2a.574.574,0,0,1,.548.382,1.219,1.219,0,0,0,.232.39.994.994,0,0,0,.7.3.979.979,0,0,0,.7-.3,1.088,1.088,0,0,0,.233-.39.574.574,0,0,1,.548-.382h.207a.574.574,0,0,1,.548.382,1.088,1.088,0,0,0,.233.39.98.98,0,0,0,.7.3.96.96,0,0,0,.689-.3,1.1,1.1,0,0,0,.241-.39.574.574,0,0,1,.548-.382h.2a.577.577,0,0,1,.556.382,1.087,1.087,0,0,0,.232.39.964.964,0,0,0,.7.3.911.911,0,0,0,.6-.216,1.091,1.091,0,0,0,.366-.6.4.4,0,0,0,.008-.141.285.285,0,0,0-.033-.133L20.309,2a1.333,1.333,0,0,0-.482-.614,1.2,1.2,0,0,0-.7-.216ZM14.256,15.246h3.579V12.6H14.256Zm4.169,1.171h-4.75a.592.592,0,0,1-.589-.589v-3.82a.585.585,0,0,1,.589-.581h4.75a.585.585,0,0,1,.59.581v3.82A.592.592,0,0,1,18.425,16.417ZM6.5,19.315h3.853V13.369a1.943,1.943,0,0,0-1.927-1.927A1.957,1.957,0,0,0,6.5,13.369Z" fill="#12263f"/>
        <path id="_x34_" d="M102.787,110.972a.578.578,0,0,1-.581-.581.585.585,0,0,1,.581-.59h2.251a.585.585,0,0,1,.581.59.578.578,0,0,1-.581.581Zm0-2.35a.577.577,0,0,1-.581-.581.585.585,0,0,1,.581-.59h3.662a.592.592,0,0,1,.59.59.585.585,0,0,1-.59.581Z" transform="translate(-72.264 -75.971)" fill="#12263f"/>
        <path id="_x33_" d="M95.154,35.612a.592.592,0,0,1-.59.59.585.585,0,0,1-.581-.59V31.418a1.752,1.752,0,0,0-.515-1.237,1.786,1.786,0,0,0-1.246-.515H86.808l1.486,1.428a.584.584,0,1,1-.805.847l-2.5-2.408a.589.589,0,0,1-.008-.9L87.49,26.22a.581.581,0,1,1,.805.839L86.809,28.5h5.414a2.935,2.935,0,0,1,2.932,2.923v4.194Z" transform="translate(-59.939 -18.423)" fill="#12263f"/>
        <path id="_x32_" d="M17.851,79.661a.578.578,0,0,1,.581-.581.585.585,0,0,1,.589.581v4.193a1.758,1.758,0,0,0,1.761,1.76h5.406L24.7,84.186a.587.587,0,1,1,.814-.847l2.5,2.408a.582.582,0,0,1,0,.905l-2.5,2.408a.587.587,0,0,1-.814-.847l1.487-1.428H20.782a2.953,2.953,0,0,1-2.076-.855,2.918,2.918,0,0,1-.855-2.076V79.661Z" transform="translate(-12.622 -55.912)" fill="#12263f"/>
        <path id="_x31_" d="M70.208,75.678H84.375A1.627,1.627,0,0,1,85.994,77.3V89.387a1.616,1.616,0,0,1-1.619,1.619H70.208a1.615,1.615,0,0,1-1.619-1.619V77.3A1.626,1.626,0,0,1,70.208,75.678Zm9.517,1.171V80.76a.893.893,0,0,1-1.487.664l-.922-.83-.988.855a.888.888,0,0,1-1.47-.673V76.849H70.208a.446.446,0,0,0-.448.448V89.387a.439.439,0,0,0,.133.316.475.475,0,0,0,.316.133H84.375a.453.453,0,0,0,.448-.448V77.3a.457.457,0,0,0-.448-.448Zm-3.7,0v3.313l.706-.614a.889.889,0,0,1,.59-.224.924.924,0,0,1,.589.233l.64.573v-3.28Z" transform="translate(-48.495 -53.507)" fill="#12263f"/>
      </g>
    </g>
  </g>
</svg>
