<svg xmlns="http://www.w3.org/2000/svg" xmlns:xlink="http://www.w3.org/1999/xlink" width="420" height="318.232" viewBox="0 0 420 318.232">
  <defs>
    <clipPath id="clip-path">
      <path id="Trazado_874551" data-name="Trazado 874551" d="M120.191,8.258H8.259V120.19H120.191Zm8.259,120.191H0V0H128.449Z" fill="#a4a1c5"/>
    </clipPath>
    <clipPath id="clip-path-2">
      <rect id="Rectángulo_401350" data-name="Rectángulo 401350" width="124.08" height="124.08" fill="#bac462"/>
    </clipPath>
    <clipPath id="clip-path-3">
      <rect id="Rectángulo_401895" data-name="Rectángulo 401895" width="318.784" height="292.31" fill="none"/>
    </clipPath>
    <clipPath id="clip-path-5">
      <path id="Trazado_882939" data-name="Trazado 882939" d="M371.821,263.966a67.406,67.406,0,0,0,67.593,67.218h67.594V263.966a67.594,67.594,0,0,0-135.187,0" transform="translate(-371.821 -196.748)" fill="none"/>
    </clipPath>
    <clipPath id="clip-path-7">
      <rect id="Rectángulo_401892" data-name="Rectángulo 401892" width="4.884" height="1.911" fill="none"/>
    </clipPath>
    <clipPath id="clip-path-8">
      <rect id="Rectángulo_401893" data-name="Rectángulo 401893" width="3.029" height="1.912" fill="none"/>
    </clipPath>
  </defs>
  <g id="Grupo_1100987" data-name="Grupo 1100987" transform="translate(-180 -518)">
    <path id="Trazado_886020" data-name="Trazado 886020" d="M0,0H420V318.232H0Z" transform="translate(180 518)" fill="#cae2fb"/>
    <g id="Grupo_1099923" data-name="Grupo 1099923" transform="translate(204.967 527.52)">
      <g id="Grupo_1099914" data-name="Grupo 1099914" transform="translate(0 325.116) rotate(-90)">
        <path id="Rectángulo_401896" data-name="Rectángulo 401896" d="M123,0h3.628a123,123,0,0,1,123,123V375.033a0,0,0,0,1,0,0H0a0,0,0,0,1,0,0V123A123,123,0,0,1,123,0Z" transform="translate(31.968 0)" fill="#f2f8fe"/>
        <g id="Grupo_1099796" data-name="Grupo 1099796" transform="translate(189.229 0)">
          <g id="Grupo_1099437" data-name="Grupo 1099437" transform="translate(0 4.773)">
            <g id="Grupo_1099436" data-name="Grupo 1099436" clip-path="url(#clip-path)">
              <rect id="Rectángulo_401360" data-name="Rectángulo 401360" width="128.449" height="128.449" transform="translate(0 0)" fill="#a4a1c5"/>
            </g>
          </g>
          <rect id="Rectángulo_401361" data-name="Rectángulo 401361" width="14.875" height="14.875" transform="translate(121.012 0)" fill="#f5827a"/>
        </g>
        <g id="Grupo_1099793" data-name="Grupo 1099793" transform="translate(196.236 250.952)" opacity="0.31">
          <path id="Trazado_882649" data-name="Trazado 882649" d="M117.928,0,0,117.929v5.577l.574.575h.51l123-123V0Z" transform="translate(0.001 0)" fill="#bac462"/>
          <path id="Trazado_882650" data-name="Trazado 882650" d="M0,114.405H7.238L114.406,7.238V0Z" transform="translate(9.676 9.676)" fill="#bac462"/>
          <path id="Trazado_882651" data-name="Trazado 882651" d="M0,98.581H7.238L98.58,7.239V0Z" transform="translate(25.502 25.5)" fill="#bac462"/>
          <path id="Trazado_882652" data-name="Trazado 882652" d="M0,82.753H7.238L82.753,7.238V0Z" transform="translate(41.328 41.327)" fill="#bac462"/>
          <path id="Trazado_882653" data-name="Trazado 882653" d="M0,66.926H7.238L66.927,7.238V0Z" transform="translate(57.155 57.154)" fill="#bac462"/>
          <path id="Trazado_882654" data-name="Trazado 882654" d="M0,51.1H7.238L51.1,7.238V0Z" transform="translate(72.982 72.983)" fill="#bac462"/>
          <path id="Trazado_882655" data-name="Trazado 882655" d="M0,35.273H7.238L35.273,7.239V0Z" transform="translate(88.808 88.808)" fill="#bac462"/>
          <path id="Trazado_882656" data-name="Trazado 882656" d="M0,19.446H7.238L19.446,7.238V0Z" transform="translate(104.634 104.634)" fill="#bac462"/>
          <path id="Trazado_882657" data-name="Trazado 882657" d="M0,3.62H3.62V0Z" transform="translate(120.464 120.462)" fill="#bac462"/>
          <path id="Trazado_882658" data-name="Trazado 882658" d="M102.866,0,0,102.865V110.1L110.1,0Z" transform="translate(0.001 0)" fill="#bac462"/>
          <path id="Trazado_882659" data-name="Trazado 882659" d="M87.039,0,0,87.039v7.238L94.277,0Z" transform="translate(0 0)" fill="#bac462"/>
          <path id="Trazado_882660" data-name="Trazado 882660" d="M71.212,0,0,71.212V78.45L78.45,0Z" transform="translate(0 0)" fill="#bac462"/>
          <path id="Trazado_882661" data-name="Trazado 882661" d="M55.385,0,0,55.385v7.238L62.623,0Z" transform="translate(0.001 0)" fill="#bac462"/>
          <path id="Trazado_882662" data-name="Trazado 882662" d="M39.559,0,0,39.558V46.8L46.8,0Z" transform="translate(0 0)" fill="#bac462"/>
          <path id="Trazado_882663" data-name="Trazado 882663" d="M23.732,0,0,23.732v7.238L30.97,0Z" transform="translate(0 0)" fill="#bac462"/>
          <path id="Trazado_882664" data-name="Trazado 882664" d="M7.9,0,0,7.9v7.238L15.143,0Z" transform="translate(0 0)" fill="#bac462"/>
          <g id="Grupo_1099792" data-name="Grupo 1099792" transform="translate(0)">
            <g id="Grupo_1099419" data-name="Grupo 1099419" clip-path="url(#clip-path-2)">
              <rect id="Rectángulo_401348" data-name="Rectángulo 401348" width="178.342" height="5.118" transform="translate(-65.704 57.804) rotate(-45.01)" fill="#bac462"/>
              <rect id="Rectángulo_401349" data-name="Rectángulo 401349" width="178.341" height="5.119" transform="translate(-73.628 49.879) rotate(-45)" fill="#bac462"/>
            </g>
          </g>
        </g>
      </g>
    </g>
    <g id="Grupo_1099924" data-name="Grupo 1099924" transform="translate(248.846 543.922)">
      <g id="Grupo_1099912" data-name="Grupo 1099912" clip-path="url(#clip-path-3)">
        <g id="Grupo_1099901" data-name="Grupo 1099901">
          <g id="Grupo_1099900" data-name="Grupo 1099900" clip-path="url(#clip-path-3)">
            <path id="Trazado_882846" data-name="Trazado 882846" d="M270.447,305.465l-.471-.041.025-.268.471.044Zm.169-1.664-.47-.053q.08-.706.174-1.4l.468.062q-.093.693-.172,1.394m.375-2.784-.467-.072q.111-.7.236-1.4l.465.084q-.125.688-.234,1.385m.5-2.763-.463-.094q.144-.7.3-1.383l.461.106q-.158.682-.3,1.372m.635-2.736-.458-.117q.178-.688.374-1.367l.454.13q-.194.672-.37,1.354m.778-2.7-.451-.141q.214-.675.449-1.341l.446.155q-.231.659-.444,1.328m.928-2.643-.441-.168q.254-.662.528-1.314l.436.181q-.272.645-.523,1.3m1.087-2.583-.43-.195q.295-.646.611-1.279l.424.208q-.313.627-.6,1.266m1.25-2.511-.416-.222q.337-.625.695-1.238l.409.236q-.354.606-.687,1.224m1.416-2.425-.4-.249q.377-.6.778-1.19l.391.263q-.395.582-.768,1.175m1.578-2.325-.382-.276q.418-.572.859-1.134l.373.289q-.437.555-.85,1.121m1.735-2.211-.362-.3q.457-.541.934-1.071l.352.314q-.472.524-.923,1.059m1.882-2.086-.341-.326q.491-.508,1-1.005l.33.336q-.507.491-.993.994m2.019-1.956-.319-.347q.523-.475,1.068-.938l.308.358q-.54.457-1.057.928m2.142-1.822-.3-.367q.552-.44,1.125-.869l.284.376q-.567.424-1.113.861m2.251-1.682-.266-.389q.584-.4,1.2-.775l.25.4q-.6.374-1.18.765m60.927-1.4q-.615-.336-1.246-.654l.214-.419q.637.322,1.259.661Zm-58.537-.079-.234-.408q.615-.349,1.252-.68l.219.416q-.629.327-1.236.672m56.025-1.191q-.636-.3-1.284-.579l.19-.43q.653.283,1.3.584Zm-53.529-.109-.2-.423q.637-.3,1.294-.593l.191.43q-.65.285-1.282.587m50.945-1.013q-.652-.262-1.314-.508l.165-.44q.668.248,1.326.512Zm-48.364-.12-.178-.435q.656-.264,1.328-.514l.165.44q-.666.247-1.315.509m45.722-.861q-.665-.228-1.339-.44l.143-.448q.679.214,1.351.444Zm-43.076-.118-.152-.445q.669-.227,1.353-.44l.141.448q-.678.212-1.342.437m40.387-.729q-.676-.195-1.36-.375l.121-.454q.69.182,1.371.378ZM302,264.844l-.129-.452q.681-.193,1.373-.372l.119.455q-.687.177-1.363.369m34.965-.611q-.684-.164-1.377-.313l.1-.46q.7.151,1.387.316Zm-32.231-.1-.108-.458q.688-.161,1.389-.308l.1.46q-.693.146-1.379.306m29.472-.5q-.692-.134-1.389-.254l.08-.463q.7.12,1.4.256Zm-26.707-.079-.088-.462q.7-.131,1.4-.248l.077.464q-.7.116-1.39.246m23.924-.4q-.7-.105-1.4-.2l.061-.466q.707.092,1.409.2Zm-21.136-.063-.068-.465q.7-.1,1.412-.189l.058.466q-.7.087-1.4.188m18.335-.3q-.7-.077-1.406-.141l.043-.468q.709.063,1.415.141Zm-15.526-.047-.049-.468q.708-.073,1.419-.133l.04.468q-.707.06-1.409.132m12.712-.207q-.705-.049-1.411-.085l.024-.469q.71.037,1.42.086Zm-9.892-.029-.031-.469q.71-.045,1.422-.078l.021.469q-.708.032-1.413.078m7.069-.115q-.708-.022-1.414-.031l.007-.47q.711.01,1.422.032Zm-4.243-.013-.012-.47q.711-.018,1.424-.023l0,.47q-.708,0-1.414.023" transform="translate(-142.384 -138.808)" fill="#601e1e"/>
            <path id="Trazado_882847" data-name="Trazado 882847" d="M307.465,353.843q-.295-.644-.581-1.288l.432-.19q.286.642.579,1.284Zm-1.151-2.582q-.283-.65-.556-1.3l.436-.182q.273.647.554,1.295Zm-1.1-2.6q-.269-.656-.529-1.311l.44-.172q.259.653.527,1.306Zm47.843-2.436q-.152-.689-.309-1.371l.46-.105q.158.685.31,1.376Zm-48.888-.195q-.256-.663-.5-1.325l.443-.164q.245.661.5,1.321Zm48.256-2.547q-.166-.686-.339-1.366l.458-.115q.174.683.341,1.371Zm-49.245-.109q-.241-.668-.472-1.336l.447-.153q.23.665.47,1.331Zm48.552-2.62q-.182-.682-.369-1.359l.455-.125q.189.679.371,1.363Zm-49.481-.057q-.225-.673-.441-1.346l.451-.143q.214.67.438,1.341Zm48.727-2.655q-.2-.677-.4-1.349l.452-.136q.2.675.4,1.355ZM301.387,338q-.208-.678-.406-1.357l.453-.132q.2.675.405,1.351Zm48.774-2.652q-.212-.673-.432-1.339l.449-.147q.22.669.434,1.346Zm-49.571-.067q-.191-.683-.372-1.367l.457-.12q.181.68.37,1.361Zm48.691-2.606q-.23-.668-.465-1.329l.446-.157q.236.663.466,1.334Zm-49.417-.131q-.172-.689-.335-1.376l.46-.108q.162.685.334,1.37Zm48.471-2.521q-.247-.662-.5-1.317l.441-.168q.253.658.5,1.322Zm-49.123-.235q-.152-.692-.3-1.384l.463-.095q.143.689.3,1.378Zm48.11-2.392q-.262-.656-.532-1.3l.437-.18q.271.651.534,1.309Zm-48.684-.381q-.134-.7-.257-1.392l.465-.082q.123.693.256,1.386Zm47.6-2.219q-.28-.649-.567-1.289l.432-.191q.288.644.569,1.295Zm-48.1-.569q-.113-.7-.215-1.4l.468-.068q.1.7.214,1.392Zm46.947-2q-.3-.641-.6-1.274l.426-.2q.306.635.6,1.279Zm-47.357-.8q-.091-.7-.172-1.4l.47-.054q.081.7.172,1.4Zm46.137-1.738q-.315-.632-.637-1.256l.421-.214q.323.627.64,1.261Zm-46.46-1.074q-.069-.705-.128-1.409l.471-.039q.058.7.128,1.4Zm45.169-1.429q-.333-.623-.673-1.237l.414-.227q.342.617.675,1.243Zm-45.4-1.391q-.047-.706-.082-1.412l.472-.024q.035.7.082,1.405Zm44.038-1.073q-.351-.613-.709-1.216l.407-.239q.359.606.712,1.222Zm-44.178-1.753q-.023-.707-.035-1.414l.473-.007q.011.7.035,1.406Zm42.742-.67q-.369-.6-.746-1.195l.4-.251q.378.6.75,1.2Zm-42.315-2.157h-.473q0-.707.013-1.414l.473.008q-.012.7-.013,1.406m40.805-.22q-.387-.59-.782-1.171l.391-.264q.4.584.787,1.177Zm-1.584-2.33q-.406-.577-.82-1.145l.383-.275q.415.571.825,1.151Zm-39.169-.261-.473-.016q.025-.707.063-1.413l.472.025q-.037.7-.062,1.4m37.511-2.017q-.424-.563-.857-1.118l.374-.288q.434.557.862,1.124Zm-37.362-.791-.472-.033q.05-.7.112-1.409l.471.041q-.062.7-.111,1.4m35.63-1.431q-.444-.549-.894-1.089l.363-.3q.454.542.9,1.095Zm-35.383-1.369-.47-.049q.075-.7.162-1.4l.469.057q-.086.7-.161,1.4m33.576-.793q-.461-.534-.931-1.058l.353-.312q.472.527.936,1.064Zm-33.229-2-.468-.065q.1-.7.212-1.4l.467.074q-.111.694-.21,1.389m31.349-.1q-.481-.517-.968-1.025l.341-.325q.491.51.974,1.031Zm-1.955-2.032q-.5-.5-1-.989l.329-.337q.508.492,1.01,1Zm-28.948-.641-.465-.082q.123-.7.261-1.39l.464.091q-.137.69-.26,1.381m26.924-1.32q-.516-.481-1.039-.952l.317-.348q.527.474,1.045.958ZM299.253,293.4l-.462-.1q.15-.689.31-1.379l.461.107q-.161.685-.309,1.371m24.283-.448q-.534-.462-1.074-.914l.3-.36q.544.454,1.08.919Zm-2.16-1.8q-.549-.441-1.1-.87l.29-.371q.559.432,1.112.876Zm-21.481-.484-.458-.115q.173-.684.359-1.367l.456.123q-.184.679-.357,1.359m19.256-1.236q-.564-.42-1.137-.828l.276-.382q.575.411,1.144.834Zm-18.517-1.475-.454-.131q.2-.677.407-1.354l.451.139q-.208.673-.4,1.346m16.227-.16q-.58-.4-1.168-.785l.26-.392q.592.389,1.176.79Zm-2.352-1.548q-.6-.377-1.2-.74l.246-.4q.606.367,1.206.745Zm-13.043-.977-.449-.146q.22-.67.454-1.338l.447.154q-.231.666-.451,1.331m10.631-.481q-.611-.353-1.228-.694l.23-.411q.62.343,1.235.7Zm-2.469-1.363q-.623-.329-1.254-.646l.213-.419q.635.319,1.263.65Zm-7.237-.81-.444-.161q.243-.661.5-1.322l.441.169q-.255.657-.5,1.315m4.715-.458q-.637-.3-1.28-.6l.2-.427q.648.294,1.288.6Zm-2.571-1.169q-.649-.28-1.3-.548l.18-.435q.659.269,1.311.551Z" transform="translate(-156.634 -148.406)" fill="#430a0a"/>
            <path id="Trazado_882848" data-name="Trazado 882848" d="M114.287,418.444l-.473-.013q.017-.625.039-1.251l.473.016q-.021.624-.039,1.248m.094-2.655-.473-.02q.031-.7.065-1.41l.472.023q-.035.7-.064,1.407m.138-2.812-.472-.026q.04-.705.085-1.409l.472.03q-.045.7-.085,1.406m.179-2.81-.472-.033q.05-.7.1-1.407l.471.036q-.054.7-.1,1.4m.218-2.807-.471-.039q.06-.7.125-1.405l.471.043q-.065.7-.125,1.4m.259-2.8-.47-.047q.069-.7.144-1.4l.47.049q-.074.7-.144,1.4m.3-2.8-.47-.053q.08-.7.165-1.4l.469.057q-.085.7-.164,1.4m.339-2.793-.469-.06q.09-.7.185-1.4l.468.063q-.094.7-.184,1.394m.379-2.787-.468-.066q.1-.7.206-1.394l.467.07q-.106.7-.2,1.391m.42-2.78-.467-.073q.109-.7.225-1.391l.466.076q-.115.693-.224,1.387m.46-2.773-.466-.079q.121-.7.246-1.387l.465.084q-.125.691-.245,1.383m.5-2.765-.464-.086q.13-.693.265-1.384l.465.09q-.135.689-.266,1.379m.542-2.757-.464-.093c.093-.46.19-.92.286-1.379l.462.1q-.145.687-.285,1.375m.58-2.748-.461-.1q.15-.688.307-1.374l.461.1q-.155.685-.306,1.371m.623-2.738-.461-.107q.161-.685.327-1.369l.46.11q-.166.682-.326,1.366m.662-2.729-.459-.114q.172-.683.348-1.364l.457.117q-.177.679-.347,1.36m.7-2.717-.457-.121q.182-.68.369-1.358l.456.125q-.186.676-.368,1.354m.746-2.706-.455-.127q.193-.677.39-1.352l.454.132q-.2.673-.388,1.348m.788-2.693-.452-.135q.2-.673.411-1.345l.451.138q-.207.67-.41,1.342m.829-2.68-.45-.142q.214-.674.434-1.345l.449.146q-.219.668-.433,1.341m.876-2.678-.448-.15q.226-.67.456-1.337l.447.153q-.23.666-.455,1.334m.919-2.664-.446-.156q.237-.666.477-1.33l.445.16q-.24.662-.476,1.326m.963-2.648-.443-.164q.247-.663.5-1.322l.442.167q-.252.658-.5,1.318m1.007-2.632-.44-.171q.258-.658.522-1.313l.438.174q-.262.653-.519,1.31m1.051-2.614-.438-.179q.27-.654.544-1.3l.436.182q-.274.649-.542,1.3m1.1-2.6-.434-.186q.28-.649.566-1.294l.433.189q-.285.644-.565,1.292m1.14-2.577-.431-.193q.292-.644.589-1.285l.429.2q-.3.639-.587,1.281m1.186-2.557-.428-.2q.3-.639.612-1.274l.426.2q-.308.633-.61,1.27m1.232-2.535-.423-.208q.315-.634.635-1.263l.422.212q-.32.628-.634,1.26m1.278-2.513-.42-.216q.327-.628.659-1.251l.417.219q-.331.622-.656,1.247m1.324-2.488-.415-.224q.339-.621.682-1.238l.414.227q-.342.615-.68,1.235m1.372-2.463-.412-.232q.35-.615.706-1.225l.409.235q-.354.608-.7,1.221m1.419-2.435-.406-.24q.362-.608.73-1.212l.4.244q-.366.6-.728,1.207m1.468-2.408-.4-.247q.374-.6.754-1.2l.4.251q-.379.594-.751,1.192m1.516-2.377-.4-.256q.387-.593.778-1.181l.394.259q-.39.587-.776,1.177m1.563-2.346-.391-.264q.4-.585.8-1.165l.389.268q-.4.578-.8,1.161m1.613-2.313-.386-.272q.411-.577.828-1.148l.382.276q-.415.57-.825,1.143m1.663-2.277-.38-.28q.423-.567.853-1.13l.377.284q-.428.56-.85,1.126m1.712-2.242-.373-.288q.435-.558.877-1.111l.371.292q-.44.551-.875,1.106m1.762-2.2-.367-.3q.448-.548.9-1.091l.363.3q-.452.539-.9,1.086m1.811-2.163-.36-.3q.461-.538.928-1.07l.356.309q-.466.529-.924,1.065m1.861-2.119-.353-.313q.474-.527.953-1.048l.349.318q-.478.518-.949,1.043m1.911-2.076-.344-.321q.486-.516.978-1.025l.341.326q-.49.507-.975,1.02m1.961-2.028-.337-.33q.5-.5,1-1l.332.334q-.5.495-1,1m2.01-1.98-.328-.337q.512-.492,1.028-.976l.324.342q-.514.482-1.024.971m2.055-1.925-.319-.346q.521-.476,1.049-.945l.315.35q-.525.467-1.044.941m2.1-1.869-.31-.354q.534-.463,1.073-.918l.305.358q-.537.454-1.069.915m2.149-1.815-.3-.362q.545-.449,1.1-.89l.3.366q-.549.439-1.093.886m2.2-1.759-.292-.37q.559-.435,1.122-.861l.286.374q-.561.424-1.116.857m2.245-1.7-.282-.378q.57-.42,1.146-.831l.276.382q-.573.41-1.14.827m2.292-1.639-.27-.386q.582-.4,1.169-.8l.265.389q-.584.394-1.164.8m2.338-1.577-.259-.392q.593-.388,1.192-.768l.254.4q-.6.378-1.187.764m2.384-1.511-.248-.4q.6-.372,1.214-.735l.243.4q-.607.361-1.209.731m2.429-1.445-.237-.407q.615-.355,1.236-.7l.231.41q-.617.344-1.23.7m2.471-1.376-.225-.413q.625-.337,1.257-.665l.219.417q-.629.326-1.251.661m2.511-1.3-.212-.42q.635-.319,1.277-.628l.207.422q-.639.309-1.271.626m2.552-1.232-.2-.425q.644-.3,1.3-.592l.194.429q-.648.29-1.29.588m2.589-1.158-.187-.431q.65-.281,1.308-.551l.181.434q-.654.269-1.3.548m2.612-1.078-.174-.437q.659-.261,1.324-.513l.168.439q-.661.25-1.318.51m2.642-1-.162-.442q.667-.241,1.339-.473l.155.444q-.668.231-1.332.471m2.672-.923-.149-.446q.674-.221,1.352-.434l.142.448q-.676.212-1.345.432m2.7-.845-.136-.45q.68-.2,1.365-.394l.129.452q-.681.192-1.357.392m2.72-.765-.121-.454q.684-.183,1.375-.355l.115.456q-.687.172-1.369.353m2.743-.686-.109-.457q.689-.163,1.384-.315l.1.459q-.691.152-1.378.313" transform="translate(-60.025 -148.289)" fill="#601e1e"/>
            <path id="Trazado_882849" data-name="Trazado 882849" d="M318.245,375.419c0,7.93-10.127,22.71-11.746,22.71s-11.746-14.425-11.746-22.71a11.746,11.746,0,0,1,23.492,0" transform="translate(-155.452 -192.789)" fill="#3f2b43"/>
            <path id="Trazado_882850" data-name="Trazado 882850" d="M318.927,382.315a5.851,5.851,0,1,1-5.85-5.818,5.834,5.834,0,0,1,5.85,5.818" transform="translate(-162.03 -199.552)" fill="#fff"/>
            <path id="Trazado_882851" data-name="Trazado 882851" d="M312.814,388.1a6.053,6.053,0,1,1,0-12.106v.47a5.583,5.583,0,1,0,5.615,5.583h.473a6.077,6.077,0,0,1-6.087,6.053" transform="translate(-161.767 -199.287)" fill="#f7b556"/>
            <path id="Trazado_882852" data-name="Trazado 882852" d="M308.831,231.8c0,6.25-7.981,17.9-9.256,17.9s-9.256-11.367-9.256-17.9a9.257,9.257,0,0,1,18.513,0" transform="translate(-153.113 -117.982)" fill="#272164"/>
            <path id="Trazado_882853" data-name="Trazado 882853" d="M309.37,237.238a4.611,4.611,0,1,1-4.611-4.585,4.6,4.6,0,0,1,4.611,4.585" transform="translate(-158.298 -123.311)" fill="#fff"/>
            <path id="Trazado_882854" data-name="Trazado 882854" d="M304.5,241.794a4.82,4.82,0,1,1,0-9.64v.47a4.35,4.35,0,1,0,4.374,4.35h.473a4.839,4.839,0,0,1-4.847,4.82" transform="translate(-158.034 -123.047)" fill="#f7b556"/>
            <path id="Trazado_882855" data-name="Trazado 882855" d="M269.775,323c0,4.07-5.2,11.656-6.028,11.656s-6.029-7.4-6.029-11.656a6.029,6.029,0,0,1,12.057,0" transform="translate(-135.92 -168.02)" fill="#3f2b43"/>
            <path id="Trazado_882856" data-name="Trazado 882856" d="M270.126,326.54a3,3,0,1,1-3-2.986,2.995,2.995,0,0,1,3,2.986" transform="translate(-139.297 -171.491)" fill="#fff"/>
            <path id="Trazado_882857" data-name="Trazado 882857" d="M266.859,329.5a3.221,3.221,0,1,1,0-6.442v.47a2.751,2.751,0,1,0,2.766,2.751h.473a3.234,3.234,0,0,1-3.239,3.221" transform="translate(-139.032 -171.226)" fill="#f7b556"/>
            <path id="Trazado_882858" data-name="Trazado 882858" d="M439.414,196.748h0a67.407,67.407,0,0,1,67.594,67.218v67.218H439.414a67.406,67.406,0,0,1-67.593-67.218h0a67.406,67.406,0,0,1,67.593-67.218" transform="translate(-196.097 -104.281)" fill="#496f93"/>
          </g>
        </g>
        <g id="Grupo_1099903" data-name="Grupo 1099903" transform="translate(175.724 92.467)">
          <g id="Grupo_1099902" data-name="Grupo 1099902" clip-path="url(#clip-path-5)">
            <path id="Trazado_883047" data-name="Trazado 883047" d="M0,0,30.448.054l.028,15.668L.028,15.668Z" transform="translate(37.347 37.312) rotate(-19.65)" fill="#0e7a6a"/>
            <path id="Trazado_883048" data-name="Trazado 883048" d="M0,0,30.457.039l.02,15.664L.02,15.664Z" transform="matrix(0.971, -0.238, 0.238, 0.971, 35.896, 33.593)" fill="#148e79"/>
            <path id="Trazado_883049" data-name="Trazado 883049" d="M0,0,28.373.036l.018,13.777L.018,13.777Z" transform="translate(37.093 34.181) rotate(-13.767)" fill="#1ac6a5"/>
            <path id="Trazado_882859" data-name="Trazado 882859" d="M498.371,254.27s-.013,5.713,7.007,4l-1.327-5.386Z" transform="translate(-438.563 -226.502)" fill="#148e79"/>
            <path id="Trazado_882860" data-name="Trazado 882860" d="M453.455,265.282s2.667,5.06-4.353,6.77l-1.327-5.387Z" transform="translate(-411.879 -233.073)" fill="#148e79"/>
            <path id="Trazado_882861" data-name="Trazado 882861" d="M459.9,292.768s.013-5.713-7.007-4l1.327,5.386Z" transform="translate(-414.58 -245.35)" fill="#148e79"/>
            <path id="Trazado_882862" data-name="Trazado 882862" d="M505.745,280.555s-2.667-5.06,4.353-6.77l1.327,5.387Z" transform="translate(-442.19 -237.579)" fill="#148e79"/>
            <path id="Trazado_882863" data-name="Trazado 882863" d="M472.4,270.536c.981,3.98,4.019,6.661,6.787,5.986s4.216-4.448,3.235-8.428-4.019-6.66-6.787-5.986-4.216,4.448-3.236,8.428" transform="translate(-424.704 -231.335)" fill="#148e79"/>
            <rect id="Rectángulo_401871" data-name="Rectángulo 401871" width="30.467" height="15.659" transform="translate(35.383 25.896)" fill="#0e7a6a"/>
            <rect id="Rectángulo_401872" data-name="Rectángulo 401872" width="28.382" height="13.773" transform="translate(36.426 26.768)" fill="#14b79d"/>
            <path id="Trazado_882864" data-name="Trazado 882864" d="M498.665,251.848s-1.38,5.546,5.848,5.546v-5.546Z" transform="translate(-438.663 -225.952)" fill="#0e7a6a"/>
            <path id="Trazado_882865" data-name="Trazado 882865" d="M452.538,251.848s1.379,5.546-5.848,5.546v-5.546Z" transform="translate(-411.307 -225.952)" fill="#0e7a6a"/>
            <path id="Trazado_882866" data-name="Trazado 882866" d="M452.538,278.912s1.379-5.546-5.848-5.546v5.546Z" transform="translate(-411.307 -237.357)" fill="#0e7a6a"/>
            <path id="Trazado_882867" data-name="Trazado 882867" d="M498.665,278.912s-1.38-5.546,5.848-5.546v5.546Z" transform="translate(-438.663 -237.357)" fill="#0e7a6a"/>
            <path id="Trazado_882868" data-name="Trazado 882868" d="M468.1,261.01c0,4.1,2.31,7.42,5.159,7.42s5.16-3.322,5.16-7.42-2.31-7.42-5.16-7.42-5.159,3.322-5.159,7.42" transform="translate(-422.598 -226.876)" fill="#0e7a6a"/>
            <path id="Trazado_882869" data-name="Trazado 882869" d="M477.436,262.936a2.161,2.161,0,0,1,.824.65,1.871,1.871,0,0,1,.352,1.2,1.948,1.948,0,0,1-1.1,1.783,2.921,2.921,0,0,1-1.374.3H476.1v.874h-.341v-.9a2.9,2.9,0,0,1-1.7-.683,2.129,2.129,0,0,1-.737-1.449h1.067a1.492,1.492,0,0,0,.4.859,1.6,1.6,0,0,0,.974.5v-2.8a12.307,12.307,0,0,1-1.314-.454,2.09,2.09,0,0,1-.813-.64,1.831,1.831,0,0,1-.346-1.17,1.852,1.852,0,0,1,.308-1.06,2,2,0,0,1,.868-.711,3.143,3.143,0,0,1,1.3-.251v-.941h.341v.952a2.644,2.644,0,0,1,1.628.623,2.146,2.146,0,0,1,.715,1.323H477.37a1.427,1.427,0,0,0-.4-.744,1.5,1.5,0,0,0-.869-.415v2.69a12.538,12.538,0,0,1,1.331.47m-2.711-1.116a3.131,3.131,0,0,0,1.039.536v-2.6a1.552,1.552,0,0,0-1.017.312,1.087,1.087,0,0,0-.38.891,1.075,1.075,0,0,0,.357.864m2.447,3.9a1.221,1.221,0,0,0,.374-.918,1.114,1.114,0,0,0-.374-.9,3.088,3.088,0,0,0-1.067-.536v2.712h.011a1.456,1.456,0,0,0,1.056-.361" transform="translate(-425.335 -229.232)" fill="#14b79d"/>
            <path id="Trazado_882870" data-name="Trazado 882870" d="M502.918,260.17h-5.707s-9.479,3.04-10.854-6.841c0,0-14.713.206-14.217-4.409h13.453l-1.223-1.976-17.3-.218,18.012-4.541,12.3,9.213,5.536-.046Z" transform="translate(-422.056 -220.831)" fill="#ffd4c7"/>
            <path id="Trazado_882871" data-name="Trazado 882871" d="M492.912,256.84l-.338,1.889s.845-1.12.338-1.889" transform="translate(-435.506 -228.598)" fill="#e69261"/>
            <path id="Trazado_882872" data-name="Trazado 882872" d="M494.593,256.84l-.339,1.889s.845-1.12.339-1.889" transform="translate(-436.392 -228.598)" fill="#e69261"/>
            <path id="Trazado_882873" data-name="Trazado 882873" d="M496.353,256.84l-.338,1.889s.845-1.12.338-1.889" transform="translate(-437.321 -228.598)" fill="#e69261"/>
            <path id="Trazado_882874" data-name="Trazado 882874" d="M482.442,257.3s.372,2.732-3.555.713c0,0,3.42,1.437,3.555-.713" transform="translate(-428.287 -228.842)" fill="#e69261"/>
            <path id="Trazado_883045" data-name="Trazado 883045" d="M0,0H61.848V13.438H0Z" transform="translate(81.205 28.92)" fill="#cae2fb"/>
            <path id="Trazado_882875" data-name="Trazado 882875" d="M537.108,256.487l.756,13.86,8.637,1.17.571-15.826Z" transform="translate(-458.993 -227.989)" fill="#f5f0da"/>
            <path id="Trazado_882876" data-name="Trazado 882876" d="M539.708,258.074l.562,6.469,6.426.547.425-7.388Z" transform="translate(-460.364 -229.055)" fill="#f4dfa6"/>
            <path id="Trazado_882877" data-name="Trazado 882877" d="M509.7,342.156s-5.694.579-8.85-6.529l1.832-1.171Z" transform="translate(-439.868 -269.736)" fill="#f9c7bb"/>
            <path id="Trazado_882878" data-name="Trazado 882878" d="M483.428,328.4l-11.139,1.086a64.4,64.4,0,0,1-4.828,11.709s2.358.5,3.834-2.779l2.725-7.46Z" transform="translate(-422.261 -266.529)" fill="#f9c7bb"/>
            <path id="Trazado_882879" data-name="Trazado 882879" d="M513.13,338.868H501.736l-4.59,6.69-9.664,1.673s-1.782-4.181,6.964-5.017l2.021-3.925-5.593-4.773-8.6,1.179s-2.452,10.947-6.513,10.267l3.322-13.423,11.285-4.378,8.711,3.177,14.05-.167Z" transform="translate(-426.639 -265.869)" fill="#ffd4c7"/>
            <path id="Trazado_882880" data-name="Trazado 882880" d="M485.871,355.582a4.541,4.541,0,1,1-4.566,4.54,4.553,4.553,0,0,1,4.566-4.54" transform="translate(-429.563 -280.934)" fill="#ff8f1e"/>
            <path id="Trazado_882881" data-name="Trazado 882881" d="M487.2,358.1a3.358,3.358,0,1,1-3.377,3.358A3.368,3.368,0,0,1,487.2,358.1" transform="translate(-430.889 -282.267)" fill="#f7b556"/>
            <path id="Trazado_882882" data-name="Trazado 882882" d="M487.337,327.16l-12.5,2.509-4.827,12.544s5.684.9,6.037-10.675c0,0,8.258-.866,11.286-4.378" transform="translate(-423.608 -265.869)" fill="#f9c7bb"/>
            <path id="Trazado_883046" data-name="Trazado 883046" d="M0,0H61.568V13.982H0Z" transform="translate(81.492 61.179)" fill="#7ab8f5"/>
            <path id="Trazado_882883" data-name="Trazado 882883" d="M537.93,339.97l.731-14.421,8.353-1.218.552,16.468Z" transform="translate(-459.426 -264.37)" fill="#f5f0da"/>
            <path id="Trazado_882884" data-name="Trazado 882884" d="M540.444,348.221l.543-6.731,6.215-.569.411,7.687Z" transform="translate(-460.752 -273.163)" fill="#f4dfa6"/>
            <path id="Trazado_882885" data-name="Trazado 882885" d="M511.679,365.707l-.643-1.734s.914.922.643,1.734" transform="translate(-445.243 -285.381)" fill="#e69261"/>
            <path id="Trazado_882886" data-name="Trazado 882886" d="M513.068,365.426l-.644-1.734s.914.922.644,1.734" transform="translate(-445.975 -285.232)" fill="#e69261"/>
            <path id="Trazado_882887" data-name="Trazado 882887" d="M514.521,365.133l-.644-1.734s.914.922.644,1.734" transform="translate(-446.741 -285.077)" fill="#e69261"/>
            <path id="Trazado_882888" data-name="Trazado 882888" d="M503.2,367.017s-.219-2.652-3.073-.085c0,0,2.547-1.93,3.073.085" transform="translate(-439.488 -286.356)" fill="#e69261"/>
            <path id="Trazado_882889" data-name="Trazado 882889" d="M479.1,351.417l1.518.776s-.75-.931-1.518-.776" transform="translate(-428.398 -278.717)" fill="#e69261"/>
            <path id="Trazado_882890" data-name="Trazado 882890" d="M479.491,350.182l1.518.776s-.75-.931-1.518-.776" transform="translate(-428.606 -278.063)" fill="#e69261"/>
            <path id="Trazado_882891" data-name="Trazado 882891" d="M479.9,348.89l1.518.776s-.75-.931-1.518-.776" transform="translate(-428.823 -277.378)" fill="#e69261"/>
            <path id="Trazado_882892" data-name="Trazado 882892" d="M483.549,338.615l1.715,1.37s-.759-1.376-1.715-1.37" transform="translate(-430.746 -271.941)" fill="#e69261"/>
            <path id="Trazado_882893" data-name="Trazado 882893" d="M477.677,333.754l1.715,1.37s-.759-1.376-1.715-1.37" transform="translate(-427.649 -269.364)" fill="#e69261"/>
            <path id="Trazado_882894" data-name="Trazado 882894" d="M484.224,337.134l1.715,1.37s-.759-1.376-1.715-1.37" transform="translate(-431.102 -271.156)" fill="#e69261"/>
            <path id="Trazado_882895" data-name="Trazado 882895" d="M478.713,332.3l1.715,1.37s-.759-1.376-1.715-1.37" transform="translate(-428.195 -268.592)" fill="#e69261"/>
            <path id="Trazado_882896" data-name="Trazado 882896" d="M484.931,335.585l1.715,1.37s-.758-1.376-1.715-1.37" transform="translate(-431.475 -270.335)" fill="#e69261"/>
            <path id="Trazado_882897" data-name="Trazado 882897" d="M480.5,330.84l1.715,1.37s-.759-1.376-1.715-1.37" transform="translate(-429.136 -267.82)" fill="#e69261"/>
            <path id="Trazado_882898" data-name="Trazado 882898" d="M478.152,356.466s2.4.493-.23,2.8c0,0,2.017-2.095.23-2.8" transform="translate(-427.778 -281.402)" fill="#e69261"/>
            <path id="Trazado_882899" data-name="Trazado 882899" d="M474.534,346.736l1.358,1.029s-.574-1.048-1.358-1.029" transform="translate(-425.992 -276.245)" fill="#e69261"/>
            <path id="Trazado_882900" data-name="Trazado 882900" d="M475.138,345.589l1.358,1.029s-.574-1.048-1.358-1.029" transform="translate(-426.31 -275.637)" fill="#e69261"/>
            <path id="Trazado_882901" data-name="Trazado 882901" d="M475.771,344.389l1.358,1.029s-.574-1.047-1.358-1.029" transform="translate(-426.644 -275.001)" fill="#e69261"/>
            <path id="Trazado_882902" data-name="Trazado 882902" d="M472.172,351.566s2.274.9-.719,2.713c0,0,2.355-1.711.719-2.713" transform="translate(-424.367 -278.805)" fill="#e69261"/>
            <path id="Trazado_882903" data-name="Trazado 882903" d="M478.7,341.23,480.594,333l9.224-2.289-8.825,2.664Z" transform="translate(-428.19 -267.754)" fill="#e69261"/>
            <path id="Trazado_882904" data-name="Trazado 882904" d="M489.185,361.931a1.329,1.329,0,0,1,.481.464,1.612,1.612,0,0,1,.233.726h.526v.419H489.9a1.709,1.709,0,0,1-.383.981,1.078,1.078,0,0,1-.856.374v-.787a.7.7,0,0,0,.418-.161.658.658,0,0,0,.211-.407h-1.427a5.265,5.265,0,0,1-.224.7,1.124,1.124,0,0,1-.36.461,1.078,1.078,0,0,1-.675.19,1.175,1.175,0,0,1-.892-.374,1.6,1.6,0,0,1-.412-.981h-.526v-.419h.526a1.537,1.537,0,0,1,.36-.913,1.224,1.224,0,0,1,.847-.391v.787a.637.637,0,0,0-.361.155.686.686,0,0,0-.217.361h1.4a4.807,4.807,0,0,1,.217-.7,1.112,1.112,0,0,1,.357-.458,1.074,1.074,0,0,1,.671-.187,1.233,1.233,0,0,1,.61.158m-2.206,2.058a1.137,1.137,0,0,0,.241-.448h-1.311a.712.712,0,0,0,.2.442.623.623,0,0,0,.454.164.541.541,0,0,0,.415-.158m2.079-1.313a.652.652,0,0,0-.444-.161.523.523,0,0,0-.405.158,1.172,1.172,0,0,0-.237.448h1.317a.718.718,0,0,0-.23-.445" transform="translate(-431.392 -284.215)" fill="#ff8f1e"/>
            <path id="Trazado_882905" data-name="Trazado 882905" d="M499.7,408.059h-7.955l-3.879-3.394-15.02-.46-3.078,16.9h20.042l3.153-2.064H499.7Z" transform="translate(-423.477 -306.705)" fill="#ffd4c7"/>
            <path id="Trazado_882906" data-name="Trazado 882906" d="M482.2,410.006l-2.14,10.752a5.466,5.466,0,0,1-6.425,4.277l-1.689-.332a5.438,5.438,0,0,1-4.3-6.389l2.14-10.751a5.466,5.466,0,0,1,6.425-4.278l1.689.333a5.438,5.438,0,0,1,4.3,6.389" transform="translate(-422.304 -306.161)" fill="#4a7094"/>
            <path id="Trazado_883050" data-name="Trazado 883050" d="M0,0,21.838.023l0,1.916L0,1.916Z" transform="translate(46.366 117.896) rotate(-78.803)" fill="#3f4d54"/>
            <path id="Trazado_882907" data-name="Trazado 882907" d="M481.219,419.872l-2.262,11.365a.515.515,0,0,1-.6.4l-.074-.015a.513.513,0,0,1-.4-.6l2.262-11.365a.515.515,0,0,1,.6-.4l.074.015a.512.512,0,0,1,.4.6" transform="translate(-427.748 -314.678)" fill="#fffaef"/>
            <path id="Trazado_882908" data-name="Trazado 882908" d="M485.712,427.9l-1.606,8.07a.515.515,0,0,1-.6.4l-.074-.015a.513.513,0,0,1-.4-.6l1.606-8.07a.515.515,0,0,1,.6-.4l.074.015a.512.512,0,0,1,.4.6" transform="translate(-430.464 -318.934)" fill="#92b2d1"/>
            <path id="Trazado_882909" data-name="Trazado 882909" d="M489.722,428.695l-1.606,8.07a.515.515,0,0,1-.6.4l-.074-.015a.512.512,0,0,1-.4-.6l1.606-8.07a.515.515,0,0,1,.6-.4l.074.014a.513.513,0,0,1,.4.6" transform="translate(-432.579 -319.354)" fill="#92b2d1"/>
            <path id="Trazado_882910" data-name="Trazado 882910" d="M491.576,408.457a1.509,1.509,0,1,1-1.783,1.187,1.508,1.508,0,0,1,1.783-1.187" transform="translate(-434.024 -308.943)" fill="#f7b556"/>
            <path id="Trazado_882911" data-name="Trazado 882911" d="M497.254,428.446l-7.973,8.934H477.906s.951-4.076,9.441-3.24c0,0-6.122-9.568,8.112-12.189Z" transform="translate(-427.77 -316.111)" fill="#ffd4c7"/>
            <path id="Trazado_882912" data-name="Trazado 882912" d="M460.884,419.454l8.023,4.274s1.487-2.589-1.478-4.98-4.1-2-6.545.706" transform="translate(-418.793 -313.576)" fill="#ffd4c7"/>
            <path id="Trazado_882913" data-name="Trazado 882913" d="M462.3,411.86l8.7,4.657s1.168-2.653-1.8-5.044-4.457-2.317-6.9.386" transform="translate(-419.54 -309.645)" fill="#ffd4c7"/>
            <path id="Trazado_882914" data-name="Trazado 882914" d="M466.074,404.663l8.7,4.657s1.168-2.653-1.8-5.044-4.457-2.317-6.9.386" transform="translate(-421.53 -305.831)" fill="#ffd4c7"/>
            <path id="Trazado_882915" data-name="Trazado 882915" d="M459.14,426.624l6.9,4.095s2.166-2.435-.843-4.769c-2.71-2.1-4.081-2.387-6.053.674" transform="translate(-417.873 -317.381)" fill="#ffd4c7"/>
            <rect id="Rectángulo_401876" data-name="Rectángulo 401876" width="66.84" height="15.053" transform="translate(76.221 99.346)" fill="#f2f8fe"/>
            <path id="Trazado_882916" data-name="Trazado 882916" d="M526.776,422.18l.731-15.526,8.353-1.311.552,17.729Z" transform="translate(-453.544 -307.308)" fill="#f5f0da"/>
            <path id="Trazado_882917" data-name="Trazado 882917" d="M529.29,431.064l.543-7.247,6.215-.612.411,8.275Z" transform="translate(-454.87 -316.775)" fill="#f4dfa6"/>
            <path id="Trazado_882918" data-name="Trazado 882918" d="M498.961,417.211s-5.7,4.308-3.116,10.656c0,0-.975-.73-1.256-3.63h-.571l2.769-14.121s.35,4.892,2.173,7.095" transform="translate(-436.267 -309.838)" fill="#ffb9a9"/>
            <path id="Trazado_882919" data-name="Trazado 882919" d="M491.794,452.723l-.3-1.824s.723,1.077.3,1.824" transform="translate(-434.935 -331.454)" fill="#e69261"/>
            <path id="Trazado_882920" data-name="Trazado 882920" d="M493.21,452.709l-.3-1.824s.723,1.077.3,1.824" transform="translate(-435.681 -331.446)" fill="#e69261"/>
            <path id="Trazado_882921" data-name="Trazado 882921" d="M494.693,452.7l-.3-1.824s.723,1.077.3,1.824" transform="translate(-436.463 -331.439)" fill="#e69261"/>
            <path id="Trazado_882922" data-name="Trazado 882922" d="M482.983,452.815s.288-2.646-3-.659c0,0,2.867-1.418,3,.659" transform="translate(-428.864 -331.728)" fill="#e69261"/>
            <path id="Trazado_882923" data-name="Trazado 882923" d="M463.683,430.684l1.1-1.3s-1.08.519-1.1,1.3" transform="translate(-420.269 -320.051)" fill="#e69261"/>
            <path id="Trazado_882924" data-name="Trazado 882924" d="M468.46,433.625s1.019-2.215,2.69.847c0,0-1.6-2.423-2.69-.847" transform="translate(-422.788 -321.888)" fill="#e69261"/>
            <path id="Trazado_882925" data-name="Trazado 882925" d="M467.214,423.8l1.1-1.3s-1.08.519-1.1,1.3" transform="translate(-422.131 -316.403)" fill="#e69261"/>
            <path id="Trazado_882926" data-name="Trazado 882926" d="M466.1,423.141l1.1-1.3s-1.08.519-1.1,1.3" transform="translate(-421.542 -316.053)" fill="#e69261"/>
            <path id="Trazado_882927" data-name="Trazado 882927" d="M464.93,422.451l1.1-1.3s-1.08.519-1.1,1.3" transform="translate(-420.926 -315.687)" fill="#e69261"/>
            <path id="Trazado_882928" data-name="Trazado 882928" d="M471.991,426.742s1.019-2.215,2.69.847c0,0-1.6-2.423-2.69-.847" transform="translate(-424.65 -318.239)" fill="#e69261"/>
            <path id="Trazado_882929" data-name="Trazado 882929" d="M468.439,416.36l1.1-1.3s-1.08.519-1.1,1.3" transform="translate(-422.777 -312.459)" fill="#e69261"/>
            <path id="Trazado_882930" data-name="Trazado 882930" d="M467.323,415.7l1.1-1.3s-1.08.519-1.1,1.3" transform="translate(-422.188 -312.109)" fill="#e69261"/>
            <path id="Trazado_882931" data-name="Trazado 882931" d="M466.155,415.01l1.1-1.3s-1.08.519-1.1,1.3" transform="translate(-421.572 -311.743)" fill="#e69261"/>
            <path id="Trazado_882932" data-name="Trazado 882932" d="M473.59,410l1.1-1.3s-1.08.519-1.1,1.3" transform="translate(-425.494 -309.088)" fill="#e69261"/>
            <path id="Trazado_882933" data-name="Trazado 882933" d="M472.474,409.341l1.1-1.3s-1.08.519-1.1,1.3" transform="translate(-424.905 -308.739)" fill="#e69261"/>
            <path id="Trazado_882934" data-name="Trazado 882934" d="M471.306,408.651l1.1-1.3s-1.08.519-1.1,1.3" transform="translate(-424.289 -308.373)" fill="#e69261"/>
            <path id="Trazado_882935" data-name="Trazado 882935" d="M474.275,418.626s1.019-2.215,2.69.847c0,0-1.6-2.423-2.69-.847" transform="translate(-425.855 -313.938)" fill="#e69261"/>
            <path id="Trazado_882936" data-name="Trazado 882936" d="M478.338,412.385s1.019-2.215,2.69.847c0,0-1.6-2.423-2.69-.847" transform="translate(-427.998 -310.63)" fill="#e69261"/>
            <path id="Trazado_882937" data-name="Trazado 882937" d="M462.769,430.095l.982-1.159s-.964.463-.982,1.159" transform="translate(-419.787 -319.813)" fill="#e69261"/>
            <path id="Trazado_882938" data-name="Trazado 882938" d="M461.727,429.479l.982-1.159s-.964.463-.982,1.159" transform="translate(-419.237 -319.486)" fill="#e69261"/>
          </g>
        </g>
        <g id="Grupo_1099911" data-name="Grupo 1099911">
          <g id="Grupo_1099910" data-name="Grupo 1099910" clip-path="url(#clip-path-3)">
            <rect id="Rectángulo_401877" data-name="Rectángulo 401877" width="80.079" height="60.581" transform="translate(79.447 228.017)" fill="#daaf6a"/>
            <path id="Trazado_882940" data-name="Trazado 882940" d="M160.846,538.419l-6.5-6.191v-60.89l6.5,6.478Z" transform="translate(-81.4 -249.82)" fill="#c28b4f"/>
            <path id="Trazado_882941" data-name="Trazado 882941" d="M154.342,471.337l6.534,6.5h80.05l-6.227-6.5Z" transform="translate(-81.4 -249.819)" fill="#c28b4f"/>
            <rect id="Rectángulo_401878" data-name="Rectángulo 401878" width="12.136" height="60.581" transform="translate(138.61 228.017)" fill="#ffd398"/>
            <path id="Trazado_882942" data-name="Trazado 882942" d="M278.543,471.337l6.969,6.5h12.138l-6.969-6.5Z" transform="translate(-146.902 -249.819)" fill="#daaf6a"/>
            <rect id="Rectángulo_401879" data-name="Rectángulo 401879" width="12.136" height="60.581" transform="translate(86.854 228.017)" fill="#ffd398"/>
            <path id="Trazado_882943" data-name="Trazado 882943" d="M169.03,471.337l6.969,6.5h12.138l-6.969-6.5Z" transform="translate(-89.146 -249.819)" fill="#daaf6a"/>
            <rect id="Rectángulo_401880" data-name="Rectángulo 401880" width="52.457" height="39.684" transform="translate(150.594 248.911)" fill="#daaf6a"/>
            <path id="Trazado_882944" data-name="Trazado 882944" d="M313.893,564.51l-4.26-4.055V520.568l4.26,4.243Z" transform="translate(-163.299 -275.912)" fill="#c28b4f"/>
            <path id="Trazado_882945" data-name="Trazado 882945" d="M309.632,520.567l4.28,4.258H366.35l-4.079-4.258Z" transform="translate(-163.299 -275.912)" fill="#c28b4f"/>
            <rect id="Rectángulo_401881" data-name="Rectángulo 401881" width="7.95" height="39.684" transform="translate(189.35 248.911)" fill="#ffd398"/>
            <path id="Trazado_882946" data-name="Trazado 882946" d="M390.991,520.567l4.565,4.258h7.951l-4.565-4.258Z" transform="translate(-206.207 -275.912)" fill="#daaf6a"/>
            <rect id="Rectángulo_401882" data-name="Rectángulo 401882" width="7.95" height="39.684" transform="translate(155.446 248.911)" fill="#ffd398"/>
            <path id="Trazado_882947" data-name="Trazado 882947" d="M319.254,520.567l4.565,4.258h7.951l-4.565-4.258Z" transform="translate(-168.373 -275.912)" fill="#daaf6a"/>
            <rect id="Rectángulo_401883" data-name="Rectángulo 401883" width="43.251" height="32.72" transform="translate(86.106 189.631)" fill="#daaf6a"/>
            <path id="Trazado_882948" data-name="Trazado 882948" d="M178.275,432.252l-3.512-3.344V396.021l3.512,3.5Z" transform="translate(-92.169 -209.9)" fill="#c28b4f"/>
            <path id="Trazado_882949" data-name="Trazado 882949" d="M174.762,396.021l3.529,3.511h43.236l-3.363-3.511Z" transform="translate(-92.169 -209.9)" fill="#c28b4f"/>
            <rect id="Rectángulo_401884" data-name="Rectángulo 401884" width="6.555" height="32.72" transform="translate(118.061 189.631)" fill="#ffd398"/>
            <path id="Trazado_882950" data-name="Trazado 882950" d="M241.844,396.021l3.764,3.511h6.555l-3.763-3.511Z" transform="translate(-127.548 -209.9)" fill="#daaf6a"/>
            <rect id="Rectángulo_401885" data-name="Rectángulo 401885" width="6.555" height="32.72" transform="translate(90.107 189.631)" fill="#ffd398"/>
            <path id="Trazado_882951" data-name="Trazado 882951" d="M182.7,396.021l3.764,3.511h6.555l-3.764-3.511Z" transform="translate(-96.353 -209.9)" fill="#daaf6a"/>
            <rect id="Rectángulo_401886" data-name="Rectángulo 401886" width="31.357" height="23.722" transform="translate(159.796 223.657)" fill="#daaf6a"/>
            <path id="Trazado_882952" data-name="Trazado 882952" d="M335.276,496.741l-2.546-2.424V470.474l2.546,2.537Z" transform="translate(-175.481 -249.362)" fill="#c28b4f"/>
            <path id="Trazado_882953" data-name="Trazado 882953" d="M332.73,470.474l2.558,2.545h31.345l-2.438-2.545Z" transform="translate(-175.48 -249.362)" fill="#c28b4f"/>
            <rect id="Rectángulo_401887" data-name="Rectángulo 401887" width="4.752" height="23.722" transform="translate(182.962 223.657)" fill="#ffd398"/>
            <path id="Trazado_882954" data-name="Trazado 882954" d="M381.363,470.474l2.729,2.545h4.752l-2.728-2.545Z" transform="translate(-201.129 -249.362)" fill="#daaf6a"/>
            <rect id="Rectángulo_401888" data-name="Rectángulo 401888" width="4.752" height="23.722" transform="translate(162.696 223.657)" fill="#ffd398"/>
            <path id="Trazado_882955" data-name="Trazado 882955" d="M338.481,470.474l2.729,2.545h4.753l-2.728-2.545Z" transform="translate(-178.514 -249.362)" fill="#daaf6a"/>
            <rect id="Rectángulo_401889" data-name="Rectángulo 401889" width="31.357" height="23.722" transform="translate(205.598 264.848)" fill="#daaf6a"/>
            <path id="Trazado_882956" data-name="Trazado 882956" d="M432.19,584.387l-2.546-2.424V558.12l2.546,2.537Z" transform="translate(-226.593 -295.816)" fill="#c28b4f"/>
            <path id="Trazado_882957" data-name="Trazado 882957" d="M429.643,558.12l2.558,2.545h31.345l-2.439-2.545Z" transform="translate(-226.592 -295.816)" fill="#c28b4f"/>
            <rect id="Rectángulo_401890" data-name="Rectángulo 401890" width="4.752" height="23.722" transform="translate(228.764 264.848)" fill="#ffd398"/>
            <path id="Trazado_882958" data-name="Trazado 882958" d="M478.276,558.12l2.729,2.545h4.752l-2.728-2.545Z" transform="translate(-252.241 -295.816)" fill="#daaf6a"/>
            <rect id="Rectángulo_401891" data-name="Rectángulo 401891" width="4.752" height="23.722" transform="translate(208.498 264.848)" fill="#ffd398"/>
            <path id="Trazado_882959" data-name="Trazado 882959" d="M435.394,558.12l2.729,2.545h4.753l-2.728-2.545Z" transform="translate(-229.625 -295.816)" fill="#daaf6a"/>
            <path id="Trazado_882960" data-name="Trazado 882960" d="M54.951,574.459l.929,7.338h9.412l.547-7.724Z" transform="translate(-28.981 -304.272)" fill="#ff9f9c"/>
            <path id="Trazado_882961" data-name="Trazado 882961" d="M108.194,572.074l1.144,8.528h9.411l-.363-8.782Z" transform="translate(-57.061 -303.077)" fill="#ff9f9c"/>
            <path id="Trazado_882962" data-name="Trazado 882962" d="M139.388,602.355h-35.6a4.917,4.917,0,0,1-.468-1.966c-.223-2.994.737-7.773,1.208-10.786.057-.352.106-.68.144-.978a10.3,10.3,0,0,0,.106-1.23,1.814,1.814,0,0,1,2.189-2.038c3.6,3.513,7.681-1.755,10.063-.027,0,0,1.026.731,3.852,3.26s7.632,4.2,11.724,5.9c5.282,2.2,6.78,4.389,7.073,5.9a2.754,2.754,0,0,1-.293,1.966" transform="translate(-54.474 -310.048)" fill="#242c2e"/>
            <path id="Trazado_882963" data-name="Trazado 882963" d="M139.425,619.744h-35.6a4.917,4.917,0,0,1-.468-1.966h36.358a2.754,2.754,0,0,1-.293,1.966" transform="translate(-54.511 -327.436)" fill="#3d5481"/>
            <path id="Trazado_882964" data-name="Trazado 882964" d="M108.807,606.476H107.75a7.744,7.744,0,0,0,1.913-5.668,9.969,9.969,0,0,0-3.748-7.084c.057-.352.106-.681.144-.978a10.833,10.833,0,0,1,4.451,8.02,8.555,8.555,0,0,1-1.7,5.711" transform="translate(-55.859 -314.169)" fill="#3d5481"/>
            <path id="Trazado_882965" data-name="Trazado 882965" d="M138.587,595.179a.583.583,0,0,1-.141-1.15l2.224-.549a.583.583,0,1,1,.283,1.132l-2.224.549a.584.584,0,0,1-.142.017" transform="translate(-72.781 -314.549)" fill="#3d5481"/>
            <path id="Trazado_882966" data-name="Trazado 882966" d="M133.911,591.261a.583.583,0,0,1-.141-1.15l2.224-.549a.583.583,0,1,1,.283,1.132l-2.224.549a.59.59,0,0,1-.142.017" transform="translate(-70.315 -312.472)" fill="#3d5481"/>
            <path id="Trazado_882967" data-name="Trazado 882967" d="M143.292,597.913a.583.583,0,0,1-.141-1.15l2.224-.549a.584.584,0,1,1,.283,1.133l-2.224.549a.589.589,0,0,1-.142.017" transform="translate(-75.262 -315.998)" fill="#3d5481"/>
            <path id="Trazado_882968" data-name="Trazado 882968" d="M148,600.543a.583.583,0,0,1-.141-1.15l2.224-.549a.583.583,0,1,1,.283,1.132l-2.224.549a.587.587,0,0,1-.142.017" transform="translate(-77.744 -317.391)" fill="#3d5481"/>
            <path id="Trazado_882969" data-name="Trazado 882969" d="M153.128,602.974a.583.583,0,0,1-.141-1.15l2.224-.549a.583.583,0,1,1,.283,1.132l-2.224.549a.593.593,0,0,1-.142.017" transform="translate(-80.45 -318.68)" fill="#3d5481"/>
            <path id="Trazado_882970" data-name="Trazado 882970" d="M158.691,605.048a.583.583,0,0,1-.141-1.15l2.224-.549a.583.583,0,1,1,.283,1.132l-2.224.549a.587.587,0,0,1-.142.018" transform="translate(-83.384 -319.779)" fill="#3d5481"/>
            <path id="Trazado_882971" data-name="Trazado 882971" d="M21.737,275.888a14.962,14.962,0,0,0,.182,1.942l.011.041q.223.716.491,1.374c1.595,3.882,13.918,4.451,26.05,3.1,9.41-1.046,18.7-3.249,22.786-5.96,3.832-2.544-4.33-26.019-4.33-26.019l-47.45,9.9a98.753,98.753,0,0,1,2.26,15.617" transform="translate(-10.272 -132.7)" fill="#6293c4"/>
            <path id="Trazado_882972" data-name="Trazado 882972" d="M110.272,356.66l-3.764,67.784-13.551.408s-4.962-50.044-3.227-60.933l-7.251-59.28-.178-1.521,17.4-7.97,1.086-.5,4.432-2.029c.038.356.075.709.112,1.065q.213,1.991.417,3.965c.043.4.082.793.126,1.188,2.184,21.114,3.794,40.787,4.356,56.611.015.408.028.811.041,1.212h0" transform="translate(-43.405 -155.095)" fill="#6293c4"/>
            <path id="Trazado_882973" data-name="Trazado 882973" d="M130.553,427.093c-.93.089-1.875.125-2.789.125a44.531,44.531,0,0,1-6.5-.508.6.6,0,1,1,.2-1.193,40.964,40.964,0,0,0,9.05.365c.015.408.028.811.041,1.212" transform="translate(-63.686 -225.528)" fill="#92b2d1"/>
            <path id="Trazado_882974" data-name="Trazado 882974" d="M87.516,319.256l8.122,61.64c-.249,1.357-2.843,16.918,1.309,52.424.043.355.084.715.127,1.076l1.136-.01c-.043-.361-.084-.718-.127-1.075-4.328-36.9-1.352-52.134-1.32-52.286a.561.561,0,0,0,.006-.186l-8.131-61.73a.565.565,0,0,0-1.121.147" transform="translate(-46.153 -168.876)" fill="#92b2d1"/>
            <path id="Trazado_882975" data-name="Trazado 882975" d="M103.886,563.114a.53.53,0,0,0,.52.534l1.3-.011,1.136-.01,10.826-.087a.3.3,0,0,0,.043,0,.52.52,0,0,0,.458-.54.533.533,0,0,0-.52-.536l-10.935.091-1.136.009-1.194.009a.521.521,0,0,0-.5.543" transform="translate(-54.789 -298.117)" fill="#2c2493"/>
            <path id="Trazado_882976" data-name="Trazado 882976" d="M108.76,275.778a22.862,22.862,0,0,0,4.892,10.091,13.072,13.072,0,0,0,2.59,2.2,10.949,10.949,0,0,0,2.4,1.159,9.823,9.823,0,0,0,1.18.331c-.041-.395-.081-.79-.124-1.187-.19-.049-.379-.1-.565-.165a9.916,9.916,0,0,1-2.283-1.082,11.568,11.568,0,0,1-2.114-1.754c-3.717-3.863-4.855-9.73-4.868-9.8a.565.565,0,0,0-1.111.206" transform="translate(-57.355 -145.816)" fill="#92b2d1"/>
            <path id="Trazado_882977" data-name="Trazado 882977" d="M85.978,285.6a.462.462,0,0,1-.444.474h0a.462.462,0,0,1-.492-.429c-.083-1.692-.183-3.426-.293-5.157-.019-.3-.038-.61-.059-.914-.371-5.657-.84-11.211-1.195-15.132-.029-.317-.056-.625-.084-.92-.079-.86-.151-1.624-.212-2.27.312-.048.624-.1.932-.15.061.646.133,1.416.213,2.286.028.3.055.6.085.92.351,3.887.818,9.392,1.188,15.015.021.31.041.622.062.932.113,1.794.217,3.592.3,5.344" transform="translate(-43.877 -138.393)" fill="#92b2d1"/>
            <path id="Trazado_882978" data-name="Trazado 882978" d="M83.049,280.264a12.36,12.36,0,0,1-1.644.626c-.293.089-.607.17-.93.233a6.73,6.73,0,0,1-.891.115,3.263,3.263,0,0,1-1.578-.246,1.913,1.913,0,0,1-1.071-1.429c-.343-1.745-1.061-8.952-1.544-14.049-.031-.313-.06-.619-.087-.916-.077-.815-.145-1.557-.2-2.187.311-.038.624-.075.936-.116.059.634.128,1.385.207,2.211.028.3.057.6.086.916.485,5.084,1.2,12.28,1.532,13.972a1.006,1.006,0,0,0,.567.789,3.338,3.338,0,0,0,1.988.026c.317-.069.632-.157.927-.251a11.091,11.091,0,0,0,1.291-.5.479.479,0,0,1,.63.2.446.446,0,0,1-.215.606" transform="translate(-39.607 -139.022)" fill="#92b2d1"/>
            <path id="Trazado_882979" data-name="Trazado 882979" d="M50.138,293.763V419.722l-.137,2H36.031c-.742-4.491-6-22.666-6.724-37.814-.786-16.306-.567-37.433-.567-37.433-1.478-11.228-3.732-34.575-5.046-48.634-.034-.376-.069-.748-.1-1.111a.175.175,0,0,1-.006-.043.028.028,0,0,0,0-.011c-.032-.367-.066-.722-.1-1.07-.518-5.581-.846-9.221-.846-9.221,2.165-.9,6.025-.333,10.181.8q.55.151,1.1.311c.695.2,1.393.421,2.089.644.369.121.734.242,1.1.365a137.339,137.339,0,0,1,13.028,5.266" transform="translate(-11.939 -151.552)" fill="#6293c4"/>
            <path id="Trazado_882980" data-name="Trazado 882980" d="M70.012,422.026v1.217c-.895.082-1.8.116-2.682.116a44.157,44.157,0,0,1-6.5-.51.6.6,0,1,1,.2-1.193,40.887,40.887,0,0,0,8.985.37" transform="translate(-31.813 -223.482)" fill="#92b2d1"/>
            <path id="Trazado_882981" data-name="Trazado 882981" d="M35.322,361.372c-.034,1.3-.8,31.865.84,42.907,1.2,8.093,3.534,20.656,4.751,27.065.071.382.14.741.2,1.076l.515,0,.633-.006c-.064-.333-.131-.692-.2-1.074-1.2-6.336-3.57-19.06-4.778-27.221-1.649-11.129-.837-42.439-.828-42.754,0-.028,0-.054,0-.08-1.239-10.474-3.773-46.63-3.8-46.995a.565.565,0,0,0-1.127.078c.024.363,2.553,36.455,3.8,47.008" transform="translate(-16.625 -166.302)" fill="#92b2d1"/>
            <path id="Trazado_882982" data-name="Trazado 882982" d="M48.826,564.377a.548.548,0,0,0,.552.534l.863-.008.515,0,.633-.006.571,0,11.459-.087a.323.323,0,0,0,.045,0,.531.531,0,0,0,.487-.54.549.549,0,0,0-.552-.536l-11.573.091-.64.006-.563,0-.582,0-.681.006a.536.536,0,0,0-.532.544" transform="translate(-25.751 -298.786)" fill="#2c2493"/>
            <path id="Trazado_882983" data-name="Trazado 882983" d="M61.28,598.792c0,.084,0,.166,0,.247-.009.375-.025.711-.041,1-.038.635-.085,1.026-.085,1.026h-21.2a11.544,11.544,0,0,1-.025-2.026,10.514,10.514,0,0,1,3.787-7.807c4.009-3.082,2.461-2.439,3.283-3.844.093-.157.814-2.543.891-2.707.689-1.459,1.324-2.149,5.123-2.149,5.039,0,5.482,2.431,6.02,3.712a23.721,23.721,0,0,1,.838,2.976c.127.533.254,1.1.379,1.682.31,1.453.6,2.97.8,4.181a21.821,21.821,0,0,1,.238,3.71" transform="translate(-21.039 -308.755)" fill="#242c2e"/>
            <path id="Trazado_882984" data-name="Trazado 882984" d="M82.146,606.312c0,.084,0,.166,0,.247-.009.375-.025.711-.041,1a5.9,5.9,0,0,1-2.2-2.84c-1.312-3.553.706-7.818.79-8l.042.02c.127.533.254,1.1.379,1.682a9.54,9.54,0,0,0-.264,5.955,4.9,4.9,0,0,0,1.3,1.936" transform="translate(-41.905 -316.275)" fill="#3d5481"/>
            <path id="Trazado_882985" data-name="Trazado 882985" d="M61.276,617.655c-.028,1.2-.125,2.026-.125,2.026h-21.2a11.518,11.518,0,0,1-.024-2.026Z" transform="translate(-21.039 -327.371)" fill="#3d5481"/>
            <path id="Trazado_882986" data-name="Trazado 882986" d="M62.611,594.758a.578.578,0,0,1-.152-.02,10.543,10.543,0,0,0-4.916-.1.6.6,0,1,1-.322-1.159,11.685,11.685,0,0,1,5.541.1.6.6,0,0,1-.151,1.183" transform="translate(-29.944 -314.407)" fill="#3d5481"/>
            <path id="Trazado_882987" data-name="Trazado 882987" d="M63.311,589.923a.607.607,0,0,1-.152-.019,10.542,10.542,0,0,0-4.916-.1.6.6,0,1,1-.322-1.159,11.688,11.688,0,0,1,5.541.1.6.6,0,0,1-.151,1.183" transform="translate(-30.313 -311.845)" fill="#3d5481"/>
            <path id="Trazado_882988" data-name="Trazado 882988" d="M60.693,598.811a.6.6,0,0,1-.152-.019,10.647,10.647,0,0,0-4.917-.1.6.6,0,1,1-.321-1.159,11.683,11.683,0,0,1,5.541.1.6.6,0,0,1-.151,1.183" transform="translate(-28.933 -316.556)" fill="#3d5481"/>
            <path id="Trazado_882989" data-name="Trazado 882989" d="M58.438,603.419a.61.61,0,0,1-.152-.019,10.648,10.648,0,0,0-4.916-.1.6.6,0,1,1-.321-1.159,11.68,11.68,0,0,1,5.541.1.6.6,0,0,1-.151,1.183" transform="translate(-27.744 -318.998)" fill="#3d5481"/>
            <path id="Trazado_882990" data-name="Trazado 882990" d="M24.639,295.328a.029.029,0,0,1,0,.013.162.162,0,0,0,.005.041q.052.546.1,1.112a9.141,9.141,0,0,0,4.688-.418,15.044,15.044,0,0,0,6.808-5.737,27.7,27.7,0,0,0,1.921-3.184,26.884,26.884,0,0,0,1.345-3,.565.565,0,0,0-1.064-.377,26.2,26.2,0,0,1-1.38,3.012,26.854,26.854,0,0,1-1.791,2.935,13.877,13.877,0,0,1-6.227,5.3,8.069,8.069,0,0,1-4.41.307" transform="translate(-12.995 -150.211)" fill="#92b2d1"/>
            <path id="Trazado_882991" data-name="Trazado 882991" d="M97.043,98.685l.282.805.319.881c.212.594.431,1.19.656,1.785.448,1.19.905,2.38,1.389,3.551s.966,2.336,1.481,3.472,1.031,2.258,1.579,3.34,1.111,2.131,1.69,3.124a32.5,32.5,0,0,0,1.789,2.762,17.09,17.09,0,0,0,1.749,2.119,8.222,8.222,0,0,0,.725.652c.1.082.192.146.264.195l.028.021c.012.009,0,0-.006,0a.1.1,0,0,0-.032-.008c-.026,0-.038-.011-.06-.008-.075-.007-.105.019-.036.051a1.34,1.34,0,0,0,.474.067,8.076,8.076,0,0,0,2.144-.36,19.993,19.993,0,0,0,2.865-1.075c1-.461,2.045-.986,3.086-1.574a71.6,71.6,0,0,0,6.262-4.035c1.041-.735,2.066-1.507,3.087-2.286.51-.39,1.016-.787,1.515-1.184l.744-.592.683-.552.279-.225a6.187,6.187,0,0,1,8.67.891,6.106,6.106,0,0,1-.159,7.918l-.789.891-.75.827c-.5.543-1.013,1.072-1.527,1.6-1.027,1.054-2.09,2.071-3.177,3.079a70.333,70.333,0,0,1-7.044,5.711,46.889,46.889,0,0,1-4.049,2.574,35.375,35.375,0,0,1-4.7,2.233,22.7,22.7,0,0,1-5.9,1.451,17.692,17.692,0,0,1-3.651,0,15.512,15.512,0,0,1-4.024-.975c-.337-.137-.673-.269-1-.435l-.491-.245c-.077-.04-.172-.087-.234-.123l-.194-.111c-.522-.3-1.01-.608-1.467-.925A23.316,23.316,0,0,1,97.066,132a32.272,32.272,0,0,1-3.688-4.061,48.192,48.192,0,0,1-2.777-4.087c-.834-1.36-1.587-2.719-2.279-4.086s-1.343-2.727-1.945-4.1-1.159-2.743-1.692-4.119-1.018-2.763-1.478-4.159c-.229-.7-.452-1.4-.668-2.11l-.313-1.075-.322-1.161A7.876,7.876,0,0,1,96.93,98.363Z" transform="translate(-43.045 -49.36)" fill="#ffd4c7"/>
            <path id="Trazado_882992" data-name="Trazado 882992" d="M107.305,108.043s1.747,4.051,3.182,6.984,3.519,7.852,3.519,7.852l-9.134,16.906s-5.927-6.318-6.052-13.978-1.435-18.686,8.486-17.765" transform="translate(-52.052 -57.236)" fill="#6293c4"/>
            <path id="Trazado_882993" data-name="Trazado 882993" d="M132.73,159.189a.381.381,0,0,1-.372-.46,12.108,12.108,0,0,1,2.861-5.635.383.383,0,0,1,.538,0,.378.378,0,0,1,0,.536,11.569,11.569,0,0,0-2.657,5.262.38.38,0,0,1-.372.3" transform="translate(-69.8 -81.084)" fill="#e6736e"/>
            <path id="Trazado_882994" data-name="Trazado 882994" d="M131.472,154.578a.379.379,0,0,1-.093-.747l3.354-.837a.38.38,0,1,1,.186.736l-3.354.837a.4.4,0,0,1-.093.011" transform="translate(-69.137 -81.084)" fill="#e6736e"/>
            <path id="Trazado_882995" data-name="Trazado 882995" d="M185.706,121.558c.035-.872,1.253-1.78,1.873-2.752a13.564,13.564,0,0,1,3.609-3.657c1.75-1.057,7.075-3.886,8.707-3.411s-2.771,3.271-3.663,3.861a4.053,4.053,0,0,0-1.276,1.32s10.6-5.633,11.853-5.112-4.458,4.328-5.875,5.259c0,0,8.225-3.8,8.914-3.223,1.383,1.164-7.627,5.649-7.627,5.649s7.083-2.849,7.521-1.678c.463,1.24-7.132,4.273-7.132,4.273s4.89-1.187,5.731-.348-9.234,4.118-10.844,4.437-5.877,1.533-8.022,1.591c-1.457.039-3.877-3.447-3.769-6.208" transform="translate(-97.939 -59.195)" fill="#ffd4c7"/>
            <path id="Trazado_882996" data-name="Trazado 882996" d="M213.389,129.564a.336.336,0,0,0,.315-.313,9.537,9.537,0,0,0-2.694-6.9.338.338,0,0,0-.476.006.334.334,0,0,0,.006.474,9.016,9.016,0,0,1,2.492,6.375.336.336,0,0,0,.315.356h.043" transform="translate(-110.984 -64.8)" fill="#e6736e"/>
            <path id="Trazado_882997" data-name="Trazado 882997" d="M198.326,133.109a.338.338,0,0,0,.3-.229,5.6,5.6,0,0,1,4.443-4.1.335.335,0,0,0-.049-.668h-.007a6.194,6.194,0,0,0-5.028,4.556.335.335,0,0,0,.213.424.353.353,0,0,0,.128.016" transform="translate(-104.408 -67.901)" fill="#e6736e"/>
            <path id="Trazado_882998" data-name="Trazado 882998" d="M210.052,136.657l19.458-33.035a2.259,2.259,0,0,0-.814-3.1L205.874,87.228a2.286,2.286,0,0,0-3.118.81L183.3,121.073a2.259,2.259,0,0,0,.814,3.1l22.822,13.294a2.285,2.285,0,0,0,3.118-.81" transform="translate(-96.506 -46.068)" fill="#daaf6a"/>
            <path id="Trazado_882999" data-name="Trazado 882999" d="M232.466,105.85,211.62,93.707a.45.45,0,0,0-.614.16l-16.327,27.719a.445.445,0,0,0,.161.611l20.846,12.143a.45.45,0,0,0,.614-.16l16.327-27.719a.445.445,0,0,0-.16-.611" transform="translate(-102.64 -49.634)" fill="#ffd398"/>
            <path id="Trazado_883000" data-name="Trazado 883000" d="M220.344,158.818a.372.372,0,0,0,.189-.694l-14.638-8.469a.375.375,0,0,0-.512.134.371.371,0,0,0,.135.509l14.638,8.469a.37.37,0,0,0,.188.051" transform="translate(-108.291 -79.293)" fill="#daaf6a"/>
            <path id="Trazado_883001" data-name="Trazado 883001" d="M203.327,115.509a5.8,5.8,0,0,0-1.362,1.386c-1.319-.1-1.863-1.312-2.812-2.34,2.231-1.247,6.554-3.631,7.835-2.908,1.139.643-2.77,3.271-3.662,3.861" transform="translate(-105.033 -59.105)" fill="#ffd4c7"/>
            <path id="Trazado_883002" data-name="Trazado 883002" d="M13.443,87.816A9.374,9.374,0,0,1,15.5,87.25c.552-.087,1.082-.188,1.589-.3h0a24.664,24.664,0,0,0,5.276-1.761c.206-.1.4-.192.59-.289A19.378,19.378,0,0,0,26.1,82.971l13.3.452c1.194,1.731,3.27,2.368,4.891,3.137q.267.125.542.246c.339.145.683.279,1.028.4,1.273.462,2.575.8,3.818,1.152,3.312.948,6.2,2.048,7,6.046.744,3.706-2.113,11.336-1.814,26.8.023,1.135.062,2.31.121,3.531q.081,1.711.219,3.544c.017.235.035.469.054.707.071.912.155,1.85.253,2.807q.157,1.583.359,3.248.208,1.709.466,3.5c.925,6.429,1.5,11.266,2.546,19.811.515,4.188,1.557,10.9.94,11.384l-48.814,5.378a12.351,12.351,0,0,1-.306-1.576c-1.632-4.432-3.785-17.521-5.177-25.78-.343-2.018-.506-3.808-.624-4.964-.12-1.171-.172-2.488-.25-3.661A151.933,151.933,0,0,1,4.032,121.8q.022-.484.046-.972c.242-4.893-1.493-11.653-1.856-17.31,0,0-2.7-10.9,11.221-15.706" transform="translate(-1.06 -43.976)" fill="#496f93"/>
            <path id="Trazado_883003" data-name="Trazado 883003" d="M112.832,146.992h.007a.373.373,0,0,0,.368-.379l-.374-20.983a.374.374,0,0,0-.374-.366h-.007a.373.373,0,0,0-.368.379l.374,20.983a.373.373,0,0,0,.374.366" transform="translate(-59.112 -66.393)" fill="#8c9349"/>
            <path id="Trazado_883004" data-name="Trazado 883004" d="M112.874,135.752a.374.374,0,0,0,.347-.233l1.4-3.434a.374.374,0,0,0-.694-.28l-1.4,3.434a.372.372,0,0,0,.207.485.378.378,0,0,0,.14.027" transform="translate(-59.332 -69.737)" fill="#8c9349"/>
            <path id="Trazado_883005" data-name="Trazado 883005" d="M19.445,211.55a.385.385,0,0,0,.129-.023.372.372,0,0,0,.223-.478c-5.122-13.948-6.574-29.093-6.891-39.34a148.387,148.387,0,0,1,.547-19.1.374.374,0,0,0-.744-.084,149.068,149.068,0,0,0-.552,19.2c.318,10.307,1.778,25.54,6.936,39.587a.375.375,0,0,0,.352.245" transform="translate(-6.37 -80.664)" fill="#8c9349"/>
            <path id="Trazado_883006" data-name="Trazado 883006" d="M59.6,229.638a45.257,45.257,0,0,0,9.569-1.053.372.372,0,1,0-.158-.728c-12.938,2.791-22.466-.586-28.182-3.911a33.093,33.093,0,0,1-9.419-7.98.376.376,0,0,0-.523-.084.371.371,0,0,0-.085.519,33.155,33.155,0,0,0,9.617,8.17,37.788,37.788,0,0,0,19.18,5.067" transform="translate(-16.207 -114.385)" fill="#8c9349"/>
            <path id="Trazado_883007" data-name="Trazado 883007" d="M72.145,221.277a14.775,14.775,0,0,0,2.587-.233.373.373,0,1,0-.132-.733c-10.065,1.792-15.135-7.894-15.186-7.992a.374.374,0,0,0-.667.337,18.407,18.407,0,0,0,3.957,4.9,14.21,14.21,0,0,0,9.442,3.718" transform="translate(-30.961 -112.426)" fill="#8c9349"/>
            <path id="Trazado_883008" data-name="Trazado 883008" d="M60.316,98.852a10.182,10.182,0,0,0,6.268-2.223.371.371,0,0,0,.07-.522.376.376,0,0,0-.525-.069,9.335,9.335,0,0,1-7.115,1.98c-6.39-.873-11.729-7.853-11.782-7.923a.377.377,0,0,0-.525-.074.371.371,0,0,0-.074.521c.224.3,5.575,7.3,12.276,8.213a10.37,10.37,0,0,0,1.407.1" transform="translate(-24.555 -47.673)" fill="#8c9349"/>
            <path id="Trazado_883009" data-name="Trazado 883009" d="M83,15.448a6.785,6.785,0,0,1,1.856,4.189,8.709,8.709,0,0,1,.9,4.44A27.289,27.289,0,0,1,84.4,28.8s-1.741-9.731-3.983-10.225a21,21,0,0,1-5.01-2.143s1.18-2.647,7.59-.988" transform="translate(-39.77 -7.898)" fill="#6b3737"/>
            <path id="Trazado_883010" data-name="Trazado 883010" d="M41.154,27.824s-.771,2.39.319,3.565-.092,3.111,1.365,4.237,3.8.428,3.8.428.612-12.182,1.71-13.327c0,0-4.063.031-7.191,5.1" transform="translate(-21.565 -12.046)" fill="#6b3737"/>
            <path id="Trazado_883011" data-name="Trazado 883011" d="M65.6,70.015v3.507a10.977,10.977,0,0,1-1.248.87c-6.124,3.657-12.73-.87-12.73-.87V61.363l12.311,7.621Z" transform="translate(-27.227 -32.524)" fill="#ffd4c7"/>
            <path id="Trazado_883012" data-name="Trazado 883012" d="M69.755,76.157v3.608a10.92,10.92,0,0,1-1.248.87c-5.214-2.053-9.009-7.493-9.009-7.493l8.591,2.084Z" transform="translate(-31.379 -38.767)" fill="#ffd4c7"/>
            <path id="Trazado_883013" data-name="Trazado 883013" d="M90.527,45.526s2-2.353,3.135,0,.261,7.116-2.786,6.337Z" transform="translate(-47.744 -23.575)" fill="#f4a687"/>
            <path id="Trazado_883014" data-name="Trazado 883014" d="M71.273,39.436s.01,7.25-7.573,7.234c-7.537-.014-12.672-5.9-12.94-6.173l-.008-.007-.082-1.524-.429-7.909-.229-4.227s-.963-7.612,6.312-9c5.315-1.015,10.3-.137,12.814,2.62.081.089.16.18.234.274A6.481,6.481,0,0,1,70.8,24.27l.235,7.593.058,1.861Z" transform="translate(-26.354 -9.234)" fill="#ffd4c7"/>
            <g id="Grupo_1099906" data-name="Grupo 1099906" transform="translate(29.909 22.606)" opacity="0.15">
              <g id="Grupo_1099905" data-name="Grupo 1099905">
                <g id="Grupo_1099904" data-name="Grupo 1099904" clip-path="url(#clip-path-7)">
                  <path id="Trazado_883015" data-name="Trazado 883015" d="M68.17,49.055c0,.528-1.094.956-2.442.956s-2.442-.428-2.442-.956,1.093-.956,2.442-.956,2.442.428,2.442.956" transform="translate(-63.286 -48.099)" fill="#ff3b00"/>
                </g>
              </g>
            </g>
            <g id="Grupo_1099909" data-name="Grupo 1099909" transform="translate(41.713 22.605)" opacity="0.15">
              <g id="Grupo_1099908" data-name="Grupo 1099908">
                <g id="Grupo_1099907" data-name="Grupo 1099907" clip-path="url(#clip-path-8)">
                  <path id="Trazado_883016" data-name="Trazado 883016" d="M91.291,49.983c-.189.019-.386.028-.588.028-1.347,0-2.441-.429-2.441-.956S89.356,48.1,90.7,48.1c.182,0,.36.008.531.023Z" transform="translate(-88.262 -48.099)" fill="#ff3b00"/>
                </g>
              </g>
            </g>
            <path id="Trazado_883017" data-name="Trazado 883017" d="M54.681,45.278s2.251,4.585,4.636,3.754a11.024,11.024,0,0,1,7.494,0s3.541-2.333,5.81-.923c1.522.946,1.138,11.007-3.993,12.685s-12.211.179-14.121-4.617a28.325,28.325,0,0,1-1.992-8.948Z" transform="translate(-27.696 -23.998)" fill="#6b3737"/>
            <path id="Trazado_883018" data-name="Trazado 883018" d="M77.805,56.379c-2.776.125-5.157-2.139-5.188-2.17a.31.31,0,0,1-.006-.439.314.314,0,0,1,.442-.006c.156.15,3.846,3.649,7.167,1.059a.314.314,0,0,1,.44.053.31.31,0,0,1-.053.437,4.825,4.825,0,0,1-2.8,1.067" transform="translate(-38.248 -28.449)" fill="#fff"/>
            <path id="Trazado_883019" data-name="Trazado 883019" d="M64.989,34.139h0a1.719,1.719,0,0,0,2.24.866,9.607,9.607,0,0,1,1.717-.56A1.567,1.567,0,0,0,70.138,32.5s-3.531-.322-5.149,1.638" transform="translate(-34.275 -17.216)" fill="#242c2e"/>
            <path id="Trazado_883020" data-name="Trazado 883020" d="M88.2,34.139h0a1.719,1.719,0,0,1-2.24.866,9.582,9.582,0,0,0-1.717-.56A1.567,1.567,0,0,1,83.049,32.5s3.531-.322,5.149,1.638" transform="translate(-43.77 -17.216)" fill="#242c2e"/>
            <path id="Trazado_883021" data-name="Trazado 883021" d="M69.372,20.725c-1.19-.419-2.049-.029-3.9.781-2.68,1.171-5.676.117-8.324-1.229s-4.237.527-3.334,1.756.8,2.223-.2,3.791,1.893,2.295.294,3.524a1.622,1.622,0,0,0-.361,2.012A1.087,1.087,0,0,1,52.32,32.8c-.862-.218-2.079-1.738-2.079-1.738l-.229-4.227s-.963-7.612,6.312-9c5.315-1.015,10.3-.137,12.814,2.62.081.089.16.18.234.274" transform="translate(-26.354 -9.234)" fill="#6b3737"/>
            <path id="Trazado_883022" data-name="Trazado 883022" d="M71.683,42.471c0,.725-.331,1.313-.739,1.313s-.739-.588-.739-1.313.331-1.313.739-1.313.739.588.739,1.313" transform="translate(-37.026 -21.815)" fill="#242c2e"/>
            <path id="Trazado_883023" data-name="Trazado 883023" d="M87.185,42.471c0,.725-.331,1.313-.739,1.313s-.739-.588-.739-1.313.331-1.313.739-1.313.739.588.739,1.313" transform="translate(-45.202 -21.815)" fill="#242c2e"/>
            <path id="Trazado_883024" data-name="Trazado 883024" d="M53.916,60.262c-.035.08-.994,2.294-2.374,2.942l-.008-.008-.082-1.524a5.246,5.246,0,0,0,2.464-1.411" transform="translate(-27.136 -31.94)" fill="#242c2e"/>
            <path id="Trazado_883025" data-name="Trazado 883025" d="M47.661,47.285s-2.915-3.894-5.051-.834c-1.76,2.522,1.567,9.093,5.051,6.841Z" transform="translate(-22.216 -23.998)" fill="#ffd4c7"/>
            <path id="Trazado_883026" data-name="Trazado 883026" d="M49.2,54.356a.3.3,0,0,1-.3-.266,4.988,4.988,0,0,0-2.912-4.016.3.3,0,1,1,.223-.554A5.589,5.589,0,0,1,49.5,54.026a.3.3,0,0,1-.266.329l-.033,0" transform="translate(-24.158 -26.235)" fill="#242c2e"/>
            <path id="Trazado_883027" data-name="Trazado 883027" d="M46.739,54.545a.3.3,0,0,1-.19-.53,2.9,2.9,0,0,1,2.1-.71.3.3,0,1,1-.149.578c-.518-.132-1.308.385-1.569.595a.3.3,0,0,1-.189.067" transform="translate(-24.492 -28.232)" fill="#242c2e"/>
            <path id="Trazado_883028" data-name="Trazado 883028" d="M80.157,44.044a.3.3,0,1,1,0-.6,2.064,2.064,0,0,0,1.79-.83c-1.2-2.452-2.385-4.924-2.4-4.949a.3.3,0,0,1,.541-.258c.012.026,1.247,2.593,2.466,5.09a.3.3,0,0,1,0,.257,2.565,2.565,0,0,1-2.4,1.287" transform="translate(-41.939 -19.739)" fill="#242c2e"/>
            <path id="Trazado_883029" data-name="Trazado 883029" d="M39.768,19.317l3.7-3.089.478-.4L45,14.955C52.415,11.215,61.947,11.3,61.947,11.3S59.755,4.479,50.8,4.577a13.673,13.673,0,0,0-7.756,2.245,10.1,10.1,0,0,0-.935.729,9.134,9.134,0,0,0-3.074,5.372c-.668,4.133.733,6.394.733,6.394" transform="translate(-20.492 -2.425)" fill="#4a7094"/>
            <path id="Trazado_883030" data-name="Trazado 883030" d="M46.394,18.761l.478-.4a6.566,6.566,0,0,1-1.735-6.081,13.271,13.271,0,0,1,.83-2.927,10.16,10.16,0,0,0-.934.729,13.23,13.23,0,0,0-.512,2.1,7.237,7.237,0,0,0,1.873,6.573" transform="translate(-23.415 -4.958)" fill="#92b2d1"/>
            <path id="Trazado_883031" data-name="Trazado 883031" d="M64.4,7.717A10.909,10.909,0,0,0,56.766,9L57.6,11.41a26.656,26.656,0,0,1,7.131-1.72Z" transform="translate(-29.938 -3.977)" fill="#6d8ca5"/>
            <path id="Trazado_883032" data-name="Trazado 883032" d="M72.431,11.74S82.608,5.448,77.264,1.375,59.164,2.647,51.853,12.53c0,0,17.207-7.043,20.578-.79" transform="translate(-27.347 0)" fill="#92b2d1"/>
            <path id="Trazado_883033" data-name="Trazado 883033" d="M120.31,79.143a1.1,1.1,0,0,1-.528.469.979.979,0,0,1-.29.08l-.707-.132-16.8-9.486a1.114,1.114,0,1,1,1.1-1.934l16.8,9.486.546.754v0a1.109,1.109,0,0,1-.125.761" transform="translate(-53.489 -36.039)" fill="#181344"/>
            <path id="Trazado_883034" data-name="Trazado 883034" d="M141.056,90.965l-2.188-.411-.707-.133a3,3,0,0,1,1.1-1.934l.546.754v0Z" transform="translate(-72.865 -46.9)" fill="#3d5481"/>
            <path id="Trazado_883035" data-name="Trazado 883035" d="M15.75,106.546l.272.961.308,1.048c.2.7.424,1.41.644,2.115.434,1.412.912,2.81,1.391,4.192a74.346,74.346,0,0,0,3.243,7.874,33.817,33.817,0,0,0,1.868,3.368,17.1,17.1,0,0,0,1.872,2.492l.106.12c.035.035.067.06.1.091.066.06.129.121.192.184a1.106,1.106,0,0,0,.17.145c.052.042.1.087.152.135.043.03.078.045.113.074a.615.615,0,0,1,.051.043s.026.022.015.017c-.035-.021-.072-.04-.109-.058a1.628,1.628,0,0,0-.23-.091c-.078-.024-.164-.066-.25-.089s-.176-.039-.262-.062a1.724,1.724,0,0,0-.263-.052L25,129.042c-.04-.007-.08-.012-.121-.016a1.628,1.628,0,0,0-.244,0c-.078,0-.137,0-.207,0s-.144.022-.19.023a1.415,1.415,0,0,0-.4.1c-.1.057.084.017.364-.14a7.711,7.711,0,0,0,1.073-.73c.412-.326.847-.71,1.3-1.129a36.536,36.536,0,0,0,2.735-2.918c.913-1.068,1.8-2.218,2.693-3.4s1.758-2.4,2.611-3.649c1.714-2.493,3.367-5.088,4.982-7.721.807-1.317,1.6-2.65,2.384-3.984l1.164-2.007,1.12-1.966.1-.174a6.184,6.184,0,0,1,8.4-2.313,6.116,6.116,0,0,1,2.667,7.657l-.493,1.2-.484,1.152c-.324.765-.661,1.52-1,2.276-.673,1.512-1.38,3.007-2.1,4.5s-1.475,2.974-2.254,4.451-1.577,2.951-2.428,4.412a88.856,88.856,0,0,1-5.653,8.714,51.668,51.668,0,0,1-3.571,4.323c-.673.722-1.4,1.439-2.209,2.156A23.6,23.6,0,0,1,32.451,142a16.814,16.814,0,0,1-3.966,1.931,13.657,13.657,0,0,1-2.757.6c-.245.032-.528.041-.791.055s-.531.021-.809.013-.563-.029-.845-.053l-.422-.04c-.142-.02-.286-.044-.429-.068q-.429-.075-.854-.169c-.283-.063-.56-.153-.837-.238s-.558-.179-.818-.287-.519-.224-.775-.345l-.381-.185c-.1-.052-.161-.09-.243-.136l-.464-.269c-.306-.181-.62-.367-.911-.556l-.813-.582c-.267-.2-.548-.4-.775-.6l-.712-.608c-.117-.1-.239-.205-.349-.308l-.316-.307a30.5,30.5,0,0,1-4.13-4.983A49.477,49.477,0,0,1,7.161,129.9c-.845-1.644-1.562-3.288-2.239-4.927s-1.268-3.281-1.823-4.923-1.044-3.293-1.507-4.948c-.223-.831-.439-1.662-.643-2.5-.1-.42-.2-.844-.293-1.273l-.141-.65-.15-.719a7.878,7.878,0,0,1,15.292-3.739Z" transform="translate(-0.105 -52.062)" fill="#ffd4c7"/>
            <path id="Trazado_883036" data-name="Trazado 883036" d="M7.466,98.192S.95,99.38.094,108.08C-.882,118,6.044,130.312,6.044,130.312l16.733-8.938s-2.7-13.2-6.685-18.541-8.626-4.642-8.626-4.642" transform="translate(0 -52.028)" fill="#6293c4"/>
            <path id="Trazado_883037" data-name="Trazado 883037" d="M9.217,159.048a.373.373,0,0,0,.33-.548c-1.029-1.916-2.989-6.831-3.008-6.88a.374.374,0,0,0-.7.274c.081.2,2,5,3.044,6.957a.374.374,0,0,0,.33.2" transform="translate(-3.067 -80.238)" fill="#8c9349"/>
            <path id="Trazado_883038" data-name="Trazado 883038" d="M39.918,126.226a.358.358,0,0,0,.054,0,.372.372,0,0,0,.317-.422,60.553,60.553,0,0,0-6.331-18.3.375.375,0,0,0-.51-.142.371.371,0,0,0-.143.507,59.721,59.721,0,0,1,6.242,18.041.374.374,0,0,0,.37.319" transform="translate(-17.54 -56.878)" fill="#8c9349"/>
            <path id="Trazado_883039" data-name="Trazado 883039" d="M36.9,111a.374.374,0,0,0,.366-.3l.668-3.187a.374.374,0,0,0-.733-.152l-.668,3.187a.372.372,0,0,0,.29.44A.356.356,0,0,0,36.9,111" transform="translate(-19.263 -56.747)" fill="#8c9349"/>
            <path id="Trazado_883040" data-name="Trazado 883040" d="M95.394,83.568s1.316-9.814,4.451-13.519,4.094-3.581,4.764-2.664.053.945-.041,2.3c0,0,2.278-2.74,3.395-.988.966,1.516-1.153,3.033-1.153,3.033s1.99-2.044,2.96-.861c.765.933-.981,3.131-.981,3.131s1.6-.779,1.859.619a2.06,2.06,0,0,1-.337,1.693s1.93-.238,1.69,1.968c-.149,1.368-3.282,7.291-5.955,9.553s-10.521.992-10.653-4.269" transform="translate(-50.31 -35.428)" fill="#ffd4c7"/>
            <path id="Trazado_883041" data-name="Trazado 883041" d="M88.59,110.658s6.212,5.469,10.943,6.243a5.374,5.374,0,0,0,1.732-2.776s-6.851-2.273-11.506-6.136a4.038,4.038,0,0,0-1.169,2.669" transform="translate(-46.722 -57.237)" fill="#181344"/>
            <path id="Trazado_883042" data-name="Trazado 883042" d="M98.851,111.013a3.25,3.25,0,0,1,1.5,4.36,3.285,3.285,0,0,1-4.385,1.488,3.249,3.249,0,0,1-1.5-4.36,3.284,3.284,0,0,1,4.384-1.488" transform="translate(-49.644 -58.662)" fill="#181344"/>
            <path id="Trazado_883043" data-name="Trazado 883043" d="M100.549,116a2.366,2.366,0,0,1-3.156,1.071,2.342,2.342,0,0,1-1.077-3.138,2.367,2.367,0,0,1,3.156-1.071A2.341,2.341,0,0,1,100.549,116" transform="translate(-50.67 -59.692)" fill="#fff"/>
            <path id="Trazado_883044" data-name="Trazado 883044" d="M40.556,168.28a.379.379,0,0,1-.317-.589,28.818,28.818,0,0,1,4.487-5.182,11.436,11.436,0,0,0-2.871.445.379.379,0,1,1-.2-.731,11.12,11.12,0,0,1,4.166-.423.379.379,0,0,1,.177.688,25.775,25.775,0,0,0-5.121,5.622.382.382,0,0,1-.318.169" transform="translate(-21.188 -85.731)" fill="#e6736e"/>
          </g>
        </g>
      </g>
    </g>
  </g>
</svg>
