<svg xmlns="http://www.w3.org/2000/svg" xmlns:xlink="http://www.w3.org/1999/xlink" width="124.011" height="125.273" viewBox="0 0 124.011 125.273">
  <defs>
    <filter id="Elipse_11536" x="0" y="0" width="124.011" height="125.273" filterUnits="userSpaceOnUse">
      <feOffset dy="3" input="SourceAlpha"/>
      <feGaussianBlur stdDeviation="3" result="blur"/>
      <feFlood flood-opacity="0.161"/>
      <feComposite operator="in" in2="blur"/>
      <feComposite in="SourceGraphic"/>
    </filter>
    <filter id="Elipse_11536-2" x="0" y="0" width="124.011" height="125.273" filterUnits="userSpaceOnUse">
      <feOffset dy="6" input="SourceAlpha"/>
      <feGaussianBlur stdDeviation="3" result="blur-2"/>
      <feFlood flood-opacity="0.161" result="color"/>
      <feComposite operator="out" in="SourceGraphic" in2="blur-2"/>
      <feComposite operator="in" in="color"/>
      <feComposite operator="in" in2="SourceGraphic"/>
    </filter>
  </defs>
  <g id="Grupo_1100985" data-name="Grupo 1100985" transform="translate(-1158.545 -655)">
    <g id="Grupo_1100181" data-name="Grupo 1100181" transform="translate(0 -2367)">
      <g data-type="innerShadowGroup">
        <g transform="matrix(1, 0, 0, 1, 1158.55, 3022)" filter="url(#Elipse_11536)">
          <ellipse id="Elipse_11536-3" data-name="Elipse 11536" cx="53.005" cy="53.636" rx="53.005" ry="53.636" transform="translate(9 6)" fill="#cae2fb"/>
        </g>
        <g transform="matrix(1, 0, 0, 1, 1158.55, 3022)" filter="url(#Elipse_11536-2)">
          <ellipse id="Elipse_11536-4" data-name="Elipse 11536" cx="53.005" cy="53.636" rx="53.005" ry="53.636" transform="translate(9 6)" fill="#fff"/>
        </g>
      </g>
      <g id="respuesta" transform="translate(1185.051 3046.051)">
        <path id="Elipse_11544" data-name="Elipse 11544" d="M5.257-15A20.257,20.257,0,1,1-15,5.257,20.28,20.28,0,0,1,5.257-15Zm0,36.328A16.071,16.071,0,1,0-10.814,5.257,16.089,16.089,0,0,0,5.257,21.328Z" transform="translate(15 45.935)" fill="#12263f"/>
        <path id="Trazado_885285" data-name="Trazado 885285" d="M110.626,174.544a2.093,2.093,0,0,1-2.093-2.093v-6.795h-4.186v6.795a2.093,2.093,0,1,1-4.186,0v-8.888a2.093,2.093,0,0,1,2.093-2.093h8.373a2.093,2.093,0,0,1,2.093,2.093v8.888A2.093,2.093,0,0,1,110.626,174.544Z" transform="translate(-86.183 -138.937)" fill="#12263f"/>
        <path id="Línea_623" data-name="Línea 623" d="M.7-10.814h-13.6A2.093,2.093,0,0,1-15-12.907,2.093,2.093,0,0,1-12.907-15H.7A2.093,2.093,0,0,1,2.79-12.907,2.093,2.093,0,0,1,.7-10.814Z" transform="translate(26.362 37.533)" fill="#12263f"/>
        <path id="Trazado_885286" data-name="Trazado 885286" d="M242.768,0h24.979a6.776,6.776,0,0,1,6.768,6.768V22.537a6.78,6.78,0,0,1-4.675,6.437v7.077a2.093,2.093,0,0,1-3.461,1.584L256.731,29.3H242.767A6.774,6.774,0,0,1,236,22.536V6.768A6.776,6.776,0,0,1,242.768,0Zm22.886,31.478V27.212a2.093,2.093,0,0,1,2.093-2.093,2.585,2.585,0,0,0,2.582-2.582V6.768a2.585,2.585,0,0,0-2.582-2.582H242.768a2.585,2.585,0,0,0-2.582,2.582V22.536a2.583,2.583,0,0,0,2.58,2.58H257.51a2.093,2.093,0,0,1,1.368.509Z" transform="translate(-203.066)" fill="#12263f"/>
        <path id="Línea_624" data-name="Línea 624" d="M4.676-10.814H-12.907A2.093,2.093,0,0,1-15-12.907,2.093,2.093,0,0,1-12.907-15H4.676A2.093,2.093,0,0,1,6.77-12.907,2.093,2.093,0,0,1,4.676-10.814Z" transform="translate(56.307 23.373)" fill="#12263f"/>
        <path id="Trazado_885287" data-name="Trazado 885287" d="M315.676,124.186H298.093a2.093,2.093,0,1,1,0-4.186h17.583a2.093,2.093,0,0,1,0,4.186Z" transform="translate(-254.693 -103.254)" fill="#12263f"/>
        <path id="Elipse_11545" data-name="Elipse 11545" d="M-8.72-15a6.287,6.287,0,0,1,6.28,6.28,6.287,6.287,0,0,1-6.28,6.28A6.287,6.287,0,0,1-15-8.72,6.287,6.287,0,0,1-8.72-15Zm0,8.373A2.1,2.1,0,0,0-6.627-8.72,2.1,2.1,0,0,0-8.72-10.814,2.1,2.1,0,0,0-10.814-8.72,2.1,2.1,0,0,0-8.72-6.627Z" transform="translate(28.978 59.912)" fill="#12263f"/>
        <path id="Línea_625" data-name="Línea 625" d="M-12.907-5.209A2.093,2.093,0,0,1-15-7.3v-5.6A2.093,2.093,0,0,1-12.907-15a2.093,2.093,0,0,1,2.093,2.093v5.6A2.093,2.093,0,0,1-12.907-5.209Z" transform="translate(33.164 54.308)" fill="#12263f"/>
        <path id="Línea_626" data-name="Línea 626" d="M-8.944-6.85a2.087,2.087,0,0,1-1.48-.613l-3.963-3.963a2.093,2.093,0,0,1,0-2.96,2.093,2.093,0,0,1,2.96,0l3.963,3.963a2.093,2.093,0,0,1,0,2.96A2.087,2.087,0,0,1-8.944-6.85Z" transform="translate(36.124 67.059)" fill="#12263f"/>
      </g>
    </g>
  </g>
</svg>
