<svg xmlns="http://www.w3.org/2000/svg" xmlns:xlink="http://www.w3.org/1999/xlink" width="129.333" height="137.028" viewBox="0 0 129.333 137.028">
  <defs>
    <filter id="Elipse_11501" x="0" y="6.37" width="129.333" height="130.658" filterUnits="userSpaceOnUse">
      <feOffset dy="3" input="SourceAlpha"/>
      <feGaussianBlur stdDeviation="3" result="blur"/>
      <feFlood flood-opacity="0.161"/>
      <feComposite operator="in" in2="blur"/>
      <feComposite in="SourceGraphic"/>
    </filter>
    <filter id="Elipse_11501-2" x="0" y="6.37" width="129.333" height="130.658" filterUnits="userSpaceOnUse">
      <feOffset dy="6" input="SourceAlpha"/>
      <feGaussianBlur stdDeviation="3" result="blur-2"/>
      <feFlood flood-opacity="0.161" result="color"/>
      <feComposite operator="out" in="SourceGraphic" in2="blur-2"/>
      <feComposite operator="in" in="color"/>
      <feComposite operator="in" in2="SourceGraphic"/>
    </filter>
    <clipPath id="clip-path">
      <rect id="Rectángulo_401455" data-name="Rectángulo 401455" width="31.037" height="44.554" fill="#12263f"/>
    </clipPath>
  </defs>
  <g id="Grupo_1100987" data-name="Grupo 1100987" transform="translate(-220.333 -804.564)">
    <g id="Grupo_1100018" data-name="Grupo 1100018" transform="translate(-692 416.897)">
      <g id="Grupo_1099492" data-name="Grupo 1099492" transform="translate(921.333 400.037)">
        <g data-type="innerShadowGroup">
          <g transform="matrix(1, 0, 0, 1, -9, -12.37)" filter="url(#Elipse_11501)">
            <ellipse id="Elipse_11501-3" data-name="Elipse 11501" cx="55.666" cy="56.329" rx="55.666" ry="56.329" transform="translate(9 12.37)" fill="#7ab8f5"/>
          </g>
          <g transform="matrix(1, 0, 0, 1, -9, -12.37)" filter="url(#Elipse_11501-2)">
            <ellipse id="Elipse_11501-4" data-name="Elipse 11501" cx="55.666" cy="56.329" rx="55.666" ry="56.329" transform="translate(9 12.37)" fill="#fff"/>
          </g>
        </g>
        <g id="especificaciones" transform="translate(26.24 19.363)">
          <g id="Grupo_1100100" data-name="Grupo 1100100">
            <path id="Trazado_883405" data-name="Trazado 883405" d="M123.8,86.8a3.139,3.139,0,0,1-3.132,3.132H68.079A3.139,3.139,0,0,1,64.947,86.8V27.258l0-.024c0-.016,0-.032,0-.048h0a.944.944,0,0,1,.017-.094v0a.984.984,0,0,1,.256-.465l8.465-10.257a.978.978,0,0,1,.757-.358V16h46.22a3.14,3.14,0,0,1,3.132,3.133Z" transform="translate(-64.947 -16)" fill="#121209" fill-rule="evenodd"/>
            <path id="Trazado_883406" data-name="Trazado 883406" d="M84.859,45.019h4.546a1.171,1.171,0,0,0,1.165-1.165V38.1Z" transform="translate(-81.792 -34.696)" fill="#cbcacd" fill-rule="evenodd"/>
            <path id="Trazado_883407" data-name="Trazado 883407" d="M86.5,28.776v7.191A3.139,3.139,0,0,1,83.369,39.1H77.723V97.609a1.171,1.171,0,0,0,1.165,1.164h52.59a1.171,1.171,0,0,0,1.165-1.164V29.941a1.171,1.171,0,0,0-1.165-1.165Z" transform="translate(-75.755 -26.808)" fill="#e6e4e5" fill-rule="evenodd"/>
            <path id="Trazado_883408" data-name="Trazado 883408" d="M269.26,93.979V29.941a1.171,1.171,0,0,0-1.165-1.165H243.744a48.375,48.375,0,0,0,25.516,65.2Z" transform="translate(-212.374 -26.808)" fill="#fff" fill-rule="evenodd"/>
            <path id="Trazado_883409" data-name="Trazado 883409" d="M123.638,419.171a.984.984,0,1,1,.7-.287A.984.984,0,0,1,123.638,419.171Z" transform="translate(-113.769 -355.407)" fill="#121209" fill-rule="evenodd"/>
            <path id="Trazado_883410" data-name="Trazado 883410" d="M123.638,375.484a.984.984,0,1,1,.7-.287A.984.984,0,0,1,123.638,375.484Z" transform="translate(-113.769 -318.449)" fill="#121209" fill-rule="evenodd"/>
            <path id="Trazado_883411" data-name="Trazado 883411" d="M123.638,288.109a.984.984,0,1,1,.7-.287A.984.984,0,0,1,123.638,288.109Z" transform="translate(-113.769 -244.532)" fill="#121209" fill-rule="evenodd"/>
            <path id="Trazado_883412" data-name="Trazado 883412" d="M123.638,331.8a.984.984,0,1,1,.7-.287A.984.984,0,0,1,123.638,331.8Z" transform="translate(-113.769 -281.491)" fill="#121209" fill-rule="evenodd"/>
            <path id="Trazado_883413" data-name="Trazado 883413" d="M162.879,331.8a.984.984,0,1,1,0-1.968h33.367a.984.984,0,1,1,0,1.968Z" transform="translate(-146.962 -281.491)" fill="#121209" fill-rule="evenodd"/>
            <path id="Trazado_883414" data-name="Trazado 883414" d="M162.879,288.109a.984.984,0,0,1,0-1.968h6.052a.984.984,0,0,1,0,1.968Z" transform="translate(-146.962 -244.532)" fill="#121209" fill-rule="evenodd"/>
            <path id="Trazado_883415" data-name="Trazado 883415" d="M229.36,288.109a.984.984,0,0,1,0-1.968h23.127a.984.984,0,0,1,0,1.968Z" transform="translate(-203.204 -244.532)" fill="#121209" fill-rule="evenodd"/>
            <path id="Trazado_883416" data-name="Trazado 883416" d="M162.879,419.172a.984.984,0,0,1,0-1.968h33.367a.984.984,0,0,1,0,1.968Z" transform="translate(-146.962 -355.408)" fill="#121209" fill-rule="evenodd"/>
            <path id="Trazado_883417" data-name="Trazado 883417" d="M162.879,375.484a.984.984,0,1,1,0-1.968h17.459a.984.984,0,1,1,0,1.968Z" transform="translate(-146.962 -318.449)" fill="#121209" fill-rule="evenodd"/>
            <path id="Trazado_883418" data-name="Trazado 883418" d="M301.739,375.484a.984.984,0,0,1,0-1.968h11.979a.984.984,0,0,1,0,1.968Z" transform="translate(-264.434 -318.449)" fill="#121209" fill-rule="evenodd"/>
          </g>
          <path id="Trazado_883419" data-name="Trazado 883419" d="M180.273,83.168h19.888a2.033,2.033,0,0,1,2.033,2.033v19.888a2.033,2.033,0,0,1-2.033,2.033H180.273a2.033,2.033,0,0,1-2.033-2.033V85.2A2.033,2.033,0,0,1,180.273,83.168Z" transform="translate(-160.79 -72.822)" fill="#121209"/>
          <path id="Trazado_883420" data-name="Trazado 883420" d="M204.6,95.944v6.274a.985.985,0,0,1-1.773.588l-1.8-2.176-1.832,2.215a.984.984,0,0,1-1.74-.626h0V95.944h-6.371l-.065.065V115.9l.065.065h19.888l.065-.065V96.009l-.065-.065Zm-10.756,18.133a.984.984,0,1,1,0-1.968h4.165a.984.984,0,0,1,0,1.968Z" transform="translate(-171.598 -83.63)" fill="#b28b4c" fill-rule="evenodd"/>
          <path id="Trazado_883421" data-name="Trazado 883421" d="M245.372,95.944v6.274a.985.985,0,0,1-1.773.588l-1.8-2.176-1.832,2.215a.955.955,0,0,1-.668.353c-.055.943-.086,1.892-.086,2.848a48.643,48.643,0,0,0,.452,6.61.98.98,0,0,1,.1.437.992.992,0,0,1-.015.172q.2,1.362.483,2.7h11.509l.065-.065V96.009l-.065-.065Z" transform="translate(-212.371 -83.631)" fill="#c99e5d" fill-rule="evenodd"/>
          <path id="Trazado_883422" data-name="Trazado 883422" d="M245.58,95.944v3.543l.979-1.155a.983.983,0,0,1,1.383.131l.847,1.025V95.945Z" transform="translate(-217.758 -83.631)" fill="#f1ac43" fill-rule="evenodd"/>
        </g>
      </g>
      <g id="Grupo_1099581" data-name="Grupo 1099581" transform="translate(921.333 387.667)">
        <g id="Grupo_1099580" data-name="Grupo 1099580">
          <g id="Grupo_1099579" data-name="Grupo 1099579" clip-path="url(#clip-path)">
            <path id="Trazado_877686" data-name="Trazado 877686" d="M15.267.015A15.245,15.245,0,0,1,23.2,2.055a15.579,15.579,0,0,1,6.07,20.827L16.279,43.988a1.615,1.615,0,0,1-.5.516.627.627,0,0,1-.341.041l-.032-.007c-.453-.1-.922-1.107-1.151-1.472L3.673,25.916C1.378,22.148.055,19.991.068,15.39a8.611,8.611,0,0,1,.05-1.352L.37,12.525A15.657,15.657,0,0,1,13.07.221a13.316,13.316,0,0,1,2.2-.206" transform="translate(-0.061 -0.004)" fill="#12263f"/>
          </g>
        </g>
        <circle id="Elipse_11513" data-name="Elipse 11513" cx="7.29" cy="7.29" r="7.29" transform="translate(7.952 7.068)" fill="#fff"/>
      </g>
    </g>
  </g>
</svg>
