<svg xmlns="http://www.w3.org/2000/svg" xmlns:xlink="http://www.w3.org/1999/xlink" width="190.051" height="190.001" viewBox="0 0 190.051 190.001">
  <defs>
    <clipPath id="clip-path">
      <rect id="Rect치ngulo_402428" data-name="Rect치ngulo 402428" width="190" height="137.415" transform="translate(0 0)" fill="none"/>
    </clipPath>
  </defs>
  <g id="Grupo_1100994" data-name="Grupo 1100994" transform="translate(-180 -1419)">
    <g id="Grupo_1100962" data-name="Grupo 1100962">
      <path id="Rect치ngulo_402249" data-name="Rect치ngulo 402249" d="M60,0h70a60,60,0,0,1,60,60V190a0,0,0,0,1,0,0H0a0,0,0,0,1,0,0V60A60,60,0,0,1,60,0Z" transform="translate(180.051 1419)" fill="#e8f57a"/>
      <g id="Grupo_1100961" data-name="Grupo 1100961" transform="translate(180 1471.585)">
        <g id="Grupo_1100960" data-name="Grupo 1100960" transform="translate(0 0.001)" clip-path="url(#clip-path)">
          <path id="Trazado_885940" data-name="Trazado 885940" d="M182.929,49.64A58.764,58.764,0,1,1,124.165,108.4,58.764,58.764,0,0,1,182.929,49.64" transform="translate(-87.842 -35.119)" fill="#d4f1f8" fill-rule="evenodd"/>
          <path id="Trazado_885941" data-name="Trazado 885941" d="M453.821,302.89c2.476-.7,4.412,1.317,9.235-.29,1.352-.451,2.6-.5,2.854-1.177a2.042,2.042,0,0,0,.047-1.636,5.134,5.134,0,0,0,.754-.28,46.107,46.107,0,0,0,4.458-2.423c.765-.572,2.6-1.4,2.128-2.679a1.6,1.6,0,0,0-.523-.723c.276-.154,1.706-.958,2.451-1.454a1.544,1.544,0,0,0-.538-2.743c.479-.572,1.165-1.87-.344-2.314-1.735-.51-4.5,1.569-5.017,1.946a8.076,8.076,0,0,1-2.165,1.015c-.878.286-3.527.97-3.527.97a.127.127,0,0,0-.075.017c-.374-.091-.968-.226-1.827-.4-1.652-.326-2.754-.45-3.4-.626s-2.9-1-2.9-1l-.092-.035c.141-.111.258-.209.341-.289.751-.726,1.327-.826,3.455-2.078a9.969,9.969,0,0,0,4.181-5.032,1.839,1.839,0,0,0-2.946-1.789c-1.106.679-2.594,1.991-4.064,2.915-1.752,1.1-3.258,2.706-5.082,3.179-2.442.634-7.78,5.032-8.514,7.469-5.668,1.47-9.4.116-13.828-.258l-6.567-12.772-17.844,1.685s6.558,15,9.59,19.614c1.547,2.68,3.244,4.5,5.6,5.311,7.2,2.491,16.256-.113,23.739-3.356,2.31.61,8.194-.14,10.43-.771" transform="translate(-286.141 -197.753)" fill="#ffc9a9" fill-rule="evenodd"/>
          <path id="Trazado_885942" data-name="Trazado 885942" d="M449.559,303c-6.535,2.233-19.238,6.547-25.145,1.665-2.771-2.606-8.015-13.229-9.53-16.48-.173.412-.455.409-.584.972,1.982,4.256,7.706,16.761,12.651,18.038a27,27,0,0,0,10.983.123,57.372,57.372,0,0,0,12.65-3.806c1.7.689,8.984-.13,10.94-.633,0,.007.655-.033.71-.026a19.888,19.888,0,0,0,7.424-.249c2.018-.407,3.878-1.251,3.859-2.529-.025-1.682-2.18-2.015-3.517-1.58a13.243,13.243,0,0,1-4.049.341,6.479,6.479,0,0,0,.469-.544c.847-1.1,5.234-5.175,4.12-6.977a11.794,11.794,0,0,1-2.3,3.824,29.634,29.634,0,0,0-2.371,2.731c-.938,1.223-2.169,1.607-3.1,2.752a4.163,4.163,0,0,0,1.986-.76c.531-.381,1.02-.227,1.721-.273a16.421,16.421,0,0,0,3.735-.417c.867-.282,2.73-.407,2.75.909.014.991-2.172,1.451-3.034,1.738-3.623.967-5.052.535-8.463.265-4.182,1.182-13.769,2.039-14.256-3.909-.517,3.01.732,3.844,2.349,4.823m-.277-10.486c2.192-4.772,7.44-7.139,10.889-8.592a25.277,25.277,0,0,0,5.268-3.387c1.033-.862,2.606-2.328,4.036-1.483.89.526,1.179,1.882.477,3.394-1.194,2.575-4.1,4.587-6.891,6.281a33.546,33.546,0,0,0,5.038,1.011l.659.129a18.553,18.553,0,0,0,2,.337l-.049.695a19.008,19.008,0,0,1-2.084-.348l-.659-.129a32.132,32.132,0,0,1-5.678-1.229c-.678.406-1.157.609-1.822,1.036-.356-2.148,7.187-3.55,9.115-8.09.489-1.152.3-2.2-.388-2.579-1.167-.648-2.611.754-3.433,1.439-4.332,3.611-9.668,5.016-13.594,8.941-.786.786-1.422,2.32-2.687,3.584-5.229,1.421-10.555-.294-13.242-.27-2.361.021-7.175,3.034-8.136,5.123.2-3,5.178-5.984,7.2-6.043a46.428,46.428,0,0,1-6.027-11.557q.75-.12,1.5-.209a45.523,45.523,0,0,0,5.418,11.787h0c5.027.038,7.66,1.426,13.093.16" transform="translate(-293.1 -197.24)" fill="#f5a475"/>
          <path id="Trazado_885943" data-name="Trazado 885943" d="M118.816,289.245c2.32-2.975,5.157-9.4,7.02-15.282l16.11,7.077c-2.063,4.592-6.111,13.39-8.308,16.732-1.547,2.68-3.05,5.2-5.464,5.819-7.078,1.829-16.766-.718-24.316-4.057-2.91-3.724-5.931-12.455-1.021-10.7,6.925,2.479,11.013.828,15.979.408" transform="translate(-70.911 -193.818)" fill="#ffc9a9" fill-rule="evenodd"/>
          <path id="Trazado_885944" data-name="Trazado 885944" d="M14.613,272.846a1.639,1.639,0,0,0-.8,1.907,8.546,8.546,0,0,0,2.829,4.136c2.136,1.769,2.489,2.512,3.343,5.012-.552,2.525-1.59,2.787-5.735,5.081,0,0-4.3,1.707-5.266,2.016s-3.069.98-3.614,1.108-3,.272-3.977,1.707.054,1.98.545,2.052a9.483,9.483,0,0,0,1.82-.189,1.142,1.142,0,0,0,.917.828,14.426,14.426,0,0,0,2.365.346c.582.036,1.583.088,2.671.13-.474,1.273.519,1.444.519,1.444a26.3,26.3,0,0,0,4.249.745,24.077,24.077,0,0,0,3.872.084c0,.032,0,.064,0,.1-.008.7.129,1.049.421,1.223a4.345,4.345,0,0,0,1.867.158,11.047,11.047,0,0,0,3.614-.309,9.814,9.814,0,0,0,2-.444c1.067-.109,2.5-.208,2.915-.263a9.568,9.568,0,0,0,4.622-1.589c1.925-1.38,2.824-2.988,2.824-4.4s-3.233-6.1-3.233-6.1a10.415,10.415,0,0,0-5.981-5.828h0a26.562,26.562,0,0,1-5.157-3.5c-2.073-1.728-4.988-6.589-7.624-5.449m.766,19.954a.447.447,0,0,0,.119-.083l.061.059Z" transform="translate(-0.697 -192.906)" fill="#ffc9a9" fill-rule="evenodd"/>
          <path id="Trazado_885945" data-name="Trazado 885945" d="M65.52,327.8a20.388,20.388,0,0,0,2.567,1.579c1.762.786,1.778.738,2.89,2.21a32.138,32.138,0,0,0-3.117-1.7,21.019,21.019,0,0,1-2.815-1.433,11.763,11.763,0,0,1-3.142-3.51l-.328-.864c1.617,1.174,2.078,2.515,3.944,3.721" transform="translate(-43.563 -229.275)" fill="#f5a475"/>
          <path id="Trazado_885946" data-name="Trazado 885946" d="M71.993,318.293c.012.012,4.566,4.421,6.244,4.945-1.968.3-6.645-3.678-6.244-4.945" transform="translate(-50.915 -225.18)" fill="#f5a475"/>
          <path id="Trazado_885947" data-name="Trazado 885947" d="M95.988,339.3c.213-1.17,1-1.49,1.968-1.8-1,1.274-1.625,1.819-1.418,4.637a2.993,2.993,0,0,1-.549-2.839" transform="translate(-67.82 -238.766)" fill="#f5a475"/>
          <path id="Trazado_885948" data-name="Trazado 885948" d="M230.353,167.724c-8.09.746-14.472,1.3-21.17.151-9.224-1.581-18.688-.49-22.149,8.236-1.26,3.176-2.6,7.777-4.284,11.985-2.613,6.542-5.874,12.182-5.8,12.7,5.63,7.133,11.53,9.09,17.477,10.945,0,.086-1.423,34.176-2.477,44.014h57.811c-.7-6.549-2.945-23-3.2-31.609-.205-7.008-2.575-13.078.81-13.87a42.616,42.616,0,0,0,17.273-8.883c-4.465-8.592-8.916-18.955-11.758-24.518-5.014-9.812-12.3-10.089-22.534-9.145" transform="translate(-125.183 -118.335)" fill="#6dacea" fill-rule="evenodd"/>
          <path id="Trazado_885949" data-name="Trazado 885949" d="M554.406,319.572c-.177.935-2.933,2.426-3.781,3.062-.985.739-6.169,1.838-7.313,1.22,1.151-.737,4.443-.592,6.491-1.607,1.162-.576,3.858-2.669,4.6-2.676" transform="translate(-384.371 -226.085)" fill="#f5a475"/>
          <path id="Trazado_885950" data-name="Trazado 885950" d="M569.564,320.27c-.485,1.94-5.976,5.43-7.978,9.63.257-4.18,8.291-9.8,7.978-9.63" transform="translate(-397.299 -226.575)" fill="#f5a475"/>
          <path id="Trazado_885951" data-name="Trazado 885951" d="M22.572,339.988c-1.584.453-2.987.91-4.6,1.218-1.436.093-2.9.213-4.331.163-.78-.027-2.383-.083-3.213.641a1.186,1.186,0,0,0-.44,1.077.875.875,0,0,0,.717.644,26.728,26.728,0,0,0,5.164.476l-.172.556a25.567,25.567,0,0,1-5.125-.491A1.42,1.42,0,0,1,9.438,343.2a1.728,1.728,0,0,1,.619-1.609c1-.869,2.745-.808,3.6-.778,1.342.047,2.913-.2,4.28-.288,1.44-.273,3.239-1.054,4.638-.537" transform="translate(-6.657 -240.406)" fill="#f5a475"/>
          <path id="Trazado_885952" data-name="Trazado 885952" d="M40.825,348.115c-2.211.309-4.369,1.612-7.567,1.108-.686-.046-2.7-.181-3.149.893s.267,1.011.269,1.012a23.846,23.846,0,0,0,4.212.74,26.367,26.367,0,0,0,3.959.115l-.084.694a27.532,27.532,0,0,1-8.2-.834c-.1-.021-1.357-.307-.669-1.942.607-1.441,2.913-1.286,3.7-1.234a12.385,12.385,0,0,0,3.7-.338,12.38,12.38,0,0,1,1.833-.438,2.733,2.733,0,0,1,2,.223" transform="translate(-20.793 -246.054)" fill="#f5a475"/>
          <path id="Trazado_885953" data-name="Trazado 885953" d="M25,298.991c1.924-.469,4.483-.193,6.5-1.154,1.641-.783,2.805-2.359,2.924-4.987.71.51-.047,3.977-1.244,4.93,7.424,2.143,18.544,6.421,24.276,3.488,3.78-1.934,8.738-11.893,10.631-15.956l1.112.35c-1.986,3.931-7.058,14.961-11.994,16.986-7.431,1.822-17.473-1.639-24.54-4.341-2.1,1.167-5.3,1.073-7.691,1.385a24.294,24.294,0,0,1-5.506.688c-1.2.017-2.354-.1-2.088-1.707.214-1.292,1.178-1.526,2.237-1.784s2-.705,3.057-1a3.476,3.476,0,0,1,2.237.009,11.12,11.12,0,0,0-2.189.735c-1.038.354-2.191.607-2.975.8-.871.212-1.665.4-1.818,1.332-.167,1.945,6.013.247,7.072.229m30.64-5.578c-1-2.181-5.7-5.216-8.178-5.226-5.265-.021-8.729,1.227-14.645.047-2.346-4.7-4.033-5.55-6.65-6.914a52.692,52.692,0,0,1-4.8-3.443,20.25,20.25,0,0,1-1.927-2c-1.412-1.59-3.006-3.384-4.486-3.546-2.155-.235-1.545,2.384-.651,3.692a10.223,10.223,0,0,0,1.824,2.016,10.1,10.1,0,0,1,2.209,2.3c1.514,2.359,1.965,3.258-.109,5.581-1.64,1.837-10.785,5.447-13.879,5.927a6.194,6.194,0,0,0-3.015.885c-1.905,1.572.084,2.322,1.67,2.005l.123.613a6.948,6.948,0,0,1-1.927-.025c-1.779-.263-1.314-2.21-.272-3.067a6.7,6.7,0,0,1,3.326-1.029c2.885-.446,12.056-4.1,13.509-5.726,3.4-3.8-2.053-6.436-3.919-9.163-.81-1.185-1.843-3.539-.038-4.378,3-1.18,5.846,3.761,7.917,5.488,5.846,4.874,7.45,2.88,11.75,10a27.852,27.852,0,0,0,5.129.436c.7,0,9.273-.618,9.289-.424,1.4-.7,7.534,2.613,7.752,5.95" transform="translate(0 -192.274)" fill="#f5a475"/>
          <path id="Trazado_885954" data-name="Trazado 885954" d="M161.62,299.084a38.2,38.2,0,0,0,5.947-11.3l.744.795a36.688,36.688,0,0,1-5.705,10.332Z" transform="translate(-114.34 -203.599)" fill="#f5a475"/>
          <path id="Trazado_885955" data-name="Trazado 885955" d="M602.441,332.439c.805-.421,1.628-.824,2.381-1.194a30.227,30.227,0,0,0,3.3-1.835c.773-.5,1.822-1.174,1.512-2.007a1.546,1.546,0,0,0-.067-.153c-.554-1.1-2.047-.544-2.945-.093-.764.385-1.643.863-2.319,1.231-3.1,1.686-4.026,1.106-6.758,1.653l.253-.906c2.66-.532,3.124.306,6.157-1.345,1.343-.58,4.615-3.125,6.108-.792a2.076,2.076,0,0,1,.091.209c.467,1.254-.8,2.069-1.732,2.67a30.742,30.742,0,0,1-3.359,1.865c-.748.367-1.564.767-2.368,1.187Z" transform="translate(-422.742 -230.655)" fill="#f5a475"/>
          <path id="Trazado_885956" data-name="Trazado 885956" d="M614.992,316.211c1-.545,2.824-1.3,2.981-2.514a1.178,1.178,0,0,0-.477-1.087c-.336-.235-.789-.2-1.5-.03a17.573,17.573,0,0,0-4.516,2.051,7.042,7.042,0,0,1-1.815,1.032h0c-.749-.009-3.067.405-3.929.538l.117-.584a32.215,32.215,0,0,1,3.856-.652,6.942,6.942,0,0,0,1.48-.81,17.8,17.8,0,0,1,4.61-2.237,2.426,2.426,0,0,1,2.018.235,1.647,1.647,0,0,1,.594.761,1.936,1.936,0,0,1,.107.946c-.195,1.512-2.039,2.263-3.262,2.931Z" transform="translate(-428.532 -220.595)" fill="#f5a475"/>
          <path id="Trazado_885957" data-name="Trazado 885957" d="M607.125,308.345c.008,0,2.442-.56,3.323-.847,2.288-.747,5.238-3.584,7.347-2.964a1.518,1.518,0,0,1,.54,2.682l-.652-.107c.718-.632,1.081-1.71-.045-2.041-1.779-.523-4.963,2.289-7.018,2.96-.874.285-3.49,1.014-3.5,1.016Z" transform="translate(-429.515 -215.384)" fill="#f5a475"/>
          <path id="Trazado_885958" data-name="Trazado 885958" d="M309.18,119.609c-.488-2.056-3.748-2.772-11.544-2.438-3.642.156-7.57,1.41-7.63,2.881l-.427,10.337c-2.221,15.842,21.1,16.849,20.344.933Z" transform="translate(-204.76 -82.839)" fill="#ffc9a9" fill-rule="evenodd"/>
          <path id="Trazado_885959" data-name="Trazado 885959" d="M254.11,45.406a72.991,72.991,0,0,0-.386,8.616,1.77,1.77,0,0,0-1.924-.763c-5.941,1.324-2.661,11.964,4.071,9.226,1.287,1.287,2.946,5.617,6.269,9.321,10.775,8.375,20.065,1.544,23.2-10.143,9.483,3.385,7.5-13.613,1.549-8.118a59.206,59.206,0,0,0-.96-9.238c-.613-3.865-.151-9.112-2.617-11.374-3.012-2.763-9.313-2.17-13.8-2.812-8.058,1.728-14.631,6.626-15.4,15.284" transform="translate(-175.944 -21.31)" fill="#ffc9a9" fill-rule="evenodd"/>
          <path id="Trazado_885960" data-name="Trazado 885960" d="M293.768,37.195c-2.953.2-3.824,4.048-3.839,3.967.045-4,.028-18.337-2.328-20.848-3.7,2.2-10.3,2.311-15.651,2.2-4.039-.084-7.364-.292-8.186.184-2.106,1.219-2.512,17.708-3.252,20.542-.518-.138-.957-3.4-2.778-4.963-1.56-.575-3.18-5.53-2.557-10.381a16.365,16.365,0,0,1,1.835-5.088,4.814,4.814,0,0,0-.08-4.222c6.054-12.218,33.1-13.453,34-2.753,6.361,7.751,5.71,10.977,2.834,21.361" transform="translate(-180.432 -6.05)" fill="#1d3663" fill-rule="evenodd"/>
          <path id="Trazado_885961" data-name="Trazado 885961" d="M326.1,95.24c1.168,2.087.295,3.237-.2,3.686-.827.757-.28,1.283.5.9,1.182-.582,2.6-1.876.944-4.991-1.74-3.283-2.9-5.737-1.256-9.567.137-.711-3.967,2.879.006,9.973" transform="translate(-229.471 -60.261)" fill="#f5a475" fill-rule="evenodd"/>
          <path id="Trazado_885962" data-name="Trazado 885962" d="M297.253,77.983a8.665,8.665,0,0,1-3.157.372c-1.415-.107-3.456.015-1.493,1.01,4.931,2.5,6.891-1.794,4.65-1.383" transform="translate(-206.431 -55.15)" fill="#1d3663" fill-rule="evenodd"/>
          <path id="Trazado_885963" data-name="Trazado 885963" d="M347.758,100.481a1.525,1.525,0,0,1-1.459,1.55,1.459,1.459,0,0,1-1.582-1.363,1.526,1.526,0,0,1,1.456-1.552,1.461,1.461,0,0,1,1.586,1.364" transform="translate(-243.872 -70.119)" fill="#1d3663" fill-rule="evenodd"/>
          <path id="Trazado_885964" data-name="Trazado 885964" d="M301.573,100.658a1.524,1.524,0,0,1-1.459,1.55,1.458,1.458,0,0,1-1.582-1.363,1.524,1.524,0,0,1,1.457-1.551,1.458,1.458,0,0,1,1.584,1.364" transform="translate(-211.198 -70.244)" fill="#1d3663" fill-rule="evenodd"/>
          <path id="Trazado_885965" data-name="Trazado 885965" d="M318.638,149.376c-11.271.472.306-3.185,3.561-1.134,1.391,1.669-1.771,1.06-3.561,1.134" transform="translate(-222.01 -104.43)" fill="#1d3663" fill-rule="evenodd"/>
          <path id="Trazado_885966" data-name="Trazado 885966" d="M379.8,117.35c1.359,1.568,2.7.2,2.036.112-1.531-.21-1.892-.816-1.728-2.346a6.431,6.431,0,0,1,.7-2.328c.733-1.076.049-.968-.434-.326-.88,1.167-1.455,3.874-.575,4.889" transform="translate(-268.38 -79.22)" fill="#f5a475" fill-rule="evenodd"/>
          <path id="Trazado_885967" data-name="Trazado 885967" d="M256.484,116.738c2.632.532,2.224,3.937.843,4.835-1.3.845,1.585.851,1.724-1.778.259-4.923-3.531-3.252-2.567-3.058" transform="translate(-181.341 -82.285)" fill="#f5a475" fill-rule="evenodd"/>
          <path id="Trazado_885968" data-name="Trazado 885968" d="M341.095,77.939c1.642.308,1.541.5,3.016.388,1.415-.105,3.256.217,1.634,1-5.262,2.55-7.022-1.837-4.65-1.391" transform="translate(-240.577 -55.117)" fill="#1d3663" fill-rule="evenodd"/>
          <path id="Trazado_885969" data-name="Trazado 885969" d="M308.109,168.194c-5.535,5-14.222,2.141-19.058-2.55,2.239,6.459,13.456,10.922,19.058,2.55" transform="translate(-204.492 -117.187)" fill="#f5a475" fill-rule="evenodd"/>
          <path id="Trazado_885970" data-name="Trazado 885970" d="M225.925,261.465c1.53,1.75,3.388,12.607,3.436,16.371.146,11.542-2.028,33.575-3.2,44.555h-1.3c.982-8.177,3.353-37.724,3.235-44.427a86.7,86.7,0,0,0-2.169-16.5" transform="translate(-159.079 -184.976)" fill="#3c65d1"/>
          <path id="Trazado_885971" data-name="Trazado 885971" d="M414.83,262.959c-.841,6.443-1.011,8.824-1.684,15.457-1.175,11.569,1.363,34.007,2.993,45.032h-1.369c-1.416-8.34-3.824-36.472-3.245-45.089.815-3.484,1.851-12.776,3.306-15.4" transform="translate(-291.074 -186.033)" fill="#3c65d1"/>
          <path id="Trazado_885972" data-name="Trazado 885972" d="M423.128,15.564l3.836.61c.428-2.693,4.768-2.472,5.414-6.536.477-3-1.895-5.119-5.705-5.725-3.429-.545-6.027.4-7.73,2.261l2.787,2.293a4.356,4.356,0,0,1,3.982-1.294c1.651.262,2.618,1.223,2.42,2.468-.351,2.21-4.439,2.368-5,5.924m.917,6.683a2.364,2.364,0,0,0,2.806-1.924,2.476,2.476,0,0,0-4.878-.775,2.364,2.364,0,0,0,2.072,2.7" transform="translate(-296.385 -2.659)" fill="#6dacea"/>
          <path id="Trazado_885973" data-name="Trazado 885973" d="M167.4,17.326l4.752-2.442c-1.715-3.336,3.281-6.62.692-11.655-1.909-3.713-6.265-4.139-10.985-1.713-4.248,2.184-6.365,5.341-6.738,8.795l4.956.277a5.992,5.992,0,0,1,3.366-4.674c2.045-1.051,3.9-.772,4.693.77,1.407,2.738-3,6.237-.735,10.642M173.849,24a3.252,3.252,0,0,0,1.549-4.416,3.406,3.406,0,0,0-6.042,3.106A3.252,3.252,0,0,0,173.849,24" transform="translate(-109.74 0)" fill="#3c65d1"/>
          <path id="Trazado_885974" data-name="Trazado 885974" d="M137.882,148.989l4.013-.049c-.034-2.817,4.425-3.35,4.373-7.6-.038-3.136-2.824-4.883-6.811-4.835-3.588.044-6.07,1.456-7.478,3.653L135.219,142a4.5,4.5,0,0,1,3.83-2.014c1.728-.021,2.881.789,2.9,2.091.028,2.313-4.108,3.187-4.063,6.908m2.1,6.647a2.443,2.443,0,0,0,2.522-2.45,2.559,2.559,0,0,0-5.1.062,2.443,2.443,0,0,0,2.581,2.388" transform="translate(-93.371 -96.57)" fill="#6dacea"/>
          <path id="Trazado_885975" data-name="Trazado 885975" d="M455.52,120.132l4.393,2.036c1.43-3.084,6.56-1.342,8.718-6,1.591-3.433-.531-6.785-4.894-8.808-3.928-1.821-7.364-1.576-10.041.082l2.563,3.7a5.431,5.431,0,0,1,5.217-.2c1.891.877,2.724,2.359,2.063,3.784-1.173,2.531-6.13,1.329-8.018,5.4m-1.174,8.327a2.948,2.948,0,0,0,4.02-1.353,3.087,3.087,0,0,0-5.586-2.59,2.947,2.947,0,0,0,1.565,3.942" transform="translate(-320.133 -75.06)" fill="#3c65d1"/>
          <path id="Trazado_885976" data-name="Trazado 885976" d="M51.621,335.686a22.994,22.994,0,0,0,3.031,1.343c2.081.624,2.1.574,3.414,1.943a37.343,37.343,0,0,0-3.681-1.414,24.765,24.765,0,0,1-3.325-1.174,11.191,11.191,0,0,1-3.71-3.221l-.387-.834c1.91,1.025,2.454,2.324,4.658,3.357" transform="translate(-33.224 -235.11)" fill="#f5a475"/>
        </g>
      </g>
    </g>
  </g>
</svg>
