<svg xmlns="http://www.w3.org/2000/svg" xmlns:xlink="http://www.w3.org/1999/xlink" width="124.011" height="125.273" viewBox="0 0 124.011 125.273">
  <defs>
    <filter id="Elipse_11501" x="0" y="0" width="124.011" height="125.273" filterUnits="userSpaceOnUse">
      <feOffset dy="3" input="SourceAlpha"/>
      <feGaussianBlur stdDeviation="3" result="blur"/>
      <feFlood flood-opacity="0.161"/>
      <feComposite operator="in" in2="blur"/>
      <feComposite in="SourceGraphic"/>
    </filter>
    <filter id="Elipse_11501-2" x="0" y="0" width="124.011" height="125.273" filterUnits="userSpaceOnUse">
      <feOffset dy="6" input="SourceAlpha"/>
      <feGaussianBlur stdDeviation="3" result="blur-2"/>
      <feFlood flood-opacity="0.161" result="color"/>
      <feComposite operator="out" in="SourceGraphic" in2="blur-2"/>
      <feComposite operator="in" in="color"/>
      <feComposite operator="in" in2="SourceGraphic"/>
    </filter>
  </defs>
  <g id="Grupo_1100988" data-name="Grupo 1100988" transform="translate(-580 -1828.564)">
    <g id="Grupo_1100245" data-name="Grupo 1100245" transform="translate(350.302 -1738.001)">
      <g data-type="innerShadowGroup">
        <g transform="matrix(1, 0, 0, 1, 229.7, 3566.57)" filter="url(#Elipse_11501)">
          <ellipse id="Elipse_11501-3" data-name="Elipse 11501" cx="53.005" cy="53.636" rx="53.005" ry="53.636" transform="translate(9 6)" fill="#a4a1c5"/>
        </g>
        <g transform="matrix(1, 0, 0, 1, 229.7, 3566.57)" filter="url(#Elipse_11501-2)">
          <ellipse id="Elipse_11501-4" data-name="Elipse 11501" cx="53.005" cy="53.636" rx="53.005" ry="53.636" transform="translate(9 6)" fill="#fff"/>
        </g>
      </g>
      <path id="informe" d="M103.365,1H63.822A3.524,3.524,0,0,0,61.28,2.053L49.911,13.422a3.523,3.523,0,0,0-1.053,2.542V68.931a3.6,3.6,0,0,0,3.594,3.594h50.913a3.6,3.6,0,0,0,3.594-3.594V4.594A3.6,3.6,0,0,0,103.365,1ZM61.676,4.831v7.877a1.111,1.111,0,0,1-1.11,1.11H52.689Zm43.04,64.1a1.352,1.352,0,0,1-1.35,1.35H52.452a1.352,1.352,0,0,1-1.35-1.35V16.062h9.464a3.358,3.358,0,0,0,3.354-3.354V3.244h39.446a1.352,1.352,0,0,1,1.35,1.35ZM87.437,41.942v-17.4a1.122,1.122,0,0,0-1.122-1.122H80.193a1.122,1.122,0,0,0-1.122,1.122v17.4a1.122,1.122,0,0,0,1.122,1.122h6.122a1.122,1.122,0,0,0,1.122-1.122ZM85.193,40.82H81.315V25.665h3.878ZM69.5,18.339a1.122,1.122,0,0,0-1.122,1.122V41.942A1.122,1.122,0,0,0,69.5,43.064h6.122a1.122,1.122,0,0,0,1.122-1.122V19.461a1.122,1.122,0,0,0-1.122-1.122Zm5,22.481H70.624V20.583H74.5Zm-15.69,2.244h6.122a1.122,1.122,0,0,0,1.122-1.122V31.278a1.122,1.122,0,0,0-1.122-1.122H58.812a1.122,1.122,0,0,0-1.122,1.122V41.942A1.122,1.122,0,0,0,58.812,43.064ZM59.934,32.4h3.878v8.42H59.934Zm37.072-18.85H90.884a1.122,1.122,0,0,0-1.122,1.122V41.942a1.122,1.122,0,0,0,1.122,1.122h6.122a1.122,1.122,0,0,0,1.122-1.122V14.673A1.122,1.122,0,0,0,97.006,13.551ZM95.884,40.82H92.006V15.795h3.878Zm-34.9-17.572,10.691-13.9A1.122,1.122,0,0,1,73.188,9.1l9.955,6.671L91.52,8.038l-1.675-.079a1.122,1.122,0,0,1,.105-2.242l4.507.212a1.122,1.122,0,0,1,1.051,1.321L94.7,11.69a1.122,1.122,0,1,1-2.208-.4l.239-1.317-8.718,8.049a1.122,1.122,0,0,1-1.386.108L72.812,11.55,62.762,24.616a1.122,1.122,0,1,1-1.779-1.368ZM76.121,48.667H59.811a2.123,2.123,0,0,0-2.121,2.121V64.621a2.123,2.123,0,0,0,2.121,2.121h16.31a2.123,2.123,0,0,0,2.121-2.121V50.788a2.123,2.123,0,0,0-2.121-2.121Zm-9.993,2.244H69.8v1.361l-.847-.694a1.568,1.568,0,0,0-1.983,0l-.847.694ZM76,64.5H59.934V50.911h3.95v2.8a1.563,1.563,0,0,0,2.555,1.209l1.527-1.252,1.527,1.252a1.563,1.563,0,0,0,2.555-1.209v-2.8H76ZM66.206,58.72h-4.4a1.122,1.122,0,0,0-1.122,1.122v2.781a1.122,1.122,0,0,0,1.122,1.122h4.4a1.122,1.122,0,0,0,1.122-1.122V59.842A1.122,1.122,0,0,0,66.206,58.72ZM65.084,61.5H62.931v-.537h2.153Zm33.044-3.8a1.122,1.122,0,0,1-1.122,1.122H82.532a1.122,1.122,0,0,1,0-2.244H97.006A1.122,1.122,0,0,1,98.128,57.7Zm0-5.437a1.122,1.122,0,0,1-1.122,1.122H82.532a1.122,1.122,0,0,1,0-2.244H97.006A1.122,1.122,0,0,1,98.128,52.268Zm0,10.874a1.122,1.122,0,0,1-1.122,1.122H82.532a1.122,1.122,0,0,1,0-2.244H97.006A1.122,1.122,0,0,1,98.128,63.142Z" transform="translate(213.795 3589.439)" fill="#12263f"/>
    </g>
  </g>
</svg>
