<svg xmlns="http://www.w3.org/2000/svg" xmlns:xlink="http://www.w3.org/1999/xlink" width="71.014" height="79.13" viewBox="0 0 71.014 79.13">
  <defs>
    <clipPath id="clip-path">
      <rect id="Rectángulo_401455" data-name="Rectángulo 401455" width="17.296" height="24.83" fill="#496f93"/>
    </clipPath>
  </defs>
  <g id="Grupo_1100991" data-name="Grupo 1100991" transform="translate(-226.052 -1903.537)">
    <g id="Grupo_1100016" data-name="Grupo 1100016" transform="translate(-38.949 -3856.711)">
      <g id="Grupo_1099581" data-name="Grupo 1099581" transform="translate(-1278.332 5425.581)">
        <g id="Grupo_1099580" data-name="Grupo 1099580" transform="translate(1543.333 334.667)">
          <g id="Grupo_1099579" data-name="Grupo 1099579" clip-path="url(#clip-path)">
            <path id="Trazado_877686" data-name="Trazado 877686" d="M8.537.01A8.5,8.5,0,0,1,12.96,1.147a8.682,8.682,0,0,1,3.383,11.607L9.1,24.516a.9.9,0,0,1-.276.287.35.35,0,0,1-.19.023l-.018,0c-.252-.055-.514-.617-.642-.82l-5.9-9.557C.8,12.345.059,11.143.066,8.579a4.8,4.8,0,0,1,.028-.753l.141-.843A8.726,8.726,0,0,1,7.312.125,7.421,7.421,0,0,1,8.537.01" transform="translate(-0.063 -0.005)" fill="#496f93"/>
          </g>
        </g>
        <circle id="Elipse_11513" data-name="Elipse 11513" cx="4.062" cy="4.062" r="4.062" transform="translate(1547.765 338.606)" fill="#e8f57a"/>
      </g>
      <g id="conflicto" transform="translate(278.297 5781.66)">
        <path id="Trazado_885221" data-name="Trazado 885221" d="M62.144,46.321a.846.846,0,0,0,.891-.092l6-4.669a.845.845,0,0,0,0-1.335l-6-4.669a.846.846,0,0,0-1.365.667v2.267h-5.6a.845.845,0,0,0-.845.845v3.113a.845.845,0,0,0,.845.845h5.6v2.267A.846.846,0,0,0,62.144,46.321ZM56.913,41.6V40.182h5.6a.845.845,0,0,0,.845-.845V37.953l3.78,2.94-3.78,2.94V42.449a.845.845,0,0,0-.845-.845Z" transform="translate(-48.997 -31.39)" fill="#12263f"/>
        <path id="Trazado_885222" data-name="Trazado 885222" d="M82.384,322.025H82.5a1.6,1.6,0,0,0,1.6-1.6v-.993a.845.845,0,0,0-1.691,0v.905h-.03a.846.846,0,0,0,0,1.691Z" transform="translate(-72.346 -282.669)" fill="#12263f"/>
        <path id="Trazado_885223" data-name="Trazado 885223" d="M17.647,265.368l-1.776-.444a1.115,1.115,0,0,0-1.7-.672,1.079,1.079,0,0,1-.22-.654v-.643a5.484,5.484,0,0,0,2.008-3.9c.2-3.145.125-1.954.282-4.415a5.774,5.774,0,0,0-9.972-4.318,5.718,5.718,0,0,0-1.551,4.318l.282,4.415A5.484,5.484,0,0,0,7,262.956v.643a1.079,1.079,0,0,1-.22.654,1.115,1.115,0,0,0-1.7.672l-1.776.444A4.355,4.355,0,0,0,0,269.6v7.638a.969.969,0,0,0,.968.968H19.982a.969.969,0,0,0,.968-.968v-2.4a.845.845,0,0,0-1.691,0v1.674H17.74v-3.6a.845.845,0,0,0-1.691,0v3.6H12.926V269.9a1.847,1.847,0,0,0,.759.28.846.846,0,0,0,.8-.578l1.009-3.028,1.74.435a2.666,2.666,0,0,1,2.022,2.59v1.3a.845.845,0,1,0,1.691,0v-1.3A4.355,4.355,0,0,0,17.647,265.368Zm-7.172-15.177a4.083,4.083,0,0,1,4.081,3.955,6.566,6.566,0,0,0-4.437-1.706H7.947a1.936,1.936,0,0,0-1.348.54,4.1,4.1,0,0,1,3.876-2.789ZM6.536,256.65c1.621-3.259,1.061-2.135,1.183-2.378a.254.254,0,0,1,.229-.142h2.172a4.879,4.879,0,0,1,4.294,2.529l-.146,2.289a3.8,3.8,0,0,1-7.585,0Zm5.736,7.244a2.766,2.766,0,0,0,.487,1.3l-2.283,1.522-2.283-1.522a2.766,2.766,0,0,0,.487-1.3,5.476,5.476,0,0,0,3.593,0Zm-3.478,3.73-1.035.517-.517-1.552Zm-7.1,1.974a2.666,2.666,0,0,1,2.023-2.59l1.74-.435L6.463,269.6a.845.845,0,0,0,1.18.489l.381-.191v6.614H4.9v-3.6a.845.845,0,0,0-1.691,0v3.6H1.691Zm8.025,6.915v-4.729h1.519v4.729Zm1.519-6.42H9.716v-1.039l.759-.38.759.38Zm1.957-1.952-1.035-.517,1.552-1.035Z" transform="translate(0 -220.487)" fill="#12263f"/>
        <path id="Trazado_885224" data-name="Trazado 885224" d="M408.54,322.025h.118a1.6,1.6,0,0,0,1.6-1.6v-.993a.845.845,0,0,0-1.691,0v.905h-.03a.846.846,0,0,0,0,1.691Z" transform="translate(-361.736 -282.669)" fill="#12263f"/>
        <path id="Trazado_885225" data-name="Trazado 885225" d="M343.8,265.368l-1.776-.444a1.115,1.115,0,0,0-1.7-.672,1.079,1.079,0,0,1-.22-.654v-.643a5.484,5.484,0,0,0,2.008-3.9l.282-4.415a5.774,5.774,0,1,0-11.524,0l.282,4.415a5.484,5.484,0,0,0,2.008,3.9v.643a1.079,1.079,0,0,1-.22.654,1.115,1.115,0,0,0-1.7.672l-1.776.444a4.355,4.355,0,0,0-3.3,4.231v7.638a.969.969,0,0,0,.968.968h19.015a.969.969,0,0,0,.968-.968V269.6a4.355,4.355,0,0,0-3.3-4.231Zm-6.412,4.726h-1.519v-1.039l.759-.38.759.38Zm-2.441-2.469-.287.143-.028.014-.72.36-.517-1.552Zm3.362,0,1.552-1.035-.517,1.552Zm-4.659-16.144a4.083,4.083,0,0,1,7.052,3.053v.023l-1.87-1.87a.846.846,0,0,0-.6-.248h-3.21a.846.846,0,0,0-.6.248l-1.87,1.87v-.023A4.042,4.042,0,0,1,333.654,251.48ZM332.7,256.8l2.675-2.675h2.509l2.675,2.675-.137,2.143a3.8,3.8,0,0,1-7.585,0Zm5.726,7.09a2.766,2.766,0,0,0,.487,1.3l-2.283,1.522-2.283-1.522a2.766,2.766,0,0,0,.487-1.3A5.475,5.475,0,0,0,338.428,263.895Zm-10.581,5.7a2.666,2.666,0,0,1,2.023-2.59l1.74-.435,1.009,3.028a.845.845,0,0,0,1.18.489l.381-.191v6.614h-3.124v-3.6a.845.845,0,0,0-1.691,0v3.6h-1.519Zm8.025,6.915v-4.729h1.519v4.729Zm9.544,0H343.9v-3.6a.845.845,0,0,0-1.691,0v3.6h-3.124V269.9l.381.191a.845.845,0,0,0,1.18-.489l1.009-3.028,1.74.435a2.666,2.666,0,0,1,2.022,2.59v6.915Z" transform="translate(-289.388 -220.487)" fill="#12263f"/>
        <path id="Trazado_885226" data-name="Trazado 885226" d="M26.787,8.063a.845.845,0,0,0-1.691,0v8.345a.907.907,0,0,1-.906.906H19.761a1.009,1.009,0,0,0-.718.3L12.755,23.9V18.329a1.016,1.016,0,0,0-1.015-1.015H2.6a.907.907,0,0,1-.906-.906V2.6A.907.907,0,0,1,2.6,1.691H24.19A.907.907,0,0,1,25.1,2.6V4.117a.845.845,0,0,0,1.691,0V2.6A2.6,2.6,0,0,0,24.19,0H2.6A2.6,2.6,0,0,0,0,2.6V16.408A2.6,2.6,0,0,0,2.6,19h8.467v6.527a1.015,1.015,0,0,0,1.733.718L20.041,19H24.19a2.6,2.6,0,0,0,2.6-2.6V8.063Z" transform="translate(0)" fill="#12263f"/>
        <path id="Trazado_885227" data-name="Trazado 885227" d="M338.553,35.465a.846.846,0,0,0-.891.092l-6,4.669a.845.845,0,0,0,0,1.335l6,4.669a.845.845,0,0,0,1.365-.667V43.295h5.6a.845.845,0,0,0,.845-.845V39.337a.845.845,0,0,0-.845-.845h-5.6V36.224A.846.846,0,0,0,338.553,35.465Zm5.231,4.717V41.6h-5.6a.845.845,0,0,0-.845.845v1.384l-3.78-2.94,3.78-2.94v1.384a.845.845,0,0,0,.845.845Z" transform="translate(-293.983 -31.391)" fill="#12263f"/>
        <path id="Trazado_885228" data-name="Trazado 885228" d="M298.573,0H276.98a2.6,2.6,0,0,0-2.6,2.6V16.408a2.6,2.6,0,0,0,2.6,2.6h4.149l3.225,3.226a.845.845,0,0,0,1.2-1.2l-3.423-3.423a1.009,1.009,0,0,0-.718-.3H276.98a.907.907,0,0,1-.906-.906V2.6a.907.907,0,0,1,.906-.906h21.593a.907.907,0,0,1,.906.906V16.408a.907.907,0,0,1-.906.906H289.43a1.016,1.016,0,0,0-1.015,1.015V23.9l-.041-.041a.845.845,0,1,0-1.2,1.2l1.195,1.195a1.015,1.015,0,0,0,1.733-.718V19h8.467a2.6,2.6,0,0,0,2.6-2.6V2.6a2.6,2.6,0,0,0-2.6-2.6Z" transform="translate(-243.452 0)" fill="#12263f"/>
        <path id="Trazado_885229" data-name="Trazado 885229" d="M237.1,193.277a2.4,2.4,0,0,0-2.4,2.4v3.113a2.4,2.4,0,1,0,4.8,0v-3.113a2.4,2.4,0,0,0-2.4-2.4Zm.711,5.514a.711.711,0,1,1-1.422,0v-3.113a.711.711,0,0,1,1.422,0Z" transform="translate(-208.237 -171.489)" fill="#12263f"/>
        <path id="Trazado_885230" data-name="Trazado 885230" d="M296.219,193.86a2.4,2.4,0,0,0,0-3.4l-2.2-2.2a2.4,2.4,0,1,0-3.4,3.4l2.2,2.2a2.4,2.4,0,0,0,3.4,0Zm-4.4-3.4a.711.711,0,1,1,1.005-1.005l2.2,2.2a.712.712,0,0,1,0,1.005h0a.71.71,0,0,1-1.005,0Z" transform="translate(-257.236 -166.415)" fill="#12263f"/>
        <path id="Trazado_885231" data-name="Trazado 885231" d="M162.862,188.272l-2.2,2.2a2.4,2.4,0,0,0,0,3.4h0a2.4,2.4,0,0,0,3.4,0l2.2-2.2a2.4,2.4,0,0,0-3.4-3.4Zm2.2,2.2-2.2,2.2a.711.711,0,0,1-1.005-1.005l2.2-2.2a.711.711,0,0,1,1.005,1.005Z" transform="translate(-141.926 -166.425)" fill="#12263f"/>
      </g>
    </g>
  </g>
</svg>
