<svg xmlns="http://www.w3.org/2000/svg" width="57" height="57" viewBox="0 0 57 57">
  <g id="Grupo_1100983" data-name="Grupo 1100983" transform="translate(-328.101 -2768)">
    <g id="Grupo_1098813" data-name="Grupo 1098813" transform="translate(-923.281 2355)">
      <g id="Grupo_1098742" data-name="Grupo 1098742" transform="translate(1251.383 413)">
        <rect id="Rectángulo_400898" data-name="Rectángulo 400898" width="57" height="57" rx="28.5" transform="translate(0)" fill="#e8f57a" opacity="0.859"/>
        <rect id="Rectángulo_400907" data-name="Rectángulo 400907" width="57" height="57" rx="28.5" fill="none"/>
      </g>
      <g id="codigo-de-vestimenta" transform="translate(1261.383 415.003)">
        <g id="Grupo_1100026" data-name="Grupo 1100026" transform="translate(15.541 8.997)">
          <path id="Trazado_883358" data-name="Trazado 883358" d="M292.582,85.013H278.122a.531.531,0,1,1,0-1.063h14.459a.555.555,0,0,0,.554-.554V60.683a.555.555,0,0,0-.554-.554h-1.639a.531.531,0,0,1,0-1.063h1.639a1.618,1.618,0,0,1,1.617,1.617V83.4A1.618,1.618,0,0,1,292.582,85.013Z" transform="translate(-273.465 -55.519)"/>
          <path id="Trazado_883359" data-name="Trazado 883359" d="M219.886,62.608a.531.531,0,0,1-.531-.531V60.683a1.618,1.618,0,0,1,1.617-1.617h1.639a.531.531,0,1,1,0,1.063h-1.639a.555.555,0,0,0-.554.554v1.394A.531.531,0,0,1,219.886,62.608Z" transform="translate(-219.355 -55.519)"/>
          <path id="Línea_606" data-name="Línea 606" d="M-6.969.59A.531.531,0,0,1-7.5.059V-6.969A.531.531,0,0,1-6.969-7.5a.531.531,0,0,1,.531.531V.059A.531.531,0,0,1-6.969.59Z" transform="translate(7.5 16.106)"/>
          <path id="Trazado_883360" data-name="Trazado 883360" d="M300.222,10.455a.531.531,0,0,1-.435-.226.4.4,0,0,0-.326-.17h-8.135a.4.4,0,0,0-.326.17.531.531,0,0,1-.869-.612A1.463,1.463,0,0,1,291.326,9h8.135a1.463,1.463,0,0,1,1.2.621.531.531,0,0,1-.434.837Z" transform="translate(-285.027 -8.997)"/>
          <path id="Trazado_883361" data-name="Trazado 883361" d="M260.618,14.578a.531.531,0,0,1,.421.207l3.891,5.059a.531.531,0,0,1,.006.64l-1.422,1.924a1.787,1.787,0,0,1-2.935-.089L257.9,18.57a.531.531,0,0,1,0-.621l2.284-3.152a.531.531,0,0,1,.423-.219Zm3.226,5.6L260.63,16l-1.642,2.266,2.469,3.458a.726.726,0,0,0,.621.349.717.717,0,0,0,.582-.294Z" transform="translate(-255.078 -14.183)"/>
          <path id="Trazado_883362" data-name="Trazado 883362" d="M375.81,14.578h.008a.531.531,0,0,1,.423.219l2.284,3.152a.531.531,0,0,1,0,.621l-2.691,3.769a1.786,1.786,0,0,1-2.922.069l-1.422-1.924a.531.531,0,0,1,.006-.64l3.891-5.059A.531.531,0,0,1,375.81,14.578Zm1.63,3.686L375.8,16l-3.213,4.178,1.184,1.6a.724.724,0,0,0,1.19-.036Z" transform="translate(-360.616 -14.183)"/>
          <path id="Trazado_883363" data-name="Trazado 883363" d="M326.848,85.988a.531.531,0,0,1,.421.207l.515.669.515-.669a.531.531,0,0,1,.849.008l1.422,1.924a.531.531,0,0,1-.01.645l-2.358,2.99a.531.531,0,0,1-.834,0l-2.358-2.99a.531.531,0,0,1-.01-.645l1.422-1.924a.531.531,0,0,1,.422-.216Zm.936,2.28a.531.531,0,0,1-.421-.207l-.506-.658-.762,1.031,1.69,2.142,1.69-2.142-.762-1.031-.506.658A.531.531,0,0,1,327.784,88.268Z" transform="translate(-317.418 -80.533)"/>
          <path id="Línea_607" data-name="Línea 607" d="M-6.969,11.625a.531.531,0,0,1-.531-.531V-6.969A.531.531,0,0,1-6.969-7.5a.531.531,0,0,1,.531.531V11.094A.531.531,0,0,1-6.969,11.625Z" transform="translate(17.335 17.869)"/>
          <path id="Trazado_883364" data-name="Trazado 883364" d="M397.025,195.534a1.984,1.984,0,0,1-.88-.207l-1.177-.586a1.583,1.583,0,0,1-.883-1.425V189.49a1.4,1.4,0,0,1,1.4-1.4h3.081a1.4,1.4,0,0,1,1.4,1.4v3.826a1.583,1.583,0,0,1-.883,1.425l-1.177.586A1.984,1.984,0,0,1,397.025,195.534Zm-1.54-6.38a.337.337,0,0,0-.337.337v3.826a.526.526,0,0,0,.294.474l1.177.586a.927.927,0,0,0,.812,0l1.177-.586a.526.526,0,0,0,.294-.474V189.49a.337.337,0,0,0-.337-.337Z" transform="translate(-381.706 -175.402)"/>
        </g>
        <g id="Grupo_1100027" data-name="Grupo 1100027" transform="translate(0 19.325)">
          <path id="Trazado_883365" data-name="Trazado 883365" d="M33.622,304.655H20.235a.531.531,0,0,1-.513-.393l-2.2-8.136a.531.531,0,0,1,1.026-.277l2.093,7.743H33.215l2.085-7.71a.531.531,0,1,1,1.026.277l-2.191,8.1A.531.531,0,0,1,33.622,304.655Z" transform="translate(-16.264 -285.489)"/>
          <path id="Trazado_883366" data-name="Trazado 883366" d="M38.825,416.862H29.542a.531.531,0,0,1,0-1.063h9.283a.522.522,0,0,0,.478-.733l-1.635-3.71H24.974l-1.635,3.71a.522.522,0,0,0,.478.733h3.065a.531.531,0,0,1,0,1.063H23.817a1.585,1.585,0,0,1-1.45-2.224l1.775-4.027a.531.531,0,0,1,.486-.317H38.014a.531.531,0,0,1,.486.317l1.775,4.027a1.585,1.585,0,0,1-1.45,2.224Z" transform="translate(-20.656 -392.19)"/>
          <path id="Trazado_883367" data-name="Trazado 883367" d="M4.674,236.574A4.68,4.68,0,0,1,0,231.9a2.24,2.24,0,0,1,2.237-2.237H5.228a7.029,7.029,0,0,1,5.88,3.163.531.531,0,0,1-.887.586,5.969,5.969,0,0,0-4.993-2.686H2.237A1.176,1.176,0,0,0,1.063,231.9a3.616,3.616,0,0,0,3.612,3.612.531.531,0,0,1,0,1.063Z" transform="translate(0 -224.357)"/>
          <path id="Trazado_883368" data-name="Trazado 883368" d="M149.548,236.574a.531.531,0,0,1,0-1.063,3.616,3.616,0,0,0,3.612-3.612,1.176,1.176,0,0,0-1.174-1.174h-2.991A5.969,5.969,0,0,0,144,233.412a.531.531,0,0,1-.887-.586,7.029,7.029,0,0,1,5.88-3.163h2.991a2.24,2.24,0,0,1,2.237,2.237A4.68,4.68,0,0,1,149.548,236.574Z" transform="translate(-132.893 -224.357)"/>
          <path id="Línea_608" data-name="Línea 608" d="M-6.969-1.131A.531.531,0,0,1-7.5-1.662V-6.969A.531.531,0,0,1-6.969-7.5a.531.531,0,0,1,.531.531v5.306A.531.531,0,0,1-6.969-1.131Z" transform="translate(9.934 7.5)"/>
          <path id="Línea_609" data-name="Línea 609" d="M-6.969-1.131A.531.531,0,0,1-7.5-1.662V-6.969A.531.531,0,0,1-6.969-7.5a.531.531,0,0,1,.531.531v5.306A.531.531,0,0,1-6.969-1.131Z" transform="translate(25.333 7.5)"/>
        </g>
      </g>
    </g>
  </g>
</svg>
