<svg xmlns="http://www.w3.org/2000/svg" xmlns:xlink="http://www.w3.org/1999/xlink" width="124.011" height="125.273" viewBox="0 0 124.011 125.273">
  <defs>
    <filter id="Elipse_11501" x="0" y="0" width="124.011" height="125.273" filterUnits="userSpaceOnUse">
      <feOffset dy="3" input="SourceAlpha"/>
      <feGaussianBlur stdDeviation="3" result="blur"/>
      <feFlood flood-opacity="0.161"/>
      <feComposite operator="in" in2="blur"/>
      <feComposite in="SourceGraphic"/>
    </filter>
    <filter id="Elipse_11501-2" x="0" y="0" width="124.011" height="125.273" filterUnits="userSpaceOnUse">
      <feOffset dy="6" input="SourceAlpha"/>
      <feGaussianBlur stdDeviation="3" result="blur-2"/>
      <feFlood flood-opacity="0.161" result="color"/>
      <feComposite operator="out" in="SourceGraphic" in2="blur-2"/>
      <feComposite operator="in" in="color"/>
      <feComposite operator="in" in2="SourceGraphic"/>
    </filter>
    <clipPath id="clip-path">
      <rect id="Rectángulo_402036" data-name="Rectángulo 402036" width="63" height="63" transform="translate(349.051 3050)" fill="#12263f" stroke="#707070" stroke-width="1"/>
    </clipPath>
  </defs>
  <g id="Grupo_1100991" data-name="Grupo 1100991" transform="translate(-318.051 -3022)">
    <g id="Grupo_1100097" data-name="Grupo 1100097">
      <g data-type="innerShadowGroup">
        <g transform="matrix(1, 0, 0, 1, 318.05, 3022)" filter="url(#Elipse_11501)">
          <ellipse id="Elipse_11501-3" data-name="Elipse 11501" cx="53.005" cy="53.636" rx="53.005" ry="53.636" transform="translate(9 6)" fill="#cae2fb"/>
        </g>
        <g transform="matrix(1, 0, 0, 1, 318.05, 3022)" filter="url(#Elipse_11501-2)">
          <ellipse id="Elipse_11501-4" data-name="Elipse 11501" cx="53.005" cy="53.636" rx="53.005" ry="53.636" transform="translate(9 6)" fill="#fff"/>
        </g>
      </g>
      <g id="Enmascarar_grupo_1098696" data-name="Enmascarar grupo 1098696" clip-path="url(#clip-path)">
        <path id="trazabilidad" d="M7.192,13.184a.983.983,0,0,1,.983-.983h9.763a.983.983,0,1,1,0,1.966H8.176a.982.982,0,0,1-.984-.983Zm.984,5.591h4.88a.983.983,0,0,0,0-1.966H8.176a.983.983,0,0,0,0,1.966Zm0,4.608h9.763a.983.983,0,0,0,0-1.966H8.176a.983.983,0,0,0,0,1.966Zm0,4.607h4.88a.983.983,0,0,0,0-1.966H8.176a.983.983,0,0,0,0,1.966Zm0,4.6h9.763a.983.983,0,1,0,0-1.966H8.176a.983.983,0,1,0,0,1.966ZM63,58.814v2.428A1.76,1.76,0,0,1,61.242,63h-12.2a1.76,1.76,0,0,1-1.758-1.758V58.814a6.516,6.516,0,0,1,3.474-5.775,5.482,5.482,0,1,1,8.765,0A6.515,6.515,0,0,1,63,58.814ZM51.629,49.753a3.514,3.514,0,1,0,3.512-3.512A3.516,3.516,0,0,0,51.629,49.753Zm9.4,9.061a4.557,4.557,0,0,0-3.125-4.334,5.468,5.468,0,0,1-5.53,0,4.557,4.557,0,0,0-3.124,4.332v2.219H61.032Zm-14.81-5.839a.983.983,0,0,1-.983.983H36.275a8.669,8.669,0,1,1,0-17.339H49.154a6.7,6.7,0,0,0,0-13.407H37.259v6.736a.983.983,0,0,1-.983.983H26.112v6.477A2.744,2.744,0,0,1,23.37,40.15H2.741A2.745,2.745,0,0,1,0,37.409V7.049A2.745,2.745,0,0,1,2.741,4.308H6.3A2.344,2.344,0,0,1,8.218,3.285h.872A4.126,4.126,0,0,1,13.055,0,4.125,4.125,0,0,1,17.02,3.285H17.9a2.342,2.342,0,0,1,1.921,1.023h3.552a2.745,2.745,0,0,1,2.741,2.741v6.477H36.274a.983.983,0,0,1,.983.983v6.736H49.151a8.671,8.671,0,0,1,0,17.342H36.275a6.7,6.7,0,1,0,0,13.4h8.964a.984.984,0,0,1,.983.984ZM26.648,19.7H30.46V15.494H26.648ZM23.369,6.275h-3.1V7.5c0,.052,0,.1-.007.154h1.521a.983.983,0,0,1,.983.983v4.89h1.378V7.049a.783.783,0,0,0-.774-.774ZM5.313,9.62V34.837H20.8V30.929a.983.983,0,0,1-.949-.982V14.51a.983.983,0,0,1,.949-.982V9.62H19.093a2.289,2.289,0,0,1-1.195.338H8.218A2.289,2.289,0,0,1,7.024,9.62Zm2.5-3.875V7.5a.461.461,0,0,0,.4.492H17.9a.461.461,0,0,0,.4-.492V5.745a.467.467,0,0,0-.4-.492H16.146a.983.983,0,0,1-.983-.983,2.213,2.213,0,0,0-2.107-2.3,2.213,2.213,0,0,0-2.107,2.3.983.983,0,0,1-.983.983H8.22a.467.467,0,0,0-.406.492ZM24.144,30.932H22.766v4.89a.983.983,0,0,1-.983.983H4.329a.983.983,0,0,1-.983-.983V8.637a.984.984,0,0,1,.983-.983H5.853c0-.05-.007-.1-.007-.154V6.275h-3.1a.784.784,0,0,0-.774.774V37.409a.784.784,0,0,0,.774.774H23.369a.784.784,0,0,0,.774-.774V30.932ZM35.291,15.494H32.428v5.19a.983.983,0,0,1-.983.983h-5.78a.984.984,0,0,1-.983-.983v-5.19H21.819v13.47H35.292V15.494Z" transform="translate(349.051 3050)" fill="#12263f"/>
      </g>
    </g>
  </g>
</svg>
