<svg xmlns="http://www.w3.org/2000/svg" xmlns:xlink="http://www.w3.org/1999/xlink" width="124.011" height="125.273" viewBox="0 0 124.011 125.273">
  <defs>
    <filter id="Elipse_11501" x="0" y="0" width="124.011" height="125.273" filterUnits="userSpaceOnUse">
      <feOffset dy="3" input="SourceAlpha"/>
      <feGaussianBlur stdDeviation="3" result="blur"/>
      <feFlood flood-opacity="0.161"/>
      <feComposite operator="in" in2="blur"/>
      <feComposite in="SourceGraphic"/>
    </filter>
    <filter id="Elipse_11501-2" x="0" y="0" width="124.011" height="125.273" filterUnits="userSpaceOnUse">
      <feOffset dy="6" input="SourceAlpha"/>
      <feGaussianBlur stdDeviation="3" result="blur-2"/>
      <feFlood flood-opacity="0.161" result="color"/>
      <feComposite operator="out" in="SourceGraphic" in2="blur-2"/>
      <feComposite operator="in" in="color"/>
      <feComposite operator="in" in2="SourceGraphic"/>
    </filter>
    <clipPath id="clip-path">
      <path id="path2100" d="M0-682.665H63.067V-619.6H0Z" transform="translate(0 682.665)" fill="#12263f"/>
    </clipPath>
  </defs>
  <g id="Grupo_1100990" data-name="Grupo 1100990" transform="translate(-1210 -1828.564)">
    <g id="Grupo_1100247" data-name="Grupo 1100247" transform="translate(980.302 -1738.001)">
      <g data-type="innerShadowGroup">
        <g transform="matrix(1, 0, 0, 1, 229.7, 3566.57)" filter="url(#Elipse_11501)">
          <ellipse id="Elipse_11501-3" data-name="Elipse 11501" cx="53.005" cy="53.636" rx="53.005" ry="53.636" transform="translate(9 6)" fill="#a4a1c5"/>
        </g>
        <g transform="matrix(1, 0, 0, 1, 229.7, 3566.57)" filter="url(#Elipse_11501-2)">
          <ellipse id="Elipse_11501-4" data-name="Elipse 11501" cx="53.005" cy="53.636" rx="53.005" ry="53.636" transform="translate(9 6)" fill="#fff"/>
        </g>
      </g>
      <g id="g2094" transform="translate(260.17 4277.333)">
        <g id="g2096" transform="translate(0 -682.665)">
          <g id="g2098" transform="translate(0 0)" clip-path="url(#clip-path)">
            <g id="g2104" transform="translate(7.787 4.275)">
              <path id="path2106" d="M-394.174-567.594h-36.861a.924.924,0,0,1-.924-.924.924.924,0,0,1,.924-.924h36.861a1.25,1.25,0,0,0,1.249-1.249V-587.5a.924.924,0,0,1,.924-.924.924.924,0,0,1,.924.924v16.814a3.1,3.1,0,0,1-3.095,3.1Zm-39.173-1.83a.924.924,0,0,1-.911-.779,3.12,3.12,0,0,1-.038-.487v-52.6a3.1,3.1,0,0,1,3.1-3.1h37.026a3.1,3.1,0,0,1,3.1,3.1v32.552a.924.924,0,0,1-.924.924.924.924,0,0,1-.924-.924V-623.29a1.25,1.25,0,0,0-1.249-1.249H-431.2a1.25,1.25,0,0,0-1.249,1.249v52.6a1.269,1.269,0,0,0,.016.2.924.924,0,0,1-.768,1.057A.931.931,0,0,1-433.347-569.424Z" transform="translate(434.296 626.386)" fill="#12263f"/>
            </g>
            <g id="g2108" transform="translate(31.878 13.347)">
              <path id="path2110" d="M-125.786-16.885H-137.73a.859.859,0,0,1-.859-.859.859.859,0,0,1,.859-.859h11.944a.859.859,0,0,1,.859.859.859.859,0,0,1-.859.859" transform="translate(138.589 18.604)" fill="#12263f"/>
            </g>
            <g id="g2112" transform="translate(31.878 17.367)">
              <path id="path2114" d="M-125.786-16.884H-137.73a.859.859,0,0,1-.859-.859.859.859,0,0,1,.859-.859h11.944a.859.859,0,0,1,.859.859.859.859,0,0,1-.859.859" transform="translate(138.589 18.603)" fill="#12263f"/>
            </g>
            <g id="g2116" transform="translate(31.878 21.386)">
              <path id="path2118" d="M-125.786-16.885H-137.73a.859.859,0,0,1-.859-.859.859.859,0,0,1,.859-.859h11.944a.859.859,0,0,1,.859.859.859.859,0,0,1-.859.859" transform="translate(138.589 18.604)" fill="#12263f"/>
            </g>
            <g id="g2120" transform="translate(32.719 43.821)">
              <path id="path2122" d="M-117.526-16.884h-11.1a.859.859,0,0,1-.859-.859.859.859,0,0,1,.859-.859h11.1a.859.859,0,0,1,.859.859.859.859,0,0,1-.859.859" transform="translate(129.489 18.603)" fill="#12263f"/>
            </g>
            <g id="g2124" transform="translate(13.251 35.436)">
              <path id="path2126" d="M-125.786-16.885H-137.73a.859.859,0,0,1-.859-.859.859.859,0,0,1,.859-.859h11.944a.859.859,0,0,1,.859.859.859.859,0,0,1-.859.859" transform="translate(138.589 18.604)" fill="#12263f"/>
            </g>
            <g id="g2128" transform="translate(13.251 31.416)">
              <path id="path2130" d="M-125.786-16.884H-137.73a.859.859,0,0,1-.859-.859.859.859,0,0,1,.859-.859h11.944a.859.859,0,0,1,.859.859.859.859,0,0,1-.859.859" transform="translate(138.589 18.603)" fill="#12263f"/>
            </g>
            <g id="g2132" transform="translate(20.31 8.954)">
              <path id="path2134" d="M-9.076-10A8.916,8.916,0,0,1-.17-1.094a.924.924,0,0,1-.924.924H-9.076A.924.924,0,0,1-10-1.094V-9.076A.924.924,0,0,1-9.076-10Zm7,7.982A7.074,7.074,0,0,0-8.152-8.092v6.074Z" transform="translate(10 10)" fill="#12263f"/>
            </g>
            <g id="g2136" transform="translate(12.328 8.954)">
              <path id="path2138" d="M-87.5-10a.924.924,0,0,1,.924.924v7.058h7.058a.924.924,0,0,1,.924.924A8.916,8.916,0,0,1-87.5,7.812,8.916,8.916,0,0,1-96.4-1.094,8.916,8.916,0,0,1-87.5-10Zm7,9.83h-7a.924.924,0,0,1-.924-.924v-7a7.069,7.069,0,0,0-6.134,7A7.066,7.066,0,0,0-87.5,5.964,7.069,7.069,0,0,0-80.5-.17Z" transform="translate(96.401 10)" fill="#12263f"/>
            </g>
            <g id="g2140" transform="translate(29.121 28.664)">
              <path id="path2142" d="M-155.681-100.454h-14.35a1.5,1.5,0,0,1-1.5-1.5v-8.25a1.5,1.5,0,0,1,1.5-1.5h14.35a1.5,1.5,0,0,1,1.5,1.5v8.25A1.5,1.5,0,0,1-155.681-100.454Zm-14-1.848h13.648v-7.548H-169.68Z" transform="translate(171.528 111.697)" fill="#12263f"/>
            </g>
            <g id="g2144" transform="translate(12.327 41.398)">
              <path id="path2146" d="M-39.365-142.523h-2.51a1.5,1.5,0,0,1-1.5-1.5v-12.531a1.5,1.5,0,0,1,1.5-1.5h2.51a1.5,1.5,0,0,1,1.5,1.5v12.531A1.5,1.5,0,0,1-39.365-142.523Zm-2.159-1.848h1.808V-156.2h-1.808Z" transform="translate(43.372 158.048)" fill="#12263f"/>
            </g>
            <g id="g2148" transform="translate(19.148 44.686)">
              <path id="path2150" d="M-39.365-110.22h-2.51a1.5,1.5,0,0,1-1.5-1.5v-9.243a1.5,1.5,0,0,1,1.5-1.5h2.51a1.5,1.5,0,0,1,1.5,1.5v9.243A1.5,1.5,0,0,1-39.365-110.22Zm-2.159-1.848h1.808v-8.542h-1.808Z" transform="translate(43.372 122.457)" fill="#12263f"/>
            </g>
            <g id="g2152" transform="translate(25.968 48.783)">
              <path id="path2154" d="M-39.366-69.974h-2.51a1.5,1.5,0,0,1-1.5-1.5v-5.147a1.5,1.5,0,0,1,1.5-1.5h2.51a1.5,1.5,0,0,1,1.5,1.5v5.147A1.5,1.5,0,0,1-39.366-69.974Zm-2.159-1.848h1.808v-4.445h-1.808Z" transform="translate(43.373 78.114)" fill="#12263f"/>
            </g>
            <g id="g2156" transform="translate(32.719 48.043)">
              <path id="path2158" d="M-117.526-16.884h-11.1a.859.859,0,0,1-.859-.859.859.859,0,0,1,.859-.859h11.1a.859.859,0,0,1,.859.859.859.859,0,0,1-.859.859" transform="translate(129.489 18.603)" fill="#12263f"/>
            </g>
            <g id="g2160" transform="translate(32.719 52.266)">
              <path id="path2162" d="M-117.526-16.884h-11.1a.859.859,0,0,1-.859-.859.859.859,0,0,1,.859-.859h11.1a.859.859,0,0,1,.859.859.859.859,0,0,1-.859.859" transform="translate(129.489 18.603)" fill="#12263f"/>
            </g>
            <g id="g2164" transform="translate(12.062 0)">
              <path id="path2166" d="M-431.2-10h37.026a3.1,3.1,0,0,1,3.1,3.1V-.781A.924.924,0,0,1-392,.143a.924.924,0,0,1-.924-.924V-6.9a1.25,1.25,0,0,0-1.249-1.249H-431.2A1.25,1.25,0,0,0-432.449-6.9v1.179h34a3.1,3.1,0,0,1,3.1,3.1v12.4a.924.924,0,0,1-.924.924.924.924,0,0,1-.924-.924v-12.4a1.25,1.25,0,0,0-1.249-1.249h-34.923A.924.924,0,0,1-434.3-4.8V-6.9A3.1,3.1,0,0,1-431.2-10ZM-392,1.529a.924.924,0,0,1,.924.924V39.406c0,.017,0,.034,0,.051s0,.034,0,.051V45.7a3.1,3.1,0,0,1-3.1,3.1h-2.1a.924.924,0,0,1-.924-.924V13.01a.924.924,0,0,1,.924-.924.924.924,0,0,1,.924.924V46.944h1.179a1.25,1.25,0,0,0,1.249-1.249V39.508c0-.017,0-.034,0-.051s0-.034,0-.051V2.453A.924.924,0,0,1-392,1.529Z" transform="translate(434.296 10)" fill="#12263f"/>
            </g>
          </g>
        </g>
      </g>
    </g>
  </g>
</svg>
