<svg xmlns="http://www.w3.org/2000/svg" xmlns:xlink="http://www.w3.org/1999/xlink" width="99.032" height="103" viewBox="0 0 99.032 103">
  <defs>
    <filter id="Elipse_11501" x="0" y="3.003" width="99.032" height="99.997" filterUnits="userSpaceOnUse">
      <feOffset dy="3" input="SourceAlpha"/>
      <feGaussianBlur stdDeviation="3" result="blur"/>
      <feFlood flood-opacity="0.161"/>
      <feComposite operator="in" in2="blur"/>
      <feComposite in="SourceGraphic"/>
    </filter>
    <filter id="Elipse_11501-2" x="0" y="3.003" width="99.032" height="99.997" filterUnits="userSpaceOnUse">
      <feOffset dy="6" input="SourceAlpha"/>
      <feGaussianBlur stdDeviation="3" result="blur-2"/>
      <feFlood flood-opacity="0.161" result="color"/>
      <feComposite operator="out" in="SourceGraphic" in2="blur-2"/>
      <feComposite operator="in" in="color"/>
      <feComposite operator="in" in2="SourceGraphic"/>
    </filter>
    <clipPath id="clip-path">
      <path id="path285" d="M0-682.665H61.665V-621H0Z" transform="translate(0 682.665)"/>
    </clipPath>
    <clipPath id="clip-path-2">
      <rect id="Rectángulo_401455" data-name="Rectángulo 401455" width="22.59" height="32.428" fill="#12263f"/>
    </clipPath>
  </defs>
  <g id="Grupo_1100995" data-name="Grupo 1100995" transform="translate(-1329.968 -3637)">
    <g id="Grupo_1100125" data-name="Grupo 1100125" transform="translate(417.635 3249.333)">
      <g id="Grupo_1099492" data-name="Grupo 1099492" transform="translate(921.333 396.67)">
        <g data-type="innerShadowGroup">
          <g transform="matrix(1, 0, 0, 1, -9, -9)" filter="url(#Elipse_11501)">
            <ellipse id="Elipse_11501-3" data-name="Elipse 11501" cx="40.516" cy="40.998" rx="40.516" ry="40.998" transform="translate(9 9)" fill="#e8f57a"/>
          </g>
          <g transform="matrix(1, 0, 0, 1, -9, -9)" filter="url(#Elipse_11501-2)">
            <ellipse id="Elipse_11501-4" data-name="Elipse 11501" cx="40.516" cy="40.998" rx="40.516" ry="40.998" transform="translate(9 9)" fill="#fff"/>
          </g>
        </g>
        <g id="g279" transform="translate(9.684 695.162)">
          <g id="g281" transform="translate(0 -682.665)">
            <g id="g283" clip-path="url(#clip-path)">
              <g id="g289" transform="translate(9.756 17.911)">
                <path id="path291" d="M-57.45-230.87l-2.277-2.277a6.954,6.954,0,0,1-1.855-3.749,5.5,5.5,0,0,0-1.572-3.509l13.42-13.391a4.3,4.3,0,0,0,3.468,1.516,5.607,5.607,0,0,1,3.791,1.911l.347.346,3.83,7.661,15.321,15.321a2.708,2.708,0,0,1,0,3.83,2.708,2.708,0,0,1-3.83,0,2.708,2.708,0,0,1,0,3.83,2.708,2.708,0,0,1-3.83,0,2.709,2.709,0,0,1,0,3.83,2.708,2.708,0,0,1-3.83,0l-1.915-1.915a2.708,2.708,0,0,1,0,3.83,2.708,2.708,0,0,1-3.83,0l-1.915-1.915Z" transform="translate(63.155 253.795)" fill="#ffeee6"/>
              </g>
              <g id="g293" transform="translate(34.134 49.988)">
                <path id="path295" d="M-60.485-42.837-64.4-46.753c-1.129-1.086-2.815.69-1.746,1.861l3.967,3.97a2.708,2.708,0,0,0,3.83,0,2.706,2.706,0,0,0,.75-2.4h0a1.8,1.8,0,0,1-2.881.485" transform="translate(66.492 47.091)" fill="#ffdfcf"/>
              </g>
              <g id="g297" transform="translate(37.964 46.158)">
                <path id="path299" d="M-60.485-42.837-64.4-46.753c-1.129-1.086-2.815.691-1.746,1.861l3.967,3.97a2.708,2.708,0,0,0,3.83,0,2.706,2.706,0,0,0,.75-2.4h0a1.8,1.8,0,0,1-2.881.485" transform="translate(66.492 47.091)" fill="#ffdfcf"/>
              </g>
              <g id="g301" transform="translate(41.794 42.328)">
                <path id="path303" d="M-60.485-42.837-64.4-46.753c-1.129-1.086-2.815.691-1.746,1.861l3.967,3.97a2.708,2.708,0,0,0,3.83,0,2.706,2.706,0,0,0,.75-2.4h0a1.8,1.8,0,0,1-2.881.485" transform="translate(66.491 47.091)" fill="#ffdfcf"/>
              </g>
              <g id="g305" transform="translate(16.466 17.911)">
                <path id="path307" d="M-67.65-.074l-.008-.007-6.71,6.7,6.71-6.7.008.007" transform="translate(74.368 0.081)" fill="#ffeee6"/>
              </g>
              <g id="g309" transform="translate(23.248 17.978)">
                <path id="path311" d="M0,0,.008.008Z" fill="#ffeee6"/>
              </g>
              <g id="g313" transform="translate(23.21 17.943)">
                <path id="path315" d="M0,0,.013.012,0,0" fill="#ffeee6"/>
              </g>
              <g id="g317" transform="translate(9.756 31.302)">
                <path id="path319" d="M0,0H0Z" fill="#ffeee6"/>
              </g>
              <g id="g321" transform="translate(23.329 18.054)">
                <path id="path323" d="M0,0,0,0,0,0" fill="#ffeee6"/>
              </g>
              <g id="g325" transform="translate(46.102 48.497)">
                <path id="path327" d="M0,0H0" fill="#ffeee6"/>
              </g>
              <g id="g329" transform="translate(42.272 52.327)">
                <path id="path331" d="M0,0H0" fill="#ffeee6"/>
              </g>
              <g id="g333" transform="translate(36.527 54.242)">
                <path id="path335" d="M0,0H0" fill="#ffeee6"/>
              </g>
              <g id="g337" transform="translate(23.184 17.918)">
                <path id="path339" d="M0,0,.026.025,0,0" fill="#ffdfcf"/>
              </g>
              <g id="g341" transform="translate(23.256 17.986)">
                <path id="path343" d="M0,0,.073.067,0,0" fill="#ffdfcf"/>
              </g>
              <g id="g345" transform="translate(23.332 18.056)">
                <path id="path347" d="M-20.787-12.538a4.6,4.6,0,0,1-2.064-1.245,4.6,4.6,0,0,0,2.063,1.246Z" transform="translate(22.851 13.783)" fill="#ffdfcf"/>
              </g>
              <g id="g349" transform="translate(9.756 24.607)">
                <path id="path351" d="M0-67.427H0l6.71-6.7Z" transform="translate(0 74.122)" fill="#ffdfcf"/>
              </g>
              <g id="g353" transform="translate(23.223 17.955)">
                <path id="path355" d="M0,0,.025.023,0,0" fill="#ffdfcf"/>
              </g>
              <g id="g357" transform="translate(9.756 17.911)">
                <path id="path359" d="M-248.12-385.158l-15.32-15.321-2.277-2.277a6.954,6.954,0,0,1-1.856-3.749,6.878,6.878,0,0,0-.736-2.442,1.789,1.789,0,0,1,.267-2.168l10.922-10.9a4.6,4.6,0,0,1-2.063-1.246l0,0-.073-.067-.009-.008-.025-.023-.013-.012-.026-.025-.008-.007-6.71,6.7-6.71,6.7h0a5.5,5.5,0,0,1,1.571,3.508,6.954,6.954,0,0,0,1.856,3.749l2.277,2.277,15.32,15.321,1.915,1.915a2.708,2.708,0,0,0,3.83,0,2.705,2.705,0,0,0,.75-2.4h0a1.8,1.8,0,0,1-2.881.485" transform="translate(272.758 423.404)" fill="#ffdfcf"/>
              </g>
              <g id="g361" transform="translate(22.665 17.801)">
                <path id="path363" d="M-59.967-160.242l5.18-5.18,12.3,12.3L-40-155.6a6.015,6.015,0,0,0,1.739-3.619,4.5,4.5,0,0,1,1.56-3.51l-13.391-13.421a4.9,4.9,0,0,1-3.475,1.56,6,6,0,0,0-3.654,1.739l-7.68,7.68a3.488,3.488,0,0,0,0,4.933,3.488,3.488,0,0,0,4.933,0" transform="translate(65.921 176.154)" fill="#ffcebf"/>
              </g>
              <g id="g365" transform="translate(33.799 26.727)">
                <path id="path367" d="M-18.193,0-20,1.807l12.3,12.3L-5.89,12.3Z" transform="translate(20)" fill="#ffaf9e"/>
              </g>
              <g id="g369" transform="translate(5.954 14.094)">
                <path id="path371" d="M-25.438-186.436l-2.526-2.526,15.987-15.987,2.526,2.526Z" transform="translate(27.964 204.949)" fill="#f5f8f9"/>
              </g>
              <g id="g373" transform="translate(0.903 9.042)">
                <path id="path375" d="M-50.876-211.859l-5.052-5.052L-39.942-232.9l5.052,5.052Z" transform="translate(55.928 232.897)" fill="#8ac9fe"/>
              </g>
              <g id="g377" transform="translate(0.903 9.042)">
                <path id="path379" d="M-49.251-148.118l12.9-12.9-1.807-1.807-15.986,15.986,5.052,5.052,1.807-1.807-1.968-1.968a1.807,1.807,0,0,1,0-2.555" transform="translate(54.141 162.826)" fill="#60b8fe"/>
              </g>
              <g id="g381" transform="translate(20.404 45.779)">
                <path id="path383" d="M-8.236-85.38l-.031-.031a2.686,2.686,0,0,1,0-3.8l3.861-3.861a2.686,2.686,0,0,1,3.8,0l.031.031a2.686,2.686,0,0,1,0,3.8L-4.436-85.38a2.686,2.686,0,0,1-3.8,0" transform="translate(9.053 93.858)" fill="#ffcebf"/>
              </g>
              <g id="g385" transform="translate(20.404 45.781)">
                <path id="path387" d="M-44.622-85.364l-.031-.031a2.686,2.686,0,0,1,0-3.8l3.861-3.861c.03-.03.062-.056.093-.084a2.684,2.684,0,0,0-3.706.084l-3.861,3.861a2.686,2.686,0,0,0,0,3.8l.031.031a2.684,2.684,0,0,0,3.706.084c-.031-.028-.063-.054-.093-.084" transform="translate(49.053 93.84)" fill="#ffaf9e"/>
              </g>
              <g id="g389" transform="translate(22.665 17.801)">
                <path id="path391" d="M-46.676-160.242h0a3.488,3.488,0,0,1,0-4.933l7.68-7.68a6,6,0,0,1,3.654-1.739,3.884,3.884,0,0,0,1.235-.183l-1.374-1.377a4.9,4.9,0,0,1-3.475,1.56,6,6,0,0,0-3.654,1.739l-7.68,7.68a3.488,3.488,0,0,0,0,4.933,3.489,3.489,0,0,0,4.273.517,3.493,3.493,0,0,1-.66-.517" transform="translate(51.311 176.154)" fill="#ffaf9e"/>
              </g>
              <g id="g393" transform="translate(37.198 13.993)">
                <path id="path395" d="M-160.983-186.42l2.526-2.526-15.986-15.986-2.526,2.526Z" transform="translate(176.969 204.931)" fill="#f5f8f9"/>
              </g>
              <g id="g397" transform="translate(39.724 8.941)">
                <path id="path399" d="M-160.983-211.859l5.052-5.052L-171.917-232.9l-5.052,5.052Z" transform="translate(176.969 232.897)" fill="#f07181"/>
              </g>
              <g id="g401" transform="translate(39.725 8.941)">
                <path id="path403" d="M-49.251-38.012l1.968-1.968-1.807-1.807-5.052,5.052,15.985,15.986,1.807-1.807-12.9-12.9a1.807,1.807,0,0,1,0-2.555" transform="translate(54.141 41.787)" fill="#eb5569"/>
              </g>
              <g id="g405" transform="translate(29.878 53.339)">
                <path id="path407" d="M-68.87-3.57a3.588,3.588,0,0,1-2.554-1.058l-1.915-1.915a.9.9,0,0,1,0-1.277.9.9,0,0,1,1.277,0l1.915,1.915a1.793,1.793,0,0,0,1.276.529,1.793,1.793,0,0,0,1.276-.529,1.793,1.793,0,0,0,.529-1.276,1.793,1.793,0,0,0-.529-1.276.9.9,0,0,1,0-1.277.9.9,0,0,1,1.277,0,3.588,3.588,0,0,1,1.058,2.554,3.588,3.588,0,0,1-1.058,2.554A3.588,3.588,0,0,1-68.87-3.57Z" transform="translate(73.604 10)"/>
              </g>
              <g id="g409" transform="translate(33.708 51.424)">
                <path id="path411" d="M-88.157-3.57A3.588,3.588,0,0,1-90.71-4.628l-3.83-3.83a.9.9,0,0,1,0-1.277.9.9,0,0,1,1.277,0l3.83,3.83a1.793,1.793,0,0,0,1.276.529,1.793,1.793,0,0,0,1.276-.529,1.807,1.807,0,0,0,0-2.553.9.9,0,0,1,0-1.277.9.9,0,0,1,1.277,0,3.616,3.616,0,0,1,0,5.108A3.588,3.588,0,0,1-88.157-3.57Z" transform="translate(94.805 10)"/>
              </g>
              <g id="g413" transform="translate(37.539 47.593)">
                <path id="path415" d="M-88.157-3.572A3.6,3.6,0,0,1-90.71-4.628l-3.83-3.83a.9.9,0,0,1,0-1.277.9.9,0,0,1,1.277,0l3.83,3.83a1.807,1.807,0,0,0,2.553,0,1.807,1.807,0,0,0,0-2.553.9.9,0,0,1,0-1.277.9.9,0,0,1,1.277,0,3.616,3.616,0,0,1,0,5.108A3.6,3.6,0,0,1-88.157-3.572Z" transform="translate(94.805 10)"/>
              </g>
              <g id="g417" transform="translate(41.361 39.933)">
                <path id="path419" d="M-45.829.26A3.588,3.588,0,0,1-48.383-.8l-3.838-3.838a.9.9,0,0,1,0-1.277.9.9,0,0,1,1.277,0l3.838,3.838a1.793,1.793,0,0,0,1.276.529,1.793,1.793,0,0,0,1.276-.529,1.807,1.807,0,0,0,0-2.553l-3.83-3.83a.9.9,0,0,1,0-1.277.9.9,0,0,1,1.277,0l3.83,3.83a3.616,3.616,0,0,1,0,5.108A3.588,3.588,0,0,1-45.829.26Z" transform="translate(52.485 10)"/>
              </g>
              <g id="g421" transform="translate(21.762 16.898)">
                <path id="path423" d="M-165.116-160.171a.9.9,0,0,1-.639-.265l-7.226-7.226a.9.9,0,0,1,0-1.277.9.9,0,0,1,1.277,0l6.588,6.588,1.847-1.847a5.176,5.176,0,0,0,1.475-2.982,5.247,5.247,0,0,1,1.22-3.475l-12.189-12.216a5.515,5.515,0,0,1-3.465,1.225,5.168,5.168,0,0,0-2.984,1.475l-7.68,7.68a2.568,2.568,0,0,0-.757,1.828,2.568,2.568,0,0,0,.757,1.828,2.563,2.563,0,0,0,1.827.757,2.572,2.572,0,0,0,1.751-.684c.143-.14,5.257-5.253,5.257-5.253a.9.9,0,0,1,1.277,0l2.293,2.293a.9.9,0,0,1,0,1.277.9.9,0,0,1-1.277,0l-1.655-1.655c-4.629,4.628-4.657,4.652-4.679,4.673a4.365,4.365,0,0,1-2.967,1.155,4.357,4.357,0,0,1-3.1-1.286,4.362,4.362,0,0,1-1.286-3.1,4.363,4.363,0,0,1,1.286-3.105l7.68-7.68a6.875,6.875,0,0,1,4.3-2,4.071,4.071,0,0,0,2.831-1.3.9.9,0,0,1,.639-.265.9.9,0,0,1,.639.265l13.39,13.421a.9.9,0,0,1,.007,1.269,3.627,3.627,0,0,0-1.3,2.94,6.879,6.879,0,0,1-2,4.2l-2.486,2.486A.9.9,0,0,1-165.116-160.171Z" transform="translate(189.456 185.013)"/>
              </g>
              <g id="g425" transform="translate(8.853 17.008)">
                <path id="path427" d="M-66.546-239.063a.9.9,0,0,1-.639-.265l-2.277-2.277a7.86,7.86,0,0,1-2.109-4.245,4.624,4.624,0,0,0-1.319-3.012.9.9,0,0,1-.265-.639.9.9,0,0,1,.265-.639l13.42-13.391a.9.9,0,0,1,1.258-.017,3.452,3.452,0,0,0,2.846,1.27c1.78-.078,3.4,1.14,4.431,2.176l.346.345a.9.9,0,0,1,0,1.277.9.9,0,0,1-1.277,0l-.347-.346c-.515-.515-1.846-1.7-3.114-1.649a4.882,4.882,0,0,1-3.468-1.182l-12.223,12.2a6.871,6.871,0,0,1,1.228,3.32,6.105,6.105,0,0,0,1.6,3.256l2.277,2.277a.9.9,0,0,1,0,1.277A.9.9,0,0,1-66.546-239.063Z" transform="translate(73.154 263.795)"/>
              </g>
              <g id="g429" transform="translate(32.896 25.715)">
                <path id="path431" d="M-9.1-27.48a.9.9,0,0,1-.639-.265.9.9,0,0,1,0-1.277l1.915-1.915a.9.9,0,0,1,1.277,0,.9.9,0,0,1,0,1.277l-1.915,1.915A.9.9,0,0,1-9.1-27.48Z" transform="translate(10 31.201)"/>
              </g>
              <g id="g433" transform="translate(12.743 38.119)">
                <path id="path435" d="M-8.235-85.379l-.031-.031a2.687,2.687,0,0,1,0-3.8L-4.4-93.071a2.687,2.687,0,0,1,3.8,0l.031.031a2.687,2.687,0,0,1,0,3.8l-3.861,3.861a2.686,2.686,0,0,1-3.8,0" transform="translate(9.052 93.857)" fill="#ffcebf"/>
              </g>
              <g id="g437" transform="translate(12.743 38.12)">
                <path id="path439" d="M-44.621-85.364l-.031-.031a2.687,2.687,0,0,1,0-3.8l3.861-3.861c.03-.03.062-.056.093-.084a2.684,2.684,0,0,0-3.706.084l-3.861,3.861a2.687,2.687,0,0,0,0,3.8l.031.031a2.684,2.684,0,0,0,3.706.084c-.031-.028-.063-.054-.093-.084" transform="translate(49.052 93.84)" fill="#ffaf9e"/>
              </g>
              <g id="g441" transform="translate(11.845 37.216)">
                <path id="path443" d="M-15.376-92.786a3.566,3.566,0,0,1-2.538-1.051,3.6,3.6,0,0,1-.031-5.108l3.861-3.861a3.566,3.566,0,0,1,2.538-1.051,3.566,3.566,0,0,1,2.538,1.051A3.6,3.6,0,0,1-8.977-97.7l-3.861,3.861A3.566,3.566,0,0,1-15.376-92.786Zm3.83-9.265a1.772,1.772,0,0,0-1.261.522l-3.861,3.861a1.785,1.785,0,0,0,0,2.522,1.8,1.8,0,0,0,1.292.553,1.772,1.772,0,0,0,1.261-.522l3.861-3.861a1.785,1.785,0,0,0,0-2.522A1.8,1.8,0,0,0-11.546-102.051Z" transform="translate(18.992 103.857)"/>
              </g>
              <g id="g445" transform="translate(16.573 41.949)">
                <path id="path447" d="M-8.236-85.38l-.031-.031a2.686,2.686,0,0,1,0-3.8l3.861-3.861a2.686,2.686,0,0,1,3.8,0l.031.031a2.686,2.686,0,0,1,0,3.8L-4.437-85.38a2.686,2.686,0,0,1-3.8,0" transform="translate(9.054 93.859)" fill="#ffcebf"/>
              </g>
              <g id="g449" transform="translate(16.573 41.951)">
                <path id="path451" d="M-44.623-85.364l-.031-.031a2.686,2.686,0,0,1,0-3.8l3.861-3.861c.03-.03.062-.056.093-.084a2.684,2.684,0,0,0-3.706.084l-3.861,3.861a2.686,2.686,0,0,0,0,3.8l.031.031a2.684,2.684,0,0,0,3.706.084c-.031-.028-.063-.054-.093-.084" transform="translate(49.054 93.841)" fill="#ffaf9e"/>
              </g>
              <g id="g453" transform="translate(15.67 41.046)">
                <path id="path455" d="M-15.433-92.787a3.566,3.566,0,0,1-2.538-1.051,3.593,3.593,0,0,1-1.082-2.569A3.566,3.566,0,0,1-18-98.946l3.861-3.861a3.566,3.566,0,0,1,2.538-1.051,3.566,3.566,0,0,1,2.538,1.051,3.593,3.593,0,0,1,1.082,2.569A3.566,3.566,0,0,1-9.033-97.7l-3.861,3.861A3.566,3.566,0,0,1-15.433-92.787Zm3.83-9.265a1.772,1.772,0,0,0-1.261.522l-3.861,3.861a1.772,1.772,0,0,0-.522,1.261,1.772,1.772,0,0,0,.522,1.261,1.8,1.8,0,0,0,1.292.553,1.771,1.771,0,0,0,1.261-.522l3.861-3.861a1.771,1.771,0,0,0,.522-1.261,1.772,1.772,0,0,0-.522-1.261A1.8,1.8,0,0,0-11.6-102.052Z" transform="translate(19.054 103.859)"/>
              </g>
              <g id="g457" transform="translate(19.5 44.876)">
                <path id="path459" d="M-15.433-92.787a3.566,3.566,0,0,1-2.538-1.051,3.593,3.593,0,0,1-1.082-2.569A3.566,3.566,0,0,1-18-98.946l3.861-3.861a3.566,3.566,0,0,1,2.538-1.052,3.566,3.566,0,0,1,2.538,1.052,3.593,3.593,0,0,1,1.082,2.569A3.566,3.566,0,0,1-9.033-97.7l-3.861,3.861A3.566,3.566,0,0,1-15.433-92.787Zm3.83-9.265a1.771,1.771,0,0,0-1.261.522l-3.861,3.861a1.771,1.771,0,0,0-.522,1.261,1.771,1.771,0,0,0,.522,1.261,1.8,1.8,0,0,0,1.292.553,1.771,1.771,0,0,0,1.261-.522l3.861-3.861a1.772,1.772,0,0,0,.522-1.261,1.772,1.772,0,0,0-.522-1.261A1.8,1.8,0,0,0-11.6-102.052Z" transform="translate(19.053 103.858)"/>
              </g>
              <g id="g461" transform="translate(24.234 49.61)">
                <path id="path463" d="M-8.235-85.379l-.031-.031a2.687,2.687,0,0,1,0-3.8L-4.4-93.071a2.687,2.687,0,0,1,3.8,0l.031.031a2.687,2.687,0,0,1,0,3.8l-3.861,3.861a2.686,2.686,0,0,1-3.8,0" transform="translate(9.052 93.857)" fill="#ffcebf"/>
              </g>
              <g id="g465" transform="translate(24.234 49.611)">
                <path id="path467" d="M-44.621-85.364l-.031-.031a2.687,2.687,0,0,1,0-3.8l3.861-3.861c.03-.03.062-.056.093-.084a2.684,2.684,0,0,0-3.706.084l-3.861,3.861a2.687,2.687,0,0,0,0,3.8l.031.031a2.684,2.684,0,0,0,3.706.084c-.031-.028-.063-.054-.093-.084" transform="translate(49.052 93.84)" fill="#ffaf9e"/>
              </g>
              <g id="g469" transform="translate(23.336 48.706)">
                <path id="path471" d="M-15.376-92.786a3.566,3.566,0,0,1-2.538-1.051,3.6,3.6,0,0,1-.031-5.108l3.861-3.861a3.566,3.566,0,0,1,2.538-1.051,3.567,3.567,0,0,1,2.538,1.051A3.6,3.6,0,0,1-8.977-97.7l-3.861,3.861A3.566,3.566,0,0,1-15.376-92.786Zm3.83-9.265a1.772,1.772,0,0,0-1.261.522l-3.861,3.861a1.785,1.785,0,0,0,0,2.522,1.8,1.8,0,0,0,1.292.553,1.772,1.772,0,0,0,1.261-.522l3.861-3.861a1.785,1.785,0,0,0,0-2.522A1.8,1.8,0,0,0-11.546-102.051Z" transform="translate(18.992 103.857)"/>
              </g>
              <g id="g473" transform="translate(38.821 8.037)">
                <path id="path475" d="M-173.045-111.168a.91.91,0,0,1-.639-.265l-15.985-15.986a.9.9,0,0,1,0-1.277l5.051-5.052a.9.9,0,0,1,.639-.265.9.9,0,0,1,.639.265l8.419,8.419a.9.9,0,0,1,0,1.277.9.9,0,0,1-1.277,0l-7.78-7.78-3.774,3.775,14.707,14.709,3.775-3.775-4.145-4.145a.9.9,0,0,1,0-1.277.9.9,0,0,1,1.277,0l4.784,4.784a.9.9,0,0,1,0,1.277l-5.052,5.052A.9.9,0,0,1-173.045-111.168Z" transform="translate(189.933 134.013)"/>
              </g>
              <g id="g477" transform="translate(36.295 13.089)">
                <path id="path479" d="M-170.08-194.613a.9.9,0,0,1-.639-.265L-186.7-210.863a.9.9,0,0,1-.265-.639.9.9,0,0,1,.265-.639l2.526-2.526a.9.9,0,0,1,1.277,0l15.986,15.986a.9.9,0,0,1,.265.639.9.9,0,0,1-.265.639l-2.526,2.526A.9.9,0,0,1-170.08-194.613ZM-184.788-211.5l14.708,14.708,1.249-1.249-14.708-14.708Z" transform="translate(186.969 214.931)"/>
              </g>
              <g id="g481" transform="translate(45.136 14.352)">
                <path id="path483" d="M-5.834-4.931A.9.9,0,0,1-6.473-5.2L-9.735-8.458a.9.9,0,0,1,0-1.277.9.9,0,0,1,1.277,0L-5.2-6.473A.9.9,0,0,1-5.2-5.2.9.9,0,0,1-5.834-4.931Z" transform="translate(10 10)"/>
              </g>
              <g id="g485" transform="translate(0 8.139)">
                <path id="path487" d="M-72.937-95.223a.9.9,0,0,1-.639-.265l-5.052-5.052a.9.9,0,0,1,0-1.277l3.44-3.44a.9.9,0,0,1,1.277,0,.9.9,0,0,1,0,1.277l-2.8,2.8,3.775,3.775,14.707-14.708L-62-115.886l-9.124,9.123a.9.9,0,0,1-1.277,0,.9.9,0,0,1,0-1.277l9.763-9.762a.9.9,0,0,1,1.277,0l5.051,5.051a.9.9,0,0,1,0,1.277L-72.3-95.487A.9.9,0,0,1-72.937-95.223Z" transform="translate(78.893 118.066)"/>
              </g>
              <g id="g489" transform="translate(5.051 13.19)">
                <path id="path491" d="M-34.535-194.629a.9.9,0,0,1-.639-.265L-37.7-197.42a.9.9,0,0,1-.265-.639.9.9,0,0,1,.265-.639l15.987-15.987a.9.9,0,0,1,1.277,0l2.526,2.526a.9.9,0,0,1,0,1.277L-33.9-194.894A.9.9,0,0,1-34.535-194.629Zm-1.249-3.429,1.249,1.249,14.71-14.71-1.248-1.248Z" transform="translate(37.964 214.949)"/>
              </g>
              <g id="g493" transform="translate(11.461 14.454)">
                <path id="path495" d="M-45.213-4.931a.9.9,0,0,1-.639-.265.9.9,0,0,1,0-1.277l3.262-3.262a.9.9,0,0,1,1.277,0,.9.9,0,0,1,0,1.277L-44.574-5.2A.9.9,0,0,1-45.213-4.931Z" transform="translate(46.116 10)"/>
              </g>
            </g>
          </g>
        </g>
      </g>
      <g id="Grupo_1099581" data-name="Grupo 1099581" transform="translate(921.333 387.667)">
        <g id="Grupo_1099580" data-name="Grupo 1099580">
          <g id="Grupo_1099579" data-name="Grupo 1099579" clip-path="url(#clip-path-2)">
            <path id="Trazado_877686" data-name="Trazado 877686" d="M11.129.012A11.1,11.1,0,0,1,16.906,1.5a11.339,11.339,0,0,1,4.418,15.159L11.866,32.018a1.175,1.175,0,0,1-.361.375.457.457,0,0,1-.248.03l-.023-.005c-.33-.072-.671-.805-.838-1.071L2.691,18.864C1.021,16.121.057,14.551.067,11.2A6.267,6.267,0,0,1,.1,10.219l.184-1.1A11.4,11.4,0,0,1,9.53.162a9.692,9.692,0,0,1,1.6-.15" transform="translate(-0.062 -0.005)" fill="#12263f"/>
          </g>
        </g>
        <circle id="Elipse_11513" data-name="Elipse 11513" cx="5.306" cy="5.306" r="5.306" transform="translate(5.788 5.145)" fill="#fff"/>
      </g>
    </g>
  </g>
</svg>
