<svg xmlns="http://www.w3.org/2000/svg" width="57" height="57" viewBox="0 0 57 57">
  <g id="Grupo_1100984" data-name="Grupo 1100984" transform="translate(-847.051 -2768)">
    <g id="Grupo_1099971" data-name="Grupo 1099971" transform="translate(-404.332 2355)">
      <g id="Grupo_1098742" data-name="Grupo 1098742" transform="translate(1251.383 413)">
        <rect id="Rect치ngulo_400898" data-name="Rect치ngulo 400898" width="57" height="57" rx="28.5" transform="translate(0)" fill="#e8f57a" opacity="0.859"/>
        <rect id="Rect치ngulo_400907" data-name="Rect치ngulo 400907" width="57" height="57" rx="28.5" fill="none"/>
      </g>
      <g id="carne-de-res" transform="translate(1261.383 370.833)">
        <path id="Trazado_883358" data-name="Trazado 883358" d="M14.08,82.986H31.826A3.377,3.377,0,0,0,35.2,79.613V61.72a3.377,3.377,0,0,0-3.373-3.373H14.08V57.173H28.16V56H5.72A5.726,5.726,0,0,0,0,61.72v4.253H1.173V61.72A4.552,4.552,0,0,1,5.72,57.173h7.187V84.16H5.72a4.552,4.552,0,0,1-4.547-4.547V67.147H0V79.613a5.726,5.726,0,0,0,5.72,5.72H17.013V84.16H14.08Zm0-19.946h5.373A11.618,11.618,0,0,0,20.5,69.534a10.293,10.293,0,0,0-6.423,3.042Zm0,11.342a9.115,9.115,0,0,1,7.037-3.711,14.2,14.2,0,0,0,5.62,5.143q-.382.321-.8.608a10.486,10.486,0,0,1-5.994,1.871H14.08Zm19.946,5.231a2.2,2.2,0,0,1-2.2,2.2H25.813A15.342,15.342,0,0,0,34.026,73.6Zm-2.2-20.093a2.2,2.2,0,0,1,2.2,2.2v1.472a9.455,9.455,0,0,0-3.672-3.672Zm-6.013,0a8.223,8.223,0,0,1,8.213,8.213,14.1,14.1,0,0,1-14.08,14.08H14.08V79.466h5.867a11.751,11.751,0,0,0,10.908-7.41l-1.09-.434a10.552,10.552,0,0,1-2.12,3.335c-4.4-2.143-7.111-6.114-7.111-10.451a10.423,10.423,0,0,1,.1-1.465h5.176a4.7,4.7,0,0,1,4.693,4.693,10.551,10.551,0,0,1-.371,2.779l1.132.309a11.728,11.728,0,0,0,.412-3.088,5.873,5.873,0,0,0-5.867-5.867H14.08V59.52Z" fill="#12263f"/>
        <path id="Trazado_883359" data-name="Trazado 883359" d="M32,264h9.387v1.173H32Z" transform="translate(-29.653 -192.747)" fill="#12263f"/>
        <path id="Trazado_883360" data-name="Trazado 883360" d="M32,376h9.387v1.173H32Z" transform="translate(-29.653 -296.534)" fill="#12263f"/>
        <path id="Trazado_883361" data-name="Trazado 883361" d="M32,300.107a.587.587,0,0,0,.587.587H40.8a.587.587,0,0,0,.587-.587v-3.52A.587.587,0,0,0,40.8,296H32.587a.587.587,0,0,0-.587.587Zm1.173-2.933h7.04v2.347h-7.04Z" transform="translate(-29.653 -222.4)" fill="#12263f"/>
        <path id="Trazado_883362" data-name="Trazado 883362" d="M41.387,116.693a4.693,4.693,0,1,0-4.693,4.693A4.693,4.693,0,0,0,41.387,116.693Zm-8.213,0a3.52,3.52,0,1,1,3.52,3.52,3.52,3.52,0,0,1-3.52-3.52Z" transform="translate(-29.653 -51.893)" fill="#12263f"/>
        <path id="Trazado_883363" data-name="Trazado 883363" d="M330.347,176a2.347,2.347,0,1,0,2.347,2.347A2.347,2.347,0,0,0,330.347,176Zm0,3.52a1.173,1.173,0,1,1,1.173-1.173A1.173,1.173,0,0,1,330.347,179.52Z" transform="translate(-303.947 -111.2)" fill="#12263f"/>
        <path id="Trazado_883364" data-name="Trazado 883364" d="M261.64,56h-2.493v1.173h2.493a4.552,4.552,0,0,1,4.547,4.547V79.613a4.552,4.552,0,0,1-4.547,4.547H248v1.173h13.64a5.726,5.726,0,0,0,5.72-5.72V61.72A5.726,5.726,0,0,0,261.64,56Z" transform="translate(-229.814)" fill="#12263f"/>
      </g>
    </g>
  </g>
</svg>
