<svg xmlns="http://www.w3.org/2000/svg" xmlns:xlink="http://www.w3.org/1999/xlink" width="124.011" height="125.273" viewBox="0 0 124.011 125.273">
  <defs>
    <filter id="Elipse_11501" x="0" y="0" width="124.011" height="125.273" filterUnits="userSpaceOnUse">
      <feOffset dy="3" input="SourceAlpha"/>
      <feGaussianBlur stdDeviation="3" result="blur"/>
      <feFlood flood-opacity="0.161"/>
      <feComposite operator="in" in2="blur"/>
      <feComposite in="SourceGraphic"/>
    </filter>
    <filter id="Elipse_11501-2" x="0" y="0" width="124.011" height="125.273" filterUnits="userSpaceOnUse">
      <feOffset dy="6" input="SourceAlpha"/>
      <feGaussianBlur stdDeviation="3" result="blur-2"/>
      <feFlood flood-opacity="0.161" result="color"/>
      <feComposite operator="out" in="SourceGraphic" in2="blur-2"/>
      <feComposite operator="in" in="color"/>
      <feComposite operator="in" in2="SourceGraphic"/>
    </filter>
  </defs>
  <g id="Grupo_1100986" data-name="Grupo 1100986" transform="translate(-1116.177 -3852.565)">
    <g id="Grupo_1100205" data-name="Grupo 1100205" transform="translate(203.844 3461.565)">
      <g id="Grupo_1099492" data-name="Grupo 1099492" transform="translate(921.333 397)">
        <g data-type="innerShadowGroup">
          <g transform="matrix(1, 0, 0, 1, -9, -6)" filter="url(#Elipse_11501)">
            <ellipse id="Elipse_11501-3" data-name="Elipse 11501" cx="53.005" cy="53.636" rx="53.005" ry="53.636" transform="translate(9 6)" fill="#a4a1c5"/>
          </g>
          <g transform="matrix(1, 0, 0, 1, -9, -6)" filter="url(#Elipse_11501-2)">
            <ellipse id="Elipse_11501-4" data-name="Elipse 11501" cx="53.005" cy="53.636" rx="53.005" ry="53.636" transform="translate(9 6)" fill="#fff"/>
          </g>
        </g>
        <g id="Outline" transform="translate(20.819 21.636)">
          <path id="Trazado_885310" data-name="Trazado 885310" d="M41,60H4V15a1,1,0,0,0-2,0V61a1,1,0,0,0,1,1H41a1,1,0,0,0,0-2Z" fill="#12263f"/>
          <path id="Trazado_885311" data-name="Trazado 885311" d="M6.134,51.345a1,1,0,0,0,1.366.366l18.187-10.5,1,1.731L8.5,53.442a1,1,0,0,0,1,1.733l.642-.371a1.979,1.979,0,0,0,.688,1,1.925,1.925,0,0,0,2.376.008A1.971,1.971,0,0,0,14.68,57.7a1.927,1.927,0,0,0,2.2-.9A1.966,1.966,0,0,0,18.694,58a1.852,1.852,0,0,0,.267-.018,1.926,1.926,0,0,0,1.687-1.673,1.972,1.972,0,0,0,2.378.294,1.929,1.929,0,0,0,.918-2.192,1.975,1.975,0,0,0,2.309-.638,1.928,1.928,0,0,0,.009-2.376,1.969,1.969,0,0,0,1.889-1.473,1.928,1.928,0,0,0-.9-2.2,1.984,1.984,0,0,0,.662-3.18l.641-.37a1,1,0,0,0,.366-1.366l-2-3.464a1,1,0,0,0-1.366-.366l-.642.37a1.958,1.958,0,0,0-.688-1,1.929,1.929,0,0,0-2.376-.009,1.988,1.988,0,0,0-3.694-.989.989.989,0,1,0,1.694,1.02,1.979,1.979,0,0,0,1.108,1.752,1.913,1.913,0,0,0,2.046-.2,1.922,1.922,0,0,0-.126.6L20.51,41.89a5.967,5.967,0,0,0-8.968,5.177l-2.37,1.369a1.779,1.779,0,0,0-.576-.172,1.98,1.98,0,0,0,1.2-1.7,1.915,1.915,0,0,0-.97-1.813,1.98,1.98,0,0,0,1.753-1.108,1.917,1.917,0,0,0-.2-2.046,1.98,1.98,0,0,0,2.043-.354,1.914,1.914,0,0,0,.6-1.967,1.988,1.988,0,0,0,3.35-1.138.99.99,0,1,0-1.958-.3,1.973,1.973,0,0,0-2.378-.293,1.93,1.93,0,0,0-.918,2.191,1.971,1.971,0,0,0-2.309.639A1.928,1.928,0,0,0,8.8,42.75a1.971,1.971,0,0,0-1.9,1.48,1.929,1.929,0,0,0,.9,2.2,1.971,1.971,0,0,0-1.181,2.085,1.893,1.893,0,0,0,.54,1.085l-.659.381A1,1,0,0,0,6.134,51.345Zm15.179-2.99A3.986,3.986,0,0,1,16.739,51Zm5.143-2.466a1.981,1.981,0,0,0-1.194,1.694,1.916,1.916,0,0,0,.969,1.814,1.981,1.981,0,0,0-1.752,1.108,1.915,1.915,0,0,0,.2,2.046,1.979,1.979,0,0,0-2.042.354,1.916,1.916,0,0,0-.6,1.968,1.979,1.979,0,0,0-2.023-.456,1.915,1.915,0,0,0-1.3,1.589,1.98,1.98,0,0,0-1.694-1.194,1.914,1.914,0,0,0-1.814.97A1.98,1.98,0,0,0,14.1,54.029a1.915,1.915,0,0,0-2.046.2,1.98,1.98,0,0,0,.126-.6l2.369-1.368a5.963,5.963,0,0,0,8.963-5.175l2.37-1.368a1.778,1.778,0,0,0,.574.171Zm-10.93-2.277a4,4,0,0,1,2.787-.454L13.739,45.8a4,4,0,0,1,1.787-2.188Z" fill="#12263f"/>
          <path id="Trazado_885312" data-name="Trazado 885312" d="M61.708,29.616a7.939,7.939,0,0,0-3.827-4.859A8.1,8.1,0,0,0,48,26.475V13a1,1,0,0,0-.293-.707l-10-10A1,1,0,0,0,37,2H3A1,1,0,0,0,2,3v8a1,1,0,0,0,2,0V4H36v9a1,1,0,0,0,1,1h9V31.666a15.325,15.325,0,0,1-2.739,8.9l-1.824-1.054a1,1,0,0,0-1.367.366l-1.5,2.6a5,5,0,0,0-6.83,1.83l-1,1.732a1,1,0,0,0,.366,1.366L49.293,57.9l-1,1.732-16.455-9.5a1,1,0,1,0-1,1.732l17.321,10a1,1,0,0,0,1.366-.366l1.5-2.6.866.5a1,1,0,0,0,1.366-.366l1-1.732a5,5,0,0,0-1.83-6.83l1.5-2.6a1,1,0,0,0-.366-1.366L51.735,45.45a13.62,13.62,0,0,1,5.288-6.224A1,1,0,1,0,56,37.516a15.577,15.577,0,0,0-6,6.935l-5-2.886a17.353,17.353,0,0,0,3-9.85v-.048a5.98,5.98,0,0,1,.916-3.106A6.066,6.066,0,0,1,56.909,26.5,6,6,0,0,1,59.2,34.75c-.1.17-.213.324-.325.479l-.034.046a.977.977,0,0,0,.237,1.374,1.026,1.026,0,0,0,1.414-.243,7.548,7.548,0,0,0,.439-.655,7.937,7.937,0,0,0,.777-6.135ZM52.525,56.3l-.5.866-.865-.5h0L32.972,46.17l.5-.866a3,3,0,0,1,4.1-1.1l6.547,3.78a1,1,0,1,0,1-1.733L40.3,43.474l1-1.732,10.392,6-1,1.732-2.113-1.221a1,1,0,0,0-1,1.733l3.845,2.22a3,3,0,0,1,1.1,4.1ZM38,5.414,44.586,12H38Z" fill="#12263f"/>
          <path id="Trazado_885313" data-name="Trazado 885313" d="M25,7a1,1,0,0,0-1-1H16a1,1,0,0,0-1,1v3H12a1,1,0,0,0-1,1v3H8a1,1,0,0,0-1,1V27a1,1,0,0,0,1,1H32a1,1,0,0,0,1-1V19a1,1,0,0,0-1-1H28a1,1,0,0,0,0,2h3v2H29a1,1,0,0,0,0,2h2v2H25ZM13,16H23v2H13Zm10-6H21V8h2ZM17,8h2v2H17Zm-4,4H23v2H13ZM9,16h2V26H9Zm4,4H23v6H21V23a1,1,0,0,0-1-1H16a1,1,0,0,0-1,1v3H13Zm4,6V24h2v2Z" fill="#12263f"/>
          <path id="Trazado_885314" data-name="Trazado 885314" d="M15,31a1,1,0,0,0,1,1H42a1,1,0,0,0,0-2H16A1,1,0,0,0,15,31Z" fill="#12263f"/>
          <path id="Trazado_885315" data-name="Trazado 885315" d="M43,35a1,1,0,0,0-1-1H23a1,1,0,0,0,0,2H42A1,1,0,0,0,43,35Z" fill="#12263f"/>
          <path id="Trazado_885316" data-name="Trazado 885316" d="M30,38a1,1,0,0,0,0,2h7a1,1,0,0,0,0-2Z" fill="#12263f"/>
          <path id="Trazado_885317" data-name="Trazado 885317" d="M36,27a1,1,0,0,0,1,1h6a1,1,0,0,0,0-2H37A1,1,0,0,0,36,27Z" fill="#12263f"/>
          <path id="Trazado_885318" data-name="Trazado 885318" d="M43,24a1,1,0,0,0,0-2H39a1,1,0,0,0,0,2Z" fill="#12263f"/>
          <path id="Trazado_885319" data-name="Trazado 885319" d="M8,32h4a1,1,0,0,0,0-2H8a1,1,0,0,0,0,2Z" fill="#12263f"/>
          <path id="Trazado_885320" data-name="Trazado 885320" d="M8,36h4a1,1,0,0,0,0-2H8a1,1,0,0,0,0,2Z" fill="#12263f"/>
        </g>
      </g>
    </g>
  </g>
</svg>
