<svg xmlns="http://www.w3.org/2000/svg" xmlns:xlink="http://www.w3.org/1999/xlink" width="85.729" height="88.061" viewBox="0 0 85.729 88.061">
  <defs>
    <filter id="Elipse_11501" x="0" y="1.525" width="85.729" height="86.536" filterUnits="userSpaceOnUse">
      <feOffset dy="3" input="SourceAlpha"/>
      <feGaussianBlur stdDeviation="3" result="blur"/>
      <feFlood flood-opacity="0.161"/>
      <feComposite operator="in" in2="blur"/>
      <feComposite in="SourceGraphic"/>
    </filter>
    <filter id="Elipse_11501-2" x="0" y="1.525" width="85.729" height="86.536" filterUnits="userSpaceOnUse">
      <feOffset dy="6" input="SourceAlpha"/>
      <feGaussianBlur stdDeviation="3" result="blur-2"/>
      <feFlood flood-opacity="0.161" result="color"/>
      <feComposite operator="out" in="SourceGraphic" in2="blur-2"/>
      <feComposite operator="in" in="color"/>
      <feComposite operator="in" in2="SourceGraphic"/>
    </filter>
    <clipPath id="clip-path">
      <path id="path531" d="M0-682.665H47.665V-635H0Z" transform="translate(0 682.665)"/>
    </clipPath>
    <clipPath id="clip-path-2">
      <rect id="Rectángulo_401455" data-name="Rectángulo 401455" width="18.881" height="27.105" fill="#12263f"/>
    </clipPath>
  </defs>
  <g id="Grupo_1100991" data-name="Grupo 1100991" transform="translate(-696 -2524.509)">
    <g id="Grupo_1099934" data-name="Grupo 1099934" transform="translate(-216.333 2136.842)">
      <g id="Grupo_1099492" data-name="Grupo 1099492" transform="translate(921.333 395.192)">
        <g data-type="innerShadowGroup">
          <g transform="matrix(1, 0, 0, 1, -9, -7.53)" filter="url(#Elipse_11501)">
            <ellipse id="Elipse_11501-3" data-name="Elipse 11501" cx="33.865" cy="34.268" rx="33.865" ry="34.268" transform="translate(9 7.53)" fill="#e8f57a"/>
          </g>
          <g transform="matrix(1, 0, 0, 1, -9, -7.53)" filter="url(#Elipse_11501-2)">
            <ellipse id="Elipse_11501-4" data-name="Elipse 11501" cx="33.865" cy="34.268" rx="33.865" ry="34.268" transform="translate(9 7.53)" fill="#fff"/>
          </g>
        </g>
        <g id="g525" transform="translate(10.032 693.102)">
          <g id="g527" transform="translate(0 -682.665)">
            <g id="g529" clip-path="url(#clip-path)">
              <g id="g535" transform="translate(11.744 0.698)">
                <path id="path537" d="M-350.994-482.413h-26.067a.279.279,0,0,1-.279-.279v-35.653a.279.279,0,0,1,.279-.279h26.067a.279.279,0,0,1,.279.279v35.653a.279.279,0,0,1-.279.279" transform="translate(377.34 518.624)" fill="#dbf1d0"/>
              </g>
              <g id="g539" transform="translate(11.744 0.698)">
                <path id="path541" d="M-41.978-478.692v-35.653a.279.279,0,0,1,.279-.279H-44.85a.279.279,0,0,0-.279.279v35.653a.279.279,0,0,0,.279.279H-41.7a.279.279,0,0,1-.279-.279" transform="translate(45.129 514.624)" fill="#c1e9af"/>
              </g>
              <g id="g543" transform="translate(11.046 0)">
                <path id="path545" d="M-360.3-491.016h-26.067a.979.979,0,0,1-.978-.978v-35.653a.979.979,0,0,1,.978-.978H-360.3a.979.979,0,0,1,.978.978v35.653A.979.979,0,0,1-360.3-491.016Zm-25.648-1.4h25.229v-34.815h-25.229Z" transform="translate(387.34 528.624)"/>
              </g>
              <g id="g547" transform="translate(8.549 3.893)">
                <path id="path549" d="M-350.995-482.413h-26.067a.279.279,0,0,1-.279-.279v-35.653a.279.279,0,0,1,.279-.279h26.067a.279.279,0,0,1,.279.279v35.653a.279.279,0,0,1-.279.279" transform="translate(377.342 518.624)" fill="#fff3de"/>
              </g>
              <g id="g551" transform="translate(8.549 3.893)">
                <path id="path553" d="M-41.135-478.692v-35.653a.279.279,0,0,1,.279-.279h-3.088a.279.279,0,0,0-.279.279v35.653a.279.279,0,0,0,.279.279h3.088a.279.279,0,0,1-.279-.279" transform="translate(44.223 514.624)" fill="#ffe5c2"/>
              </g>
              <g id="g555" transform="translate(7.851 3.195)">
                <path id="path557" d="M-364.3-52.631h-26.067a.979.979,0,0,1-.978-.978V-89.261a.979.979,0,0,1,.978-.978H-364.3a.979.979,0,0,1,.978.978v5.323a.7.7,0,0,1-.7.7.7.7,0,0,1-.7-.7v-4.9h-25.23v34.815h25.23V-80.679a.7.7,0,0,1,.7-.7.7.7,0,0,1,.7.7v27.071A.979.979,0,0,1-364.3-52.631Z" transform="translate(391.342 90.238)"/>
              </g>
              <g id="g559" transform="translate(5.354 7.088)">
                <path id="path561" d="M-350.994-482.413h-26.067a.279.279,0,0,1-.279-.279v-35.653a.279.279,0,0,1,.279-.279h26.067a.279.279,0,0,1,.279.279v35.653a.279.279,0,0,1-.279.279" transform="translate(377.34 518.624)" fill="#dff6fd"/>
              </g>
              <g id="g563" transform="translate(5.354 7.088)">
                <path id="path565" d="M-41.533-478.692v-35.653a.279.279,0,0,1,.279-.279h-3.118a.279.279,0,0,0-.279.279v35.653a.279.279,0,0,0,.279.279h3.118a.279.279,0,0,1-.279-.279" transform="translate(44.651 514.624)" fill="#c8effe"/>
              </g>
              <g id="g567" transform="translate(4.656 6.39)">
                <path id="path569" d="M-107.605-491.016h-17.643a.7.7,0,0,1-.7-.7.7.7,0,0,1,.7-.7h17.224v-34.815h-25.229v34.815h4.747a.7.7,0,0,1,.7.7.7.7,0,0,1-.7.7h-5.166a.979.979,0,0,1-.978-.978v-35.653a.979.979,0,0,1,.978-.978h26.067a.979.979,0,0,1,.978.978v35.653A.979.979,0,0,1-107.605-491.016Z" transform="translate(134.65 528.624)"/>
              </g>
              <g id="g571" transform="translate(13.362 10.939)">
                <path id="path573" d="M-.088-8.6H-9.3a.7.7,0,0,1-.7-.7.7.7,0,0,1,.7-.7H-.088a.7.7,0,0,1,.7.7A.7.7,0,0,1-.088-8.6Z" transform="translate(10 10)"/>
              </g>
              <g id="g575" transform="translate(10.197 15.687)">
                <path id="path577" d="M6.243-8.6H-9.3a.7.7,0,0,1-.7-.7.7.7,0,0,1,.7-.7H6.243a.7.7,0,0,1,.7.7A.7.7,0,0,1,6.243-8.6Z" transform="translate(10 10)"/>
              </g>
              <g id="g579" transform="translate(10.197 18.945)">
                <path id="path581" d="M6.243-8.6H-9.3a.7.7,0,0,1-.7-.7.7.7,0,0,1,.7-.7H6.243a.7.7,0,0,1,.7.7A.7.7,0,0,1,6.243-8.6Z" transform="translate(10 10)"/>
              </g>
              <g id="g583" transform="translate(10.197 22.203)">
                <path id="path585" d="M6.243-8.6H-9.3a.7.7,0,0,1-.7-.7.7.7,0,0,1,.7-.7H6.243a.7.7,0,0,1,.7.7A.7.7,0,0,1,6.243-8.6Z" transform="translate(10 10)"/>
              </g>
              <g id="g587" transform="translate(10.197 25.462)">
                <path id="path589" d="M-4-8.6H-9.3a.7.7,0,0,1-.7-.7.7.7,0,0,1,.7-.7H-4a.7.7,0,0,1,.7.7A.7.7,0,0,1-4-8.6Z" transform="translate(10 10)"/>
              </g>
              <g id="g591" transform="translate(17.735 25.462)">
                <path id="path593" d="M-1.3-8.6H-9.3a.7.7,0,0,1-.7-.7.7.7,0,0,1,.7-.7H-1.3a.7.7,0,0,1,.7.7A.7.7,0,0,1-1.3-8.6Z" transform="translate(10 10)"/>
              </g>
              <g id="g595" transform="translate(10.197 28.72)">
                <path id="path597" d="M6.243-8.6H-9.3a.7.7,0,0,1-.7-.7.7.7,0,0,1,.7-.7H6.243a.7.7,0,0,1,.7.7A.7.7,0,0,1,6.243-8.6Z" transform="translate(10 10)"/>
              </g>
              <g id="g599" transform="translate(10.197 31.978)">
                <path id="path601" d="M6.243-8.6H-9.3a.7.7,0,0,1-.7-.7.7.7,0,0,1,.7-.7H6.243a.7.7,0,0,1,.7.7A.7.7,0,0,1,6.243-8.6Z" transform="translate(10 10)"/>
              </g>
              <g id="g603" transform="translate(10.197 35.237)">
                <path id="path605" d="M6.243-8.6H-9.3a.7.7,0,0,1-.7-.7.7.7,0,0,1,.7-.7H6.243a.7.7,0,0,1,.7.7A.7.7,0,0,1,6.243-8.6Z" transform="translate(10 10)"/>
              </g>
              <g id="g607" transform="translate(22.315 20.909)">
                <path id="path609" d="M0-85.2v7.718A7.779,7.779,0,0,0,2.733-71.56l6.919,5.9a.533.533,0,0,0,.691,0l6.919-5.9A7.779,7.779,0,0,0,20-77.48V-85.2a.533.533,0,0,0-.252-.453l-9.465-5.863a.533.533,0,0,0-.561,0L.252-85.651A.533.533,0,0,0,0-85.2" transform="translate(0 91.593)" fill="#fac600"/>
              </g>
              <g id="g611" transform="translate(22.315 25.258)">
                <path id="path613" d="M-74.058-192.153a7.779,7.779,0,0,1-2.733-5.921v-8.5l-2.574,1.594a.532.532,0,0,0-.252.453v7.718a7.779,7.779,0,0,0,2.733,5.921l6.919,5.9a.533.533,0,0,0,.691,0l1.808-1.54Z" transform="translate(79.617 206.577)" fill="#e8b801"/>
              </g>
              <g id="g615" transform="translate(21.617 20.21)">
                <path id="path617" d="M-285.691-119.093a1.227,1.227,0,0,1-.8-.3l-6.919-5.9a8.465,8.465,0,0,1-2.979-6.452v-7.718a1.223,1.223,0,0,1,.583-1.046l9.466-5.863a1.224,1.224,0,0,1,1.3,0l9.466,5.863a1.223,1.223,0,0,1,.583,1.046v3.138a.7.7,0,0,1-.7.7.7.7,0,0,1-.7-.7v-3.045l-9.3-5.76-9.3,5.76v7.625a7.07,7.07,0,0,0,2.488,5.389l6.812,5.805,6.812-5.805a7.07,7.07,0,0,0,2.488-5.389v-1.322a.7.7,0,0,1,.7-.7.7.7,0,0,1,.7.7v1.322a8.464,8.464,0,0,1-2.979,6.452l-6.919,5.9A1.227,1.227,0,0,1-285.691-119.093Z" transform="translate(296.387 146.55)"/>
              </g>
              <g id="g619" transform="translate(26.615 26.954)">
                <path id="path621" d="M-151.8-75.9a5.7,5.7,0,0,1-5.7,5.7,5.7,5.7,0,0,1-5.7-5.7,5.7,5.7,0,0,1,5.7-5.7,5.7,5.7,0,0,1,5.7,5.7" transform="translate(163.198 81.6)" fill="#4fc123"/>
              </g>
              <g id="g623" transform="translate(26.615 26.954)">
                <path id="path625" d="M-41.8-75.9a5.7,5.7,0,0,1,4.129-5.477,5.7,5.7,0,0,0-1.569-.221,5.7,5.7,0,0,0-5.7,5.7,5.7,5.7,0,0,0,5.7,5.7,5.7,5.7,0,0,0,1.569-.221A5.7,5.7,0,0,1-41.8-75.9" transform="translate(44.943 81.6)" fill="#47a920"/>
              </g>
              <g id="g627" transform="translate(25.917 26.256)">
                <path id="path629" d="M-166.8-91.6a6.4,6.4,0,0,1,6.4,6.4,6.4,6.4,0,0,1-6.4,6.4,6.4,6.4,0,0,1-6.4-6.4A6.4,6.4,0,0,1-166.8-91.6Zm0,11.395a5,5,0,0,0,5-5,5,5,0,0,0-5-5,5,5,0,0,0-5,5A5,5,0,0,0-166.8-80.2Z" transform="translate(173.198 91.6)"/>
              </g>
              <g id="g631" transform="translate(29.687 30.831)">
                <path id="path633" d="M-7.617-19.264a.7.7,0,0,1-.494-.2L-9.8-21.153a.7.7,0,0,1,0-.987.7.7,0,0,1,.987,0l1.191,1.191L-5.5-23.067a.7.7,0,0,1,.987,0,.7.7,0,0,1,0,.987l-2.611,2.611A.7.7,0,0,1-7.617-19.264Z" transform="translate(10 23.272)"/>
              </g>
            </g>
          </g>
        </g>
      </g>
      <g id="Grupo_1099581" data-name="Grupo 1099581" transform="translate(921.333 387.667)">
        <g id="Grupo_1099580" data-name="Grupo 1099580">
          <g id="Grupo_1099579" data-name="Grupo 1099579" clip-path="url(#clip-path-2)">
            <path id="Trazado_877686" data-name="Trazado 877686" d="M9.313.011a9.274,9.274,0,0,1,4.828,1.241,9.477,9.477,0,0,1,3.693,12.67l-7.9,12.84a.982.982,0,0,1-.3.314.382.382,0,0,1-.207.025l-.019,0c-.276-.06-.561-.673-.7-.9L2.26,15.768c-1.4-2.292-2.2-3.6-2.193-6.4A5.239,5.239,0,0,1,.1,8.542l.154-.92A9.525,9.525,0,0,1,7.976.136,8.1,8.1,0,0,1,9.313.011" transform="translate(-0.063 -0.005)" fill="#12263f"/>
          </g>
        </g>
        <circle id="Elipse_11513" data-name="Elipse 11513" cx="4.435" cy="4.435" r="4.435" transform="translate(4.838 4.3)" fill="#fff"/>
      </g>
    </g>
  </g>
</svg>
