<svg xmlns="http://www.w3.org/2000/svg" xmlns:xlink="http://www.w3.org/1999/xlink" width="403" height="423.048" viewBox="0 0 403 423.048">
  <defs>
    <filter id="Trazado_883051" x="9.73" y="28.239" width="313" height="394.809" filterUnits="userSpaceOnUse">
      <feOffset dy="3" input="SourceAlpha"/>
      <feGaussianBlur stdDeviation="3" result="blur"/>
      <feFlood flood-opacity="0.161"/>
      <feComposite operator="in" in2="blur"/>
      <feComposite in="SourceGraphic"/>
    </filter>
    <clipPath id="clip-path">
      <rect id="Rectángulo_401350" data-name="Rectángulo 401350" width="106.617" height="106.617" fill="#fff"/>
    </clipPath>
    <clipPath id="clip-path-2">
      <path id="Trazado_874551" data-name="Trazado 874551" d="M16.736,13.049h87.386v87.386H16.736Zm-6.448,93.834H110.569V6.6H10.288Z" transform="translate(-10.288 -6.602)" fill="#a4a1c5"/>
    </clipPath>
  </defs>
  <g id="Grupo_1100985" data-name="Grupo 1100985" transform="translate(-1021.27 -3030.606)">
    <g id="Grupo_1100105" data-name="Grupo 1100105">
      <g transform="matrix(1, 0, 0, 1, 1021.27, 3030.61)" filter="url(#Trazado_883051)">
        <path id="Trazado_883051-2" data-name="Trazado 883051" d="M148.015,0h3.334C219.28,0,295,55.069,295,123V376.809H0V123C0,55.069,80.084,0,148.015,0Z" transform="translate(18.73 34.24)" fill="#496f93"/>
      </g>
      <g id="Grupo_1100104" data-name="Grupo 1100104">
        <circle id="Elipse_11529" data-name="Elipse 11529" cx="63.196" cy="63.196" r="63.196" transform="translate(1021.27 3030.606)" fill="#7ab8f5"/>
        <g id="Grupo_1099793" data-name="Grupo 1099793" transform="translate(1041.043 3050.382)" opacity="0.31">
          <path id="Trazado_882649" data-name="Trazado 882649" d="M158.166,58.841,56.835,160.173v4.792l.493.494h.439L163.452,59.774v-.933Z" transform="translate(-56.835 -58.841)" fill="#fff"/>
          <path id="Trazado_882650" data-name="Trazado 882650" d="M64.3,164.614h6.219l92.085-92.085V66.31Z" transform="translate(-55.989 -57.996)" fill="#fff"/>
          <path id="Trazado_882651" data-name="Trazado 882651" d="M76.52,163.232h6.219l78.487-78.487v-6.22Z" transform="translate(-54.606 -56.614)" fill="#fff"/>
          <path id="Trazado_882652" data-name="Trazado 882652" d="M88.736,161.849h6.219l64.887-64.887V90.743Z" transform="translate(-53.225 -55.231)" fill="#fff"/>
          <path id="Trazado_882653" data-name="Trazado 882653" d="M100.954,160.467h6.219l51.288-51.288V102.96Z" transform="translate(-51.843 -53.85)" fill="#fff"/>
          <path id="Trazado_882654" data-name="Trazado 882654" d="M113.171,159.085h6.219L157.078,121.4v-6.219Z" transform="translate(-50.462 -52.467)" fill="#fff"/>
          <path id="Trazado_882655" data-name="Trazado 882655" d="M125.388,157.7h6.219l24.09-24.088v-6.22Z" transform="translate(-49.079 -51.085)" fill="#fff"/>
          <path id="Trazado_882656" data-name="Trazado 882656" d="M137.6,156.32h6.219l10.49-10.49v-6.219Z" transform="translate(-47.696 -49.703)" fill="#fff"/>
          <path id="Trazado_882657" data-name="Trazado 882657" d="M149.822,154.938h3.11v-3.11Z" transform="translate(-46.313 -48.32)" fill="#fff"/>
          <path id="Trazado_882658" data-name="Trazado 882658" d="M145.223,58.841,56.835,147.229v6.219l94.607-94.607Z" transform="translate(-56.835 -58.841)" fill="#fff"/>
          <path id="Trazado_882659" data-name="Trazado 882659" d="M131.624,58.841,56.835,133.63v6.219l81.008-81.008Z" transform="translate(-56.835 -58.841)" fill="#fff"/>
          <path id="Trazado_882660" data-name="Trazado 882660" d="M118.025,58.841,56.835,120.03v6.219l67.409-67.409Z" transform="translate(-56.835 -58.841)" fill="#fff"/>
          <path id="Trazado_882661" data-name="Trazado 882661" d="M104.426,58.841l-47.59,47.59v6.219l53.809-53.809Z" transform="translate(-56.835 -58.841)" fill="#fff"/>
          <path id="Trazado_882662" data-name="Trazado 882662" d="M90.826,58.841,56.835,92.832v6.219l40.21-40.21Z" transform="translate(-56.835 -58.841)" fill="#fff"/>
          <path id="Trazado_882663" data-name="Trazado 882663" d="M77.227,58.841,56.835,79.233v6.219L83.446,58.841Z" transform="translate(-56.835 -58.841)" fill="#fff"/>
          <path id="Trazado_882664" data-name="Trazado 882664" d="M63.627,58.841l-6.792,6.792v6.219L69.847,58.841Z" transform="translate(-56.835 -58.841)" fill="#fff"/>
          <g id="Grupo_1099792" data-name="Grupo 1099792" transform="translate(0)">
            <g id="Grupo_1099419" data-name="Grupo 1099419" clip-path="url(#clip-path)">
              <rect id="Rectángulo_401348" data-name="Rectángulo 401348" width="153.242" height="4.398" transform="translate(-56.457 49.669) rotate(-45.01)" fill="#fff"/>
              <rect id="Rectángulo_401349" data-name="Rectángulo 401349" width="153.241" height="4.398" transform="translate(-63.265 42.859) rotate(-45)" fill="#fff"/>
            </g>
          </g>
        </g>
      </g>
      <g id="Grupo_1100103" data-name="Grupo 1100103">
        <path id="Trazado_883425" data-name="Trazado 883425" d="M109.387,132.888c53.974-16.6,112.561-6.178,133.065,61.222S187.4,304.063,187.4,304.063s64.221-62.345,23.814-116.072c-29.371-39.053-76.891-10.381-76.891-10.381l13.241,23.362-75.97-17.853,23.886-74.04Z" transform="translate(1032.89 3042.315)" fill="#e8f57a"/>
        <path id="Trazado_883426" data-name="Trazado 883426" d="M305.887,244l-58.214,7.791-9.184,1.2-72.623,9.723L54.285,237l73-9.754,9.217-1.235,57.769-7.729Z" transform="translate(1034.138 3034.443)" fill="#fbb749"/>
        <path id="Trazado_883427" data-name="Trazado 883427" d="M314.572,246V386.474L174.549,405.189V264.717l28.39-3.8Z" transform="translate(1025.468 3032.445)" fill="#fbb749"/>
        <path id="Trazado_883428" data-name="Trazado 883428" d="M54.281,238.459l-.037,140.453,111.632,25.733V264.173Z" transform="translate(1034.141 3032.988)" fill="#fbb749"/>
        <path id="Trazado_883429" data-name="Trazado 883429" d="M106.162,377a.389.389,0,0,1-.085-.009L61.042,367.3a.4.4,0,1,1,.171-.787l45.034,9.7a.4.4,0,0,1-.085.8" transform="translate(1033.673 3023.758)" fill="#2e2c41"/>
        <path id="Trazado_883430" data-name="Trazado 883430" d="M92.162,363.452a.421.421,0,0,1-.083-.008l-30.023-6.254a.4.4,0,0,1,.164-.789l30.024,6.255a.4.4,0,0,1-.083.8" transform="translate(1033.601 3024.487)" fill="#2e2c41"/>
        <path id="Trazado_883431" data-name="Trazado 883431" d="M261.984,254.4v80.224l-9.184,1.268V255.6Z" transform="translate(1019.827 3031.84)" fill="#eaa23b"/>
        <path id="Trazado_883432" data-name="Trazado 883432" d="M253.345,252.2v.19l-9.184,1.2-111.2-25.75,9.217-1.235Z" transform="translate(1028.466 3033.843)" fill="#eaa23b"/>
        <path id="Trazado_883433" data-name="Trazado 883433" d="M126.183,376.229l-.015,10.932,44.893,10.349v-10.94Z" transform="translate(1028.956 3023.057)" fill="#fbb749"/>
        <path id="Trazado_883434" data-name="Trazado 883434" d="M92.78,247.351l-.013,48.07,38.206,8.807V256.151Z" transform="translate(1031.363 3032.348)" fill="#eaa23b"/>
        <path id="Trazado_883435" data-name="Trazado 883435" d="M166.2,405.174a.4.4,0,0,1-.4-.4V264.625l-106.776-23.6a.4.4,0,1,1,.174-.786l107.091,23.67a.406.406,0,0,1,.315.394v140.47a.4.4,0,0,1-.4.4" transform="translate(1033.819 3032.861)" fill="#2e2c41"/>
        <path id="Trazado_883436" data-name="Trazado 883436" d="M174.517,265.238a.4.4,0,0,1-.053-.8l126.317-16.791a.4.4,0,1,1,.107.8L174.572,265.234a.367.367,0,0,1-.055,0" transform="translate(1025.499 3032.326)" fill="#2e2c41"/>
        <path id="Trazado_883437" data-name="Trazado 883437" d="M122.643,36.889H241.132a7.6,7.6,0,0,1,7.6,7.6V87.1a7.6,7.6,0,0,1-7.6,7.6v9.758L223.4,94.7H122.644a7.6,7.6,0,0,1-7.6-7.6V44.486a7.6,7.6,0,0,1,7.6-7.6" transform="translate(1029.757 3047.52)" fill="#2e2c41"/>
        <path id="Trazado_883438" data-name="Trazado 883438" d="M117.812,31.721H236.3a7.6,7.6,0,0,1,7.6,7.6V81.932a7.6,7.6,0,0,1-7.6,7.6v9.758l-17.732-9.758H117.813a7.6,7.6,0,0,1-7.6-7.6V39.318a7.6,7.6,0,0,1,7.6-7.6" transform="translate(1030.105 3047.893)" fill="#fff"/>
        <g id="Grupo_1100983" data-name="Grupo 1100983" transform="translate(-4.906 1.691)">
          <path id="Trazado_883439" data-name="Trazado 883439" d="M140.115,64.426H136.8l-1.3,7.421h-4.079l3.522-20.274,6.713.014a7.649,7.649,0,0,1,5.187,1.587,5.02,5.02,0,0,1,1.607,4.415A6.37,6.37,0,0,1,144,63.4l2.855,8.229v.223H142.51Zm-2.729-3.384,3.036.028a4.247,4.247,0,0,0,2.666-.87,3.444,3.444,0,0,0,1.26-2.29,2.626,2.626,0,0,0-.431-2.117,2.571,2.571,0,0,0-1.992-.822l-3.48-.014Z" transform="translate(1028.577 3046.461)" fill="#f5827a"/>
          <path id="Trazado_883440" data-name="Trazado 883440" d="M162.222,63.061h-7.77l-.946,5.43h9.135l-.584,3.357H148.84l3.523-20.274H165.55l-.6,3.382h-9.093l-.85,4.832h7.8Z" transform="translate(1028.958 3046.461)" fill="#f5827a"/>
          <path id="Trazado_883441" data-name="Trazado 883441" d="M182.187,54.956h-6.016l-2.924,16.891h-4.08l2.924-16.891h-5.945l.6-3.383h16.041Z" transform="translate(1029.336 3046.461)" fill="#f5827a"/>
          <path id="Trazado_883442" data-name="Trazado 883442" d="M199.822,51.573l-2.283,13.368a8.14,8.14,0,0,1-2.786,5.3,8.362,8.362,0,0,1-5.737,1.895,7.712,7.712,0,0,1-3.725-.939,5.486,5.486,0,0,1-2.332-2.533,6.876,6.876,0,0,1-.516-3.712l2.271-13.381h4.079l-2.27,13.395a5.907,5.907,0,0,0-.013,1.462,2.467,2.467,0,0,0,2.688,2.339,3.828,3.828,0,0,0,2.825-.947,4.841,4.841,0,0,0,1.421-2.867l2.283-13.381Z" transform="translate(1029.691 3046.461)" fill="#f5827a"/>
          <path id="Trazado_883443" data-name="Trazado 883443" d="M208,64.426h-3.314l-1.3,7.421h-4.079l3.522-20.274,6.713.014a7.649,7.649,0,0,1,5.187,1.587,5.02,5.02,0,0,1,1.607,4.415,6.37,6.37,0,0,1-4.455,5.806l2.855,8.229v.223H210.4Zm-2.729-3.384,3.036.028a4.247,4.247,0,0,0,2.666-.87,3.444,3.444,0,0,0,1.26-2.29,2.626,2.626,0,0,0-.431-2.117,2.571,2.571,0,0,0-1.992-.822l-3.481-.014Z" transform="translate(1030.062 3046.461)" fill="#f5827a"/>
          <path id="Trazado_883444" data-name="Trazado 883444" d="M232.755,71.847H228.8l-5.64-13.52-2.353,13.52h-4.08l3.523-20.274h3.94l5.653,13.548L232.2,51.573h4.067Z" transform="translate(1030.443 3046.461)" fill="#f5827a"/>
        </g>
        <path id="Trazado_883445" data-name="Trazado 883445" d="M330.309,101.338c-.275,20.533-22.967,12.484-23.567,8.491-.095-.643,1.3-2.9,2.539-4.741.959-1.444,1.833-2.645,1.833-2.645l.137-.3a10.611,10.611,0,0,0,.642-1.938c.676-3.213-.863-9.07-.863-9.081,4.771-3.1,10.324-7.7,15.086-10.8,0,0,1.348-.148,1.358-.148.053.264,2.761,20.891,2.835,21.155" transform="translate(1015.938 3044.398)" fill="#f4947a"/>
        <path id="Trazado_883446" data-name="Trazado 883446" d="M318.162,383.208,316.7,358.832l-20.468-.134,4.279,25.571,5.4,6.677,11.279-1.019Z" transform="translate(1016.696 3024.32)" fill="#f4947a"/>
        <path id="Trazado_883447" data-name="Trazado 883447" d="M274.78,401.167s-1.125,6.493,6.513,7.263,13,.365,16.946-.494,6.16-2.1,10.308-1.747,8.392,2.074,10.479-.033c1.709-1.726.148-6.455.148-6.455l-22.868.109Z" transform="translate(1018.247 3021.365)" fill="#e8f57a"/>
        <path id="Trazado_883448" data-name="Trazado 883448" d="M298.963,386.174s-9.068,6.463-13.53,8.663-10.252.67-10.649,5.279,12.191,3.595,19.562,2.916,12.541-3.557,16.4-2.415,8.151-.691,8.428-1.968-1.584-12.464-2.564-13.536c0,0-.539,2.207-7.8,2.4s-9.853-1.337-9.853-1.337" transform="translate(1018.243 3022.417)" fill="#2e2c41"/>
        <path id="Trazado_883449" data-name="Trazado 883449" d="M291.571,396.087l-.113.068a.442.442,0,0,1-.609-.157l-1.382-2.343a.451.451,0,0,1,.155-.614l.113-.068a.442.442,0,0,1,.609.157l1.382,2.343a.451.451,0,0,1-.155.614" transform="translate(1017.188 3021.854)" fill="#ffe5da"/>
        <path id="Trazado_883450" data-name="Trazado 883450" d="M293.788,394.513l-.113.068a.442.442,0,0,1-.609-.157l-1.382-2.343a.451.451,0,0,1,.155-.614l.113-.068a.442.442,0,0,1,.609.157l1.382,2.343a.451.451,0,0,1-.155.614" transform="translate(1017.028 3021.968)" fill="#ffe5da"/>
        <path id="Trazado_883451" data-name="Trazado 883451" d="M296.373,392.85l-.113.068a.442.442,0,0,1-.609-.157l-1.382-2.343a.451.451,0,0,1,.155-.614l.113-.068a.442.442,0,0,1,.609.157l1.382,2.343a.451.451,0,0,1-.155.614" transform="translate(1016.842 3022.088)" fill="#ffe5da"/>
        <path id="Trazado_883452" data-name="Trazado 883452" d="M298.927,391.2l-.113.068a.442.442,0,0,1-.609-.157l-1.382-2.343a.451.451,0,0,1,.155-.614l.113-.068a.442.442,0,0,1,.609.157l1.382,2.343a.451.451,0,0,1-.155.614" transform="translate(1016.658 3022.207)" fill="#ffe5da"/>
        <path id="Trazado_883453" data-name="Trazado 883453" d="M378.875,376.229l-3.43-18.587-20.4.2,6.02,19.681L366.987,388l11.28-1.018Z" transform="translate(1012.456 3024.396)" fill="#f4947a"/>
        <path id="Trazado_883454" data-name="Trazado 883454" d="M381.294,389s-.075,11.848-1.348,13.837c-4.281,6.692-16.127,6.25-22.562,3.32-3.942-1.8-1.578-10.077-1.578-10.077Z" transform="translate(1012.452 3022.137)" fill="#e8f57a"/>
        <path id="Trazado_883455" data-name="Trazado 883455" d="M361.073,378.717s-2.265,8.325-2.736,9.245-8.706,14.249,4.68,15.2,16.085-1.3,18.009-10.52c1.112-5.325-2.127-14.967-2.127-14.967s-.329,3.036-4.8,3.687c-7.846,1.139-11.785.1-13.027-2.643" transform="translate(1012.431 3022.953)" fill="#2e2c41"/>
        <path id="Trazado_883456" data-name="Trazado 883456" d="M364.184,384.736l10.141.089a.686.686,0,0,0,.012-1.372l-10.141-.089a.686.686,0,1,0-.012,1.372" transform="translate(1011.847 3022.543)" fill="#ffe5da"/>
        <path id="Trazado_883457" data-name="Trazado 883457" d="M363.892,387.723l10.141.089a.686.686,0,1,0,.012-1.372l-10.141-.089a.686.686,0,0,0-.012,1.372" transform="translate(1011.867 3022.327)" fill="#ffe5da"/>
        <path id="Trazado_883458" data-name="Trazado 883458" d="M363.6,391.233l10.141.09a.686.686,0,0,0,.012-1.372l-10.141-.089a.686.686,0,1,0-.012,1.371" transform="translate(1011.889 3022.074)" fill="#ffe5da"/>
        <path id="Trazado_883459" data-name="Trazado 883459" d="M357.357,285.376c-.329-.974,1.979-28.885,2.774-42.131,2.375-39.547-2.037-46.735-2.037-46.735l-24.577-1.192-39.058,4.151c-1.435,19.242-13.03,64.05-10.9,88.295.547,6.234,12.009,79.09,12.009,79.09s19.8,2.07,25.484-2.723c0,0-7.2-69.9-6.823-75.03s7.539-41.4,7.539-41.4,3.773,26.781,4.736,39.4c.337,4.416,3.173,14.029,6.777,24.811,7.03,21.034,15.79,47.065,15.79,47.065,15.2-.314,24.48-4.347,24.48-4.347s-15.863-68.286-16.193-69.26" transform="translate(1017.628 3036.099)" fill="#2e2c41"/>
        <path id="Trazado_883460" data-name="Trazado 883460" d="M320.284,231.588a2.82,2.82,0,0,1-2.81-2.618l-1.587-22.048a.2.2,0,1,1,.4-.029l1.586,22.047a2.424,2.424,0,0,0,2.6,2.245l2.17-.16a.2.2,0,1,1,.029.394l-2.169.161c-.071.006-.143.007-.213.007" transform="translate(1015.279 3035.277)" fill="#ffe5da"/>
        <path id="Trazado_883461" data-name="Trazado 883461" d="M324.517,248.7a.2.2,0,0,1-.2-.184l-2.885-41.979a.2.2,0,0,1,.4-.027l2.885,41.978a.2.2,0,0,1-.184.212Z" transform="translate(1014.879 3035.305)" fill="#ffe5da"/>
        <path id="Trazado_883462" data-name="Trazado 883462" d="M328.953,101.219s17.128,4.13,27.04,7.506a160.459,160.459,0,0,1,1.025,23.192c-.407,12.228-3.086,23.954-1.347,43.084.568,6.248,3.416,15.821,3.416,15.821s-32.755,12-64.686,1.678c0,0,.932-23.626-.156-34.767s-6.914-42.278-.913-47.879c2.718-2.536,16.75-6.236,16.75-6.236s-2.521,10.637,8.077,9.549,10.794-11.947,10.794-11.947" transform="translate(1017.098 3042.882)" fill="#7ab8f5"/>
        <path id="Trazado_883463" data-name="Trazado 883463" d="M318.548,116.993H318.4c-3.662-.032-6.417-1.092-8.189-3.149a10.426,10.426,0,0,1-2.118-7.6.2.2,0,0,1,.392.055c-.006.043-.561,4.293,2.027,7.294,1.7,1.964,4.349,2.977,7.891,3.009h.14c11.164,0,13.92-12.024,13.947-12.146a.194.194,0,0,1,.236-.15.2.2,0,0,1,.15.236c-.027.125-2.855,12.456-14.332,12.457" transform="translate(1015.845 3042.66)" fill="#2e2c41"/>
        <path id="Trazado_883464" data-name="Trazado 883464" d="M294.717,109s-8.5,3.073-10.5,10.514-6.168,23.374-6.168,23.374,12.3,2.3,14.878,1.443S294.717,109,294.717,109" transform="translate(1018.007 3042.32)" fill="#7ab8f5"/>
        <path id="Trazado_883465" data-name="Trazado 883465" d="M308.13,187.209l-14.778-1.273c.071-1.461.165-2.946.236-4.454l14.307,1.249c.094,1.532.165,3.041.236,4.478" transform="translate(1016.903 3037.096)" fill="#fff"/>
        <path id="Trazado_883466" data-name="Trazado 883466" d="M302.573,84.3c.243,9.581,4.666,18.667,11.529,18.3,6.4-.341,11.164-3.569,15.22-13.39,2.009-4.863,4.318-18.633,4.318-18.633l-.356-2.876s-1.671-2.019-3.533-4.281c-2.325-2.839-7.267-.4-7.314-.574-.064-.262-12.184-4.51-17.114-.307-.018.009-.027.019-.027.028a5.261,5.261,0,0,0-1.088,1.227,3.438,3.438,0,0,0-.455,1.141c-.15.77-.353,1.929-.6,3.4-.087.615-.2,1.285-.3,2-.166,1.2-.331,2.526-.47,3.929-.293,2.933.1,6.729.187,10.04" transform="translate(1016.26 3045.804)" fill="#f4947a"/>
        <path id="Trazado_883467" data-name="Trazado 883467" d="M314.318,105.56a7.438,7.438,0,0,1-3.539-.9l.152-.284a7.177,7.177,0,0,0,3.777.852,13.754,13.754,0,0,0,10.961-5.808l.256.2a14.045,14.045,0,0,1-11.2,5.932c-.135.007-.27.011-.405.011" transform="translate(1015.647 3043.012)" fill="#2e2c41"/>
        <path id="Trazado_883468" data-name="Trazado 883468" d="M331.829,85.518a3.907,3.907,0,0,0,3.13-3.656c.3-3.221,2.776-3.626,3.213-5.338s-.963-2-.881-3.094,1.388-1.813,1.468-3.543-1.532-.994-1.659-2.39,1.124-2.344.721-4.41-3.084-1.162-3.566-1.94.027-3.5-1.471-4.549-3.432.286-4.59-.385-2.1-2.805-4.085-3.3-2.424,1.048-4.31.893-2.907-1.692-4.7-1.7-1.967,2.679-3.313,2.84-3.313-1.107-4.934-.29-.88,3.037-2.393,3.648-2.848.69-3.465,2.3.225,2.375-.112,3.52S299.8,66.36,299.693,67.2s.909.888.837,2.121-1.655,2.211,1.669,4.315a23.605,23.605,0,0,1,1.605-4.692c1.235-2.15,15.9-4.028,19.353-.045,1.023,1.181-.1,2.656,1.647,3.981s2.121.636,2.246,5.26c.133,4.85-.1,4.627-.1,4.627l2.8.681s-.509-5.8,1.4-5.78.68,7.849.68,7.849" transform="translate(1016.447 3046.422)" fill="#2e2c41"/>
        <path id="Trazado_883469" data-name="Trazado 883469" d="M318.452,94.782l-5.424-.023s2.284,4.115,5.424.023" transform="translate(1015.485 3043.348)" fill="#ffe5da"/>
        <path id="Trazado_883470" data-name="Trazado 883470" d="M331.2,79.7s6.39-3.268,5.294,3.322a10.574,10.574,0,0,1-6.645,8.354Z" transform="translate(1014.273 3044.491)" fill="#f4947a"/>
        <path id="Trazado_883471" data-name="Trazado 883471" d="M332.459,82.328s4.761-.758-.8,5.554Z" transform="translate(1014.143 3044.246)" fill="#2e2c41"/>
        <path id="Trazado_883472" data-name="Trazado 883472" d="M306.9,82.888c.068.836.517,1.482,1,1.442s.826-.749.758-1.585-.517-1.482-1-1.443-.826.75-.758,1.586" transform="translate(1015.928 3044.318)" fill="#2e2c41"/>
        <path id="Trazado_883473" data-name="Trazado 883473" d="M318.15,83.294c.068.836.517,1.482,1,1.442s.826-.749.758-1.585-.517-1.482-1-1.443-.826.75-.758,1.586" transform="translate(1015.117 3044.289)" fill="#2e2c41"/>
        <path id="Trazado_883474" data-name="Trazado 883474" d="M309.883,78.138s-3.379-1.548-5.6.3Z" transform="translate(1016.115 3044.59)" fill="#2e2c41"/>
        <path id="Trazado_883475" data-name="Trazado 883475" d="M323.372,78.656c-.2-.115-3.308-2.1-6.206-.778Z" transform="translate(1015.187 3044.598)" fill="#2e2c41"/>
        <path id="Trazado_883476" data-name="Trazado 883476" d="M312.915,89.716c-1.058,0-1.388-.471-1.49-.792a1.953,1.953,0,0,1,1.075-2.06l.139.29a1.649,1.649,0,0,0-.908,1.672c.161.506.853.681,1.931.5l.054.317a4.8,4.8,0,0,1-.8.074" transform="translate(1015.604 3043.917)" fill="#2e2c41"/>
        <path id="Trazado_883477" data-name="Trazado 883477" d="M248.008,179.1l2.448-2.172s-3.788-3.623-1.293-5.537a16.2,16.2,0,0,1,4.687,2.44c1.858,1.547,4.94,3.844,4.94,3.844l-4.6,2.005Z" transform="translate(1020.172 3037.824)" fill="#f4947a"/>
        <rect id="Rectángulo_402039" data-name="Rectángulo 402039" width="40.752" height="43.524" transform="translate(1293.065 3178.165)" fill="#fbb749"/>
        <rect id="Rectángulo_402040" data-name="Rectángulo 402040" width="40.752" height="3.419" transform="translate(1293.065 3218.27)" fill="#eaa23b"/>
        <rect id="Rectángulo_402041" data-name="Rectángulo 402041" width="12.452" height="10.848" transform="translate(1317.88 3178.164)" fill="#eaa23b"/>
        <rect id="Rectángulo_402042" data-name="Rectángulo 402042" width="21.083" height="43.524" transform="translate(1271.982 3178.165)" fill="#eaa23b"/>
        <path id="Trazado_883478" data-name="Trazado 883478" d="M274.811,178.187a.2.2,0,0,1-.2-.2V137.915a.2.2,0,0,1,.4,0v40.075a.2.2,0,0,1-.2.2" transform="translate(1018.254 3040.251)" fill="#2e2c41"/>
        <rect id="Rectángulo_402043" data-name="Rectángulo 402043" width="3.01" height="22.967" transform="translate(1281.019 3178.164)" fill="#fbb749"/>
        <path id="Trazado_883479" data-name="Trazado 883479" d="M306.523,174.831a3.694,3.694,0,1,0,3.694-3.695,3.695,3.695,0,0,0-3.694,3.695" transform="translate(1015.954 3037.842)" fill="#eaa23b"/>
        <path id="Trazado_883480" data-name="Trazado 883480" d="M250.294,177.353s-4.856,2.337-4.5,3.868a4.146,4.146,0,0,0,1.736,2.359,2.152,2.152,0,0,0,1.355,3.133s.232,2.5,3.376,2.415c0,0,1.366,1.518,2.587,1.3s6.295-1.892,6.768-2.717a.549.549,0,0,0,.126-.7s1.371-.6,1.368-1.641-1.509-.636-1.509-.636,1.49-1.8,1.075-2.613-5.942.685-5.942.685,3.536-2.469,1.838-2.851-4.183.469-6.567-.075a1.941,1.941,0,0,1-1.715-2.53" transform="translate(1020.333 3037.394)" fill="#f4947a"/>
        <path id="Trazado_883481" data-name="Trazado 883481" d="M253.4,183.889c-.135,0-.269,0-.406-.008-2.107-.084-4.492-.09-4.516-.091v-.227c.025,0,2.414.007,4.525.092a11.985,11.985,0,0,0,3.894-.534l.074.213a12.161,12.161,0,0,1-3.571.556" transform="translate(1020.139 3036.979)" fill="#2e2c41"/>
        <path id="Trazado_883482" data-name="Trazado 883482" d="M253.392,187.358c-1.6,0-3.089-.074-3.111-.076l.011-.226a53.4,53.4,0,0,0,5.379,0,31.719,31.719,0,0,0,6.216-1.859l.085.21a31.029,31.029,0,0,1-6.283,1.875c-.678.055-1.5.074-2.3.074" transform="translate(1020.008 3036.828)" fill="#2e2c41"/>
        <path id="Trazado_883483" data-name="Trazado 883483" d="M252.771,190.1l0-.226a24.885,24.885,0,0,0,5.2-.62l.067.217a24.987,24.987,0,0,1-5.262.629" transform="translate(1019.829 3036.536)" fill="#2e2c41"/>
        <path id="Trazado_883484" data-name="Trazado 883484" d="M349.963,150.5s-1.5,15.729-2.079,18.119-30.27,7.371-30.27,7.371l-1.049,10.684s35.092,7.177,46.913-8.4c4.368-5.756,4.456-29.853,4.456-29.853Z" transform="translate(1015.23 3039.479)" fill="#f4947a"/>
        <path id="Trazado_883485" data-name="Trazado 883485" d="M289.257,186.053c-.253-1.488,1.718-1.041,1.718-1.041.358-2.707,3.821-.985,3.821-.985-.531-3.2,7.232-.362,10.806-1.324,2.67-.721,3.409-3.6,4.19-4.422.259-.29.4-.48.4-.48-.22-5.5,4.128-7.355,5.153-5.885s-.053,1.507-.186,2.889a5.082,5.082,0,0,0,1.067,2.813c.31.478.56.785.56.785l-.607,9.919s-8.952,3.192-12.968,3.225a28.77,28.77,0,0,1-10.276-1.616c-2.636-1.006-2.44-2.173-2.44-2.173a1.916,1.916,0,0,1-1.234-1.7" transform="translate(1017.2 3037.82)" fill="#f4947a"/>
        <path id="Trazado_883486" data-name="Trazado 883486" d="M305.476,186.671a29.189,29.189,0,0,1-3.134-.174,43.823,43.823,0,0,1-7.15-1.39l.067-.223a43.754,43.754,0,0,0,7.108,1.381,23.191,23.191,0,0,0,6.43-.077l.047.229a18.76,18.76,0,0,1-3.367.253" transform="translate(1016.771 3036.851)" fill="#2e2c41"/>
        <path id="Trazado_883487" data-name="Trazado 883487" d="M305.141,189.685c-9.106-.543-14.048-3.5-14.1-3.526l.121-.2c.049.03,4.947,2.953,13.99,3.492Z" transform="translate(1017.07 3036.773)" fill="#2e2c41"/>
        <path id="Trazado_883488" data-name="Trazado 883488" d="M303.728,191.8c-4.4-.051-13.095-2.648-13.182-2.674l.067-.225c.087.026,8.751,2.615,13.117,2.665Z" transform="translate(1017.106 3036.561)" fill="#2e2c41"/>
        <path id="Trazado_883489" data-name="Trazado 883489" d="M360.837,172.559c-2.678-1.785-10.449-2.26-10.527-2.264l.013-.227c.322.019,7.911.483,10.641,2.3Z" transform="translate(1012.797 3037.919)" fill="#2e2c41"/>
        <path id="Trazado_883490" data-name="Trazado 883490" d="M351.575,123.177l-.3,27.773s11.462,2.7,19.9-1.634c1.214-.623,1.931-38.467-10.817-40.009-2.675-.324-8.787,13.869-8.787,13.869" transform="translate(1012.728 3042.299)" fill="#7ab8f5"/>
        <path id="Trazado_883491" data-name="Trazado 883491" d="M352.057,153.054h-.018a.2.2,0,0,1-.18-.214l1.356-15.221a.208.208,0,0,1,.214-.18.2.2,0,0,1,.181.214l-1.356,15.221a.2.2,0,0,1-.2.18" transform="translate(1012.686 3040.271)" fill="#2e2c41"/>
        <path id="Trazado_883492" data-name="Trazado 883492" d="M56.255,208.381A6.255,6.255,0,1,1,50,202.126a6.256,6.256,0,0,1,6.255,6.255" transform="translate(1034.897 3035.607)" fill="#fff"/>
        <path id="Trazado_883493" data-name="Trazado 883493" d="M286.319,45.376a2.65,2.65,0,1,1-2.65-2.65,2.651,2.651,0,0,1,2.65,2.65" transform="translate(1017.792 3047.099)" fill="#fff"/>
        <path id="Trazado_883494" data-name="Trazado 883494" d="M227.291,122.156a2.65,2.65,0,1,1-2.65-2.65,2.65,2.65,0,0,1,2.65,2.65" transform="translate(1022.048 3041.563)" fill="#fff"/>
        <path id="Trazado_883495" data-name="Trazado 883495" d="M79.444,72.5a2.65,2.65,0,1,1-2.65-2.65,2.651,2.651,0,0,1,2.65,2.65" transform="translate(1032.706 3045.144)" fill="#fff"/>
        <path id="Trazado_883496" data-name="Trazado 883496" d="M193.3,195.629a2.65,2.65,0,1,1-2.65-2.65,2.65,2.65,0,0,1,2.65,2.65" transform="translate(1024.499 3036.268)" fill="#fff"/>
      </g>
      <g id="Grupo_1099796" data-name="Grupo 1099796" transform="translate(1318.183 3280.287)">
        <g id="Grupo_1099437" data-name="Grupo 1099437" transform="translate(5.806 3.726)">
          <g id="Grupo_1099436" data-name="Grupo 1099436" clip-path="url(#clip-path-2)">
            <rect id="Rectángulo_401360" data-name="Rectángulo 401360" width="100.281" height="100.281" transform="translate(0 0)" fill="#a4a1c5"/>
          </g>
        </g>
        <rect id="Rectángulo_401361" data-name="Rectángulo 401361" width="11.613" height="11.613" fill="#e8f57a"/>
      </g>
    </g>
  </g>
</svg>
