<svg xmlns="http://www.w3.org/2000/svg" xmlns:xlink="http://www.w3.org/1999/xlink" width="124.011" height="125.273" viewBox="0 0 124.011 125.273">
  <defs>
    <filter id="Elipse_11501" x="0" y="0" width="124.011" height="125.273" filterUnits="userSpaceOnUse">
      <feOffset dy="3" input="SourceAlpha"/>
      <feGaussianBlur stdDeviation="3" result="blur"/>
      <feFlood flood-opacity="0.161"/>
      <feComposite operator="in" in2="blur"/>
      <feComposite in="SourceGraphic"/>
    </filter>
    <filter id="Elipse_11501-2" x="0" y="0" width="124.011" height="125.273" filterUnits="userSpaceOnUse">
      <feOffset dy="6" input="SourceAlpha"/>
      <feGaussianBlur stdDeviation="3" result="blur-2"/>
      <feFlood flood-opacity="0.161" result="color"/>
      <feComposite operator="out" in="SourceGraphic" in2="blur-2"/>
      <feComposite operator="in" in="color"/>
      <feComposite operator="in" in2="SourceGraphic"/>
    </filter>
  </defs>
  <g id="Grupo_1100987" data-name="Grupo 1100987" transform="translate(-403.021 -5263.371)">
    <g id="Grupo_1100206" data-name="Grupo 1100206" transform="translate(-509.312 4872.371)">
      <g id="Grupo_1099492" data-name="Grupo 1099492" transform="translate(921.333 397)">
        <g data-type="innerShadowGroup">
          <g transform="matrix(1, 0, 0, 1, -9, -6)" filter="url(#Elipse_11501)">
            <ellipse id="Elipse_11501-3" data-name="Elipse 11501" cx="53.005" cy="53.636" rx="53.005" ry="53.636" transform="translate(9 6)" fill="#a4a1c5"/>
          </g>
          <g transform="matrix(1, 0, 0, 1, -9, -6)" filter="url(#Elipse_11501-2)">
            <ellipse id="Elipse_11501-4" data-name="Elipse 11501" cx="53.005" cy="53.636" rx="53.005" ry="53.636" transform="translate(9 6)" fill="#fff"/>
          </g>
        </g>
        <g id="entrega-logistica" transform="translate(20.884 23.37)">
          <g id="Grupo_1099491" data-name="Grupo 1099491" transform="translate(0 0)">
            <path id="Trazado_875212" data-name="Trazado 875212" d="M62.14,14.938H54.688a.945.945,0,1,0,0,1.889H62.14a.455.455,0,0,1,.454.454V65.923a.455.455,0,0,1-.454.454H30.5v-15.8a.945.945,0,0,0-1.889,0V73.421a.349.349,0,0,1-.349.349H2.238a.349.349,0,0,1-.349-.349V37.146a.349.349,0,0,1,.349-.349h9.975v1.7H4.6a.945.945,0,0,0-.945.945V70.845a.945.945,0,0,0,.945.945H25.9a.945.945,0,0,0,.945-.945V39.438a.945.945,0,0,0-.945-.945H18.29V36.8h9.975a.349.349,0,0,1,.349.349V46.12a.945.945,0,1,0,1.889,0V37.146a2.241,2.241,0,0,0-2.238-2.238H23.321v-.43a3.536,3.536,0,0,0-3.532-3.532H13.044V17.281a.455.455,0,0,1,.454-.454H30.724V28.682a2.346,2.346,0,0,0,2.343,2.343h9.5a2.346,2.346,0,0,0,2.343-2.343V16.827H50.23a.945.945,0,0,0,0-1.889H13.5a2.346,2.346,0,0,0-2.343,2.343V30.947h-.442a3.535,3.535,0,0,0-3.531,3.532v.43H2.238A2.241,2.241,0,0,0,0,37.147V73.421a2.241,2.241,0,0,0,2.238,2.238H28.265A2.241,2.241,0,0,0,30.5,73.421V68.267H62.14a2.346,2.346,0,0,0,2.343-2.343V17.281a2.346,2.346,0,0,0-2.343-2.343ZM43.026,28.682a.455.455,0,0,1-.454.454h-9.5a.455.455,0,0,1-.454-.454V16.827H43.026V28.682ZM24.958,69.9H5.545V40.383h6.719a2.241,2.241,0,0,0,2.187,1.766h1.6a2.241,2.241,0,0,0,2.187-1.766h6.719ZM16.4,39.911a.349.349,0,0,1-.349.349h-1.6a.349.349,0,0,1-.349-.349V36.8h2.3v3.113Zm-7.33-5.433a1.644,1.644,0,0,1,1.642-1.642H19.79a1.644,1.644,0,0,1,1.642,1.642v.43H9.071Z" transform="translate(0 -14.938)" fill="#12263f"/>
            <path id="Trazado_875213" data-name="Trazado 875213" d="M373.1,213.262a1.97,1.97,0,0,0-1.687-.941h-7.088a1.983,1.983,0,0,0-1.774,2.87l.268.537a6.806,6.806,0,0,0,2.349,10.814.945.945,0,1,0,.75-1.734,4.916,4.916,0,0,1-2.164-7.209l2.34,4.681a1.983,1.983,0,0,0,3.548,0l2.34-4.681a4.915,4.915,0,0,1-2.325,7.275.945.945,0,1,0,.688,1.76,6.805,6.805,0,0,0,2.573-10.906l.268-.537A1.97,1.97,0,0,0,373.1,213.262Zm-5.147,8.173a.094.094,0,0,1-.169,0l-3.544-7.088a.094.094,0,0,1,.084-.136h7.088a.094.094,0,0,1,.084.136Z" transform="translate(-315.584 -187.462)" fill="#12263f"/>
            <path id="Trazado_875214" data-name="Trazado 875214" d="M409.382,347.975h-6.59a.945.945,0,1,0,0,1.889h6.59a.945.945,0,0,0,0-1.889Z" transform="translate(-351.236 -306.031)" fill="#12263f"/>
            <path id="Trazado_875215" data-name="Trazado 875215" d="M296.792,378.95H273.979a.945.945,0,1,0,0,1.889h22.813a.945.945,0,1,0,0-1.889Z" transform="translate(-238.647 -333.104)" fill="#12263f"/>
            <path id="Trazado_875216" data-name="Trazado 875216" d="M69.3,332.606l-1.338,1.339-.335-.335a.945.945,0,0,0-1.336,1.336l1,1a.945.945,0,0,0,1.336,0l2.006-2.006a.945.945,0,0,0-1.336-1.336Z" transform="translate(-57.697 -292.356)" fill="#12263f"/>
            <path id="Trazado_875217" data-name="Trazado 875217" d="M124.437,330.587h1.3a.945.945,0,0,0,0-1.889h-1.3a.945.945,0,0,0,0,1.889Z" transform="translate(-107.939 -289.181)" fill="#12263f"/>
            <path id="Trazado_875218" data-name="Trazado 875218" d="M124.437,351.892a.945.945,0,0,0,0,1.889h4.747a.945.945,0,1,0,0-1.889Z" transform="translate(-107.939 -309.454)" fill="#12263f"/>
            <path id="Trazado_875219" data-name="Trazado 875219" d="M69.3,391.727l-1.338,1.339-.335-.335a.945.945,0,1,0-1.336,1.336l1,1a.945.945,0,0,0,1.336,0l2.006-2.006a.945.945,0,0,0-1.336-1.336Z" transform="translate(-57.697 -344.03)" fill="#12263f"/>
            <path id="Trazado_875220" data-name="Trazado 875220" d="M124.437,389.707h1.3a.945.945,0,1,0,0-1.889h-1.3a.945.945,0,0,0,0,1.889Z" transform="translate(-107.939 -340.856)" fill="#12263f"/>
            <path id="Trazado_875221" data-name="Trazado 875221" d="M129.185,411.013h-4.747a.945.945,0,0,0,0,1.889h4.747a.945.945,0,0,0,0-1.889Z" transform="translate(-107.94 -361.129)" fill="#12263f"/>
            <path id="Trazado_875222" data-name="Trazado 875222" d="M79.064,234.842l-3.341,3.341-.631-.631a2.536,2.536,0,0,0-1.805-.748h0a2.553,2.553,0,0,0-1.805,4.358l2.436,2.436a2.553,2.553,0,0,0,3.611,0l5.146-5.146a2.553,2.553,0,0,0-1.805-4.358h0A2.534,2.534,0,0,0,79.064,234.842Zm2.274,1.336a.664.664,0,0,1,0,.939l-5.146,5.146a.664.664,0,0,1-.939,0l-2.436-2.436a.664.664,0,0,1,.469-1.133h0a.66.66,0,0,1,.469.194l1.3,1.3a.945.945,0,0,0,1.336,0l4.01-4.009a.658.658,0,0,1,.469-.194h0A.66.66,0,0,1,81.338,236.178Z" transform="translate(-61.826 -206.492)" fill="#12263f"/>
            <path id="Trazado_875223" data-name="Trazado 875223" d="M134.749,52.335h-3.374a3.508,3.508,0,1,0,0,1.889h3.374a.945.945,0,1,0,0-1.889ZM128,54.9a1.619,1.619,0,1,1,1.312-2.563H128a.945.945,0,0,0,0,1.889h1.312A1.616,1.616,0,0,1,128,54.9Z" transform="translate(-108.811 -45.385)" fill="#12263f"/>
            <path id="Trazado_875224" data-name="Trazado 875224" d="M190.658,92.838H189.4a.945.945,0,0,0,0,1.889h1.259a.945.945,0,1,0,0-1.889Z" transform="translate(-164.719 -83.027)" fill="#12263f"/>
          </g>
        </g>
      </g>
    </g>
  </g>
</svg>
