<svg xmlns="http://www.w3.org/2000/svg" xmlns:xlink="http://www.w3.org/1999/xlink" width="124.011" height="125.273" viewBox="0 0 124.011 125.273">
  <defs>
    <filter id="Elipse_11501" x="0" y="0" width="124.011" height="125.273" filterUnits="userSpaceOnUse">
      <feOffset dy="3" input="SourceAlpha"/>
      <feGaussianBlur stdDeviation="3" result="blur"/>
      <feFlood flood-opacity="0.161"/>
      <feComposite operator="in" in2="blur"/>
      <feComposite in="SourceGraphic"/>
    </filter>
    <filter id="Elipse_11501-2" x="0" y="0" width="124.011" height="125.273" filterUnits="userSpaceOnUse">
      <feOffset dy="6" input="SourceAlpha"/>
      <feGaussianBlur stdDeviation="3" result="blur-2"/>
      <feFlood flood-opacity="0.161" result="color"/>
      <feComposite operator="out" in="SourceGraphic" in2="blur-2"/>
      <feComposite operator="in" in="color"/>
      <feComposite operator="in" in2="SourceGraphic"/>
    </filter>
  </defs>
  <g id="Grupo_1100998" data-name="Grupo 1100998" transform="translate(-781 -2170.565)">
    <g id="Grupo_1100204" data-name="Grupo 1100204" transform="translate(-131.333 1779.565)">
      <g id="Grupo_1099492" data-name="Grupo 1099492" transform="translate(921.333 397)">
        <g data-type="innerShadowGroup">
          <g transform="matrix(1, 0, 0, 1, -9, -6)" filter="url(#Elipse_11501)">
            <ellipse id="Elipse_11501-3" data-name="Elipse 11501" cx="53.005" cy="53.636" rx="53.005" ry="53.636" transform="translate(9 6)" fill="#a4a1c5"/>
          </g>
          <g transform="matrix(1, 0, 0, 1, -9, -6)" filter="url(#Elipse_11501-2)">
            <ellipse id="Elipse_11501-4" data-name="Elipse 11501" cx="53.005" cy="53.636" rx="53.005" ry="53.636" transform="translate(9 6)" fill="#fff"/>
          </g>
        </g>
        <g id="aprobacion-de-reclamo" transform="translate(21.121 21.636)">
          <g id="Grupo_1100963" data-name="Grupo 1100963">
            <path id="Trazado_885978" data-name="Trazado 885978" d="M7.54,63.5a5.113,5.113,0,0,1-5.11-5.11V7.89A5.113,5.113,0,0,1,7.54,2.78h6.87l.15-.23a4.541,4.541,0,0,1,.58-.73A4.48,4.48,0,0,1,18.33.49H31.35a4.56,4.56,0,0,1,3.78,2.05l.15.23h6.86a5.113,5.113,0,0,1,5.11,5.11V35.82l8.7-15.06a3.027,3.027,0,0,1,2.62-1.5,3.062,3.062,0,0,1,1.5.4,2.936,2.936,0,0,1,1.4,1.83,3.005,3.005,0,0,1-.3,2.29L47.25,47.89v10.5a5.113,5.113,0,0,1-5.11,5.11Zm0-59.72A4.11,4.11,0,0,0,3.43,7.89v50.5A4.11,4.11,0,0,0,7.54,62.5h34.6a4.11,4.11,0,0,0,4.11-4.11V48.87l-3.12,2.79v4.98a2.32,2.32,0,0,1-2.31,2.32H8.86a2.322,2.322,0,0,1-2.32-2.32v-47A2.322,2.322,0,0,1,8.86,7.32h5.52l-.26-.68a4.609,4.609,0,0,1-.31-1.62,5.035,5.035,0,0,1,.05-.67l.09-.57ZM8.86,8.32A1.319,1.319,0,0,0,7.54,9.64v47a1.319,1.319,0,0,0,1.32,1.32H40.82a1.317,1.317,0,0,0,1.31-1.32V52.55l-1.04.93a.507.507,0,0,1-.33.13.451.451,0,0,1-.25-.07.5.5,0,0,1-.24-.53l1.65-7.88a.471.471,0,0,1,.06-.15l.16-.28V9.64a1.317,1.317,0,0,0-1.31-1.32h-6.4l-.14.12a4.4,4.4,0,0,1-2.92,1.11H18.33a4.425,4.425,0,0,1-2.91-1.11l-.14-.12Zm32.7,43.4,4.35-3.89-3.16-1.82Zm17-31.46a2.033,2.033,0,0,0-1.75,1.01L43.08,45.05l3.49,2.01L60.3,23.28a2.012,2.012,0,0,0-.74-2.75,2.052,2.052,0,0,0-1-.27ZM35.82,4.35a4.913,4.913,0,0,1,.05.67,4.357,4.357,0,0,1-.31,1.62l-.26.68h5.52a2.32,2.32,0,0,1,2.31,2.32V42.97l3.12-5.41V7.89a4.11,4.11,0,0,0-4.11-4.11h-6.4ZM15.85,7.51a3.462,3.462,0,0,0,2.48,1.04H31.35a3.475,3.475,0,0,0,2.44-.99l.04-.03.07-.08.01-.02a3.494,3.494,0,0,0,.61-3.93l-.04-.11-.03-.01A3.53,3.53,0,0,0,31.34,1.5H18.33a3.528,3.528,0,0,0-2.49,1.03,3.3,3.3,0,0,0-.68.96,3.4,3.4,0,0,0-.35,1.53,3.5,3.5,0,0,0,.93,2.39l.03.05Z" fill="#12263f"/>
            <path id="Trazado_885979" data-name="Trazado 885979" d="M34.81,2.98l.19.3h.15l.17,1.15a3.685,3.685,0,0,1,.04.58A3.879,3.879,0,0,0,35,3.37V3.35l-.04-.09-.03-.06a.01.01,0,0,0-.01-.01l-.02-.05c-.03-.05-.06-.11-.09-.16m-20,.1a.467.467,0,0,0-.05.1l-.01.01-.04.09-.04.09v.01a3.814,3.814,0,0,0-.36,1.64,3.685,3.685,0,0,1,.04-.58l.17-1.15h.16ZM35,6.7l-.43,1.12h-.33l.09-.1A4,4,0,0,0,35,6.7m-20.32.01a4.129,4.129,0,0,0,.66,1l.01.01.1.1H15.1ZM2.93,7.89v50.5A4.618,4.618,0,0,0,7.54,63h34.6a4.618,4.618,0,0,0,4.61-4.61A4.618,4.618,0,0,1,42.14,63H7.54a4.618,4.618,0,0,1-4.61-4.61ZM18.32,9.05h0M7.04,9.64v47a1.827,1.827,0,0,0,1.82,1.82H40.82a1.818,1.818,0,0,0,1.81-1.82,1.818,1.818,0,0,1-1.81,1.82H8.86a1.827,1.827,0,0,1-1.82-1.82ZM59.58,19.98l.24.12.24.15a1.819,1.819,0,0,0-.23-.15c-.09-.04-.17-.08-.25-.12m-4.59,3.44L42.9,44.36l-.5.87.87.5,2.62,1.51.87.5.5-.87L59.4,25.85,46.88,47.53l-.13.23v-.01l-1.67,1.49-2.12,1.9-.33.3.39-.35,2.7-2.42,1.03-.92-1.2-.69-1.96-1.13-1.2-.69-.28,1.35-.49,2.33.77-3.69.09-.16.13-.23,1.87-3.23,2.12-3.67.13-.23,1.87-3.23ZM41.13,52.78l-.17.15-.21.19ZM31.35,0H18.33a4.985,4.985,0,0,0-3.55,1.47,4.844,4.844,0,0,0-.64.81H7.54A5.621,5.621,0,0,0,1.93,7.89v50.5A5.621,5.621,0,0,0,7.54,64h34.6a5.621,5.621,0,0,0,5.61-5.61V48.03L61.6,24.04a3.462,3.462,0,0,0,.35-2.67,3.419,3.419,0,0,0-1.64-2.13,3.458,3.458,0,0,0-1.75-.47,3.507,3.507,0,0,0-3.05,1.76L47.75,33.98V7.89a5.621,5.621,0,0,0-5.61-5.61H35.55A5.038,5.038,0,0,0,31.35,0ZM18.33,8.05a2.932,2.932,0,0,1-2.15-.92.01.01,0,0,1-.01-.01.01.01,0,0,0-.01-.01,2.964,2.964,0,0,1-.85-2.1,2.886,2.886,0,0,1,.3-1.3V3.7l.01-.01a2.758,2.758,0,0,1,.58-.81A3,3,0,0,1,18.33,2H31.35a3.024,3.024,0,0,1,2.72,1.71v.01a2.886,2.886,0,0,1,.3,1.3,2.982,2.982,0,0,1-.85,2.1c-.01.01-.02.03-.03.04s-.03.02-.05.04a3,3,0,0,1-2.1.85Zm17.7-1.23a4.963,4.963,0,0,0,.34-1.8,6,6,0,0,0-.05-.74h5.82a3.615,3.615,0,0,1,3.61,3.61V37.43L43.63,41.1V9.64a2.821,2.821,0,0,0-2.81-2.82ZM7.54,62a3.615,3.615,0,0,1-3.61-3.61V7.89A3.615,3.615,0,0,1,7.54,4.28h5.82a4.526,4.526,0,0,0-.05.74,4.963,4.963,0,0,0,.34,1.8H8.86A2.823,2.823,0,0,0,6.04,9.64v47a2.823,2.823,0,0,0,2.82,2.82H40.82a2.821,2.821,0,0,0,2.81-2.82V51.88l2.12-1.9v8.4a3.615,3.615,0,0,1-3.61,3.61H7.54ZM18.33,10.05H31.35A4.973,4.973,0,0,0,34.6,8.82h6.22a.815.815,0,0,1,.81.82V44.57l-.09.16a.977.977,0,0,0-.11.3l-1.65,7.88a.993.993,0,0,0,.48,1.07,1.009,1.009,0,0,0,.5.13,1.05,1.05,0,0,0,.67-.25l.21-.19v2.97a.815.815,0,0,1-.81.82H8.86a.824.824,0,0,1-.82-.82v-47a.824.824,0,0,1,.82-.82h6.23a4.98,4.98,0,0,0,3.24,1.23ZM46.39,46.38l-2.62-1.51L57.25,21.53a1.51,1.51,0,0,1,1.32-.76,1.514,1.514,0,0,1,1.46,1.12,1.493,1.493,0,0,1-.15,1.15Zm-4.03,3.96.74-3.55,1.96,1.13Z" fill="#12263f"/>
          </g>
          <g id="Grupo_1100964" data-name="Grupo 1100964">
            <path id="Trazado_885980" data-name="Trazado 885980" d="M14.14,20.4a2.766,2.766,0,0,1-3.09-2.92,2.988,2.988,0,0,1,3.24-3.14,4.848,4.848,0,0,1,1.09.12l-.07.27a3.691,3.691,0,0,0-.95-.11,2.562,2.562,0,0,0-2.69,2.77,2.551,2.551,0,0,0,2.7,2.74,4.579,4.579,0,0,0,.9-.09l.05.25a7.383,7.383,0,0,1-1.18.11Z" fill="#12263f"/>
            <path id="Trazado_885981" data-name="Trazado 885981" d="M14.29,13.83a3.494,3.494,0,0,0-3.74,3.64,3.256,3.256,0,0,0,3.59,3.42,4.525,4.525,0,0,0,1.76-.29l-.23-1.21a3.935,3.935,0,0,1-1.29.22,2.05,2.05,0,0,1-2.2-2.24,2.069,2.069,0,0,1,2.19-2.27,3.362,3.362,0,0,1,1.3.25l.31-1.23a4.575,4.575,0,0,0-1.69-.29Z" fill="#12263f"/>
          </g>
          <g id="Grupo_1100965" data-name="Grupo 1100965">
            <path id="Trazado_885982" data-name="Trazado 885982" d="M17.41,20.29V14.44h.55v5.55h2.73v.3Z" fill="#12263f"/>
            <path id="Trazado_885983" data-name="Trazado 885983" d="M18.46,13.94H16.91v6.85h4.28v-1.3H18.46Z" fill="#12263f"/>
          </g>
          <g id="Grupo_1100966" data-name="Grupo 1100966">
            <path id="Trazado_885984" data-name="Trazado 885984" d="M26.62,20.29l-.53-1.76H23.38l-.49,1.76h-.55l1.79-5.85h1.29l1.81,5.85Zm-2.41-5.31c-.04.17-.08.35-.13.54-.06.26-.12.54-.18.76l-.58,2.09h2.84l-.62-2.09c-.1-.34-.2-.74-.29-1.1l-.14-.58h-.78Z" fill="#12263f"/>
            <path id="Trazado_885985" data-name="Trazado 885985" d="M25.79,13.94H23.76l-2.09,6.85h1.61l.49-1.76h1.96l.53,1.76h1.67Zm-1.81,3.94.41-1.45c.11-.4.21-.91.31-1.32h.02c.1.41.22.91.35,1.32l.43,1.45Z" fill="#12263f"/>
          </g>
          <g id="Grupo_1100967" data-name="Grupo 1100967">
            <path id="Trazado_885986" data-name="Trazado 885986" d="M29.32,14.44h.55v5.85h-.55Z" fill="#12263f"/>
            <path id="Trazado_885987" data-name="Trazado 885987" d="M30.38,13.94H28.82v6.85h1.56Z" fill="#12263f"/>
          </g>
          <g id="Grupo_1100968" data-name="Grupo 1100968">
            <path id="Trazado_885988" data-name="Trazado 885988" d="M38.09,20.29l-.08-2.14c-.03-.82-.06-1.81-.06-2.79v-.5h-.89l-.12.38c-.2.82-.48,1.78-.75,2.62l-.73,2.33H35l-.63-2.29c-.24-.87-.46-1.82-.61-2.63l-.08-.41h-.9l-.04.48-.04,1.03c-.02.62-.05,1.25-.08,1.8l-.1,2.13H32.1l.37-5.85h1.22l.57,1.93c.26.96.44,1.72.57,2.4l.08.41h.81l.12-.38c.19-.78.42-1.68.64-2.44l.62-1.92h1.18l.32,5.85h-.51Z" fill="#12263f"/>
            <path id="Trazado_885989" data-name="Trazado 885989" d="M38.75,13.94H36.73L36,16.22c-.22.76-.46,1.67-.65,2.46h-.03c-.15-.8-.37-1.66-.58-2.45l-.67-2.29H32l-.44,6.85H33l.12-2.6c.05-.85.08-1.91.12-2.83h.02c.16.89.4,1.87.62,2.67l.73,2.65h1.21l.83-2.67c.26-.8.55-1.78.76-2.65h.03c0,1,.03,1.99.06,2.81l.1,2.62h1.51Z" fill="#12263f"/>
          </g>
          <g id="Grupo_1100969" data-name="Grupo 1100969">
            <path id="Trazado_885990" data-name="Trazado 885990" d="M11.48,25.85a.5.5,0,0,1,0-1H23.97a.5.5,0,0,1,0,1Z" fill="#12263f"/>
            <path id="Trazado_885991" data-name="Trazado 885991" d="M23.98,24.35H11.48a1,1,0,0,0,0,2H23.97a1,1,0,0,0,.01-2Z" fill="#12263f"/>
          </g>
          <g id="Grupo_1100970" data-name="Grupo 1100970">
            <path id="Trazado_885992" data-name="Trazado 885992" d="M27.91,25.85a.5.5,0,0,1,0-1H39.12a.5.5,0,0,1,0,1Z" fill="#12263f"/>
            <path id="Trazado_885993" data-name="Trazado 885993" d="M39.13,24.35H27.91a1,1,0,0,0,0,2H39.12a1,1,0,0,0,.01-2Z" fill="#12263f"/>
          </g>
          <g id="Grupo_1100971" data-name="Grupo 1100971">
            <path id="Trazado_885994" data-name="Trazado 885994" d="M11.48,31.08a.5.5,0,0,1,0-1h6.25a.5.5,0,0,1,0,1Z" fill="#12263f"/>
            <path id="Trazado_885995" data-name="Trazado 885995" d="M17.73,29.58H11.48a1,1,0,0,0,0,2h6.25a1,1,0,0,0,0-2Z" fill="#12263f"/>
          </g>
          <g id="Grupo_1100972" data-name="Grupo 1100972">
            <path id="Trazado_885996" data-name="Trazado 885996" d="M21.66,31.08a.5.5,0,0,1,0-1H39.12a.5.5,0,0,1,0,1Z" fill="#12263f"/>
            <path id="Trazado_885997" data-name="Trazado 885997" d="M39.13,29.58H21.66a1,1,0,0,0,0,2H39.12a1,1,0,0,0,.01-2Z" fill="#12263f"/>
          </g>
          <g id="Grupo_1100973" data-name="Grupo 1100973">
            <path id="Trazado_885998" data-name="Trazado 885998" d="M11.48,37.12a.5.5,0,1,1,0-1H23.97a.5.5,0,0,1,0,1Z" fill="#12263f"/>
            <path id="Trazado_885999" data-name="Trazado 885999" d="M23.98,35.62H11.48a1,1,0,1,0,0,2H23.97a1,1,0,0,0,.01-2Z" fill="#12263f"/>
          </g>
          <g id="Grupo_1100974" data-name="Grupo 1100974">
            <path id="Trazado_886000" data-name="Trazado 886000" d="M27.91,37.12a.5.5,0,1,1,0-1H39.12a.5.5,0,0,1,0,1Z" fill="#12263f"/>
            <path id="Trazado_886001" data-name="Trazado 886001" d="M39.13,35.62H27.91a1,1,0,1,0,0,2H39.12a1,1,0,0,0,.01-2Z" fill="#12263f"/>
          </g>
          <g id="Grupo_1100975" data-name="Grupo 1100975">
            <path id="Trazado_886002" data-name="Trazado 886002" d="M21.66,42.34a.5.5,0,0,1,0-1H39.12a.5.5,0,0,1,0,1Z" fill="#12263f"/>
            <path id="Trazado_886003" data-name="Trazado 886003" d="M39.13,40.84H21.66a1,1,0,0,0,0,2H39.12a1,1,0,0,0,.01-2Z" fill="#12263f"/>
          </g>
          <g id="Grupo_1100976" data-name="Grupo 1100976">
            <path id="Trazado_886004" data-name="Trazado 886004" d="M15.25,55.05a.5.5,0,0,1-.5-.5v-.79l-.36-.1a3.228,3.228,0,0,1-2.35-3.08.5.5,0,0,1,1,0,2.21,2.21,0,1,0,2.21-2.21,3.2,3.2,0,0,1-.86-6.29l.36-.1v-.79a.5.5,0,0,1,1,0v.79l.36.1a3.228,3.228,0,0,1,2.35,3.08.5.5,0,0,1-1,0,2.21,2.21,0,1,0-2.21,2.21,3.2,3.2,0,0,1,.86,6.29l-.36.1v.79a.5.5,0,0,1-.5.5Z" fill="#12263f"/>
            <path id="Trazado_886005" data-name="Trazado 886005" d="M15.25,41.18v1.17l.44.13a3.128,3.128,0,0,0-.44-.04,2.119,2.119,0,0,0-.44.04l.44-.13V41.18Zm-2.71,3.96h0m5.43,0h0m-5.43.01a2.712,2.712,0,0,0,2.71,2.71,2.719,2.719,0,0,1,2.71,2.71,2.712,2.712,0,0,0-2.71-2.71,2.712,2.712,0,0,1-2.71-2.71m3.16,8.11-.44.13v0l-.44-.13a3.128,3.128,0,0,0,.44.04,3.27,3.27,0,0,0,.44-.04m-.45-13.08a1,1,0,0,0-1,1v.41a3.7,3.7,0,0,0,1,7.27,1.71,1.71,0,1,1-1.71,1.71,1,1,0,0,0-2,0,3.7,3.7,0,0,0,2.71,3.56v.41a1,1,0,0,0,2,0v-.41a3.7,3.7,0,0,0-1-7.27,1.71,1.71,0,1,1,1.71-1.71,1,1,0,0,0,2,0,3.7,3.7,0,0,0-2.71-3.56v-.41a1,1,0,0,0-1-1Z" fill="#12263f"/>
          </g>
          <g id="Grupo_1100977" data-name="Grupo 1100977">
            <path id="Trazado_886006" data-name="Trazado 886006" d="M27.29,54.67a1.474,1.474,0,0,1-.97-.32c-1.56-1.21-.3-5.34.12-6.58a.5.5,0,0,1,.64-.31.49.49,0,0,1,.28.25.458.458,0,0,1,.02.38c-.63,1.85-1.2,4.75-.5,5.43l.14.13.2.01a3.75,3.75,0,0,0,1.93-.79,11.752,11.752,0,0,0,1.77-1.81c1.5-1.74,3.37-3.91,5.4-3.91a1.77,1.77,0,0,1,.23.01,4.081,4.081,0,0,1,2.99,2.29.5.5,0,0,1-.17.69.484.484,0,0,1-.26.07.5.5,0,0,1-.43-.24c-.69-1.14-1.43-1.75-2.21-1.81-.05,0-.1-.01-.15-.01-1.45,0-3.02,1.68-4.64,3.56a11.293,11.293,0,0,1-1.98,2,4.832,4.832,0,0,1-2.41.96Z" fill="#12263f"/>
            <path id="Trazado_886007" data-name="Trazado 886007" d="M36.46,47.66h.07a2.082,2.082,0,0,1,.55.12,2.71,2.71,0,0,0-.55-.12h-.07m-9.54.27a16.89,16.89,0,0,0-.85,4.18,13.966,13.966,0,0,1,.85-4.18m7.07.72a20.638,20.638,0,0,0-2.68,2.74,19.243,19.243,0,0,1-1.48,1.6,20.281,20.281,0,0,0,1.48-1.6,21.7,21.7,0,0,1,2.68-2.74m-4.64,4.7a5.429,5.429,0,0,1-1.6.76,5.493,5.493,0,0,0,1.6-.76m6.99-6.69c-2.25,0-4.2,2.25-5.78,4.08a11.581,11.581,0,0,1-1.66,1.72,3.316,3.316,0,0,1-1.61.71h-.04c-.36-.35-.16-2.61.62-4.91a1,1,0,0,0-.62-1.27.927.927,0,0,0-.32-.05,1.006,1.006,0,0,0-.95.68c-.58,1.69-1.73,5.76.04,7.14a1.989,1.989,0,0,0,1.28.42A5.541,5.541,0,0,0,30,54.15a12,12,0,0,0,2.08-2.09c1.24-1.44,2.94-3.39,4.26-3.39h.11c.61.05,1.23.58,1.83,1.57a1,1,0,0,0,.86.48,1.067,1.067,0,0,0,.52-.14A1.006,1.006,0,0,0,40,49.21a4.545,4.545,0,0,0-3.37-2.53,1.515,1.515,0,0,0-.29-.02Z" fill="#12263f"/>
          </g>
        </g>
      </g>
    </g>
  </g>
</svg>
